<svg id="more_1_" data-name="more (1)" xmlns="http://www.w3.org/2000/svg" width="13.665" height="13.665" viewBox="0 0 13.665 13.665">
  <g id="Group_1312" data-name="Group 1312">
    <g id="Group_1311" data-name="Group 1311">
      <path id="Path_560" data-name="Path 560" d="M6.833,0a6.833,6.833,0,1,0,6.833,6.833A6.829,6.829,0,0,0,6.833,0Zm0,12.754a5.922,5.922,0,1,1,5.922-5.922A5.928,5.928,0,0,1,6.833,12.754Z" fill="#305671"/>
    </g>
  </g>
  <g id="Group_1314" data-name="Group 1314" transform="translate(3.299 3.299)">
    <g id="Group_1313" data-name="Group 1313">
      <path id="Path_561" data-name="Path 561" d="M130.2,126.666h-2.623v-2.623a.456.456,0,1,0-.911,0v2.623h-2.623a.456.456,0,0,0,0,.911h2.623V130.2a.456.456,0,0,0,.911,0v-2.623H130.2a.456.456,0,0,0,0-.911Z" transform="translate(-123.588 -123.588)" fill="#305671"/>
    </g>
  </g>
</svg>
