<svg width="36" height="36" viewBox="0 0 36 36" fill="none" xmlns="http://www.w3.org/2000/svg">
<path d="M30.375 4.5H29.25V3.375C29.25 2.7 28.8 2.25 28.125 2.25C27.45 2.25 27 2.7 27 3.375V4.5H22.5V3.375C22.5 2.7 22.05 2.25 21.375 2.25C20.7 2.25 20.25 2.7 20.25 3.375V4.5H15.75V3.375C15.75 2.7 15.3 2.25 14.625 2.25C13.95 2.25 13.5 2.7 13.5 3.375V4.5H9V3.375C9 2.7 8.55 2.25 7.875 2.25C7.2 2.25 6.75 2.7 6.75 3.375V4.5H5.625C3.7125 4.5 2.25 5.9625 2.25 7.875V11.25H33.75V7.875C33.75 5.9625 32.2875 4.5 30.375 4.5ZM24.75 9H11.25C10.575 9 10.125 8.55 10.125 7.875C10.125 7.2 10.575 6.75 11.25 6.75H24.75C25.425 6.75 25.875 7.2 25.875 7.875C25.875 8.55 25.425 9 24.75 9ZM2.25 13.5V30.375C2.25 32.2875 3.7125 33.75 5.625 33.75H30.375C32.2875 33.75 33.75 32.2875 33.75 30.375V13.5H2.25ZM20.25 30.375H15.75C13.8375 30.375 12.375 28.9125 12.375 27V25.2L12.0375 25.5375C11.8125 25.7625 11.5875 25.875 11.25 25.875C10.9125 25.875 10.6875 25.7625 10.4625 25.5375C10.0125 25.0875 10.0125 24.4125 10.4625 23.9625L12.7125 21.7125C12.825 21.6 12.9375 21.4875 13.05 21.4875C13.275 21.375 13.6125 21.375 13.95 21.4875C14.0625 21.6 14.175 21.6 14.2875 21.7125L16.5375 23.9625C16.9875 24.4125 16.9875 25.0875 16.5375 25.5375C16.3125 25.7625 16.0875 25.875 15.75 25.875C15.4125 25.875 15.1875 25.7625 14.9625 25.5375L14.625 25.2V27C14.625 27.675 15.075 28.125 15.75 28.125H20.25C20.925 28.125 21.375 28.575 21.375 29.25C21.375 29.925 20.925 30.375 20.25 30.375ZM25.5375 23.2875L23.2875 25.5375C23.175 25.65 23.0625 25.7625 22.95 25.7625C22.8375 25.875 22.6125 25.875 22.5 25.875C22.3875 25.875 22.1625 25.875 22.05 25.7625C21.9375 25.65 21.825 25.65 21.7125 25.5375L19.4625 23.2875C19.0125 22.8375 19.0125 22.1625 19.4625 21.7125C19.9125 21.2625 20.5875 21.2625 21.0375 21.7125L21.375 22.05V20.25C21.375 19.575 20.925 19.125 20.25 19.125H15.75C15.075 19.125 14.625 18.675 14.625 18C14.625 17.325 15.075 16.875 15.75 16.875H20.25C22.1625 16.875 23.625 18.3375 23.625 20.25V22.05L23.9625 21.7125C24.4125 21.2625 25.0875 21.2625 25.5375 21.7125C25.9875 22.1625 25.9875 22.8375 25.5375 23.2875Z" fill="#305671"/>
</svg>
