<svg width="41" height="41" viewBox="0 0 41 41" fill="none" xmlns="http://www.w3.org/2000/svg">
<path d="M20.5 41C31.8218 41 41 31.8218 41 20.5C41 9.17816 31.8218 0 20.5 0C9.17816 0 0 9.17816 0 20.5C0 31.8218 9.17816 41 20.5 41Z" fill="#6AAAD9"/>
<path d="M20.212 18.6862C22.0396 18.6862 23.5212 17.2225 23.5212 15.4168C23.5212 13.6112 22.0396 12.1475 20.212 12.1475C18.3844 12.1475 16.9028 13.6112 16.9028 15.4168C16.9028 17.2225 18.3844 18.6862 20.212 18.6862Z" fill="white"/>
<path d="M26.8292 18.6864C27.9575 18.6864 28.8722 17.7469 28.8722 16.5879C28.8722 15.4288 27.9575 14.4893 26.8292 14.4893C25.7008 14.4893 24.7861 15.4288 24.7861 16.5879C24.7861 17.7469 25.7008 18.6864 26.8292 18.6864Z" fill="white"/>
<path d="M13.5462 18.6864C14.7021 18.6864 15.6392 17.7469 15.6392 16.5879C15.6392 15.4288 14.7021 14.4893 13.5462 14.4893C12.3902 14.4893 11.4531 15.4288 11.4531 16.5879C11.4531 17.7469 12.3902 18.6864 13.5462 18.6864Z" fill="white"/>
<path d="M15.6009 20.5586C14.8778 20.0403 13.9789 19.8311 13.102 19.977C12.4252 19.9754 11.7754 20.2431 11.2952 20.7214C10.8151 21.1997 10.5438 21.8495 10.541 22.5281V26.657C10.5422 26.951 10.6595 27.2325 10.8673 27.44C11.0751 27.6475 11.3564 27.764 11.6496 27.764C14.2894 27.764 13.9713 27.8126 13.9713 27.6501C13.9729 24.7254 13.626 22.5798 15.6009 20.5586Z" fill="white"/>
<path d="M21.0925 19.9917C20.3412 19.8588 19.5706 19.8811 18.8281 20.0574C18.0857 20.2337 17.3869 20.5601 16.7747 21.0167C14.7059 22.6779 15.1088 24.9147 15.1088 27.6511C15.1092 28.0021 15.2485 28.3387 15.496 28.5869C15.7436 28.8352 16.0793 28.9748 16.4294 28.9752C24.3881 28.9752 24.7046 29.2334 25.1771 28.1841C25.3286 27.8303 25.2892 27.9426 25.2892 24.5518C25.2863 23.404 24.854 22.2992 24.0778 21.4556C23.3015 20.6121 22.2379 20.0913 21.0971 19.9962L21.0925 19.9917Z" fill="white"/>
<path d="M27.285 19.9771C26.8508 19.9047 26.4066 19.9189 25.9779 20.0187C25.5491 20.1185 25.1442 20.3019 24.7861 20.5587C26.7459 22.5646 26.4142 24.563 26.4142 27.6502C26.4142 27.8127 26.1507 27.7641 28.6965 27.7641C29.0002 27.7641 29.2916 27.6434 29.5067 27.4285C29.7219 27.2136 29.8433 26.922 29.8445 26.6176V22.5282C29.8417 21.8498 29.5707 21.2003 29.0908 20.722C28.611 20.2438 27.9616 19.9759 27.285 19.9771Z" fill="white"/>
</svg>
