<svg width="70" height="70" viewBox="0 0 70 70" fill="none" xmlns="http://www.w3.org/2000/svg">
<path d="M35 70C54.33 70 70 54.33 70 35C70 15.67 54.33 0 35 0C15.67 0 0 15.67 0 35C0 54.33 15.67 70 35 70Z" fill="white"/>
<path d="M35 69.5C54.0538 69.5 69.5 54.0538 69.5 35C69.5 15.9462 54.0538 0.5 35 0.5C15.9462 0.5 0.5 15.9462 0.5 35C0.5 54.0538 15.9462 69.5 35 69.5Z" stroke="#9BAEBC"/>
<path d="M50.25 48.9897H21.5V26.1899H27.4502V22.7134C27.4507 22.4519 27.5547 22.2009 27.7397 22.0161C27.9248 21.8313 28.1755 21.7273 28.437 21.7271C28.699 21.7268 28.9501 21.8303 29.1357 22.0151C29.3213 22.2 29.426 22.4514 29.4268 22.7134V26.1899H42.3271V22.7134C42.3274 22.452 42.4314 22.201 42.6162 22.0161C42.8011 21.8313 43.0516 21.7273 43.313 21.7271C43.5745 21.7273 43.8252 21.8313 44.0103 22.0161C44.1953 22.2009 44.2993 22.4519 44.2998 22.7134V26.1899H50.25V48.9897ZM23.4731 28.1636V47.0132H48.2729V28.1636H23.4731ZM34.833 41.6274L30.5439 37.3384L31.6211 36.2563L34.833 39.4565L40.1328 34.1606L41.2139 35.2378L34.8379 41.6274H34.833Z" fill="#305671"/>
</svg>
