<svg width="30" height="28" viewBox="0 0 30 28" fill="none" xmlns="http://www.w3.org/2000/svg">
<path d="M29.25 27.9893H0.5V5.18945H6.4502V1.71289C6.45072 1.45138 6.55473 1.20045 6.73975 1.01563C6.92476 0.830801 7.1755 0.726827 7.43701 0.726563C7.69897 0.726297 7.95014 0.829795 8.13574 1.01465C8.32135 1.1995 8.42596 1.45094 8.42676 1.71289V5.18945H21.3271V1.71289C21.3274 1.45147 21.4314 1.20048 21.6162 1.01563C21.8011 0.830772 22.0516 0.726828 22.313 0.726563C22.5745 0.726827 22.8252 0.830801 23.0103 1.01563C23.1953 1.20045 23.2993 1.45138 23.2998 1.71289V5.18945H29.25V27.9893ZM2.47314 7.16309V26.0127H27.2729V7.16309H2.47314ZM13.833 20.627L9.54395 16.3379L10.6211 15.2559L13.833 18.4561L19.1328 13.1602L20.2139 14.2373L13.8379 20.627H13.833Z" fill="#305671"/>
</svg>
