<svg xmlns="http://www.w3.org/2000/svg" width="4.677" height="7.918" viewBox="0 0 4.677 7.918">
  <g id="down-arrow" transform="translate(105.375) rotate(90)">
    <g id="Group_1305" data-name="Group 1305" transform="translate(0 100.698)">
      <path id="Path_557" data-name="Path 557" d="M7.791,101.089l-.259-.261a.434.434,0,0,0-.613,0l-2.959,2.959L1,100.824a.434.434,0,0,0-.613,0l-.259.26a.434.434,0,0,0,0,.613l3.527,3.539a.443.443,0,0,0,.307.139h0a.443.443,0,0,0,.306-.139l3.523-3.53a.437.437,0,0,0,.127-.309A.433.433,0,0,0,7.791,101.089Z" transform="translate(0 -100.698)" fill="#ed707a"/>
    </g>
  </g>
</svg>
