<svg width="19" height="13" viewBox="0 0 19 13" fill="none" xmlns="http://www.w3.org/2000/svg">
<path d="M9.69072 0.848297C7.93553 0.8267 6.21713 1.35192 4.77393 2.35108C3.33073 3.35025 2.23429 4.77382 1.63672 6.4243C2.23429 8.07477 3.33073 9.49834 4.77393 10.4975C6.21713 11.4967 7.93553 12.0219 9.69072 12.0003C11.4459 12.0219 13.1643 11.4967 14.6075 10.4975C16.0507 9.49834 17.1471 8.07477 17.7447 6.4243C17.1471 4.77382 16.0507 3.35025 14.6075 2.35108C13.1643 1.35192 11.4459 0.8267 9.69072 0.848297V0.848297Z" stroke="#305671" stroke-width="1.5" stroke-miterlimit="10" stroke-linecap="round" stroke-linejoin="round"/>
<path d="M9.88589 9.46319C11.6383 9.46319 13.0589 8.04259 13.0589 6.29019C13.0589 4.53779 11.6383 3.11719 9.88589 3.11719C8.13349 3.11719 6.71289 4.53779 6.71289 6.29019C6.71289 8.04259 8.13349 9.46319 9.88589 9.46319Z" stroke="#305671" stroke-width="1.5" stroke-miterlimit="10" stroke-linecap="round" stroke-linejoin="round"/>
</svg>
