<svg width="44" height="44" viewBox="0 0 44 44" fill="none" xmlns="http://www.w3.org/2000/svg">
<path d="M34 0H10C4.47715 0 0 4.47715 0 10V34C0 39.5228 4.47715 44 10 44H34C39.5228 44 44 39.5228 44 34V10C44 4.47715 39.5228 0 34 0Z" fill="#6C22B5"/>
<path d="M24 25H29" stroke="#C9AAE8" stroke-width="1.5" stroke-miterlimit="10" stroke-linejoin="round"/>
<path d="M27 30C29.7614 30 32 27.7614 32 25C32 22.2386 29.7614 20 27 20C24.2386 20 22 22.2386 22 25C22 27.7614 24.2386 30 27 30Z" stroke="#C9AAE8" stroke-width="1.5" stroke-miterlimit="10" stroke-linejoin="round"/>
<path d="M26.5977 27.3673L28.7737 25.2623L26.5977 23.1562" stroke="#C9AAE8" stroke-width="1.5" stroke-miterlimit="10" stroke-linejoin="round"/>
<path d="M28.072 20.8422V14.0352H13.334V28.7732C15.7985 26.7688 18.6738 25.3312 21.756 24.5622" stroke="#C9AAE8" stroke-width="1.5" stroke-miterlimit="10" stroke-linejoin="round"/>
<path d="M18 18H22" stroke="#C9AAE8" stroke-width="1.5" stroke-miterlimit="10" stroke-linecap="round" stroke-linejoin="round"/>
<path d="M18 21H20" stroke="#C9AAE8" stroke-width="1.5" stroke-miterlimit="10" stroke-linecap="round" stroke-linejoin="round"/>
</svg>
