<svg width="44" height="44" viewBox="0 0 44 44" fill="none" xmlns="http://www.w3.org/2000/svg">
<path d="M29.042 8.69007e-08C29.6987 -0.000122335 30.3489 0.129103 30.9556 0.380298C31.5623 0.631492 32.1136 0.999736 32.578 1.464L42.536 11.422C43.0003 11.8864 43.3685 12.4377 43.6197 13.0444C43.8709 13.6511 44.0001 14.3013 44 14.958V29.042C44.0001 29.6987 43.8709 30.3489 43.6197 30.9556C43.3685 31.5623 43.0003 32.1136 42.536 32.578L32.578 42.536C32.1136 43.0003 31.5623 43.3685 30.9556 43.6197C30.3489 43.8709 29.6987 44.0001 29.042 44H14.958C14.3013 44.0001 13.6511 43.8709 13.0444 43.6197C12.4377 43.3685 11.8864 43.0003 11.422 42.536L1.464 32.577C0.52662 31.6394 1.80521e-05 30.3678 8.69007e-08 29.042V14.958C-0.000122335 14.3013 0.129103 13.6511 0.380298 13.0444C0.631492 12.4377 0.999736 11.8864 1.464 11.422L11.422 1.464C11.8864 0.999736 12.4377 0.631492 13.0444 0.380298C13.6511 0.129103 14.3013 -0.000122335 14.958 8.69007e-08H29.042Z" fill="#305671"/>
<path d="M13.5678 16.518L20.0168 24.018V29.966L23.9828 27.33V24.03L30.4318 16.53C30.5179 16.4338 30.5739 16.3145 30.5929 16.1868C30.6119 16.0591 30.5931 15.9287 30.5387 15.8116C30.4843 15.6946 30.3968 15.596 30.287 15.5282C30.1771 15.4603 30.0498 15.4262 29.9208 15.43H14.0788C13.952 15.4283 13.8274 15.4632 13.72 15.5305C13.6125 15.5978 13.5267 15.6946 13.4728 15.8093C13.4189 15.9241 13.3992 16.052 13.416 16.1776C13.4329 16.3033 13.4856 16.4215 13.5678 16.518V16.518Z" stroke="#93AFC3" stroke-width="1.5" stroke-miterlimit="10" stroke-linecap="round" stroke-linejoin="round"/>
</svg>
