<svg width="44" height="44" viewBox="0 0 44 44" fill="none" xmlns="http://www.w3.org/2000/svg">
<path d="M22 44C34.1503 44 44 34.1503 44 22C44 9.84974 34.1503 0 22 0C9.84974 0 0 9.84974 0 22C0 34.1503 9.84974 44 22 44Z" fill="#5570C9"/>
<path d="M29.249 27.071V18.414C29.2196 17.7759 28.939 17.1754 28.4683 16.7435C27.9977 16.3116 27.3752 16.0835 26.737 16.109H26.049V15.971C26.0199 15.3328 25.7393 14.7321 25.2686 14.3002C24.7979 13.8683 24.1753 13.6403 23.537 13.666H16.18C15.5417 13.6405 14.9193 13.8686 14.4486 14.3005C13.978 14.7324 13.6973 15.3329 13.668 15.971V24.628C13.6973 25.2661 13.978 25.8667 14.4486 26.2986C14.9193 26.7305 15.5417 26.9585 16.18 26.933H16.868V27.071C16.8986 27.7082 17.1798 28.3075 17.6503 28.7384C18.1208 29.1692 18.7425 29.3966 19.38 29.371H26.738C27.3753 29.3966 27.9969 29.1691 28.4673 28.7383C28.9376 28.3075 29.2186 27.7082 29.249 27.071ZM25.808 28.62H19.378C18.9485 28.6379 18.5294 28.4848 18.2127 28.1943C17.8959 27.9037 17.7072 27.4995 17.688 27.07V18.414C17.7072 17.9846 17.8959 17.5803 18.2127 17.2898C18.5294 16.9992 18.9485 16.8461 19.378 16.864H26.736C27.1654 16.8461 27.5845 16.9992 27.9013 17.2898C28.2181 17.5803 28.4068 17.9846 28.426 18.414V27.071C28.4068 27.5005 28.2181 27.9047 27.9013 28.1953C27.5845 28.4858 27.1654 28.6389 26.736 28.621H25.808V28.62Z" fill="#E5EBFF"/>
<path d="M19.0985 19.8689H25.6365C25.7232 19.8689 25.8064 19.8344 25.8677 19.7731C25.929 19.7117 25.9635 19.6286 25.9635 19.5419C25.9635 19.4551 25.929 19.3719 25.8677 19.3106C25.8064 19.2493 25.7232 19.2148 25.6365 19.2148H19.0985C19.0118 19.2148 18.9286 19.2493 18.8672 19.3106C18.8059 19.3719 18.7715 19.4551 18.7715 19.5419C18.7715 19.6286 18.8059 19.7117 18.8672 19.7731C18.9286 19.8344 19.0118 19.8689 19.0985 19.8689Z" fill="#E5EBFF"/>
<path d="M20.1309 21.7606C20.1309 21.8473 20.1653 21.9305 20.2266 21.9918C20.2879 22.0531 20.3711 22.0876 20.4579 22.0876H26.5849C26.6278 22.0876 26.6703 22.0791 26.71 22.0627C26.7497 22.0463 26.7857 22.0222 26.8161 21.9918C26.8464 21.9615 26.8705 21.9254 26.887 21.8857C26.9034 21.8461 26.9118 21.8035 26.9118 21.7606C26.9118 21.7177 26.9034 21.6751 26.887 21.6355C26.8705 21.5958 26.8464 21.5597 26.8161 21.5294C26.7857 21.499 26.7497 21.4749 26.71 21.4585C26.6703 21.4421 26.6278 21.4336 26.5849 21.4336H20.4588C20.4158 21.4335 20.3732 21.4418 20.3334 21.4582C20.2936 21.4746 20.2575 21.4986 20.227 21.529C20.1965 21.5594 20.1723 21.5955 20.1558 21.6352C20.1393 21.675 20.1309 21.7176 20.1309 21.7606Z" fill="#E5EBFF"/>
<path d="M25.1655 23.9832C25.1655 23.8965 25.1311 23.8134 25.0698 23.752C25.0084 23.6907 24.9253 23.6562 24.8385 23.6562H19.0965C19.0098 23.6562 18.9266 23.6907 18.8653 23.752C18.804 23.8134 18.7695 23.8965 18.7695 23.9832C18.7695 24.07 18.804 24.1532 18.8653 24.2145C18.9266 24.2758 19.0098 24.3103 19.0965 24.3103H24.8385C24.9253 24.3103 25.0084 24.2758 25.0698 24.2145C25.1311 24.1532 25.1655 24.07 25.1655 23.9832Z" fill="#E5EBFF"/>
<path d="M26.912 26.202C26.912 26.1153 26.8775 26.0321 26.8162 25.9708C26.7549 25.9094 26.6717 25.875 26.585 25.875H21.2039C21.1172 25.875 21.0341 25.9094 20.9727 25.9708C20.9114 26.0321 20.877 26.1153 20.877 26.202C20.877 26.2887 20.9114 26.3719 20.9727 26.4332C21.0341 26.4946 21.1172 26.529 21.2039 26.529H26.584C26.627 26.5291 26.6696 26.5208 26.7094 26.5044C26.7492 26.488 26.7854 26.4639 26.8158 26.4336C26.8463 26.4032 26.8705 26.3671 26.887 26.3274C26.9035 26.2876 26.912 26.245 26.912 26.202Z" fill="#E5EBFF"/>
</svg>
