<svg width="20" height="20" viewBox="0 0 20 20" fill="none" xmlns="http://www.w3.org/2000/svg">
<path d="M18.1987 17.1429H1.80112C1.70229 17.1429 1.6075 17.1019 1.53761 17.0291C1.46773 16.9562 1.42847 16.8573 1.42847 16.7543C1.42847 16.6512 1.46773 16.5524 1.53761 16.4795C1.6075 16.4066 1.70229 16.3657 1.80112 16.3657H18.1987C18.2975 16.3657 18.3923 16.4066 18.4622 16.4795C18.5321 16.5524 18.5713 16.6512 18.5713 16.7543C18.5713 16.8573 18.5321 16.9562 18.4622 17.0291C18.3923 17.1019 18.2975 17.1429 18.1987 17.1429ZM7.01827 13.257C7.11711 13.257 7.21189 13.2979 7.28178 13.3708C7.35167 13.4437 7.39093 13.5425 7.39093 13.6456C7.39093 13.7486 7.35167 13.8475 7.28178 13.9203C7.21189 13.9932 7.11711 14.0342 7.01827 14.0342H4.03704C3.93821 14.0342 3.84342 13.9932 3.77354 13.9203C3.70365 13.8475 3.66439 13.7486 3.66439 13.6456C3.66439 13.5425 3.70365 13.4437 3.77354 13.3708C3.84342 13.2979 3.93821 13.257 4.03704 13.257H4.4097V8.20532H4.03704C3.98811 8.20532 3.93965 8.19527 3.89444 8.17574C3.84922 8.15622 3.80814 8.12759 3.77354 8.09151C3.73893 8.05542 3.71148 8.01259 3.69276 7.96544C3.67403 7.9183 3.66439 7.86776 3.66439 7.81673C3.66439 7.7657 3.67403 7.71517 3.69276 7.66803C3.71148 7.62088 3.73893 7.57804 3.77354 7.54196C3.80814 7.50588 3.84922 7.47725 3.89444 7.45773C3.93965 7.4382 3.98811 7.42815 4.03704 7.42815H7.01827C7.06721 7.42815 7.11567 7.4382 7.16088 7.45773C7.2061 7.47725 7.24718 7.50588 7.28178 7.54196C7.31639 7.57804 7.34383 7.62088 7.36256 7.66803C7.38129 7.71517 7.39093 7.7657 7.39093 7.81673C7.39093 7.86776 7.38129 7.9183 7.36256 7.96544C7.34383 8.01259 7.31639 8.05542 7.28178 8.09151C7.24718 8.12759 7.2061 8.15622 7.16088 8.17574C7.11567 8.19527 7.06721 8.20532 7.01827 8.20532H6.64562V13.257H7.01827ZM5.90031 8.20532H5.15501V13.257H5.90031V8.20532ZM11.4901 13.257C11.589 13.257 11.6837 13.2979 11.7536 13.3708C11.8235 13.4437 11.8628 13.5425 11.8628 13.6456C11.8628 13.7486 11.8235 13.8475 11.7536 13.9203C11.6837 13.9932 11.589 14.0342 11.4901 14.0342H8.50889C8.41006 14.0342 8.31527 13.9932 8.24538 13.9203C8.1755 13.8475 8.13624 13.7486 8.13624 13.6456C8.13624 13.5425 8.1755 13.4437 8.24538 13.3708C8.31527 13.2979 8.41006 13.257 8.50889 13.257H8.88154V8.20532H8.50889C8.45995 8.20532 8.41149 8.19527 8.36628 8.17574C8.32107 8.15622 8.27999 8.12759 8.24538 8.09151C8.21078 8.05542 8.18333 8.01259 8.1646 7.96544C8.14588 7.9183 8.13624 7.86776 8.13624 7.81673C8.13624 7.7657 8.14588 7.71517 8.1646 7.66803C8.18333 7.62088 8.21078 7.57804 8.24538 7.54196C8.27999 7.50588 8.32107 7.47725 8.36628 7.45773C8.41149 7.4382 8.45995 7.42815 8.50889 7.42815H11.4901C11.5391 7.42815 11.5875 7.4382 11.6327 7.45773C11.6779 7.47725 11.719 7.50588 11.7536 7.54196C11.7882 7.57804 11.8157 7.62088 11.8344 7.66803C11.8531 7.71517 11.8628 7.7657 11.8628 7.81673C11.8628 7.86776 11.8531 7.9183 11.8344 7.96544C11.8157 8.01259 11.7882 8.05542 11.7536 8.09151C11.719 8.12759 11.6779 8.15622 11.6327 8.17574C11.5875 8.19527 11.5391 8.20532 11.4901 8.20532H11.1175V13.257H11.4901ZM10.3722 8.20532H9.62685V13.257H10.3722V8.20532ZM17.4526 15.1967C17.4526 15.2477 17.4429 15.2982 17.4242 15.3454C17.4055 15.3925 17.378 15.4354 17.3434 15.4715C17.3088 15.5075 17.2677 15.5362 17.2225 15.5557C17.1773 15.5752 17.1289 15.5853 17.0799 15.5853H2.91908C2.82025 15.5853 2.72546 15.5443 2.65558 15.4715C2.58569 15.3986 2.54643 15.2997 2.54643 15.1967C2.54643 15.0936 2.58569 14.9948 2.65558 14.9219C2.72546 14.849 2.82025 14.8081 2.91908 14.8081H17.0807C17.1299 14.8081 17.1786 14.8182 17.224 14.838C17.2695 14.8577 17.3107 14.8866 17.3453 14.9231C17.38 14.9595 17.4074 15.0027 17.4259 15.0502C17.4444 15.0977 17.4538 15.1486 17.4534 15.1999L17.4526 15.1967ZM15.962 13.2537C16.0608 13.2537 16.1556 13.2947 16.2255 13.3675C16.2954 13.4404 16.3346 13.5393 16.3346 13.6423C16.3346 13.7454 16.2954 13.8442 16.2255 13.9171C16.1556 13.99 16.0608 14.0309 15.962 14.0309H12.9815C12.8827 14.0309 12.7879 13.99 12.718 13.9171C12.6481 13.8442 12.6089 13.7454 12.6089 13.6423C12.6089 13.5393 12.6481 13.4404 12.718 13.3675C12.7879 13.2947 12.8827 13.2537 12.9815 13.2537H13.3565V8.20532H12.9839C12.9349 8.20532 12.8865 8.19527 12.8412 8.17574C12.796 8.15622 12.755 8.12759 12.7203 8.09151C12.6857 8.05542 12.6583 8.01259 12.6396 7.96544C12.6208 7.9183 12.6112 7.86776 12.6112 7.81673C12.6112 7.7657 12.6208 7.71517 12.6396 7.66803C12.6583 7.62088 12.6857 7.57804 12.7203 7.54196C12.755 7.50588 12.796 7.47725 12.8412 7.45773C12.8865 7.4382 12.9349 7.42815 12.9839 7.42815H15.9651C16.014 7.42815 16.0625 7.4382 16.1077 7.45773C16.1529 7.47725 16.194 7.50588 16.2286 7.54196C16.2632 7.57804 16.2906 7.62088 16.3094 7.66803C16.3281 7.71517 16.3377 7.7657 16.3377 7.81673C16.3377 7.86776 16.3281 7.9183 16.3094 7.96544C16.2906 8.01259 16.2632 8.05542 16.2286 8.09151C16.194 8.12759 16.1529 8.15622 16.1077 8.17574C16.0625 8.19527 16.014 8.20532 15.9651 8.20532H15.5924V13.257L15.962 13.2537ZM14.844 8.20207H14.0987V13.257H14.844V8.20207ZM2.17377 5.87379L9.99951 1.42859L17.826 5.87379V6.65097H2.17377V5.87379ZM16.1639 5.87379L9.99951 2.55046L3.81174 5.87379H16.1639Z" fill="white" stroke="white" stroke-width="0.2"/>
</svg>
