<svg xmlns="http://www.w3.org/2000/svg" width="22.489" height="19.865" viewBox="0 0 22.489 19.865">
  <path id="iconfinder_04.Bank_290147" d="M22.511,23.33H1.478a.478.478,0,1,1,0-.956H22.511a.478.478,0,1,1,0,.956ZM8.17,18.55a.478.478,0,0,1,0,.956H4.346a.478.478,0,0,1,0-.956h.478V12.336H4.346a.478.478,0,1,1,0-.956H8.17a.478.478,0,1,1,0,.956H7.692V18.55ZM6.736,12.336H5.78V18.55h.956Zm7.17,6.214a.478.478,0,1,1,0,.956H10.082a.478.478,0,1,1,0-.956h.478V12.336h-.478a.478.478,0,1,1,0-.956h3.824a.478.478,0,1,1,0,.956h-.478V18.55Zm-1.434-6.214h-.956V18.55h.956Zm9.082,8.6a.478.478,0,0,1-.478.478H2.912a.478.478,0,1,1,0-.956H21.077A.478.478,0,0,1,21.555,20.94Zm-1.912-2.39a.478.478,0,1,1,0,.956H15.819a.478.478,0,1,1,0-.956H16.3V12.336h-.478a.478.478,0,1,1,0-.956h3.824a.478.478,0,1,1,0,.956h-.478V18.55Zm-1.434-6.214h-.956V18.55h.956ZM1.956,9.468,11.994,4,22.033,9.468v.956H1.956Zm17.945,0L11.994,5.38,4.057,9.468Z" transform="translate(-0.75 -3.715)" fill="#fff" stroke="#fff" stroke-width="0.5"/>
</svg>
