<svg xmlns="http://www.w3.org/2000/svg" width="18" height="10.8" viewBox="0 0 18 10.8"><defs><style>.a{fill:#fff;}</style></defs><g transform="translate(-2 -6)"><path class="a" d="M19.1,6H4.7a.9.9,0,0,0-.9.9V9.6H2v3.6H3.8v2.7a.9.9,0,0,0,.9.9H19.1a.9.9,0,0,0,.9-.9v-9A.9.9,0,0,0,19.1,6Zm-.9,9H5.6V7.8H18.2Z" transform="translate(0 0)"/><rect class="a" width="2" height="5" transform="translate(7 9)"/><rect class="a" width="2" height="5" transform="translate(11 9)"/><rect class="a" width="1" height="5" transform="translate(15 9)"/></g></svg>