<svg xmlns="http://www.w3.org/2000/svg" width="25" height="25" viewBox="0 0 14.377 14.378"><defs><style>.a{fill:#305671;}</style></defs><g transform="translate(-7.826 -7.824)"><circle class="a" cx="1.239" cy="1.239" r="1.239" transform="translate(13.775 13.774)"/><path class="a" d="M21.911,13.785l-1.732-.325a5.346,5.346,0,0,0-.414-1l1-1.465a.372.372,0,0,0-.043-.456L19.489,9.3a.372.372,0,0,0-.456-.043l-1.465,1a5.359,5.359,0,0,0-1.033-.422l-.323-1.723a.373.373,0,0,0-.352-.292H14.112a.372.372,0,0,0-.352.292l-.326,1.74a5.341,5.341,0,0,0-.991.414L11,9.28a.372.372,0,0,0-.456.043L9.3,10.559a.372.372,0,0,0-.043.456l1,1.456a5.369,5.369,0,0,0-.408.991l-1.732.324a.373.373,0,0,0-.292.352v1.748a.373.373,0,0,0,.292.352l1.731.324a5.357,5.357,0,0,0,.417,1.011l-.985,1.44a.372.372,0,0,0,.043.456L10.558,20.7a.372.372,0,0,0,.456.043l1.439-.985a5.378,5.378,0,0,0,.981.409l.326,1.74a.373.373,0,0,0,.352.292H15.86a.373.373,0,0,0,.352-.292l.323-1.724a5.4,5.4,0,0,0,1.022-.417l1.458,1a.372.372,0,0,0,.456-.043l1.236-1.235a.372.372,0,0,0,.043-.456l-.992-1.449a5.357,5.357,0,0,0,.423-1.023l1.73-.324a.373.373,0,0,0,.292-.352V14.137A.373.373,0,0,0,21.911,13.785Zm-6.9,4.227a3,3,0,1,1,3-3A3,3,0,0,1,15.014,18.012Z" transform="translate(0)"/></g></svg>