<svg width="21" height="18" viewBox="0 0 21 18" fill="none" xmlns="http://www.w3.org/2000/svg">
<path d="M1.3 1H20.112C20.1916 1 20.2679 1.03161 20.3241 1.08787C20.3804 1.14413 20.412 1.22044 20.412 1.3V17.078C20.412 17.1576 20.3804 17.2339 20.3241 17.2901C20.2679 17.3464 20.1916 17.378 20.112 17.378H1.3C1.22044 17.378 1.14413 17.3464 1.08787 17.2901C1.03161 17.2339 1 17.1576 1 17.078V1.3C1 1.22044 1.03161 1.14413 1.08787 1.08787C1.14413 1.03161 1.22044 1 1.3 1V1ZM14.676 15.562C14.5955 15.562 14.5183 15.53 14.4614 15.4731C14.4045 15.4162 14.3725 15.339 14.3725 15.2585C14.3725 15.178 14.4045 15.1008 14.4614 15.0439C14.5183 14.987 14.5955 14.955 14.676 14.955H17.686C17.7665 14.955 17.8437 14.987 17.9006 15.0439C17.9575 15.1008 17.9895 15.178 17.9895 15.2585C17.9895 15.339 17.9575 15.4162 17.9006 15.4731C17.8437 15.53 17.7665 15.562 17.686 15.562H14.676ZM15.889 14.045C15.8085 14.045 15.7313 14.013 15.6744 13.9561C15.6175 13.8992 15.5855 13.822 15.5855 13.7415C15.5855 13.661 15.6175 13.5838 15.6744 13.5269C15.7313 13.47 15.8085 13.438 15.889 13.438H18.9C18.9805 13.438 19.0577 13.47 19.1146 13.5269C19.1715 13.5838 19.2035 13.661 19.2035 13.7415C19.2035 13.822 19.1715 13.8992 19.1146 13.9561C19.0577 14.013 18.9805 14.045 18.9 14.045H15.889ZM2.517 5.854C2.43651 5.854 2.35931 5.82202 2.30239 5.76511C2.24548 5.70819 2.2135 5.63099 2.2135 5.5505C2.2135 5.47001 2.24548 5.39281 2.30239 5.33589C2.35931 5.27898 2.43651 5.247 2.517 5.247H5.527C5.60749 5.247 5.68469 5.27898 5.74161 5.33589C5.79852 5.39281 5.8305 5.47001 5.8305 5.5505C5.8305 5.63099 5.79852 5.70819 5.74161 5.76511C5.68469 5.82202 5.60749 5.854 5.527 5.854H2.517ZM3.73 7.371C3.64951 7.371 3.57231 7.33902 3.51539 7.28211C3.45848 7.22519 3.4265 7.14799 3.4265 7.0675C3.4265 6.98701 3.45848 6.90981 3.51539 6.85289C3.57231 6.79598 3.64951 6.764 3.73 6.764H6.74C6.82049 6.764 6.89769 6.79598 6.95461 6.85289C7.01152 6.90981 7.0435 6.98701 7.0435 7.0675C7.0435 7.14799 7.01152 7.22519 6.95461 7.28211C6.89769 7.33902 6.82049 7.371 6.74 7.371H3.73ZM4.8 8.887H12.212C12.3657 8.45279 12.6269 8.06456 12.9711 7.75849C13.3154 7.45241 13.7315 7.23844 14.1807 7.13652C14.6299 7.0346 15.0976 7.04805 15.5402 7.1756C15.9828 7.30315 16.3859 7.54066 16.712 7.866C16.9654 8.11925 17.1665 8.41996 17.3037 8.75095C17.4408 9.08194 17.5114 9.43671 17.5114 9.795C17.5114 10.1533 17.4408 10.5081 17.3037 10.839C17.1665 11.17 16.9654 11.4707 16.712 11.724C16.3858 12.0491 15.9827 12.2864 15.5401 12.4138C15.0976 12.5412 14.63 12.5545 14.1809 12.4526C13.7317 12.3507 13.3157 12.1369 12.9715 11.831C12.6272 11.5251 12.366 11.137 12.212 10.703H8.585V12.22C8.585 12.2996 8.55339 12.3759 8.49713 12.4321C8.44087 12.4884 8.36456 12.52 8.285 12.52H7.375C7.29543 12.52 7.21913 12.4884 7.16287 12.4321C7.10661 12.3759 7.075 12.2996 7.075 12.22V11.92H6.461V12.527C6.461 12.5664 6.45324 12.6054 6.43816 12.6418C6.42309 12.6782 6.40099 12.7113 6.37313 12.7391C6.34527 12.767 6.3122 12.7891 6.2758 12.8042C6.23941 12.8192 6.2004 12.827 6.161 12.827H4.961C4.9216 12.827 4.88259 12.8192 4.84619 12.8042C4.8098 12.7891 4.77673 12.767 4.74887 12.7391C4.72101 12.7113 4.69891 12.6782 4.68384 12.6418C4.66876 12.6054 4.661 12.5664 4.661 12.527V10.693C4.47644 10.6603 4.30641 10.5716 4.174 10.439L4.154 10.417C3.99226 10.2453 3.90387 10.0173 3.9076 9.78144C3.91134 9.54559 4.00691 9.32049 4.174 9.154L4.196 9.134C4.36365 8.97569 4.58541 8.88734 4.816 8.887H4.8ZM12.435 9.494H4.8C4.72599 9.49444 4.65476 9.52222 4.6 9.572L4.589 9.584C4.534 9.63872 4.50234 9.71262 4.50066 9.79019C4.49898 9.86775 4.52742 9.94295 4.58 10L4.592 10.011C4.61999 10.0393 4.65332 10.0617 4.69006 10.077C4.7268 10.0923 4.76621 10.1001 4.806 10.1H4.954C5.03357 10.1 5.10987 10.1316 5.16613 10.1879C5.22239 10.2441 5.254 10.3204 5.254 10.4V12.22H5.854V11.613C5.854 11.5334 5.88561 11.4571 5.94187 11.4009C5.99813 11.3446 6.07443 11.313 6.154 11.313H7.371C7.45056 11.313 7.52687 11.3446 7.58313 11.4009C7.63939 11.4571 7.671 11.5334 7.671 11.613V11.913H7.971V10.4C7.971 10.3204 8.00261 10.2441 8.05887 10.1879C8.11513 10.1316 8.19143 10.1 8.271 10.1H12.44C12.5073 10.0996 12.5729 10.1219 12.626 10.1632C12.6792 10.2046 12.7168 10.2626 12.733 10.328C12.8272 10.6902 13.0154 11.0212 13.2785 11.2874C13.5416 11.5536 13.8704 11.7456 14.2315 11.844C14.5926 11.9424 14.9733 11.9438 15.3351 11.8479C15.6969 11.752 16.027 11.5623 16.292 11.298C16.6887 10.8996 16.9114 10.3602 16.9114 9.798C16.9114 9.23577 16.6887 8.69643 16.292 8.298C16.0285 8.0353 15.7006 7.84636 15.3412 7.75007C14.9818 7.65377 14.6034 7.65349 14.2439 7.74925C13.8843 7.84501 13.5562 8.03345 13.2923 8.29576C13.0284 8.55806 12.8379 8.88504 12.74 9.244C12.7289 9.31535 12.6925 9.38032 12.6374 9.42698C12.5823 9.47364 12.5122 9.49885 12.44 9.498L12.435 9.494ZM4.135 10.417C4.08648 10.3591 4.06159 10.285 4.0653 10.2096C4.069 10.1341 4.10104 10.0629 4.155 10.01L4.135 10.417ZM4.177 9.133C4.2349 9.08448 4.30897 9.05959 4.38442 9.0633C4.45987 9.067 4.53114 9.09904 4.584 9.153L4.177 9.133ZM14.844 8.583C15.0033 8.58297 15.1609 8.61441 15.308 8.6755C15.4551 8.73659 15.5886 8.82614 15.701 8.939C15.8137 9.05156 15.9031 9.18523 15.9641 9.33237C16.0251 9.47951 16.0565 9.63722 16.0565 9.7965C16.0565 9.95578 16.0251 10.1135 15.9641 10.2606C15.9031 10.4078 15.8137 10.5414 15.701 10.654C15.5884 10.7667 15.4548 10.8561 15.3076 10.9171C15.1605 10.9781 15.0028 11.0095 14.8435 11.0095C14.6842 11.0095 14.5265 10.9781 14.3794 10.9171C14.2322 10.8561 14.0986 10.7667 13.986 10.654L13.968 10.634C13.8036 10.4623 13.6933 10.2462 13.6507 10.0124C13.6081 9.77853 13.6351 9.53734 13.7284 9.31875C13.8218 9.10016 13.9772 8.9138 14.1756 8.78282C14.3739 8.65184 14.6063 8.58201 14.844 8.582V8.583ZM15.273 9.366C15.1592 9.25805 15.008 9.19827 14.8512 9.19915C14.6943 9.20004 14.5438 9.26153 14.4312 9.37077C14.3186 9.48 14.2526 9.62853 14.247 9.7853C14.2414 9.94208 14.2965 10.095 14.401 10.212L14.415 10.225C14.5289 10.3385 14.6832 10.4022 14.844 10.4022C15.0048 10.4022 15.1591 10.3385 15.273 10.225C15.3865 10.1111 15.4502 9.9568 15.4502 9.796C15.4502 9.6352 15.3865 9.48095 15.273 9.367V9.366ZM5.55 2.213H6.157V2.82H5.55V2.213ZM4.033 2.213H4.64V2.82H4.034L4.033 2.213ZM2.516 2.213H3.123V2.82H2.517L2.516 2.213ZM19.809 4.034H1.607V16.775H19.807L19.809 4.034ZM1.607 3.427H19.807V1.607H1.607V3.427Z" fill="#305671" stroke="#305671" stroke-width="0.5"/>
</svg>
