<svg xmlns="http://www.w3.org/2000/svg" width="16.032" height="16.006" viewBox="0 0 16.032 16.006"><defs><style>.a{fill:#fff;}</style></defs><g transform="translate(-4.948 -4.966)"><path class="a" d="M28.6,53.645a6.936,6.936,0,0,1-8.822-.1h1.751V52.464H18v3.529h1.086V54.378a7.934,7.934,0,0,0,4.425,1.846,7.069,7.069,0,0,0,.746.041A8.026,8.026,0,0,0,31.871,45.8l-1.031.326A6.916,6.916,0,0,1,28.6,53.645Z" transform="translate(-11.281 -35.292)"/><path class="a" d="M18.256,6.966A8.01,8.01,0,0,0,5.321,15.381l1.031-.326A6.927,6.927,0,0,1,17.577,7.821H15.813V8.907h3.529V5.378H18.256Z" transform="translate(0)"/></g></svg>