<svg width="24" height="24" viewBox="0 0 24 24" fill="none" xmlns="http://www.w3.org/2000/svg">
<path d="M18.1896 10.629C18.7541 10.629 19.2118 10.2628 19.2118 9.81108C19.2118 9.35936 18.7541 8.99316 18.1896 8.99316C17.6251 8.99316 17.1675 9.35936 17.1675 9.81108C17.1675 10.2628 17.6251 10.629 18.1896 10.629Z" fill="#5182A6"/>
<path d="M20.2488 1.87661H19.0294V0.938556C19.0294 0.689901 18.9306 0.45143 18.7548 0.275605C18.579 0.099779 18.3405 0.00100113 18.0919 0.00100113C17.8432 0.00100113 17.6047 0.099779 17.4289 0.275605C17.2531 0.45143 17.1543 0.689901 17.1543 0.938556V1.87561H12.8895V0.938556C12.8895 0.689635 12.7906 0.45091 12.6146 0.274897C12.4386 0.0988833 12.1999 0 11.9509 0C11.702 0 11.4633 0.0988833 11.2873 0.274897C11.1113 0.45091 11.0124 0.689635 11.0124 0.938556V1.87561H6.79665V0.938556C6.79665 0.689901 6.69787 0.45143 6.52204 0.275605C6.34622 0.099779 6.10775 0.00100113 5.85909 0.00100113C5.61044 0.00100113 5.37197 0.099779 5.19614 0.275605C5.02031 0.45143 4.92154 0.689901 4.92154 0.938556V1.87561H3.74922C2.7551 1.87694 1.80209 2.2725 1.09923 2.97555C0.396374 3.67859 0.00105951 4.63171 0 5.62583L0 20.2503C0.00132438 21.2442 0.396755 22.1971 1.09958 22.8999C1.80241 23.6027 2.75527 23.9982 3.74922 23.9995H10.9203C11.1689 23.9995 11.4074 23.9007 11.5832 23.7249C11.7591 23.5491 11.8578 23.3106 11.8578 23.0619C11.8578 22.8133 11.7591 22.5748 11.5832 22.399C11.4074 22.2232 11.1689 22.1244 10.9203 22.1244H3.74922C3.25207 22.1239 2.77544 21.9261 2.4239 21.5746C2.07236 21.2231 1.87464 20.7464 1.87411 20.2493V5.62583C1.87464 5.12868 2.07236 4.65205 2.4239 4.30051C2.77544 3.94898 3.25207 3.75125 3.74922 3.75072H4.92054V4.68777C4.92054 4.93643 5.01931 5.1749 5.19514 5.35073C5.37096 5.52655 5.60944 5.62533 5.85809 5.62533C6.10675 5.62533 6.34522 5.52655 6.52104 5.35073C6.69687 5.1749 6.79565 4.93643 6.79565 4.68777V3.75072H11.0124V4.68777C11.0124 4.93643 11.1112 5.1749 11.287 5.35073C11.4628 5.52655 11.7013 5.62533 11.9499 5.62533C12.1986 5.62533 12.4371 5.52655 12.6129 5.35073C12.7887 5.1749 12.8875 4.93643 12.8875 4.68777V3.75072H17.1533V4.68777C17.1533 4.93643 17.2521 5.1749 17.4279 5.35073C17.6037 5.52655 17.8422 5.62533 18.0909 5.62533C18.3395 5.62533 18.578 5.52655 18.7538 5.35073C18.9296 5.1749 19.0284 4.93643 19.0284 4.68777V3.75072H20.2468C20.7444 3.75045 21.2218 3.94783 21.574 4.29945C21.9262 4.65107 22.1244 5.12816 22.1249 5.62583V10.9688C22.1249 11.2175 22.2237 11.456 22.3995 11.6318C22.5753 11.8076 22.8138 11.9064 23.0624 11.9064C23.3111 11.9064 23.5496 11.8076 23.7254 11.6318C23.9012 11.456 24 11.2175 24 10.9688V5.62583C23.9987 4.63154 23.603 3.67837 22.8997 2.97549C22.1964 2.2726 21.2431 1.87741 20.2488 1.87661Z" fill="#5182A6"/>
<path d="M18.3267 12.6572C17.205 12.6572 16.1085 12.9898 15.1758 13.613C14.2432 14.2362 13.5162 15.122 13.087 16.1583C12.6577 17.1946 12.5454 18.3349 12.7643 19.435C12.9831 20.5352 13.5232 21.5457 14.3164 22.3389C15.1095 23.132 16.1201 23.6722 17.2202 23.891C18.3204 24.1099 19.4607 23.9975 20.497 23.5683C21.5333 23.139 22.4191 22.4121 23.0422 21.4795C23.6654 20.5468 23.998 19.4503 23.998 18.3286C23.9962 16.825 23.3981 15.3836 22.3349 14.3204C21.2717 13.2572 19.8302 12.6591 18.3267 12.6572ZM18.3267 22.1249C17.5758 22.1249 16.8419 21.9022 16.2176 21.4851C15.5933 21.068 15.1067 20.4751 14.8194 19.7814C14.532 19.0877 14.4568 18.3244 14.6033 17.588C14.7498 16.8516 15.1114 16.1751 15.6423 15.6442C16.1732 15.1133 16.8496 14.7518 17.5861 14.6053C18.3225 14.4588 19.0858 14.534 19.7794 14.8213C20.4731 15.1086 21.066 15.5952 21.4831 16.2195C21.9003 16.8438 22.1229 17.5778 22.1229 18.3286C22.1208 19.3348 21.7202 20.2992 21.0087 21.0106C20.2972 21.7221 19.3328 22.1228 18.3267 22.1249Z" fill="#5182A6"/>
<path d="M19.6862 17.3914H19.2647V16.4073C19.2647 16.1586 19.166 15.9202 18.9901 15.7443C18.8143 15.5685 18.5759 15.4697 18.3272 15.4697C18.0785 15.4697 17.8401 15.5685 17.6642 15.7443C17.4884 15.9202 17.3896 16.1586 17.3896 16.4073V18.3295C17.3896 18.578 17.4884 18.8163 17.6641 18.9921C17.8398 19.1678 18.0782 19.2665 18.3267 19.2665H19.6862C19.9349 19.2665 20.1734 19.1677 20.3492 18.9919C20.525 18.8161 20.6238 18.5776 20.6238 18.329C20.6238 18.0803 20.525 17.8418 20.3492 17.666C20.1734 17.4902 19.9349 17.3914 19.6862 17.3914Z" fill="#5182A6"/>
<path d="M14.1017 10.629C14.6663 10.629 15.1239 10.2628 15.1239 9.81108C15.1239 9.35936 14.6663 8.99316 14.1017 8.99316C13.5372 8.99316 13.0796 9.35936 13.0796 9.81108C13.0796 10.2628 13.5372 10.629 14.1017 10.629Z" fill="#5182A6"/>
<path d="M10.0143 14.7169C10.5789 14.7169 11.0365 14.3507 11.0365 13.899C11.0365 13.4473 10.5789 13.0811 10.0143 13.0811C9.44982 13.0811 8.99219 13.4473 8.99219 13.899C8.99219 14.3507 9.44982 14.7169 10.0143 14.7169Z" fill="#5182A6"/>
<path d="M5.92645 10.629C6.49096 10.629 6.9486 10.2628 6.9486 9.81108C6.9486 9.35936 6.49096 8.99316 5.92645 8.99316C5.36193 8.99316 4.9043 9.35936 4.9043 9.81108C4.9043 10.2628 5.36193 10.629 5.92645 10.629Z" fill="#5182A6"/>
<path d="M5.92645 14.7169C6.49096 14.7169 6.9486 14.3507 6.9486 13.899C6.9486 13.4473 6.49096 13.0811 5.92645 13.0811C5.36193 13.0811 4.9043 13.4473 4.9043 13.899C4.9043 14.3507 5.36193 14.7169 5.92645 14.7169Z" fill="#5182A6"/>
<path d="M5.92645 18.8048C6.49096 18.8048 6.9486 18.4386 6.9486 17.9869C6.9486 17.5351 6.49096 17.1689 5.92645 17.1689C5.36193 17.1689 4.9043 17.5351 4.9043 17.9869C4.9043 18.4386 5.36193 18.8048 5.92645 18.8048Z" fill="#5182A6"/>
<path d="M10.0143 18.8048C10.5789 18.8048 11.0365 18.4386 11.0365 17.9869C11.0365 17.5351 10.5789 17.1689 10.0143 17.1689C9.44982 17.1689 8.99219 17.5351 8.99219 17.9869C8.99219 18.4386 9.44982 18.8048 10.0143 18.8048Z" fill="#5182A6"/>
<path d="M10.0143 10.629C10.5789 10.629 11.0365 10.2628 11.0365 9.81108C11.0365 9.35936 10.5789 8.99316 10.0143 8.99316C9.44982 8.99316 8.99219 9.35936 8.99219 9.81108C8.99219 10.2628 9.44982 10.629 10.0143 10.629Z" fill="#5182A6"/>
</svg>
