<svg width="15" height="15" viewBox="0 0 15 15" fill="none" xmlns="http://www.w3.org/2000/svg">
<path d="M13.8781 1.415H12.1961V0H10.7961V1.415H5.18407V0H3.78407V1.415H2.11907C1.8215 1.415 1.53611 1.53321 1.3257 1.74363C1.11528 1.95404 0.997071 2.23943 0.997071 2.537V12.9C0.996939 13.0474 1.02586 13.1934 1.08219 13.3297C1.13852 13.4659 1.22114 13.5897 1.32534 13.694C1.42954 13.7983 1.55328 13.8811 1.68947 13.9375C1.82566 13.9939 1.97164 14.023 2.11907 14.023H13.8781C14.0255 14.023 14.1715 13.9939 14.3077 13.9375C14.4439 13.8811 14.5676 13.7983 14.6718 13.694C14.776 13.5897 14.8586 13.4659 14.915 13.3297C14.9713 13.1934 15.0002 13.0474 15.0001 12.9V2.537C15.0001 2.23943 14.8819 1.95404 14.6714 1.74363C14.461 1.53321 14.1756 1.415 13.8781 1.415ZM13.5981 12.62H2.38007V5.609H13.5981V12.62ZM13.5981 4.206H2.38007V2.8H13.5981V4.206Z" fill="#9BAEBC"/>
<path d="M8.82973 7.01099H7.42773V8.41299H8.82973V7.01099Z" fill="#9BAEBC"/>
<path d="M11.6344 7.01099H10.2324V8.41299H11.6344V7.01099Z" fill="#9BAEBC"/>
<path d="M8.82973 9.81592H7.42773V11.2179H8.82973V9.81592Z" fill="#9BAEBC"/>
<path d="M6.02505 9.81592H4.62305V11.2179H6.02505V9.81592Z" fill="#9BAEBC"/>
</svg>
