<svg width="28" height="28" viewBox="0 0 28 28" fill="none" xmlns="http://www.w3.org/2000/svg">
<path d="M14 28C21.732 28 28 21.732 28 14C28 6.26801 21.732 0 14 0C6.26801 0 0 6.26801 0 14C0 21.732 6.26801 28 14 28Z" fill="#5570C9"/>
<path d="M19.3549 11.2797H14.7955" stroke="white" stroke-width="1.5" stroke-linecap="round" stroke-linejoin="round"/>
<path d="M17.0752 9V13.5594" stroke="white" stroke-width="1.5" stroke-linecap="round" stroke-linejoin="round"/>
<path d="M18.6884 17.686V19.298C18.6883 19.4473 18.6571 19.595 18.5968 19.7315C18.5365 19.8681 18.4485 19.9906 18.3382 20.0913C18.2279 20.192 18.0979 20.2686 17.9564 20.3162C17.8149 20.3638 17.6651 20.3815 17.5164 20.368C15.8626 20.1883 14.2741 19.6232 12.8784 18.718C11.5806 17.8944 10.48 16.7955 9.65439 15.499C8.74614 14.0971 8.18087 12.501 8.00439 10.84C7.99091 10.6913 8.00856 10.5415 8.0562 10.4C8.10385 10.2585 8.18044 10.1285 8.2811 10.0182C8.38176 9.90796 8.50429 9.81988 8.64087 9.75958C8.77745 9.69929 8.92509 9.66811 9.07439 9.66802H10.6884C10.9492 9.66544 11.202 9.75774 11.3998 9.92773C11.5975 10.0977 11.7268 10.3338 11.7634 10.592C11.8314 11.1079 11.9575 11.6145 12.1394 12.102C12.2117 12.2944 12.2273 12.5035 12.1844 12.7044C12.1415 12.9054 12.0419 13.0899 11.8974 13.236L11.2154 13.918C11.9797 15.2633 13.0928 16.3774 14.4374 17.143L15.1194 16.461C15.2655 16.3165 15.45 16.2169 15.651 16.174C15.8519 16.1311 16.061 16.1467 16.2534 16.219C16.7409 16.4009 17.2475 16.527 17.7634 16.595C18.0244 16.632 18.2627 16.7635 18.433 16.9647C18.6034 17.1658 18.6939 17.4225 18.6874 17.686H18.6884Z" stroke="white" stroke-width="1.5" stroke-linecap="round" stroke-linejoin="round"/>
</svg>
