<svg xmlns="http://www.w3.org/2000/svg" width="22.185" height="22.185" viewBox="0 0 22.185 22.185"><defs><style>.a{fill:none;stroke:#fff;stroke-linecap:round;stroke-linejoin:round;stroke-width:1.5px;}</style></defs><g transform="translate(23.982 10.974) rotate(135)"><path class="a" d="M16.283,12.631v2.138a1.425,1.425,0,0,1-1.553,1.425A14.1,14.1,0,0,1,8.58,14.006,13.9,13.9,0,0,1,4.305,9.731,14.1,14.1,0,0,1,2.118,3.553,1.425,1.425,0,0,1,3.536,2H5.673A1.425,1.425,0,0,1,7.1,3.226a9.149,9.149,0,0,0,.5,2,1.425,1.425,0,0,1-.321,1.5l-.9.9a11.4,11.4,0,0,0,4.275,4.275l.9-.9a1.425,1.425,0,0,1,1.5-.321,9.149,9.149,0,0,0,2,.5,1.425,1.425,0,0,1,1.226,1.446Z" transform="translate(0 -0.07)"/></g></svg>