<svg width="20" height="20" viewBox="0 0 20 20" fill="none" xmlns="http://www.w3.org/2000/svg">
<g clip-path="url(#clip0_256_19221)">
<path d="M19.06 14.3355C19.0263 14.3075 15.2225 11.599 14.1914 11.7647C13.6955 11.8523 13.4123 12.1907 12.8441 12.8675C12.7527 12.9767 12.5323 13.2377 12.3622 13.4237C12.003 13.3067 11.6527 13.1641 11.3139 12.9971C9.56504 12.1456 8.15201 10.7326 7.30059 8.98373C7.13378 8.64491 6.99141 8.2946 6.87455 7.93548C7.06122 7.76405 7.32281 7.54437 7.43392 7.4504C8.10694 6.88532 8.44471 6.60214 8.53297 6.105C8.71265 5.07706 5.99011 1.27135 5.96217 1.2377C5.83845 1.06155 5.67704 0.915174 5.48968 0.809194C5.30232 0.703214 5.09371 0.640292 4.879 0.625C3.77551 0.625 0.625031 4.71135 0.625031 5.40024C0.625031 5.44024 0.682809 9.50564 5.69614 14.6066C10.7914 19.6148 14.8574 19.6726 14.8974 19.6726C15.5857 19.6726 19.6726 16.5221 19.6726 15.4187C19.657 15.204 19.5939 14.9955 19.488 14.8082C19.382 14.6209 19.2358 14.4595 19.06 14.3355ZM14.8269 18.399C14.2758 18.352 10.86 17.9018 6.59328 13.7107C2.38186 9.4231 1.94249 6.00151 1.89932 5.47135C2.73156 4.16509 3.73664 2.97739 4.88725 1.94056C4.91265 1.96595 4.9463 2.00405 4.98948 2.05357C5.87168 3.25831 6.63182 4.54784 7.25868 5.9031C7.05506 6.10825 6.83967 6.30138 6.6136 6.48151C6.26346 6.74825 5.94195 7.05061 5.65424 7.38373C5.60497 7.45231 5.56988 7.53004 5.55102 7.61235C5.53216 7.69466 5.52991 7.7799 5.5444 7.8631C5.6802 8.44429 5.88637 9.00675 6.15836 9.53802C7.13423 11.5433 8.75435 13.1634 10.7596 14.1393C11.2911 14.4122 11.8543 14.6182 12.4365 14.7526C12.5192 14.7672 12.604 14.7651 12.6858 14.7465C12.7677 14.7279 12.8451 14.693 12.9133 14.644C13.2478 14.355 13.5514 14.032 13.8193 13.6802C14.0187 13.4428 14.2847 13.126 14.3857 13.0364C15.7445 13.6624 17.0369 14.4235 18.2434 15.3082C18.2961 15.3526 18.3336 15.3869 18.3584 15.4091C17.3215 16.5601 16.1335 17.5654 14.8269 18.3977V18.399Z" fill="white"/>
<path d="M13.1475 8.75H16.6163L15.1832 10.1831L16.0669 11.0669L18.5669 8.56687C18.6841 8.44967 18.7499 8.29073 18.7499 8.125C18.7499 7.95927 18.6841 7.80033 18.5669 7.68313L16.0669 5.18313L15.1832 6.06687L16.6163 7.5H13.1475C12.8102 7.4995 12.4868 7.36528 12.2483 7.12675C12.0098 6.88821 11.8755 6.56484 11.875 6.2275V1.25H10.625V6.2275C10.6259 6.89625 10.8919 7.53738 11.3648 8.01026C11.8376 8.48314 12.4788 8.74917 13.1475 8.75Z" fill="white"/>
</g>
<defs>
<clipPath id="clip0_256_19221">
<rect width="20" height="20" fill="white"/>
</clipPath>
</defs>
</svg>
