<svg xmlns="http://www.w3.org/2000/svg" width="20.822" height="20.701" viewBox="0 0 20.822 20.701">
  <g id="iconfinder_phone-missed_2561299" transform="translate(-1.361 0.395)">
    <path id="Path_290" data-name="Path 290" d="M19.659,15.164v2.647a1.765,1.765,0,0,1-1.923,1.765,17.461,17.461,0,0,1-7.614-2.709,17.2,17.2,0,0,1-5.294-5.294,17.461,17.461,0,0,1-2.709-7.65A1.765,1.765,0,0,1,3.875,2H6.522A1.765,1.765,0,0,1,8.286,3.518,11.329,11.329,0,0,0,8.9,6a1.765,1.765,0,0,1-.4,1.862L7.386,8.979a14.117,14.117,0,0,0,5.294,5.294L13.8,13.152a1.765,1.765,0,0,1,1.862-.4,11.329,11.329,0,0,0,2.479.618,1.765,1.765,0,0,1,1.518,1.791Z" transform="translate(0 -0.029)" fill="none" stroke="#fff" stroke-linecap="round" stroke-linejoin="round" stroke-width="1.5"/>
    <path id="icon_trigger_received_incoming_communication" d="M10.508,20.323h6.151l-2.724,2.724a.508.508,0,1,0,.718.718l3.591-3.591h0a.512.512,0,0,0,.063-.077c.009-.013.014-.027.022-.04a.508.508,0,0,0,.025-.047.451.451,0,0,0,.016-.053c0-.014.01-.028.013-.042a.507.507,0,0,0,.01-.1h0a.512.512,0,0,0-.01-.1c0-.015-.009-.029-.013-.044a.472.472,0,0,0-.016-.05.525.525,0,0,0-.026-.05c-.007-.012-.012-.025-.02-.037a.5.5,0,0,0-.064-.078l-3.591-3.591a.508.508,0,1,0-.718.718l2.724,2.724h-6.15a.508.508,0,0,0,0,1.016Z" transform="translate(-8.085 1.883) rotate(-45)" fill="#fff" stroke="#fff" stroke-width="0.5"/>
  </g>
</svg>
