<svg xmlns="http://www.w3.org/2000/svg" width="15.672" height="15.701" viewBox="0 0 15.672 15.701"><defs><style>.a{fill:none;stroke-linecap:round;stroke-linejoin:round;stroke-width:1.5px;}.a,.b{stroke:#fff;}.b{fill:#fff;stroke-width:0.5px;}</style></defs><g transform="translate(-1.361 -1.18)"><path class="a" d="M16.283,12.631v2.138a1.425,1.425,0,0,1-1.553,1.425A14.1,14.1,0,0,1,8.58,14.006,13.9,13.9,0,0,1,4.305,9.731,14.1,14.1,0,0,1,2.118,3.553,1.425,1.425,0,0,1,3.536,2H5.673A1.425,1.425,0,0,1,7.1,3.226a9.149,9.149,0,0,0,.5,2,1.425,1.425,0,0,1-.321,1.5l-.9.9a11.4,11.4,0,0,0,4.275,4.275l.9-.9a1.425,1.425,0,0,1,1.5-.321,9.149,9.149,0,0,0,2,.5,1.425,1.425,0,0,1,1.226,1.446Z" transform="translate(0 -0.07)"/><path class="b" d="M10.41,19.437h4.967l-2.2,2.2a.41.41,0,1,0,.58.58l2.9-2.9h0a.414.414,0,0,0,.051-.062c.007-.01.012-.022.018-.032a.41.41,0,0,0,.02-.038.365.365,0,0,0,.013-.043c0-.011.008-.022.01-.034a.41.41,0,0,0,.008-.08h0a.414.414,0,0,0-.008-.079c0-.012-.007-.024-.011-.036a.381.381,0,0,0-.013-.041.425.425,0,0,0-.021-.041c-.006-.01-.01-.02-.016-.03a.4.4,0,0,0-.051-.063l-2.9-2.9a.41.41,0,1,0-.58.58l2.2,2.2H10.41a.41.41,0,1,0,0,.82Z" transform="translate(-0.09 -13.959)"/></g></svg>