<svg width="24" height="24" viewBox="0 0 24 24" fill="none" xmlns="http://www.w3.org/2000/svg">
<path d="M12 15.2008C13.7674 15.2008 15.2 13.7681 15.2 12.0008C15.2 10.2335 13.7674 8.80078 12 8.80078C10.2327 8.80078 8.80005 10.2335 8.80005 12.0008C8.80005 13.7681 10.2327 15.2008 12 15.2008Z" fill="white"/>
<path d="M9 2L7.17 4H4C2.895 4 2 4.895 2 6V18C2 19.105 2.895 20 4 20H20C21.105 20 22 19.105 22 18V6C22 4.895 21.105 4 20 4H16.83L15 2H9V2ZM12 17C9.24 17 7 14.76 7 12C7 9.24 9.24 7 12 7C14.76 7 17 9.24 17 12C17 14.76 14.76 17 12 17Z" fill="white"/>
</svg>
