<svg xmlns="http://www.w3.org/2000/svg" width="21.118" height="19.031" viewBox="0 0 21.118 19.031"><defs><style>.a{fill:#305671;stroke:#305671;stroke-width:0.25px;}</style></defs><g transform="translate(-1.875 -2.875)"><path class="a" d="M20.363,6.13H17.939l-.745-2.1A1.585,1.585,0,0,0,15.582,3h-6.3A1.585,1.585,0,0,0,7.674,4.028l-.745,2.1H4.505A2.6,2.6,0,0,0,2,8.992V19.186a2.379,2.379,0,0,0,2.505,2.595H20.362a2.379,2.379,0,0,0,2.506-2.595V8.992A2.6,2.6,0,0,0,20.363,6.13Zm1.462,13.056a1.392,1.392,0,0,1-1.462,1.552H4.505a1.392,1.392,0,0,1-1.462-1.552V8.992c0-.936.525-1.819,1.462-1.819H7.337a.517.517,0,0,0,.537-.327l.874-2.52c.077-.232.293-.284.537-.284h6.3a.506.506,0,0,1,.537.314l.874,2.526c.077.231.293.29.537.29h2.832c.937,0,1.462.883,1.462,1.819Z" transform="translate(0 0)"/><path class="a" d="M12.236,7.658A5.663,5.663,0,1,0,17.9,13.321,5.67,5.67,0,0,0,12.236,7.658Zm0,10.194a4.531,4.531,0,1,1,4.53-4.532A4.536,4.536,0,0,1,12.236,17.852Z" transform="translate(0.198 0.202)"/></g></svg>