<svg width="18" height="18" viewBox="0 0 18 18" fill="none" xmlns="http://www.w3.org/2000/svg">
<path d="M9 16.3125C7.55373 16.3125 6.13993 15.8836 4.9374 15.0801C3.73486 14.2766 2.7976 13.1346 2.24413 11.7984C1.69067 10.4622 1.54586 8.99189 1.82801 7.57341C2.11017 6.15492 2.80661 4.85196 3.82928 3.82928C4.85196 2.80661 6.15492 2.11017 7.57341 1.82801C8.99189 1.54586 10.4622 1.69067 11.7984 2.24413C13.1346 2.7976 14.2766 3.73486 15.0801 4.9374C15.8836 6.13993 16.3125 7.55373 16.3125 9C16.3125 10.9394 15.5421 12.7994 14.1707 14.1707C12.7994 15.5421 10.9394 16.3125 9 16.3125ZM9 2.8125C7.77623 2.8125 6.57994 3.17539 5.56241 3.85528C4.54488 4.53518 3.75182 5.50153 3.2835 6.63215C2.81518 7.76277 2.69265 9.00687 2.93139 10.2071C3.17014 11.4074 3.75944 12.5099 4.62478 13.3752C5.49012 14.2406 6.59262 14.8299 7.79288 15.0686C8.99314 15.3074 10.2372 15.1848 11.3679 14.7165C12.4985 14.2482 13.4648 13.4551 14.1447 12.4376C14.8246 11.4201 15.1875 10.2238 15.1875 9C15.1875 7.35898 14.5356 5.78516 13.3752 4.62478C12.2148 3.4644 10.641 2.8125 9 2.8125Z" fill="#305671"/>
<path d="M6.61519 11.9475C6.54116 11.9479 6.46778 11.9338 6.39924 11.9058C6.33071 11.8778 6.26838 11.8365 6.21582 11.7844C6.11105 11.679 6.05225 11.5364 6.05225 11.3878C6.05225 11.2392 6.11105 11.0967 6.21582 10.9913L10.9914 6.21564C11.0435 6.16172 11.1057 6.11858 11.1745 6.08869C11.2432 6.0588 11.3172 6.04274 11.3921 6.04144C11.4671 6.04013 11.5416 6.0536 11.6113 6.08108C11.6811 6.10856 11.7447 6.1495 11.7986 6.20158C11.8526 6.25366 11.8957 6.31585 11.9256 6.3846C11.9555 6.45334 11.9715 6.52731 11.9728 6.60226C11.9741 6.67722 11.9607 6.75169 11.9332 6.82144C11.9057 6.89119 11.8648 6.95484 11.8127 7.00877L7.00894 11.8125C6.89978 11.9062 6.75888 11.9545 6.61519 11.9475Z" fill="#305671"/>
<path d="M11.3852 11.9475C11.2376 11.9469 11.0962 11.8883 10.9914 11.7844L6.21582 7.00877C6.12367 6.90116 6.07552 6.76274 6.08099 6.62117C6.08645 6.47961 6.14514 6.34531 6.24532 6.24514C6.3455 6.14496 6.47979 6.08627 6.62136 6.0808C6.76292 6.07533 6.90134 6.12349 7.00895 6.21564L11.8127 10.9913C11.8689 11.0439 11.9137 11.1075 11.9443 11.1781C11.975 11.2487 11.9908 11.3249 11.9908 11.4019C11.9908 11.4789 11.975 11.555 11.9443 11.6257C11.9137 11.6963 11.8689 11.7599 11.8127 11.8125C11.7545 11.8631 11.6865 11.9012 11.613 11.9244C11.5394 11.9477 11.4619 11.9555 11.3852 11.9475Z" fill="#305671"/>
</svg>
