<svg width="36" height="36" viewBox="0 0 36 36" fill="none" xmlns="http://www.w3.org/2000/svg">
<path d="M13.5 27C11.016 27 9 29.016 9 31.5C9 33.984 11.016 36 13.5 36C15.984 36 18 33.984 18 31.5C18 29.016 15.984 27 13.5 27ZM27 27C24.516 27 22.5 29.016 22.5 31.5C22.5 33.984 24.516 36 27 36C29.484 36 31.5 33.984 31.5 31.5C31.5 29.016 29.484 27 27 27ZM33.75 4.5H9.1575L8.55 2.25C8.0865 0.2295 6.81975 0 6.2235 0H2.25C1.008 0 0 1.008 0 2.25C0 3.492 1.008 4.5 2.25 4.5H4.5L9 20.7068C9.423 22.0433 10.4242 22.5 11.25 22.5H29.25C30.1815 22.5 31.0072 22.0252 31.5 20.7428L35.3587 9C35.7007 7.911 36 7.3125 36 6.75C36 5.256 34.7175 4.5 33.75 4.5ZM27.6637 18H12.9195L10.4198 9H30.6225L27.6637 18Z" fill="#9BAEBC"/>
</svg>
