<svg width="64" height="64" viewBox="0 0 64 64" fill="none" xmlns="http://www.w3.org/2000/svg">
<g opacity="0.5">
<path d="M49 45H19.772C18.964 44.9662 18.2023 44.6135 17.6538 44.0191C17.1054 43.4247 16.8149 42.6372 16.846 41.829V41.829C16.822 41.0784 17.072 40.3448 17.5494 39.7651C18.0267 39.1854 18.6988 38.7994 19.44 38.679L49.151 35L53.766 15H26" stroke="#9BAEBC" stroke-width="2" stroke-linecap="round" stroke-linejoin="round"/>
<path d="M10.0078 10H14.4668C14.8965 10.0114 15.3094 10.1695 15.6369 10.448C15.9643 10.7265 16.1866 11.1087 16.2668 11.531L22.1668 38.022" stroke="#9BAEBC" stroke-width="2" stroke-linecap="round" stroke-linejoin="round"/>
<path d="M22.5 54C23.8807 54 25 52.8807 25 51.5C25 50.1193 23.8807 49 22.5 49C21.1193 49 20 50.1193 20 51.5C20 52.8807 21.1193 54 22.5 54Z" stroke="#9BAEBC" stroke-width="2" stroke-linejoin="round"/>
<path d="M44.5 54C45.8807 54 47 52.8807 47 51.5C47 50.1193 45.8807 49 44.5 49C43.1193 49 42 50.1193 42 51.5C42 52.8807 43.1193 54 44.5 54Z" stroke="#9BAEBC" stroke-width="2" stroke-linejoin="round"/>
</g>
</svg>
