<svg width="12" height="10" viewBox="0 0 12 10" fill="none" xmlns="http://www.w3.org/2000/svg">
<path d="M8.52439 9.31828C7.63587 9.30311 6.75325 9.17072 5.89939 8.92453C4.79927 8.59039 3.64247 8.48469 2.50001 8.6139C1.93982 8.68212 1.38454 8.78587 0.837512 8.92453C0.772941 8.94091 0.70548 8.94234 0.640275 8.92869C0.57507 8.91504 0.513843 8.88669 0.461262 8.84578C0.412317 8.80286 0.373566 8.74957 0.347832 8.68978C0.322099 8.62998 0.310033 8.5652 0.312512 8.50015V1.50015C0.309601 1.40021 0.341008 1.30229 0.401506 1.22269C0.462004 1.14309 0.547942 1.08661 0.645012 1.06265C1.28316 0.902805 1.93253 0.791652 2.58751 0.730152C3.76555 0.618899 4.95399 0.736258 6.08751 1.07578C7.13727 1.3911 8.23828 1.49957 9.32939 1.39515C9.94205 1.32984 10.549 1.2187 11.145 1.06265C11.2096 1.04627 11.277 1.04484 11.3423 1.05849C11.4075 1.07214 11.4687 1.1005 11.5213 1.1414C11.5752 1.18395 11.6183 1.2386 11.6472 1.30092C11.6761 1.36325 11.6899 1.4315 11.6875 1.50015V8.50015C11.6904 8.60009 11.659 8.69802 11.5985 8.77762C11.538 8.85722 11.4521 8.9137 11.355 8.93765C10.771 9.08685 10.1776 9.19648 9.57876 9.26578C9.22859 9.30331 8.87656 9.32084 8.52439 9.31828ZM3.47564 7.68203C4.36415 7.6972 5.24678 7.82959 6.10064 8.07578C7.19383 8.40694 8.34289 8.51262 9.47814 8.3864C9.91975 8.33455 10.358 8.25712 10.7906 8.15453V2.0514C10.3357 2.14908 9.8756 2.22065 9.41251 2.26578C8.22838 2.38389 7.03257 2.27248 5.89064 1.93765C4.84826 1.62292 3.75481 1.51298 2.67064 1.6139C2.17168 1.65834 1.67622 1.7358 1.18751 1.84578V7.97078C1.59507 7.88274 2.00686 7.81557 2.42126 7.76953C2.77077 7.7203 3.1228 7.69108 3.47564 7.68203Z" fill="white"/>
<path d="M0.911878 3.68812H0.715003C0.60514 3.67931 0.502653 3.62935 0.428031 3.54824C0.353408 3.46713 0.312149 3.36084 0.312503 3.25062V1.50062C0.309591 1.40068 0.340998 1.30276 0.401496 1.22316C0.461994 1.14356 0.547932 1.08708 0.645003 1.06312C1.28315 0.903277 1.93252 0.792124 2.5875 0.730624C2.69251 0.720279 2.79772 0.748232 2.88374 0.809334C2.96977 0.870435 3.03081 0.960568 3.05563 1.06312C3.08611 1.20693 3.10078 1.35363 3.09938 1.50062C3.09938 2.08079 2.86891 2.63718 2.45867 3.04742C2.04844 3.45766 1.49204 3.68812 0.911878 3.68812ZM1.1875 1.84625V2.7825C1.45519 2.72509 1.69822 2.5854 1.88258 2.383C2.06694 2.1806 2.18339 1.92562 2.21563 1.65375C1.89625 1.70187 1.555 1.76312 1.1875 1.84625Z" fill="white"/>
<path d="M11.11 3.68727C10.605 3.68838 10.1151 3.51471 9.72359 3.19573C9.33204 2.87674 9.06292 2.4321 8.96192 1.93727C8.94989 1.87239 8.9527 1.80563 8.97012 1.74199C8.98755 1.67835 9.01914 1.61947 9.06254 1.56977C9.09865 1.52094 9.14453 1.48017 9.19725 1.45004C9.24998 1.41991 9.3084 1.40109 9.36879 1.39477C9.96821 1.32754 10.5619 1.2164 11.145 1.06227C11.2096 1.04588 11.2771 1.04446 11.3423 1.05811C11.4075 1.07175 11.4687 1.10011 11.5213 1.14102C11.5752 1.18357 11.6184 1.23822 11.6473 1.30054C11.6761 1.36287 11.6899 1.43112 11.6875 1.49977V3.24977C11.6891 3.354 11.6533 3.45534 11.5867 3.53555C11.5202 3.61576 11.4271 3.66956 11.3244 3.68727C11.2532 3.69606 11.1812 3.69606 11.11 3.68727ZM9.99879 2.19977C10.1834 2.49189 10.4758 2.69941 10.8125 2.77727V2.05102C10.5325 2.10789 10.2613 2.16039 9.99879 2.19977Z" fill="white"/>
<path d="M0.75 8.9375C0.633968 8.9375 0.522688 8.89141 0.440641 8.80936C0.358594 8.72731 0.3125 8.61603 0.3125 8.5V6.75C0.3125 6.63397 0.358594 6.52269 0.440641 6.44064C0.522688 6.35859 0.633968 6.3125 0.75 6.3125C1.26061 6.31316 1.7549 6.49243 2.14723 6.81923C2.53955 7.14604 2.80519 7.59979 2.89812 8.10188C2.90921 8.16111 2.90794 8.222 2.89439 8.28072C2.88083 8.33945 2.8553 8.39474 2.81937 8.44313C2.78334 8.49064 2.73798 8.53028 2.68606 8.55962C2.63415 8.58896 2.57679 8.60738 2.5175 8.61375C1.95731 8.68196 1.40203 8.78571 0.855 8.92437C0.82066 8.93298 0.785402 8.93739 0.75 8.9375ZM1.1875 7.26188V7.94875C1.42375 7.90062 1.65125 7.85688 1.87438 7.82188C1.71727 7.56122 1.47446 7.36326 1.1875 7.26188Z" fill="white"/>
<path d="M9.53061 9.25687C9.42948 9.25935 9.33062 9.22669 9.25085 9.16448C9.17108 9.10226 9.11534 9.01432 9.09311 8.91563C9.06892 8.77847 9.05866 8.63922 9.06249 8.5C9.06249 7.91984 9.29296 7.36344 9.70319 6.9532C10.1134 6.54297 10.6698 6.3125 11.25 6.3125C11.366 6.3125 11.4773 6.35859 11.5593 6.44064C11.6414 6.52269 11.6875 6.63397 11.6875 6.75V8.5C11.6904 8.59994 11.659 8.69786 11.5985 8.77746C11.538 8.85707 11.4521 8.91355 11.355 8.9375C10.771 9.0867 10.1775 9.19632 9.57874 9.26562L9.53061 9.25687ZM10.8125 7.26188C10.5831 7.34032 10.3799 7.48077 10.2254 7.66765C10.071 7.85454 9.97132 8.08055 9.93749 8.32063C10.2131 8.27688 10.5019 8.22437 10.8125 8.15437V7.26188Z" fill="white"/>
<path d="M6.65625 6.75H5.125C5.00897 6.75 4.89769 6.70391 4.81564 6.62186C4.73359 6.53981 4.6875 6.42853 4.6875 6.3125C4.6875 6.19647 4.73359 6.08519 4.81564 6.00314C4.89769 5.92109 5.00897 5.875 5.125 5.875H6.65625C6.71427 5.875 6.76991 5.85195 6.81093 5.81093C6.85195 5.76991 6.875 5.71427 6.875 5.65625C6.875 5.59823 6.85195 5.54259 6.81093 5.50157C6.76991 5.46055 6.71427 5.4375 6.65625 5.4375H5.34375C5.05367 5.4375 4.77547 5.32227 4.57035 5.11715C4.36523 4.91203 4.25 4.63383 4.25 4.34375C4.25 4.05367 4.36523 3.77547 4.57035 3.57035C4.77547 3.36523 5.05367 3.25 5.34375 3.25H6.875C6.99103 3.25 7.10231 3.29609 7.18436 3.37814C7.26641 3.46019 7.3125 3.57147 7.3125 3.6875C7.3125 3.80353 7.26641 3.91481 7.18436 3.99686C7.10231 4.07891 6.99103 4.125 6.875 4.125H5.34375C5.28573 4.125 5.23009 4.14805 5.18907 4.18907C5.14805 4.23009 5.125 4.28573 5.125 4.34375C5.125 4.40177 5.14805 4.45741 5.18907 4.49843C5.23009 4.53945 5.28573 4.5625 5.34375 4.5625H6.65625C6.94633 4.5625 7.22453 4.67773 7.42965 4.88285C7.63477 5.08797 7.75 5.36617 7.75 5.65625C7.75 5.94633 7.63477 6.22453 7.42965 6.42965C7.22453 6.63477 6.94633 6.75 6.65625 6.75Z" fill="white"/>
<path d="M6 4.125C5.88397 4.125 5.77269 4.07891 5.69064 3.99686C5.60859 3.91481 5.5625 3.80353 5.5625 3.6875V3.25C5.5625 3.13397 5.60859 3.02269 5.69064 2.94064C5.77269 2.85859 5.88397 2.8125 6 2.8125C6.11603 2.8125 6.22731 2.85859 6.30936 2.94064C6.39141 3.02269 6.4375 3.13397 6.4375 3.25V3.6875C6.4375 3.80353 6.39141 3.91481 6.30936 3.99686C6.22731 4.07891 6.11603 4.125 6 4.125Z" fill="white"/>
<path d="M6 7.1875C5.88397 7.1875 5.77269 7.14141 5.69064 7.05936C5.60859 6.97731 5.5625 6.86603 5.5625 6.75V6.3125C5.5625 6.19647 5.60859 6.08519 5.69064 6.00314C5.77269 5.92109 5.88397 5.875 6 5.875C6.11603 5.875 6.22731 5.92109 6.30936 6.00314C6.39141 6.08519 6.4375 6.19647 6.4375 6.3125V6.75C6.4375 6.86603 6.39141 6.97731 6.30936 7.05936C6.22731 7.14141 6.11603 7.1875 6 7.1875Z" fill="white"/>
</svg>
