<svg width="24" height="24" viewBox="0 0 24 24" fill="none" xmlns="http://www.w3.org/2000/svg">
<path d="M16.3276 19.4026C14.8044 19.3766 13.2913 19.1497 11.8276 18.7276C9.94165 18.1548 7.95855 17.9736 6.00006 18.1951C5.03973 18.3121 4.08781 18.4899 3.15006 18.7276C3.03936 18.7557 2.92372 18.7582 2.81194 18.7348C2.70016 18.7114 2.59519 18.6627 2.50506 18.5926C2.42115 18.5191 2.35472 18.4277 2.3106 18.3252C2.26649 18.2227 2.2458 18.1116 2.25006 18.0001V6.00012C2.24506 5.8288 2.29891 5.66093 2.40262 5.52447C2.50633 5.38801 2.65365 5.29118 2.82006 5.25012C3.91403 4.9761 5.02723 4.78555 6.15006 4.68012C8.16955 4.4894 10.2069 4.69059 12.1501 5.27262C13.9496 5.81318 15.8371 5.99912 17.7076 5.82012C18.7578 5.70816 19.7983 5.51763 20.8201 5.25012C20.9308 5.22203 21.0464 5.21959 21.1582 5.24299C21.27 5.26638 21.3749 5.315 21.4651 5.38512C21.5575 5.45806 21.6315 5.55174 21.681 5.65859C21.7305 5.76543 21.7542 5.88243 21.7501 6.00012V18.0001C21.7551 18.1714 21.7012 18.3393 21.5975 18.4758C21.4938 18.6122 21.3465 18.7091 21.1801 18.7501C20.1789 19.0059 19.1616 19.1938 18.1351 19.3126C17.5348 19.377 16.9313 19.407 16.3276 19.4026V19.4026ZM7.67256 16.5976C9.19573 16.6236 10.7088 16.8506 12.1726 17.2726C14.0466 17.8403 16.0164 18.0215 17.9626 17.8051C18.7196 17.7162 19.4709 17.5835 20.2126 17.4076V6.94512C19.4327 7.11257 18.6439 7.23527 17.8501 7.31262C15.8201 7.5151 13.7702 7.32411 11.8126 6.75012C10.0256 6.21057 8.15113 6.02211 6.29256 6.19512C5.43721 6.2713 4.58784 6.40409 3.75006 6.59262V17.0926C4.44873 16.9417 5.15465 16.8266 5.86506 16.7476C6.46421 16.6632 7.06769 16.6131 7.67256 16.5976V16.5976Z" fill="#44749B"/>
<path d="M3.27757 9.75013H2.94007C2.75174 9.73501 2.57605 9.64937 2.44812 9.51033C2.3202 9.37128 2.24947 9.18907 2.25007 9.00013V6.00013C2.24508 5.8288 2.29892 5.66094 2.40263 5.52447C2.50634 5.38801 2.65367 5.29119 2.82007 5.25013C3.91404 4.97611 5.02725 4.78556 6.15007 4.68013C6.33009 4.66239 6.51045 4.71031 6.65792 4.81506C6.80539 4.9198 6.91003 5.07432 6.95258 5.25013C7.00483 5.49665 7.02998 5.74814 7.02757 6.00013C7.02757 6.99469 6.63249 7.94852 5.92923 8.65178C5.22596 9.35504 4.27214 9.75013 3.27757 9.75013ZM3.75007 6.59263V8.19763C4.20897 8.09921 4.6256 7.85975 4.94164 7.51278C5.25768 7.16581 5.4573 6.72869 5.51257 6.26263C4.96507 6.34513 4.38007 6.45013 3.75007 6.59263Z" fill="#44749B"/>
<path d="M20.76 9.75009C19.8942 9.752 19.0545 9.45427 18.3832 8.90745C17.712 8.36062 17.2507 7.59838 17.0775 6.75009C17.0569 6.63887 17.0617 6.52443 17.0916 6.41533C17.1214 6.30623 17.1756 6.2053 17.25 6.12009C17.3119 6.03639 17.3905 5.96649 17.4809 5.91484C17.5713 5.86319 17.6715 5.83092 17.775 5.82009C18.8026 5.70484 19.8203 5.51432 20.82 5.25009C20.9307 5.222 21.0463 5.21956 21.1581 5.24296C21.2699 5.26635 21.3749 5.31497 21.465 5.38509C21.5575 5.45803 21.6314 5.55171 21.6809 5.65856C21.7305 5.7654 21.7541 5.8824 21.75 6.00009V9.00009C21.7526 9.17877 21.6913 9.3525 21.5772 9.49C21.4631 9.6275 21.3036 9.71973 21.1275 9.75009C21.0055 9.76515 20.882 9.76515 20.76 9.75009ZM18.855 7.20009C19.1715 7.70088 19.6728 8.05662 20.25 8.19009V6.94509C19.77 7.04259 19.305 7.13259 18.855 7.20009Z" fill="#44749B"/>
<path d="M3 18.7502C2.80109 18.7502 2.61032 18.6712 2.46967 18.5306C2.32902 18.3899 2.25 18.1992 2.25 18.0002V15.0002C2.25 14.8013 2.32902 14.6106 2.46967 14.4699C2.61032 14.3293 2.80109 14.2502 3 14.2502C3.87533 14.2514 4.72268 14.5587 5.39524 15.1189C6.0678 15.6792 6.52319 16.457 6.6825 17.3177C6.7015 17.4193 6.69932 17.5237 6.67609 17.6243C6.65286 17.725 6.60908 17.8198 6.5475 17.9027C6.48573 17.9842 6.40796 18.0522 6.31897 18.1025C6.22997 18.1528 6.13164 18.1843 6.03 18.1952C5.06968 18.3122 4.11776 18.49 3.18 18.7277C3.12113 18.7425 3.06069 18.7501 3 18.7502V18.7502ZM3.75 15.8777V17.0552C4.155 16.9727 4.545 16.8977 4.9275 16.8377C4.65817 16.3909 4.24193 16.0515 3.75 15.8777V15.8777Z" fill="#44749B"/>
<path d="M18.0526 19.2977C17.8792 19.302 17.7098 19.246 17.573 19.1393C17.4363 19.0327 17.3407 18.8819 17.3026 18.7127C17.2611 18.4776 17.2435 18.2389 17.2501 18.0002C17.2501 17.0057 17.6452 16.0519 18.3485 15.3486C19.0517 14.6453 20.0056 14.2502 21.0001 14.2502C21.199 14.2502 21.3898 14.3293 21.5304 14.4699C21.6711 14.6106 21.7501 14.8013 21.7501 15.0002V18.0002C21.7551 18.1716 21.7013 18.3394 21.5976 18.4759C21.4938 18.6124 21.3465 18.7092 21.1801 18.7502C20.1789 19.006 19.1616 19.1939 18.1351 19.3127L18.0526 19.2977ZM20.2501 15.8777C19.8569 16.0122 19.5085 16.253 19.2437 16.5734C18.979 16.8937 18.8081 17.2812 18.7501 17.6927C19.2226 17.6177 19.7176 17.5277 20.2501 17.4077V15.8777Z" fill="#44749B"/>
<path d="M13.125 15H10.5C10.3011 15 10.1103 14.921 9.96967 14.7803C9.82902 14.6397 9.75 14.4489 9.75 14.25C9.75 14.0511 9.82902 13.8603 9.96967 13.7197C10.1103 13.579 10.3011 13.5 10.5 13.5H13.125C13.2245 13.5 13.3198 13.4605 13.3902 13.3902C13.4605 13.3198 13.5 13.2245 13.5 13.125C13.5 13.0255 13.4605 12.9302 13.3902 12.8598C13.3198 12.7895 13.2245 12.75 13.125 12.75H10.875C10.3777 12.75 9.90081 12.5525 9.54917 12.2008C9.19754 11.8492 9 11.3723 9 10.875C9 10.3777 9.19754 9.90081 9.54917 9.54917C9.90081 9.19754 10.3777 9 10.875 9H13.5C13.6989 9 13.8897 9.07902 14.0303 9.21967C14.171 9.36032 14.25 9.55109 14.25 9.75C14.25 9.94891 14.171 10.1397 14.0303 10.2803C13.8897 10.421 13.6989 10.5 13.5 10.5H10.875C10.7755 10.5 10.6802 10.5395 10.6098 10.6098C10.5395 10.6802 10.5 10.7755 10.5 10.875C10.5 10.9745 10.5395 11.0698 10.6098 11.1402C10.6802 11.2105 10.7755 11.25 10.875 11.25H13.125C13.6223 11.25 14.0992 11.4475 14.4508 11.7992C14.8025 12.1508 15 12.6277 15 13.125C15 13.6223 14.8025 14.0992 14.4508 14.4508C14.0992 14.8025 13.6223 15 13.125 15Z" fill="#44749B"/>
<path d="M12 10.5C11.8011 10.5 11.6103 10.421 11.4697 10.2803C11.329 10.1397 11.25 9.94891 11.25 9.75V9C11.25 8.80109 11.329 8.61032 11.4697 8.46967C11.6103 8.32902 11.8011 8.25 12 8.25C12.1989 8.25 12.3897 8.32902 12.5303 8.46967C12.671 8.61032 12.75 8.80109 12.75 9V9.75C12.75 9.94891 12.671 10.1397 12.5303 10.2803C12.3897 10.421 12.1989 10.5 12 10.5Z" fill="#44749B"/>
<path d="M12 15.75C11.8011 15.75 11.6103 15.671 11.4697 15.5303C11.329 15.3897 11.25 15.1989 11.25 15V14.25C11.25 14.0511 11.329 13.8603 11.4697 13.7197C11.6103 13.579 11.8011 13.5 12 13.5C12.1989 13.5 12.3897 13.579 12.5303 13.7197C12.671 13.8603 12.75 14.0511 12.75 14.25V15C12.75 15.1989 12.671 15.3897 12.5303 15.5303C12.3897 15.671 12.1989 15.75 12 15.75Z" fill="#44749B"/>
</svg>
