<svg width="36" height="36" viewBox="0 0 36 36" fill="none" xmlns="http://www.w3.org/2000/svg">
<rect width="36" height="36" rx="5" fill="white"/>
<path d="M22.328 25.4026C20.8049 25.3766 19.2918 25.1497 17.828 24.7276C15.9421 24.1548 13.959 23.9736 12.0005 24.1951C11.0402 24.3121 10.0883 24.4899 9.15054 24.7276C9.03985 24.7557 8.9242 24.7582 8.81242 24.7348C8.70064 24.7114 8.59568 24.6627 8.50554 24.5926C8.42164 24.5191 8.35521 24.4277 8.31109 24.3252C8.26698 24.2227 8.24629 24.1116 8.25054 24.0001V12.0001C8.24555 11.8288 8.29939 11.6609 8.4031 11.5245C8.50682 11.388 8.65414 11.2912 8.82054 11.2501C9.91452 10.9761 11.0277 10.7855 12.1505 10.6801C14.17 10.4894 16.2074 10.6906 18.1505 11.2726C19.9501 11.8132 21.8376 11.9991 23.7081 11.8201C24.7583 11.7082 25.7988 11.5176 26.8206 11.2501C26.9312 11.222 27.0469 11.2196 27.1587 11.243C27.2705 11.2664 27.3754 11.315 27.4656 11.3851C27.558 11.4581 27.632 11.5517 27.6815 11.6586C27.731 11.7654 27.7547 11.8824 27.7506 12.0001V24.0001C27.7555 24.1714 27.7017 24.3393 27.598 24.4758C27.4943 24.6122 27.347 24.7091 27.1806 24.7501C26.1794 25.0059 25.162 25.1938 24.1356 25.3126C23.5353 25.377 22.9318 25.407 22.328 25.4026ZM13.673 22.5976C15.1962 22.6236 16.7093 22.8506 18.173 23.2726C20.0471 23.8403 22.0169 24.0215 23.9631 23.8051C24.7201 23.7162 25.4714 23.5835 26.2131 23.4076V12.9451C25.4332 13.1126 24.6444 13.2353 23.8505 13.3126C21.8206 13.5151 19.7707 13.3241 17.813 12.7501C16.0261 12.2106 14.1516 12.0221 12.293 12.1951C11.4377 12.2713 10.5883 12.4041 9.75055 12.5926V23.0926C10.4492 22.9417 11.1551 22.8266 11.8655 22.7476C12.4647 22.6632 13.0682 22.6131 13.673 22.5976Z" fill="#009F40"/>
<path d="M9.27782 15.7499H8.94032C8.75198 15.7348 8.57629 15.6491 8.44837 15.5101C8.32044 15.371 8.24971 15.1888 8.25032 14.9999V11.9999C8.24533 11.8286 8.29917 11.6607 8.40288 11.5242C8.50659 11.3878 8.65391 11.2909 8.82032 11.2499C9.91429 10.9759 11.0275 10.7853 12.1503 10.6799C12.3303 10.6621 12.5107 10.7101 12.6582 10.8148C12.8056 10.9196 12.9103 11.0741 12.9528 11.2499C13.0051 11.4964 13.0302 11.7479 13.0278 11.9999C13.0278 12.9944 12.6327 13.9483 11.9295 14.6515C11.2262 15.3548 10.2724 15.7499 9.27782 15.7499ZM9.75032 12.5924V14.1974C10.2092 14.099 10.6258 13.8595 10.9419 13.5125C11.2579 13.1656 11.4575 12.7284 11.5128 12.2624C10.9653 12.3449 10.3803 12.4499 9.75032 12.5924Z" fill="#009F40"/>
<path d="M26.7576 15.7501C25.8918 15.752 25.052 15.4543 24.3808 14.9074C23.7096 14.3606 23.2482 13.5984 23.0751 12.7501C23.0544 12.6389 23.0593 12.5244 23.0891 12.4153C23.119 12.3062 23.1732 12.2053 23.2476 12.1201C23.3095 12.0364 23.3881 11.9665 23.4785 11.9148C23.5689 11.8632 23.669 11.8309 23.7726 11.8201C24.8001 11.7048 25.8179 11.5143 26.8176 11.2501C26.9283 11.222 27.0439 11.2196 27.1557 11.243C27.2675 11.2664 27.3724 11.315 27.4626 11.3851C27.555 11.458 27.629 11.5517 27.6785 11.6586C27.728 11.7654 27.7517 11.8824 27.7476 12.0001V15.0001C27.7502 15.1788 27.6889 15.3525 27.5748 15.49C27.4606 15.6275 27.3012 15.7197 27.1251 15.7501C27.003 15.7652 26.8796 15.7652 26.7576 15.7501ZM24.8526 13.2001C25.1691 13.7009 25.6704 14.0566 26.2476 14.1901V12.9451C25.7676 13.0426 25.3026 13.1326 24.8526 13.2001Z" fill="#009F40"/>
<path d="M9 24.75C8.80109 24.75 8.61032 24.671 8.46967 24.5303C8.32902 24.3897 8.25 24.1989 8.25 24V21C8.25 20.8011 8.32902 20.6103 8.46967 20.4697C8.61032 20.329 8.80109 20.25 9 20.25C9.87533 20.2511 10.7227 20.5584 11.3952 21.1187C12.0678 21.6789 12.5232 22.4568 12.6825 23.3175C12.7015 23.419 12.6993 23.5234 12.6761 23.6241C12.6529 23.7248 12.6091 23.8195 12.5475 23.9025C12.4857 23.9839 12.408 24.0519 12.319 24.1022C12.23 24.1525 12.1316 24.1841 12.03 24.195C11.0697 24.3119 10.1178 24.4898 9.18 24.7275C9.12113 24.7423 9.06069 24.7498 9 24.75ZM9.75 21.8775V23.055C10.155 22.9725 10.545 22.8975 10.9275 22.8375C10.6582 22.3907 10.2419 22.0513 9.75 21.8775Z" fill="#009F40"/>
<path d="M24.0538 25.2975C23.8805 25.3017 23.711 25.2458 23.5742 25.1391C23.4375 25.0324 23.3419 24.8817 23.3038 24.7125C23.2624 24.4774 23.2448 24.2387 23.2513 24C23.2513 23.0054 23.6464 22.0516 24.3497 21.3483C25.053 20.6451 26.0068 20.25 27.0013 20.25C27.2003 20.25 27.391 20.329 27.5317 20.4697C27.6723 20.6103 27.7513 20.8011 27.7513 21V24C27.7563 24.1713 27.7025 24.3392 27.5988 24.4757C27.4951 24.6121 27.3477 24.7089 27.1813 24.75C26.1801 25.0058 25.1628 25.1937 24.1363 25.3125L24.0538 25.2975ZM26.2513 21.8775C25.8581 22.012 25.5097 22.2527 25.245 22.5731C24.9802 22.8935 24.8093 23.2809 24.7513 23.6925C25.2238 23.6175 25.7188 23.5275 26.2513 23.4075V21.8775Z" fill="#009F40"/>
<path d="M19.125 21H16.5C16.3011 21 16.1103 20.921 15.9697 20.7803C15.829 20.6397 15.75 20.4489 15.75 20.25C15.75 20.0511 15.829 19.8603 15.9697 19.7197C16.1103 19.579 16.3011 19.5 16.5 19.5H19.125C19.2245 19.5 19.3198 19.4605 19.3902 19.3902C19.4605 19.3198 19.5 19.2245 19.5 19.125C19.5 19.0255 19.4605 18.9302 19.3902 18.8598C19.3198 18.7895 19.2245 18.75 19.125 18.75H16.875C16.3777 18.75 15.9008 18.5525 15.5492 18.2008C15.1975 17.8492 15 17.3723 15 16.875C15 16.3777 15.1975 15.9008 15.5492 15.5492C15.9008 15.1975 16.3777 15 16.875 15H19.5C19.6989 15 19.8897 15.079 20.0303 15.2197C20.171 15.3603 20.25 15.5511 20.25 15.75C20.25 15.9489 20.171 16.1397 20.0303 16.2803C19.8897 16.421 19.6989 16.5 19.5 16.5H16.875C16.7755 16.5 16.6802 16.5395 16.6098 16.6098C16.5395 16.6802 16.5 16.7755 16.5 16.875C16.5 16.9745 16.5395 17.0698 16.6098 17.1402C16.6802 17.2105 16.7755 17.25 16.875 17.25H19.125C19.6223 17.25 20.0992 17.4475 20.4508 17.7992C20.8025 18.1508 21 18.6277 21 19.125C21 19.6223 20.8025 20.0992 20.4508 20.4508C20.0992 20.8025 19.6223 21 19.125 21Z" fill="#009F40"/>
<path d="M18 16.5C17.8011 16.5 17.6103 16.421 17.4697 16.2803C17.329 16.1397 17.25 15.9489 17.25 15.75V15C17.25 14.8011 17.329 14.6103 17.4697 14.4697C17.6103 14.329 17.8011 14.25 18 14.25C18.1989 14.25 18.3897 14.329 18.5303 14.4697C18.671 14.6103 18.75 14.8011 18.75 15V15.75C18.75 15.9489 18.671 16.1397 18.5303 16.2803C18.3897 16.421 18.1989 16.5 18 16.5Z" fill="#009F40"/>
<path d="M18 21.75C17.8011 21.75 17.6103 21.671 17.4697 21.5303C17.329 21.3897 17.25 21.1989 17.25 21V20.25C17.25 20.0511 17.329 19.8603 17.4697 19.7197C17.6103 19.579 17.8011 19.5 18 19.5C18.1989 19.5 18.3897 19.579 18.5303 19.7197C18.671 19.8603 18.75 20.0511 18.75 20.25V21C18.75 21.1989 18.671 21.3897 18.5303 21.5303C18.3897 21.671 18.1989 21.75 18 21.75Z" fill="#009F40"/>
</svg>
