<svg width="16" height="16" viewBox="0 0 16 16" fill="none" xmlns="http://www.w3.org/2000/svg">
<path d="M11.3414 13.7141C10.1656 13.694 8.99753 13.5188 7.86756 13.193C6.4117 12.7508 4.88081 12.6109 3.36893 12.7819C2.62759 12.8722 1.89274 13.0095 1.16882 13.193C1.08337 13.2147 0.994095 13.2165 0.907805 13.1985C0.821514 13.1804 0.740488 13.1429 0.670904 13.0888C0.606132 13.032 0.554849 12.9614 0.520795 12.8823C0.48674 12.8032 0.470771 12.7175 0.474053 12.6314V3.36778C0.4702 3.23552 0.511764 3.10593 0.591825 3.00059C0.671885 2.89525 0.785613 2.8205 0.914074 2.7888C1.75858 2.57727 2.61794 2.43017 3.48472 2.34878C5.0437 2.20155 6.61645 2.35686 8.11652 2.80617C9.50574 3.22347 10.9628 3.36701 12.4067 3.22882C13.2175 3.1424 14.0207 2.99531 14.8095 2.7888C14.8949 2.76712 14.9842 2.76523 15.0705 2.7833C15.1568 2.80136 15.2378 2.83888 15.3074 2.89302C15.3788 2.94932 15.4359 3.02165 15.4741 3.10413C15.5123 3.18661 15.5306 3.27693 15.5274 3.36778V12.6314C15.5312 12.7636 15.4897 12.8932 15.4096 12.9986C15.3296 13.1039 15.2158 13.1786 15.0874 13.2103C14.3145 13.4078 13.5292 13.5529 12.7367 13.6446C12.2733 13.6942 11.8075 13.7174 11.3414 13.7141V13.7141ZM4.66004 11.5487C5.83587 11.5688 7.00391 11.744 8.13389 12.0698C9.58058 12.508 11.1012 12.6479 12.6036 12.4808C13.188 12.4122 13.7679 12.3098 14.3405 12.174V4.09729C13.7385 4.22655 13.1296 4.32127 12.5167 4.38098C10.9497 4.53729 9.36718 4.38985 7.85598 3.94675C6.47653 3.53024 5.02948 3.38475 3.59473 3.51831C2.93442 3.57712 2.27874 3.67963 1.632 3.82517V11.9308C2.17135 11.8143 2.7163 11.7254 3.26471 11.6645C3.72723 11.5993 4.1931 11.5607 4.66004 11.5487V11.5487Z" fill="white"/>
<path d="M1.26707 6.26334H1.00654C0.861146 6.25167 0.725518 6.18556 0.626765 6.07822C0.528012 5.97088 0.473411 5.83022 0.473879 5.68436V3.36847C0.470025 3.23621 0.511589 3.10662 0.59165 3.00128C0.671711 2.89593 0.785439 2.82119 0.913899 2.78949C1.75841 2.57795 2.61776 2.43086 3.48455 2.34947C3.62351 2.33578 3.76274 2.37277 3.87658 2.45363C3.99043 2.53449 4.07121 2.65377 4.10405 2.78949C4.14439 2.9798 4.1638 3.17394 4.16195 3.36847C4.16195 4.13623 3.85695 4.87256 3.31406 5.41545C2.77116 5.95834 2.03484 6.26334 1.26707 6.26334ZM1.63183 3.82586V5.06486C1.98608 4.98888 2.3077 4.80403 2.55167 4.53618C2.79564 4.26833 2.94975 3.93089 2.99242 3.57111C2.56977 3.63479 2.11817 3.71585 1.63183 3.82586Z" fill="white"/>
<path d="M14.7636 6.26214C14.0952 6.26361 13.447 6.03378 12.9288 5.61165C12.4106 5.18952 12.0545 4.60109 11.9208 3.94624C11.9049 3.86038 11.9086 3.77204 11.9317 3.68782C11.9547 3.60359 11.9966 3.52568 12.054 3.45991C12.1018 3.39529 12.1625 3.34133 12.2323 3.30146C12.302 3.26159 12.3793 3.23668 12.4593 3.22832C13.2525 3.13934 14.0382 2.99227 14.8099 2.78829C14.8954 2.76661 14.9846 2.76473 15.0709 2.78279C15.1572 2.80085 15.2382 2.83838 15.3078 2.89251C15.3792 2.94882 15.4363 3.02114 15.4745 3.10362C15.5128 3.1861 15.531 3.27642 15.5278 3.36727V5.68317C15.5298 5.8211 15.4825 5.95521 15.3944 6.06136C15.3063 6.1675 15.1832 6.23871 15.0473 6.26214C14.9531 6.27377 14.8578 6.27377 14.7636 6.26214ZM13.293 4.29363C13.5374 4.68022 13.9243 4.95484 14.3699 5.05787V4.09678C13.9993 4.17204 13.6404 4.24152 13.293 4.29363Z" fill="white"/>
<path d="M1.05261 13.2102C0.899054 13.2102 0.751789 13.1492 0.64321 13.0406C0.534632 12.932 0.473633 12.7848 0.473633 12.6312V10.3153C0.473633 10.1617 0.534632 10.0145 0.64321 9.90591C0.751789 9.79733 0.899054 9.73633 1.05261 9.73633C1.72833 9.73721 2.38246 9.97444 2.90165 10.4069C3.42085 10.8394 3.77239 11.4399 3.89537 12.1043C3.91004 12.1827 3.90836 12.2633 3.89042 12.341C3.87249 12.4187 3.83869 12.4919 3.79116 12.5559C3.74347 12.6188 3.68343 12.6713 3.61474 12.7101C3.54604 12.7489 3.47013 12.7733 3.39166 12.7817C2.65033 12.872 1.91548 13.0093 1.19156 13.1928C1.14612 13.2042 1.09946 13.21 1.05261 13.2102V13.2102ZM1.63158 10.9927V11.9017C1.94423 11.838 2.24529 11.7801 2.54057 11.7338C2.33266 11.3888 2.01134 11.1269 1.63158 10.9927V10.9927Z" fill="white"/>
<path d="M12.6733 13.6328C12.5394 13.6361 12.4086 13.5929 12.303 13.5105C12.1975 13.4282 12.1237 13.3118 12.0943 13.1812C12.0623 12.9997 12.0487 12.8154 12.0538 12.6312C12.0538 11.8634 12.3588 11.1271 12.9017 10.5842C13.4446 10.0413 14.1809 9.73633 14.9486 9.73633C15.1022 9.73633 15.2495 9.79733 15.358 9.90591C15.4666 10.0145 15.5276 10.1617 15.5276 10.3153V12.6312C15.5315 12.7635 15.4899 12.893 15.4098 12.9984C15.3298 13.1037 15.2161 13.1785 15.0876 13.2102C14.3147 13.4076 13.5294 13.5527 12.737 13.6444L12.6733 13.6328ZM14.3697 10.9927C14.0661 11.0965 13.7972 11.2824 13.5928 11.5297C13.3884 11.777 13.2565 12.0761 13.2117 12.3938C13.5765 12.3359 13.9586 12.2664 14.3697 12.1738V10.9927Z" fill="white"/>
<path d="M8.86893 10.3154H6.84252C6.68897 10.3154 6.5417 10.2544 6.43312 10.1458C6.32454 10.0372 6.26354 9.88997 6.26354 9.73642C6.26354 9.58286 6.32454 9.4356 6.43312 9.32702C6.5417 9.21844 6.68897 9.15744 6.84252 9.15744H8.86893C8.94571 9.15744 9.01934 9.12694 9.07363 9.07265C9.12792 9.01836 9.15842 8.94473 9.15842 8.86795C9.15842 8.79118 9.12792 8.71754 9.07363 8.66325C9.01934 8.60897 8.94571 8.57847 8.86893 8.57847H7.13201C6.74812 8.57847 6.37996 8.42597 6.10851 8.15452C5.83707 7.88307 5.68457 7.51491 5.68457 7.13103C5.68457 6.74715 5.83707 6.37898 6.10851 6.10754C6.37996 5.83609 6.74812 5.68359 7.13201 5.68359H9.15842C9.31197 5.68359 9.45924 5.74459 9.56781 5.85317C9.67639 5.96175 9.73739 6.10901 9.73739 6.26257C9.73739 6.41612 9.67639 6.56339 9.56781 6.67196C9.45924 6.78054 9.31197 6.84154 9.15842 6.84154H7.13201C7.05523 6.84154 6.9816 6.87204 6.92731 6.92633C6.87302 6.98062 6.84252 7.05425 6.84252 7.13103C6.84252 7.20781 6.87302 7.28144 6.92731 7.33573C6.9816 7.39002 7.05523 7.42052 7.13201 7.42052H8.86893C9.25281 7.42052 9.62097 7.57301 9.89242 7.84446C10.1639 8.11591 10.3164 8.48407 10.3164 8.86795C10.3164 9.25184 10.1639 9.62 9.89242 9.89145C9.62097 10.1629 9.25281 10.3154 8.86893 10.3154Z" fill="white"/>
<path d="M7.99987 6.84142C7.84632 6.84142 7.69905 6.78042 7.59048 6.67184C7.4819 6.56326 7.4209 6.41599 7.4209 6.26244V5.68347C7.4209 5.52991 7.4819 5.38265 7.59048 5.27407C7.69905 5.16549 7.84632 5.10449 7.99987 5.10449C8.15343 5.10449 8.30069 5.16549 8.40927 5.27407C8.51785 5.38265 8.57885 5.52991 8.57885 5.68347V6.26244C8.57885 6.41599 8.51785 6.56326 8.40927 6.67184C8.30069 6.78042 8.15343 6.84142 7.99987 6.84142Z" fill="white"/>
<path d="M7.99987 10.8941C7.84632 10.8941 7.69905 10.8332 7.59048 10.7246C7.4819 10.616 7.4209 10.4687 7.4209 10.3152V9.7362C7.4209 9.58265 7.4819 9.43538 7.59048 9.3268C7.69905 9.21823 7.84632 9.15723 7.99987 9.15723C8.15343 9.15723 8.30069 9.21823 8.40927 9.3268C8.51785 9.43538 8.57885 9.58265 8.57885 9.7362V10.3152C8.57885 10.4687 8.51785 10.616 8.40927 10.7246C8.30069 10.8332 8.15343 10.8941 7.99987 10.8941Z" fill="white"/>
</svg>
