<svg width="24" height="24" viewBox="0 0 24 24" fill="none" xmlns="http://www.w3.org/2000/svg">
<path d="M16.328 19.4026C14.8049 19.3766 13.2918 19.1497 11.828 18.7276C9.94214 18.1548 7.95904 17.9736 6.00055 18.1951C5.04022 18.3121 4.0883 18.4899 3.15054 18.7276C3.03985 18.7557 2.9242 18.7582 2.81242 18.7348C2.70064 18.7114 2.59568 18.6627 2.50554 18.5926C2.42164 18.5191 2.35521 18.4277 2.31109 18.3252C2.26698 18.2227 2.24629 18.1116 2.25054 18.0001V6.00012C2.24555 5.8288 2.29939 5.66093 2.4031 5.52447C2.50682 5.38801 2.65414 5.29118 2.82054 5.25012C3.91452 4.9761 5.02772 4.78555 6.15055 4.68012C8.17004 4.4894 10.2074 4.69059 12.1505 5.27262C13.9501 5.81318 15.8376 5.99912 17.7081 5.82012C18.7583 5.70816 19.7988 5.51763 20.8206 5.25012C20.9312 5.22203 21.0469 5.21959 21.1587 5.24299C21.2705 5.26638 21.3754 5.315 21.4656 5.38512C21.558 5.45806 21.632 5.55174 21.6815 5.65859C21.731 5.76543 21.7547 5.88243 21.7506 6.00012V18.0001C21.7555 18.1714 21.7017 18.3393 21.598 18.4758C21.4943 18.6122 21.347 18.7091 21.1806 18.7501C20.1794 19.0059 19.162 19.1938 18.1356 19.3126C17.5353 19.377 16.9318 19.407 16.328 19.4026ZM7.67305 16.5976C9.19621 16.6236 10.7093 16.8506 12.173 17.2726C14.0471 17.8403 16.0169 18.0215 17.9631 17.8051C18.7201 17.7162 19.4714 17.5835 20.2131 17.4076V6.94512C19.4332 7.11257 18.6444 7.23527 17.8505 7.31262C15.8206 7.5151 13.7707 7.32411 11.813 6.75012C10.0261 6.21057 8.15162 6.02211 6.29305 6.19512C5.43769 6.2713 4.58833 6.40409 3.75055 6.59262V17.0926C4.44921 16.9417 5.15513 16.8266 5.86555 16.7476C6.4647 16.6632 7.06818 16.6131 7.67305 16.5976Z" fill="#009F40"/>
<path d="M3.27782 9.74989H2.94032C2.75198 9.73477 2.57629 9.64913 2.44837 9.51008C2.32044 9.37103 2.24971 9.18883 2.25032 8.99989V5.99988C2.24533 5.82856 2.29917 5.66069 2.40288 5.52423C2.50659 5.38777 2.65391 5.29095 2.82032 5.24988C3.91429 4.97586 5.02749 4.78531 6.15032 4.67988C6.33033 4.66215 6.51069 4.71007 6.65816 4.81481C6.80563 4.91956 6.91028 5.07407 6.95282 5.24988C7.00508 5.4964 7.03023 5.7479 7.02782 5.99988C7.02782 6.99445 6.63273 7.94827 5.92947 8.65154C5.22621 9.3548 4.27238 9.74989 3.27782 9.74989ZM3.75032 6.59238V8.19739C4.20921 8.09896 4.62584 7.8595 4.94188 7.51253C5.25792 7.16556 5.45755 6.72845 5.51282 6.26239C4.96532 6.34489 4.38032 6.44988 3.75032 6.59238Z" fill="#009F40"/>
<path d="M20.7576 9.75009C19.8918 9.752 19.052 9.45427 18.3808 8.90745C17.7096 8.36062 17.2482 7.59838 17.0751 6.75009C17.0544 6.63887 17.0593 6.52443 17.0891 6.41533C17.119 6.30623 17.1732 6.2053 17.2476 6.12009C17.3095 6.03639 17.3881 5.96649 17.4785 5.91484C17.5689 5.86319 17.669 5.83092 17.7726 5.82009C18.8001 5.70484 19.8179 5.51432 20.8176 5.25009C20.9283 5.222 21.0439 5.21956 21.1557 5.24296C21.2675 5.26635 21.3724 5.31497 21.4626 5.38509C21.555 5.45803 21.629 5.55171 21.6785 5.65856C21.728 5.7654 21.7517 5.8824 21.7476 6.00009V9.00009C21.7502 9.17877 21.6889 9.3525 21.5748 9.49C21.4606 9.6275 21.3012 9.71973 21.1251 9.75009C21.003 9.76515 20.8796 9.76515 20.7576 9.75009ZM18.8526 7.20009C19.1691 7.70088 19.6704 8.05662 20.2476 8.19009V6.94509C19.7676 7.04259 19.3026 7.13259 18.8526 7.20009Z" fill="#009F40"/>
<path d="M3 18.75C2.80109 18.75 2.61032 18.671 2.46967 18.5303C2.32902 18.3897 2.25 18.1989 2.25 18V15C2.25 14.8011 2.32902 14.6103 2.46967 14.4697C2.61032 14.329 2.80109 14.25 3 14.25C3.87533 14.2511 4.72268 14.5584 5.39524 15.1187C6.0678 15.6789 6.52319 16.4568 6.6825 17.3175C6.7015 17.419 6.69932 17.5234 6.67609 17.6241C6.65286 17.7248 6.60908 17.8195 6.5475 17.9025C6.48573 17.9839 6.40796 18.0519 6.31897 18.1022C6.22997 18.1525 6.13164 18.1841 6.03 18.195C5.06968 18.3119 4.11776 18.4898 3.18 18.7275C3.12113 18.7423 3.06069 18.7498 3 18.75ZM3.75 15.8775V17.055C4.155 16.9725 4.545 16.8975 4.9275 16.8375C4.65817 16.3907 4.24193 16.0513 3.75 15.8775Z" fill="#009F40"/>
<path d="M18.0538 19.2975C17.8805 19.3017 17.711 19.2458 17.5742 19.1391C17.4375 19.0324 17.3419 18.8817 17.3038 18.7125C17.2624 18.4774 17.2448 18.2387 17.2513 18C17.2513 17.0054 17.6464 16.0516 18.3497 15.3483C19.053 14.6451 20.0068 14.25 21.0013 14.25C21.2003 14.25 21.391 14.329 21.5317 14.4697C21.6723 14.6103 21.7513 14.8011 21.7513 15V18C21.7563 18.1713 21.7025 18.3392 21.5988 18.4757C21.4951 18.6121 21.3477 18.7089 21.1813 18.75C20.1801 19.0058 19.1628 19.1937 18.1363 19.3125L18.0538 19.2975ZM20.2513 15.8775C19.8581 16.012 19.5097 16.2527 19.245 16.5731C18.9802 16.8935 18.8093 17.2809 18.7513 17.6925C19.2238 17.6175 19.7188 17.5275 20.2513 17.4075V15.8775Z" fill="#009F40"/>
<path d="M13.125 15H10.5C10.3011 15 10.1103 14.921 9.96967 14.7803C9.82902 14.6397 9.75 14.4489 9.75 14.25C9.75 14.0511 9.82902 13.8603 9.96967 13.7197C10.1103 13.579 10.3011 13.5 10.5 13.5H13.125C13.2245 13.5 13.3198 13.4605 13.3902 13.3902C13.4605 13.3198 13.5 13.2245 13.5 13.125C13.5 13.0255 13.4605 12.9302 13.3902 12.8598C13.3198 12.7895 13.2245 12.75 13.125 12.75H10.875C10.3777 12.75 9.90081 12.5525 9.54917 12.2008C9.19754 11.8492 9 11.3723 9 10.875C9 10.3777 9.19754 9.90081 9.54917 9.54917C9.90081 9.19754 10.3777 9 10.875 9H13.5C13.6989 9 13.8897 9.07902 14.0303 9.21967C14.171 9.36032 14.25 9.55109 14.25 9.75C14.25 9.94891 14.171 10.1397 14.0303 10.2803C13.8897 10.421 13.6989 10.5 13.5 10.5H10.875C10.7755 10.5 10.6802 10.5395 10.6098 10.6098C10.5395 10.6802 10.5 10.7755 10.5 10.875C10.5 10.9745 10.5395 11.0698 10.6098 11.1402C10.6802 11.2105 10.7755 11.25 10.875 11.25H13.125C13.6223 11.25 14.0992 11.4475 14.4508 11.7992C14.8025 12.1508 15 12.6277 15 13.125C15 13.6223 14.8025 14.0992 14.4508 14.4508C14.0992 14.8025 13.6223 15 13.125 15Z" fill="#009F40"/>
<path d="M12 10.5C11.8011 10.5 11.6103 10.421 11.4697 10.2803C11.329 10.1397 11.25 9.94891 11.25 9.75V9C11.25 8.80109 11.329 8.61032 11.4697 8.46967C11.6103 8.32902 11.8011 8.25 12 8.25C12.1989 8.25 12.3897 8.32902 12.5303 8.46967C12.671 8.61032 12.75 8.80109 12.75 9V9.75C12.75 9.94891 12.671 10.1397 12.5303 10.2803C12.3897 10.421 12.1989 10.5 12 10.5Z" fill="#009F40"/>
<path d="M12 15.75C11.8011 15.75 11.6103 15.671 11.4697 15.5303C11.329 15.3897 11.25 15.1989 11.25 15V14.25C11.25 14.0511 11.329 13.8603 11.4697 13.7197C11.6103 13.579 11.8011 13.5 12 13.5C12.1989 13.5 12.3897 13.579 12.5303 13.7197C12.671 13.8603 12.75 14.0511 12.75 14.25V15C12.75 15.1989 12.671 15.3897 12.5303 15.5303C12.3897 15.671 12.1989 15.75 12 15.75Z" fill="#009F40"/>
</svg>
