<svg id="Page-1" xmlns="http://www.w3.org/2000/svg" width="16.191" height="14.991" viewBox="0 0 16.191 14.991">
  <g id="icon-147-tags" transform="translate(0 0)">
    <path id="tags" d="M17.991,4.6a1.2,1.2,0,0,1,1.2,1.2v4.8l-8.033,8.033a1.2,1.2,0,0,1-1.573.115L17.991,10.3V4.6s0,0,0,0Zm-6.6-.6h4.8a1.2,1.2,0,0,1,1.2,1.2V10L9.357,18.036a1.2,1.2,0,0,1-1.7,0L3.35,13.732a1.2,1.2,0,0,1,0-1.7L11.387,4Zm2.7,4.2a.9.9,0,1,1,.9-.9.9.9,0,0,1-.9.9Z" transform="translate(-3 -4)" fill="#9baebc" fill-rule="evenodd"/>
  </g>
</svg>
