<svg width="28" height="28" viewBox="0 0 28 28" fill="none" xmlns="http://www.w3.org/2000/svg">
<path d="M14 28C21.732 28 28 21.732 28 14C28 6.26801 21.732 0 14 0C6.26801 0 0 6.26801 0 14C0 21.732 6.26801 28 14 28Z" fill="#5570C9"/>
<path d="M18.3402 14.5849C18.2118 14.5849 18.0777 14.5441 17.9494 14.5149C17.6895 14.4577 17.4341 14.3816 17.1852 14.2874C16.9146 14.189 16.6171 14.1941 16.35 14.3018C16.083 14.4095 15.8651 14.6121 15.7385 14.8708L15.6102 15.1333C15.042 14.8172 14.5199 14.4246 14.0585 13.9666C13.6005 13.5052 13.2079 12.9831 12.8918 12.4149L13.1368 12.2516C13.3955 12.125 13.5981 11.9072 13.7058 11.6401C13.8135 11.373 13.8186 11.0755 13.7202 10.8049C13.6276 10.5555 13.5516 10.3002 13.4927 10.0408C13.4635 9.91242 13.4402 9.77826 13.4227 9.64409C13.3518 9.2332 13.1366 8.86111 12.8158 8.59481C12.495 8.32852 12.0896 8.18553 11.6727 8.19159H9.92268C9.67128 8.18923 9.42233 8.24107 9.19276 8.34357C8.9632 8.44607 8.75841 8.59683 8.59235 8.78559C8.42629 8.97435 8.30284 9.19667 8.23042 9.43742C8.15801 9.67818 8.13831 9.93171 8.17268 10.1808C8.48344 12.6246 9.59953 14.8952 11.3446 16.634C13.0898 18.3727 15.3644 19.4806 17.8094 19.7824H18.031C18.4612 19.7831 18.8765 19.6252 19.1977 19.3391C19.3822 19.174 19.5296 18.9717 19.6302 18.7454C19.7308 18.5192 19.7822 18.2742 19.781 18.0266V16.2766C19.7739 15.8714 19.6263 15.4812 19.3635 15.1727C19.1008 14.8642 18.7391 14.6565 18.3402 14.5849ZM18.6318 18.0849C18.6317 18.1678 18.614 18.2496 18.5798 18.325C18.5456 18.4005 18.4957 18.4678 18.4335 18.5224C18.3683 18.5787 18.2921 18.6207 18.2098 18.6459C18.1274 18.671 18.0407 18.6786 17.9552 18.6683C15.7705 18.3881 13.7413 17.3887 12.1876 15.8276C10.6339 14.2665 9.64409 12.2325 9.37435 10.0466C9.36506 9.96114 9.3732 9.8747 9.39827 9.79249C9.42333 9.71027 9.46481 9.63399 9.52018 9.56826C9.57485 9.50603 9.64213 9.45617 9.71757 9.42197C9.793 9.38777 9.87486 9.37003 9.95768 9.36992H11.7077C11.8433 9.36691 11.9758 9.41127 12.0823 9.49538C12.1887 9.57949 12.2626 9.69809 12.291 9.83076C12.3143 9.9902 12.3435 10.1477 12.3785 10.3033C12.4459 10.6108 12.5356 10.9129 12.6468 11.2074L11.8302 11.5866C11.7604 11.6186 11.6975 11.6641 11.6454 11.7205C11.5932 11.7769 11.5526 11.843 11.5261 11.9151C11.4995 11.9872 11.4875 12.0638 11.4906 12.1406C11.4937 12.2174 11.512 12.2927 11.5443 12.3624C12.3839 14.1607 13.8294 15.6062 15.6277 16.4458C15.7697 16.5041 15.929 16.5041 16.071 16.4458C16.1438 16.4197 16.2106 16.3795 16.2677 16.3274C16.3248 16.2754 16.3709 16.2125 16.4035 16.1424L16.7652 15.3258C17.0667 15.4336 17.3745 15.5232 17.6868 15.5941C17.8424 15.6291 17.9999 15.6583 18.1593 15.6816C18.292 15.7101 18.4106 15.7839 18.4947 15.8903C18.5788 15.9968 18.6232 16.1293 18.6202 16.2649L18.6318 18.0849Z" fill="white"/>
</svg>
