<svg width="28" height="28" viewBox="0 0 28 28" fill="none" xmlns="http://www.w3.org/2000/svg">
<path d="M14 28C21.732 28 28 21.732 28 14C28 6.26801 21.732 0 14 0C6.26801 0 0 6.26801 0 14C0 21.732 6.26801 28 14 28Z" fill="#6C22B5"/>
<path d="M11.083 14H16.9163" stroke="white" stroke-width="1.3" stroke-linecap="round" stroke-linejoin="round"/>
<path d="M11.083 11.668H14.583" stroke="white" stroke-width="1.3" stroke-linecap="round" stroke-linejoin="round"/>
<path d="M8.75 18.8355V9.91667C8.75 9.27233 9.27233 8.75 9.91667 8.75H18.0833C18.7277 8.75 19.25 9.27233 19.25 9.91667V15.75C19.25 16.3944 18.7277 16.9167 18.0833 16.9167H11.6441C11.2896 16.9167 10.9545 17.0778 10.733 17.3545L9.3733 19.0542C9.16662 19.3125 8.75 19.1664 8.75 18.8355Z" stroke="white" stroke-width="1.3"/>
</svg>
