<svg width="28" height="28" viewBox="0 0 28 28" fill="none" xmlns="http://www.w3.org/2000/svg">
<path d="M14 28C21.732 28 28 21.732 28 14C28 6.26801 21.732 0 14 0C6.26801 0 0 6.26801 0 14C0 21.732 6.26801 28 14 28Z" fill="#11A750"/>
<path d="M18.3884 8.98047H9.6134C9.11479 8.98047 8.63661 9.17854 8.28404 9.53111C7.93147 9.88368 7.7334 10.3619 7.7334 10.8605V17.1285C7.7334 17.6271 7.93147 18.1053 8.28404 18.4578C8.63661 18.8104 9.11479 19.0085 9.6134 19.0085H18.3884C18.887 19.0085 19.3652 18.8104 19.7178 18.4578C20.0703 18.1053 20.2684 17.6271 20.2684 17.1285V10.8605C20.2684 10.6136 20.2198 10.3691 20.1253 10.141C20.0308 9.91293 19.8923 9.70568 19.7178 9.53111C19.5432 9.35653 19.3359 9.21805 19.1078 9.12358C18.8798 9.0291 18.6353 8.98047 18.3884 8.98047ZM19.0154 15.4365H17.1334C16.7577 15.4266 16.4006 15.2704 16.1384 15.0011C15.8761 14.7318 15.7294 14.3708 15.7294 13.995C15.7294 13.6191 15.8761 13.2581 16.1384 12.9888C16.4006 12.7196 16.7577 12.5634 17.1334 12.5535H19.0134L19.0154 15.4365ZM19.0154 11.4875H17.1334C16.4685 11.4875 15.8308 11.7516 15.3607 12.2218C14.8905 12.6919 14.6264 13.3296 14.6264 13.9945C14.6264 14.6594 14.8905 15.297 15.3607 15.7672C15.8308 16.2373 16.4685 16.5015 17.1334 16.5015H19.0134V17.1285C19.0134 17.2948 18.9473 17.4542 18.8298 17.5718C18.7122 17.6894 18.5527 17.7555 18.3864 17.7555H9.6134C9.44711 17.7555 9.28763 17.6894 9.17004 17.5718C9.05246 17.4542 8.9864 17.2948 8.9864 17.1285V10.8605C8.9864 10.6942 9.05246 10.5347 9.17004 10.4171C9.28763 10.2995 9.44711 10.2335 9.6134 10.2335H18.3884C18.5547 10.2335 18.7142 10.2995 18.8318 10.4171C18.9493 10.5347 19.0154 10.6942 19.0154 10.8605V11.4875ZM16.5084 13.9945C16.5084 14.1185 16.5452 14.2397 16.6141 14.3428C16.683 14.4459 16.7809 14.5263 16.8955 14.5737C17.01 14.6212 17.1361 14.6336 17.2577 14.6094C17.3793 14.5852 17.4911 14.5255 17.5788 14.4378C17.6664 14.3501 17.7262 14.2384 17.7504 14.1168C17.7745 13.9952 17.7621 13.8691 17.7147 13.7545C17.6672 13.64 17.5869 13.542 17.4837 13.4731C17.3806 13.4042 17.2594 13.3675 17.1354 13.3675C16.9691 13.3675 16.8096 13.4335 16.692 13.5511C16.5745 13.6687 16.5084 13.8282 16.5084 13.9945Z" fill="white"/>
</svg>
