<svg width="28" height="21" viewBox="0 0 28 21" fill="none" xmlns="http://www.w3.org/2000/svg">
<path d="M3.6 13.5117C2.88799 13.5117 2.19197 13.7229 1.59995 14.1184C1.00793 14.514 0.546511 15.0763 0.274035 15.7341C0.00155982 16.3919 -0.0697322 17.1157 0.0691746 17.8141C0.208081 18.5124 0.550948 19.1538 1.05442 19.6573C1.55789 20.1608 2.19934 20.5036 2.89768 20.6425C3.59601 20.7815 4.31985 20.7102 4.97766 20.4377C5.63548 20.1652 6.19772 19.7038 6.59329 19.1118C6.98887 18.5198 7.2 17.8237 7.2 17.1117C7.19789 16.1576 6.81792 15.2432 6.14325 14.5685C5.46858 13.8938 4.55413 13.5138 3.6 13.5117ZM3.6 18.9167C3.244 18.9167 2.89598 18.8112 2.59998 18.6134C2.30397 18.4156 2.07326 18.1344 1.93702 17.8055C1.80078 17.4766 1.76513 17.1147 1.83459 16.7656C1.90404 16.4164 2.07547 16.0957 2.32721 15.8439C2.57894 15.5922 2.89967 15.4208 3.24884 15.3513C3.598 15.2819 3.95992 15.3175 4.28883 15.4537C4.61774 15.59 4.89886 15.8207 5.09665 16.1167C5.29443 16.4127 5.4 16.7607 5.4 17.1167C5.4 17.3531 5.35344 17.5872 5.26298 17.8055C5.17253 18.0239 5.03994 18.2224 4.87279 18.3895C4.70565 18.5567 4.50722 18.6892 4.28883 18.7797C4.07045 18.8702 3.83638 18.9167 3.6 18.9167Z" fill="#305671"/>
<path d="M9.60976 3.30469C8.89775 3.30469 8.20173 3.51583 7.60971 3.9114C7.01769 4.30697 6.55627 4.86922 6.2838 5.52703C6.01132 6.18484 5.94003 6.90869 6.07894 7.60702C6.21785 8.30535 6.56071 8.94679 7.06418 9.45026C7.56765 9.95373 8.20911 10.2966 8.90744 10.4355C9.60577 10.5744 10.3296 10.5031 10.9874 10.2307C11.6452 9.95818 12.2075 9.49676 12.6031 8.90475C12.9986 8.31273 13.2098 7.6167 13.2098 6.90469C13.2076 5.95056 12.8277 5.03611 12.153 4.36143C11.4783 3.68676 10.5639 3.3068 9.60976 3.30469ZM9.60976 8.70969C9.25376 8.70969 8.90575 8.60412 8.60974 8.40633C8.31373 8.20855 8.08302 7.92743 7.94678 7.59852C7.81055 7.26961 7.7749 6.90769 7.84435 6.55853C7.91381 6.20936 8.08524 5.88863 8.33697 5.63689C8.58871 5.38516 8.90944 5.21373 9.25861 5.14428C9.60777 5.07483 9.96969 5.11046 10.2986 5.2467C10.6275 5.38293 10.9086 5.61365 11.1064 5.90966C11.3042 6.20567 11.4098 6.55368 11.4098 6.90969C11.4098 7.38708 11.2201 7.84491 10.8826 8.18247C10.545 8.52004 10.0872 8.70969 9.60976 8.70969Z" fill="#305671"/>
<path d="M18.6195 12.0117C17.9075 12.0117 17.2115 12.2229 16.6195 12.6184C16.0275 13.014 15.566 13.5763 15.2935 14.2341C15.0211 14.8919 14.9498 15.6157 15.0887 16.3141C15.2276 17.0124 15.5705 17.6538 16.0739 18.1573C16.5774 18.6608 17.2189 19.0036 17.9172 19.1425C18.6155 19.2815 19.3394 19.2102 19.9972 18.9377C20.655 18.6652 21.2172 18.2038 21.6128 17.6118C22.0084 17.0198 22.2195 16.3237 22.2195 15.6117C22.2174 14.6576 21.8375 13.7432 21.1628 13.0685C20.4881 12.3938 19.5737 12.0138 18.6195 12.0117ZM18.6195 17.4167C18.2635 17.4167 17.9155 17.3112 17.6195 17.1134C17.3235 16.9156 17.0928 16.6344 16.9565 16.3055C16.8203 15.9766 16.7847 15.6147 16.8541 15.2656C16.9236 14.9164 17.095 14.5957 17.3467 14.3439C17.5985 14.0922 17.9192 13.9208 18.2684 13.8513C18.6175 13.7819 18.9794 13.8175 19.3083 13.9537C19.6373 14.09 19.9184 14.3207 20.1162 14.6167C20.314 14.9127 20.4195 15.2607 20.4195 15.6167C20.4195 15.8531 20.373 16.0872 20.2825 16.3055C20.192 16.5239 20.0595 16.7224 19.8923 16.8895C19.7252 17.0567 19.5267 17.1892 19.3083 17.2797C19.09 17.3702 18.8559 17.4167 18.6195 17.4167Z" fill="#305671"/>
<path d="M24.3246 0C23.6126 0 22.9166 0.211132 22.3245 0.606705C21.7325 1.00228 21.2711 1.56452 20.9986 2.22234C20.7262 2.88015 20.6549 3.60399 20.7938 4.30232C20.9327 5.00065 21.2755 5.64212 21.779 6.14558C22.2825 6.64905 22.9239 6.99191 23.6223 7.13082C24.3206 7.26973 25.0444 7.19844 25.7023 6.92596C26.3601 6.65349 26.9223 6.19207 27.3179 5.60005C27.7135 5.00803 27.9246 4.31201 27.9246 3.6C27.9225 2.64587 27.5425 1.73142 26.8678 1.05675C26.1932 0.382074 25.2787 0.00211325 24.3246 0ZM24.3246 5.405C23.9686 5.405 23.6206 5.29943 23.3246 5.10165C23.0286 4.90386 22.7978 4.62274 22.6616 4.29383C22.5254 3.96492 22.4897 3.603 22.5592 3.25384C22.6286 2.90467 22.8001 2.58394 23.0518 2.33221C23.3035 2.08047 23.6243 1.90904 23.9734 1.83958C24.3226 1.77013 24.6845 1.80578 25.0134 1.94202C25.3424 2.07825 25.6235 2.30896 25.8212 2.60497C26.019 2.90098 26.1246 3.24899 26.1246 3.605C26.1246 4.08239 25.935 4.54023 25.5974 4.87779C25.2598 5.21536 24.802 5.405 24.3246 5.405Z" fill="#305671"/>
<path d="M7.66033 8.80888L4.05664 14.2148L5.55603 15.2144L9.15972 9.8084L7.66033 8.80888Z" fill="#305671"/>
<path d="M11.9857 8.31491L10.832 9.69922L16.2371 14.2037L17.3908 12.8194L11.9857 8.31491Z" fill="#305671"/>
<path d="M22.3891 5.55289L18.7246 12.4883L20.3179 13.3301L23.9824 6.39473L22.3891 5.55289Z" fill="#305671"/>
</svg>
