<svg width="64" height="64" viewBox="0 0 64 64" fill="none" xmlns="http://www.w3.org/2000/svg">
<path d="M32 64C49.6731 64 64 49.6731 64 32C64 14.3269 49.6731 0 32 0C14.3269 0 0 14.3269 0 32C0 49.6731 14.3269 64 32 64Z" fill="#E9EFF5"/>
<path d="M32 63.5C49.397 63.5 63.5 49.397 63.5 32C63.5 14.603 49.397 0.5 32 0.5C14.603 0.5 0.5 14.603 0.5 32C0.5 49.397 14.603 63.5 32 63.5Z" stroke="#9BAEBC"/>
<path d="M40.3629 26.1301H37.9389L37.1939 24.0301C37.0741 23.7063 36.8518 23.4304 36.5608 23.2445C36.2698 23.0586 35.9261 22.9728 35.5819 23.0001H29.2819C28.9386 22.9735 28.5959 23.0595 28.3058 23.2449C28.0157 23.4304 27.7939 23.7053 27.6739 24.0281L26.9289 26.1281H24.5049C24.1481 26.1393 23.7975 26.2238 23.4748 26.3764C23.1521 26.529 22.8643 26.7464 22.6293 27.0151C22.3943 27.2838 22.2171 27.598 22.1088 27.9381C22.0006 28.2782 21.9635 28.637 21.9999 28.9921V39.1861C21.9682 39.5271 22.0106 39.8709 22.124 40.194C22.2374 40.5171 22.4193 40.8119 22.6571 41.0583C22.8949 41.3046 23.1831 41.4968 23.502 41.6215C23.8209 41.7463 24.163 41.8007 24.5049 41.7811H40.3619C40.7039 41.8008 41.046 41.7465 41.3651 41.6218C41.6841 41.4972 41.9724 41.305 42.2104 41.0587C42.4483 40.8123 42.6303 40.5174 42.7437 40.1942C42.8572 39.871 42.8996 39.5272 42.8679 39.1861V28.9921C42.904 28.6372 42.8667 28.2786 42.7583 27.9387C42.6499 27.5988 42.4727 27.2849 42.2377 27.0164C42.0027 26.748 41.715 26.5307 41.3925 26.3782C41.07 26.2258 40.7195 26.1413 40.3629 26.1301ZM41.8249 39.1861C41.8486 39.3879 41.8278 39.5925 41.764 39.7854C41.7002 39.9783 41.595 40.1549 41.4556 40.3028C41.3163 40.4508 41.1463 40.5664 40.9575 40.6416C40.7687 40.7167 40.5658 40.7497 40.3629 40.7381H24.5049C24.302 40.7497 24.0991 40.7167 23.9103 40.6416C23.7215 40.5664 23.5515 40.4508 23.4122 40.3028C23.2728 40.1549 23.1676 39.9783 23.1038 39.7854C23.04 39.5925 23.0192 39.3879 23.0429 39.1861V28.9921C23.0429 28.0561 23.5679 27.1731 24.5049 27.1731H27.3369C27.4499 27.1852 27.5637 27.1597 27.6608 27.1006C27.7579 27.0415 27.8328 26.952 27.8739 26.8461L28.7479 24.3261C28.8249 24.0941 29.0409 24.0421 29.2849 24.0421H35.5849C35.6966 24.0272 35.8101 24.0499 35.9073 24.1068C36.0046 24.1637 36.0801 24.2514 36.1219 24.3561L36.9959 26.8821C37.0729 27.1131 37.2889 27.1721 37.5329 27.1721H40.3649C41.3019 27.1721 41.8269 28.0551 41.8269 28.9911L41.8249 39.1861Z" fill="#305671" stroke="#305671" stroke-width="0.25"/>
<path d="M32.4335 27.8604C31.3135 27.8605 30.2187 28.1928 29.2876 28.8152C28.3564 29.4376 27.6307 30.3221 27.2023 31.3569C26.7738 32.3917 26.6618 33.5303 26.8804 34.6288C27.099 35.7272 27.6385 36.7362 28.4305 37.5281C29.2225 38.3199 30.2316 38.8592 31.3301 39.0776C32.4285 39.296 33.5671 39.1838 34.6019 38.7552C35.6366 38.3265 36.521 37.6007 37.1432 36.6694C37.7654 35.7382 38.0975 34.6433 38.0975 33.5234C38.0956 32.0218 37.4983 30.5823 36.4364 29.5207C35.3746 28.4591 33.935 27.8619 32.4335 27.8604ZM32.4335 38.0544C31.5373 38.0545 30.6613 37.789 29.916 37.2913C29.1708 36.7936 28.5899 36.0861 28.2468 35.2582C27.9036 34.4304 27.8137 33.5193 27.9884 32.6404C28.163 31.7614 28.5943 30.954 29.2279 30.3202C29.8614 29.6863 30.6687 29.2546 31.5476 29.0796C32.4264 28.9046 33.3375 28.9941 34.1655 29.3369C34.9935 29.6796 35.7013 30.2602 36.1993 31.0052C36.6974 31.7502 36.9633 32.6262 36.9635 33.5224C36.9624 34.7236 36.4849 35.8755 35.6356 36.7251C34.7864 37.5747 33.6348 38.0528 32.4335 38.0544Z" fill="#305671" stroke="#305671" stroke-width="0.25"/>
</svg>
