<svg width="36" height="36" viewBox="0 0 36 36" fill="none" xmlns="http://www.w3.org/2000/svg">
<path d="M30.0001 21C29.8621 21.096 27.0001 24.1245 27.0001 26.25C27.0001 28.491 28.4236 29.922 30.0001 30C31.3591 30.066 33.0001 28.6635 33.0001 26.25C33.0001 24 30.1381 21.096 30.0001 21ZM14.3791 30C14.9461 30.567 15.6991 30.879 16.5001 30.879C17.3011 30.879 18.0541 30.567 18.6211 30L29.1211 19.5L28.0606 18.4395L16.5001 6.87895L13.0606 3.43945L10.9396 5.56045L14.3791 8.99995L6.00009 17.379C5.43309 17.946 5.12109 18.699 5.12109 19.5C5.12109 20.301 5.43309 21.054 6.00009 21.621L14.3791 30ZM16.5001 11.121L24.8791 19.5H8.12109L16.5001 11.121Z" fill="#305671"/>
</svg>
