<svg width="14" height="12" viewBox="0 0 14 12" fill="none" xmlns="http://www.w3.org/2000/svg">
<path d="M1 12.0006C0.934412 12.0023 0.86934 11.9886 0.81 11.9606C0.71869 11.9231 0.640527 11.8594 0.585361 11.7776C0.530194 11.6957 0.500493 11.5993 0.5 11.5006V2.39063C0.507142 2.06953 0.577481 1.75297 0.706999 1.45906C0.836517 1.16514 1.02267 0.899628 1.25484 0.67768C1.487 0.455732 1.76062 0.281702 2.06006 0.165532C2.3595 0.0493615 2.6789 -0.00667205 3 0.000632405H11C11.3211 -0.00667205 11.6405 0.0493615 11.9399 0.165532C12.2394 0.281702 12.513 0.455732 12.7452 0.67768C12.9773 0.899628 13.1635 1.16514 13.293 1.45906C13.4225 1.75297 13.4929 2.06953 13.5 2.39063V7.11063C13.4929 7.43174 13.4225 7.74829 13.293 8.04221C13.1635 8.33612 12.9773 8.60164 12.7452 8.82358C12.513 9.04553 12.2394 9.21956 11.9399 9.33573C11.6405 9.4519 11.3211 9.50794 11 9.50063H3.705L1.355 11.8556C1.30828 11.902 1.25287 11.9386 1.19195 11.9635C1.13103 11.9884 1.0658 12.001 1 12.0006ZM3 1.00063C2.61704 0.9871 2.2443 1.12571 1.96323 1.38617C1.68216 1.64663 1.51562 2.00775 1.5 2.39063V10.2956L3.145 8.64563C3.19172 8.59929 3.24713 8.56263 3.30805 8.53775C3.36897 8.51286 3.4342 8.50025 3.5 8.50063H11C11.383 8.51416 11.7557 8.37556 12.0368 8.1151C12.3178 7.85464 12.4844 7.49351 12.5 7.11063V2.39063C12.4844 2.00775 12.3178 1.64663 12.0368 1.38617C11.7557 1.12571 11.383 0.9871 11 1.00063H3Z" fill="#315671"/>
<path d="M7 5.5C7.41421 5.5 7.75 5.16421 7.75 4.75C7.75 4.33579 7.41421 4 7 4C6.58579 4 6.25 4.33579 6.25 4.75C6.25 5.16421 6.58579 5.5 7 5.5Z" fill="#315671"/>
<path d="M9.75 5.5C10.1642 5.5 10.5 5.16421 10.5 4.75C10.5 4.33579 10.1642 4 9.75 4C9.33579 4 9 4.33579 9 4.75C9 5.16421 9.33579 5.5 9.75 5.5Z" fill="#315671"/>
<path d="M4.25 5.5C4.66421 5.5 5 5.16421 5 4.75C5 4.33579 4.66421 4 4.25 4C3.83579 4 3.5 4.33579 3.5 4.75C3.5 5.16421 3.83579 5.5 4.25 5.5Z" fill="#315671"/>
</svg>
