<svg width="14" height="14" viewBox="0 0 14 14" fill="none" xmlns="http://www.w3.org/2000/svg">
<path d="M3.5 7.51196H6.5625C6.67853 7.51196 6.78981 7.46587 6.87186 7.38382C6.95391 7.30178 7 7.1905 7 7.07446C7 6.95843 6.95391 6.84715 6.87186 6.7651C6.78981 6.68306 6.67853 6.63696 6.5625 6.63696H3.5C3.38397 6.63696 3.27269 6.68306 3.19064 6.7651C3.10859 6.84715 3.0625 6.95843 3.0625 7.07446C3.0625 7.1905 3.10859 7.30178 3.19064 7.38382C3.27269 7.46587 3.38397 7.51196 3.5 7.51196ZM5.6875 8.38696H3.5C3.38397 8.38696 3.27269 8.43306 3.19064 8.5151C3.10859 8.59715 3.0625 8.70843 3.0625 8.82446C3.0625 8.94049 3.10859 9.05177 3.19064 9.13382C3.27269 9.21587 3.38397 9.26196 3.5 9.26196H5.6875C5.80353 9.26196 5.91481 9.21587 5.99686 9.13382C6.07891 9.05177 6.125 8.94049 6.125 8.82446C6.125 8.70843 6.07891 8.59715 5.99686 8.5151C5.91481 8.43306 5.80353 8.38696 5.6875 8.38696ZM5.6875 10.137H3.5C3.38397 10.137 3.27269 10.1831 3.19064 10.2651C3.10859 10.3471 3.0625 10.4584 3.0625 10.5745C3.0625 10.6905 3.10859 10.8018 3.19064 10.8838C3.27269 10.9659 3.38397 11.012 3.5 11.012H5.6875C5.80353 11.012 5.91481 10.9659 5.99686 10.8838C6.07891 10.8018 6.125 10.6905 6.125 10.5745C6.125 10.4584 6.07891 10.3471 5.99686 10.2651C5.91481 10.1831 5.80353 10.137 5.6875 10.137Z" fill="white"/>
<path d="M10.0625 7.10937V3.9375C10.0625 3.9375 10.0625 3.9375 10.0625 3.91562C10.066 3.88364 10.066 3.85136 10.0625 3.81937C10.0625 3.81937 10.0625 3.79312 10.0625 3.78C10.0459 3.73565 10.0223 3.69428 9.9925 3.6575L7.805 1.0325C7.76716 0.988894 7.72107 0.953208 7.66938 0.9275H7.62563C7.57429 0.899024 7.51775 0.881169 7.45937 0.875H2.625C2.2769 0.875 1.94306 1.01328 1.69692 1.25942C1.45078 1.50556 1.3125 1.8394 1.3125 2.1875V11.8125C1.3125 12.1606 1.45078 12.4944 1.69692 12.7406C1.94306 12.9867 2.2769 13.125 2.625 13.125H8.75C8.79188 13.1222 8.83314 13.1133 8.8725 13.0987C9.27899 13.213 9.70472 13.2419 10.1229 13.1838C10.5412 13.1256 10.9428 12.9816 11.3027 12.7608C11.6626 12.54 11.973 12.2471 12.2143 11.9006C12.4556 11.5541 12.6226 11.1614 12.7049 10.7473C12.7872 10.3331 12.7829 9.90645 12.6924 9.49402C12.6019 9.08159 12.4271 8.69233 12.179 8.3507C11.9308 8.00906 11.6147 7.72243 11.2505 7.50882C10.8863 7.2952 10.4818 7.1592 10.0625 7.10937ZM7.875 2.52L8.68875 3.5H7.875V2.52ZM2.1875 11.8125V2.1875C2.1875 2.07147 2.23359 1.96019 2.31564 1.87814C2.39769 1.79609 2.50897 1.75 2.625 1.75H7V3.5C7 3.73206 7.09219 3.95462 7.25628 4.11872C7.42038 4.28281 7.64294 4.375 7.875 4.375H9.1875V7.10937C8.63243 7.19125 8.11051 7.42404 7.67873 7.78234C7.24695 8.14064 6.9219 8.61067 6.73907 9.14112C6.55623 9.67158 6.52263 10.2421 6.64194 10.7903C6.76125 11.3386 7.02889 11.8435 7.41563 12.25H2.625C2.50897 12.25 2.39769 12.2039 2.31564 12.1219C2.23359 12.0398 2.1875 11.9285 2.1875 11.8125ZM9.625 12.3244C9.19235 12.3244 8.76942 12.1961 8.40969 11.9557C8.04996 11.7153 7.76958 11.3737 7.60401 10.974C7.43845 10.5743 7.39513 10.1344 7.47953 9.71011C7.56394 9.28578 7.77228 8.89601 8.0782 8.59008C8.38413 8.28415 8.77391 8.07581 9.19824 7.99141C9.62257 7.907 10.0624 7.95032 10.4621 8.11589C10.8618 8.28145 11.2035 8.56183 11.4438 8.92156C11.6842 9.2813 11.8125 9.70423 11.8125 10.1369C11.8125 10.717 11.582 11.2734 11.1718 11.6837C10.7616 12.0939 10.2052 12.3244 9.625 12.3244Z" fill="white"/>
<path d="M10.3469 9.47188L9.22252 10.2244L8.94252 9.94438C8.88942 9.90579 8.8243 9.88742 8.75887 9.89257C8.69344 9.89771 8.632 9.92604 8.58559 9.97245C8.53918 10.0189 8.51085 10.0803 8.50571 10.1457C8.50056 10.2112 8.51893 10.2763 8.55752 10.3294L8.99502 10.7669C9.0099 10.7788 9.02603 10.7891 9.04314 10.7975H9.07377C9.10898 10.8159 9.14781 10.8264 9.18752 10.8281V10.8281C9.23391 10.8265 9.27911 10.8129 9.31877 10.7888L10.6313 9.91375C10.6683 9.89799 10.7013 9.8742 10.728 9.84409C10.7547 9.81399 10.7743 9.77833 10.7855 9.7397C10.7967 9.70107 10.7992 9.66043 10.7927 9.62072C10.7863 9.58102 10.7711 9.54325 10.7482 9.51014C10.7254 9.47704 10.6955 9.44942 10.6606 9.42931C10.6258 9.40919 10.5869 9.39707 10.5469 9.39383C10.5068 9.39058 10.4665 9.3963 10.4288 9.41055C10.3912 9.42481 10.3573 9.44725 10.3294 9.47625L10.3469 9.47188ZM3.91127 4.23938H4.40564C4.42257 4.23454 4.44039 4.2337 4.4577 4.23692C4.47501 4.24014 4.49133 4.24734 4.50539 4.25794C4.51944 4.26854 4.53085 4.28226 4.5387 4.29802C4.54655 4.31378 4.55064 4.33115 4.55064 4.34875C4.55064 4.36636 4.54655 4.38372 4.5387 4.39948C4.53085 4.41524 4.51944 4.42896 4.50539 4.43956C4.49133 4.45016 4.47501 4.45736 4.4577 4.46058C4.44039 4.4638 4.42257 4.46296 4.40564 4.45813H3.66627C3.5997 4.46656 3.5385 4.49899 3.49414 4.54933C3.44977 4.59967 3.4253 4.66447 3.4253 4.73156C3.4253 4.79866 3.44977 4.86346 3.49414 4.9138C3.5385 4.96414 3.5997 4.99656 3.66627 5.005H3.88502V5.18875C3.89345 5.25532 3.92588 5.31652 3.97622 5.36088C4.02656 5.40524 4.09136 5.42972 4.15845 5.42972C4.22555 5.42972 4.29035 5.40524 4.34069 5.36088C4.39103 5.31652 4.42345 5.25532 4.43189 5.18875V5.005C4.51807 5.00328 4.60307 4.9846 4.68203 4.95002C4.76099 4.91545 4.83237 4.86567 4.89209 4.80351C4.95181 4.74135 4.9987 4.66804 5.03009 4.58776C5.06147 4.50748 5.07674 4.42181 5.07502 4.33563C5.07329 4.24945 5.05461 4.16445 5.02004 4.08549C4.98547 4.00653 4.93568 3.93515 4.87352 3.87543C4.81137 3.81571 4.73806 3.76882 4.65778 3.73743C4.5775 3.70605 4.49182 3.69078 4.40564 3.6925H3.91127C3.89434 3.69734 3.87652 3.69818 3.85921 3.69496C3.8419 3.69173 3.82558 3.68454 3.81152 3.67394C3.79747 3.66333 3.78606 3.64961 3.77821 3.63386C3.77036 3.6181 3.76627 3.60073 3.76627 3.58313C3.76627 3.56552 3.77036 3.54816 3.77821 3.5324C3.78606 3.51664 3.79747 3.50292 3.81152 3.49232C3.82558 3.48171 3.8419 3.47452 3.85921 3.4713C3.87652 3.46808 3.89434 3.46892 3.91127 3.47375H4.65064C4.71721 3.46531 4.77841 3.43289 4.82277 3.38255C4.86713 3.33221 4.89161 3.26741 4.89161 3.20031C4.89161 3.13322 4.86713 3.06842 4.82277 3.01808C4.77841 2.96774 4.71721 2.93531 4.65064 2.92688H4.43189V2.625C4.42345 2.55844 4.39103 2.49723 4.34069 2.45287C4.29035 2.40851 4.22555 2.38403 4.15845 2.38403C4.09136 2.38403 4.02656 2.40851 3.97622 2.45287C3.92588 2.49723 3.89345 2.55844 3.88502 2.625V2.92688C3.79884 2.9286 3.71384 2.94728 3.63488 2.98185C3.55592 3.01643 3.48454 3.06621 3.42482 3.12837C3.30421 3.2539 3.23841 3.4222 3.24189 3.59625C3.24537 3.7703 3.31785 3.93584 3.44338 4.05645C3.56892 4.17706 3.73722 4.24286 3.91127 4.23938V4.23938Z" fill="white"/>
</svg>
