<svg width="21" height="25" viewBox="0 0 21 25" fill="none" xmlns="http://www.w3.org/2000/svg">
<path d="M20.9999 24.0031H1.00098V19.0052H2.99576V22.001H18.9978V2.00209H2.99576V5.99896H1.00098V0H20.9999V24.0031Z" fill="#5182A6"/>
<path d="M3.00313 10.0039H0V12.006H3.00313V10.0039Z" fill="#5182A6"/>
<path d="M3.00313 15.001H0V17.0031H3.00313V15.001Z" fill="#5182A6"/>
<path d="M3.00313 4.99805H0V7.00013H3.00313V4.99805Z" fill="#5182A6"/>
<path d="M3.00355 12.998H1.00146V16.0012H3.00355V12.998Z" fill="#5182A6"/>
<path d="M3.00306 8.00098H1.00098V11.0041H3.00306V8.00098Z" fill="#5182A6"/>
<path d="M10.9968 13.9986C8.79017 13.9986 6.99268 12.2011 6.99268 9.99441C6.99268 7.78773 8.79017 5.99023 10.9968 5.99023C13.2035 5.99023 15.001 7.78773 15.001 9.99441C15.001 12.2011 13.2035 13.9986 10.9968 13.9986ZM10.9968 7.99963C9.89351 7.99963 8.99476 8.89838 8.99476 10.0017C8.99476 11.1051 9.89351 12.0038 10.9968 12.0038C12.1002 12.0038 12.9989 11.1051 12.9989 10.0017C12.9989 8.89838 12.1002 7.99963 10.9968 7.99963Z" fill="#5182A6"/>
<path d="M16.0021 17.0038H14C14 15.3524 12.6556 14.0006 10.9969 14.0006C9.33825 14.0006 7.99379 15.3451 7.99379 17.0038H5.9917C5.9917 14.2491 8.23491 12.0059 10.9896 12.0059C13.7443 12.0059 16.0021 14.2491 16.0021 17.0038Z" fill="#5182A6"/>
</svg>
