<svg width="38" height="36" viewBox="0 0 38 36" fill="none" xmlns="http://www.w3.org/2000/svg">
<path d="M19.1353 16.4748C19.0462 16.4749 18.9581 16.4555 18.8773 16.4178L8.58929 11.5768C8.48397 11.5285 8.39473 11.4511 8.33216 11.3536C8.26959 11.2561 8.23633 11.1426 8.23633 11.0268C8.23633 10.911 8.26959 10.7975 8.33216 10.7C8.39473 10.6025 8.48397 10.5251 8.58929 10.4768L18.8773 5.6398C18.958 5.60176 19.0461 5.58203 19.1353 5.58203C19.2245 5.58203 19.3126 5.60176 19.3933 5.6398L29.6803 10.4828C29.7856 10.5311 29.8748 10.6085 29.9374 10.706C30 10.8035 30.0332 10.917 30.0332 11.0328C30.0332 11.1486 30 11.2621 29.9374 11.3596C29.8748 11.4571 29.7856 11.5345 29.6803 11.5828L19.3923 16.4178C19.3115 16.4555 19.2234 16.4749 19.1343 16.4748H19.1353ZM10.2693 11.0288L19.1353 15.2008L28.0013 11.0288L19.1353 6.8568L10.2693 11.0288Z" fill="#305671"/>
<path d="M19.1365 21.317C19.0428 21.3168 18.9504 21.2949 18.8665 21.253L11.6045 17.622C11.504 17.5717 11.4195 17.4945 11.3603 17.399C11.3012 17.3034 11.2697 17.1933 11.2695 17.081V12.453C11.2695 12.3511 11.2952 12.2508 11.3442 12.1615C11.3932 12.0722 11.464 11.9968 11.55 11.9421C11.6359 11.8874 11.7343 11.8554 11.836 11.8489C11.9376 11.8424 12.0393 11.8617 12.1315 11.905L19.1315 15.205L26.1315 11.905C26.2238 11.8617 26.3255 11.8425 26.4272 11.849C26.5289 11.8555 26.6273 11.8876 26.7134 11.9422C26.7994 11.9968 26.8703 12.0723 26.9194 12.1615C26.9686 12.2508 26.9944 12.351 26.9945 12.453V17.08C26.9945 17.1925 26.9632 17.3028 26.904 17.3985C26.8448 17.4943 26.7602 17.5716 26.6595 17.622L19.3975 21.253C19.3137 21.2949 19.2213 21.3168 19.1275 21.317H19.1365ZM12.4795 16.707L19.1365 20.035L25.7935 16.707V13.407L19.3935 16.418C19.3128 16.456 19.2247 16.4757 19.1355 16.4757C19.0463 16.4757 18.9582 16.456 18.8775 16.418L12.4775 13.407L12.4795 16.707Z" fill="#305671"/>
<path d="M29.4213 11.6358H19.1343C18.9738 11.6358 18.82 11.572 18.7065 11.4586C18.593 11.3451 18.5293 11.1912 18.5293 11.0308C18.5293 10.8703 18.593 10.7164 18.7065 10.603C18.82 10.4895 18.9738 10.4258 19.1343 10.4258H29.4213C29.5818 10.4258 29.7356 10.4895 29.8491 10.603C29.9626 10.7164 30.0263 10.8703 30.0263 11.0308C30.0263 11.1912 29.9626 11.3451 29.8491 11.4586C29.7356 11.572 29.5818 11.6358 29.4213 11.6358Z" fill="#305671"/>
<path d="M29.4214 17.0828C29.3419 17.0828 29.2631 17.0671 29.1897 17.0366C29.1162 17.0062 29.0494 16.9615 28.9933 16.9052C28.9371 16.8489 28.8925 16.7821 28.8622 16.7086C28.8318 16.6351 28.8163 16.5563 28.8164 16.4768V11.0308C28.8164 10.8703 28.8801 10.7164 28.9936 10.603C29.1071 10.4895 29.261 10.4258 29.4214 10.4258C29.5819 10.4258 29.7357 10.4895 29.8492 10.603C29.9627 10.7164 30.0264 10.8703 30.0264 11.0308V16.4768C30.0265 16.5563 30.011 16.6351 29.9806 16.7086C29.9503 16.7821 29.9058 16.8489 29.8496 16.9052C29.7934 16.9615 29.7266 17.0062 29.6532 17.0366C29.5797 17.0671 29.5009 17.0828 29.4214 17.0828Z" fill="#305671"/>
<path d="M19.1343 12.8458C18.9738 12.8458 18.82 12.7821 18.7065 12.6686C18.593 12.5552 18.5293 12.4013 18.5293 12.2408V9.81984C18.5293 9.65939 18.593 9.5055 18.7065 9.39204C18.82 9.27858 18.9738 9.21484 19.1343 9.21484C19.2948 9.21484 19.4486 9.27858 19.5621 9.39204C19.6756 9.5055 19.7393 9.65939 19.7393 9.81984V12.2408C19.7393 12.4013 19.6756 12.5552 19.5621 12.6686C19.4486 12.7821 19.2948 12.8458 19.1343 12.8458Z" fill="#305671"/>
<path d="M28.2074 18.8964C28.0981 18.8959 27.991 18.8657 27.8975 18.8092C27.8039 18.7526 27.7275 18.6718 27.6762 18.5753C27.6249 18.4788 27.6007 18.3702 27.6062 18.2611C27.6117 18.1519 27.6467 18.0463 27.7074 17.9554L28.9174 16.1404C29.0065 16.0069 29.145 15.9142 29.3024 15.8828C29.4599 15.8514 29.6233 15.8838 29.7569 15.9729C29.8904 16.062 29.9831 16.2005 30.0145 16.358C30.0459 16.5154 30.0135 16.6789 29.9244 16.8124L28.7144 18.6274C28.6591 18.711 28.5837 18.7795 28.4951 18.8265C28.4065 18.8735 28.3076 18.8975 28.2074 18.8964Z" fill="#305671"/>
<path d="M30.6323 18.8964C30.5332 18.8963 30.4357 18.8717 30.3484 18.8248C30.2612 18.7779 30.1869 18.71 30.1323 18.6274L28.9163 16.8124C28.8272 16.6789 28.7947 16.5154 28.8262 16.358C28.8576 16.2005 28.9502 16.062 29.0838 15.9729C29.2173 15.8838 29.3808 15.8514 29.5382 15.8828C29.6956 15.9142 29.8342 16.0069 29.9233 16.1404L31.1333 17.9554C31.194 18.0463 31.2289 18.1519 31.2344 18.2611C31.2399 18.3702 31.2157 18.4788 31.1644 18.5753C31.1131 18.6718 31.0367 18.7526 30.9432 18.8092C30.8496 18.8657 30.7426 18.8959 30.6333 18.8964H30.6323Z" fill="#305671"/>
<path d="M36.6805 23.7422H1.58549C1.50562 23.7422 1.42653 23.7264 1.35281 23.6957C1.27908 23.6649 1.21216 23.6199 1.15591 23.5632C1.09967 23.5065 1.05521 23.4392 1.0251 23.3652C0.994991 23.2913 0.979829 23.2121 0.980489 23.1322V3.16319C0.981283 2.52134 1.23661 1.90601 1.69046 1.45216C2.14431 0.998305 2.75964 0.742981 3.40149 0.742188H34.8675C35.5093 0.742981 36.1247 0.998305 36.5785 1.45216C37.0324 1.90601 37.2877 2.52134 37.2885 3.16319V23.1322C37.2892 23.2123 37.2739 23.2918 37.2436 23.3659C37.2133 23.4401 37.1686 23.5075 37.112 23.5643C37.0554 23.621 36.9882 23.666 36.9141 23.6965C36.84 23.7271 36.7606 23.7426 36.6805 23.7422ZM2.19049 22.5272H36.0805V3.16319C36.0804 3.00403 36.0489 2.84645 35.9878 2.69945C35.9268 2.55245 35.8374 2.41892 35.7248 2.30647C35.6122 2.19402 35.4785 2.10485 35.3314 2.04406C35.1843 1.98328 35.0266 1.95206 34.8675 1.95219H3.40149C3.08039 1.95245 2.77252 2.08012 2.54548 2.30717C2.31843 2.53422 2.19075 2.84209 2.19049 3.16319V22.5272Z" fill="#305671"/>
<path d="M34.8675 28.5783H3.40147C2.75962 28.5775 2.14429 28.3222 1.69044 27.8684C1.23659 27.4145 0.981263 26.7992 0.980469 26.1573V23.1323C0.980469 22.9719 1.04421 22.818 1.15767 22.7045C1.27113 22.5911 1.42501 22.5273 1.58547 22.5273H36.6805C36.8409 22.5273 36.9948 22.5911 37.1083 22.7045C37.2217 22.818 37.2855 22.9719 37.2855 23.1323V26.1573C37.2847 26.7987 37.0298 27.4135 36.5766 27.8673C36.1234 28.3211 35.5088 28.5768 34.8675 28.5783ZM2.19047 23.7373V26.1573C2.19073 26.4784 2.31841 26.7863 2.54545 27.0134C2.7725 27.2404 3.08037 27.3681 3.40147 27.3683H34.8675C35.0266 27.3685 35.1843 27.3373 35.3314 27.2765C35.4785 27.2157 35.6121 27.1265 35.7248 27.0141C35.8374 26.9016 35.9268 26.7681 35.9878 26.6211C36.0489 26.4741 36.0803 26.3165 36.0805 26.1573V23.7373H2.19047Z" fill="#305671"/>
<path d="M20.9508 26.1592H17.3198C17.1594 26.1592 17.0055 26.0955 16.892 25.982C16.7786 25.8686 16.7148 25.7147 16.7148 25.5542C16.7148 25.3938 16.7786 25.2399 16.892 25.1264C17.0055 25.013 17.1594 24.9492 17.3198 24.9492H20.9508C21.1113 24.9492 21.2652 25.013 21.3786 25.1264C21.4921 25.2399 21.5558 25.3938 21.5558 25.5542C21.5558 25.7147 21.4921 25.8686 21.3786 25.982C21.2652 26.0955 21.1113 26.1592 20.9508 26.1592Z" fill="#305671"/>
<path d="M34.2643 23.7391H4.00734C3.84689 23.7391 3.693 23.6753 3.57954 23.5619C3.46608 23.4484 3.40234 23.2945 3.40234 23.1341V3.76906C3.40234 3.60861 3.46608 3.45472 3.57954 3.34126C3.693 3.2278 3.84689 3.16406 4.00734 3.16406H34.2643C34.4248 3.16406 34.5787 3.2278 34.6921 3.34126C34.8056 3.45472 34.8693 3.60861 34.8693 3.76906V23.1341C34.8693 23.2945 34.8056 23.4484 34.6921 23.5619C34.5787 23.6753 34.4248 23.7391 34.2643 23.7391ZM4.61234 22.5281H33.6593V4.37406H4.61234V22.5281Z" fill="#305671"/>
<path d="M27.0026 35.8419H11.2686C10.7871 35.8419 10.3253 35.6507 9.98487 35.3102C9.6444 34.9697 9.45313 34.5079 9.45312 34.0264C9.45312 33.5449 9.6444 33.0832 9.98487 32.7427C10.3253 32.4022 10.7871 32.2109 11.2686 32.2109H27.0026C27.4841 32.2109 27.9459 32.4022 28.2864 32.7427C28.6269 33.0832 28.8181 33.5449 28.8181 34.0264C28.8181 34.5079 28.6269 34.9697 28.2864 35.3102C27.9459 35.6507 27.4841 35.8419 27.0026 35.8419ZM11.2686 33.4209C11.1082 33.4209 10.9543 33.4847 10.8408 33.5981C10.7274 33.7116 10.6636 33.8655 10.6636 34.0259C10.6636 34.1864 10.7274 34.3403 10.8408 34.4537C10.9543 34.5672 11.1082 34.6309 11.2686 34.6309H27.0026C27.1631 34.6309 27.317 34.5672 27.4304 34.4537C27.5439 34.3403 27.6076 34.1864 27.6076 34.0259C27.6076 33.8655 27.5439 33.7116 27.4304 33.5981C27.317 33.4847 27.1631 33.4209 27.0026 33.4209H11.2686Z" fill="#305671"/>
<path d="M25.793 33.4182H12.48C12.3195 33.4182 12.1657 33.3544 12.0522 33.241C11.9387 33.1275 11.875 32.9736 11.875 32.8132C11.875 32.6527 11.9387 32.4988 12.0522 32.3854C12.1657 32.2719 12.3195 32.2082 12.48 32.2082C14.488 32.2082 15.506 30.7832 15.506 27.9722C15.506 27.8117 15.5697 27.6578 15.6832 27.5444C15.7967 27.4309 15.9505 27.3672 16.111 27.3672H22.162C22.3225 27.3672 22.4763 27.4309 22.5898 27.5444C22.7033 27.6578 22.767 27.8117 22.767 27.9722C22.767 30.7832 23.785 32.2082 25.793 32.2082C25.9535 32.2082 26.1073 32.2719 26.2208 32.3854C26.3343 32.4988 26.398 32.6527 26.398 32.8132C26.398 32.9736 26.3343 33.1275 26.2208 33.241C26.1073 33.3544 25.9535 33.4182 25.793 33.4182ZM15.428 32.2082H22.846C22.0209 31.1781 21.5725 29.897 21.575 28.5772H16.7C16.702 29.8971 16.2532 31.1781 15.428 32.2082Z" fill="#305671"/>
</svg>
