<svg width="28" height="28" viewBox="0 0 28 28" fill="none" xmlns="http://www.w3.org/2000/svg">
<path d="M14 28C21.732 28 28 21.732 28 14C28 6.26801 21.732 0 14 0C6.26801 0 0 6.26801 0 14C0 21.732 6.26801 28 14 28Z" fill="#11A750"/>
<path d="M18.3874 8.98438H9.61242C9.11381 8.98438 8.63563 9.18245 8.28306 9.53501C7.93049 9.88758 7.73242 10.3658 7.73242 10.8644V17.1324C7.73242 17.631 7.93049 18.1092 8.28306 18.4617C8.63563 18.8143 9.11381 19.0124 9.61242 19.0124H18.3874C18.886 19.0124 19.3642 18.8143 19.7168 18.4617C20.0694 18.1092 20.2674 17.631 20.2674 17.1324V10.8644C20.2674 10.6175 20.2188 10.373 20.1243 10.1449C20.0298 9.91684 19.8914 9.70959 19.7168 9.53501C19.5422 9.36044 19.335 9.22196 19.1069 9.12748C18.8788 9.033 18.6343 8.98438 18.3874 8.98438ZM19.0144 15.4404H17.1324C16.7567 15.4305 16.3997 15.2743 16.1374 15.005C15.8752 14.7358 15.7284 14.3747 15.7284 13.9989C15.7284 13.623 15.8752 13.262 16.1374 12.9927C16.3997 12.7235 16.7567 12.5673 17.1324 12.5574H19.0124L19.0144 15.4404ZM19.0144 11.4914H17.1324C16.4675 11.4914 15.8299 11.7555 15.3597 12.2257C14.8896 12.6958 14.6254 13.3335 14.6254 13.9984C14.6254 14.6633 14.8896 15.3009 15.3597 15.7711C15.8299 16.2412 16.4675 16.5054 17.1324 16.5054H19.0124V17.1324C19.0124 17.2987 18.9464 17.4581 18.8288 17.5757C18.7112 17.6933 18.5517 17.7594 18.3854 17.7594H9.61242C9.44613 17.7594 9.28665 17.6933 9.16907 17.5757C9.05148 17.4581 8.98542 17.2987 8.98542 17.1324V10.8644C8.98542 10.6981 9.05148 10.5386 9.16907 10.421C9.28665 10.3034 9.44613 10.2374 9.61242 10.2374H18.3874C18.5537 10.2374 18.7132 10.3034 18.8308 10.421C18.9484 10.5386 19.0144 10.6981 19.0144 10.8644V11.4914ZM16.5074 13.9984C16.5074 14.1224 16.5442 14.2436 16.6131 14.3467C16.682 14.4498 16.7799 14.5302 16.8945 14.5776C17.009 14.6251 17.1351 14.6375 17.2567 14.6133C17.3784 14.5891 17.4901 14.5294 17.5778 14.4417C17.6655 14.354 17.7252 14.2423 17.7494 14.1207C17.7736 13.9991 17.7612 13.873 17.7137 13.7584C17.6662 13.6439 17.5859 13.5459 17.4828 13.477C17.3797 13.4081 17.2584 13.3714 17.1344 13.3714C16.9681 13.3714 16.8087 13.4374 16.6911 13.555C16.5735 13.6726 16.5074 13.8321 16.5074 13.9984Z" fill="white"/>
<path d="M10.2734 14.1734L11.3224 15.2224L13.7734 12.7734" stroke="white" stroke-width="1.5" stroke-linejoin="round"/>
</svg>
