<svg width="37" height="32" viewBox="0 0 37 32" fill="none" xmlns="http://www.w3.org/2000/svg">
<path fill-rule="evenodd" clip-rule="evenodd" d="M0.00016538 3.762C-0.00392255 3.27203 0.0885399 2.78606 0.272273 2.33183C0.456006 1.8776 0.727412 1.464 1.07099 1.11467C1.41457 0.76533 1.8236 0.48709 2.27471 0.295834C2.72583 0.104579 3.2102 0.0040541 3.70017 0H29.8152C30.3051 0.0040541 30.7895 0.104579 31.2406 0.295834C31.6917 0.48709 32.1008 0.76533 32.4443 1.11467C32.7879 1.464 33.0593 1.8776 33.2431 2.33183C33.4268 2.78606 33.5193 3.27203 33.5152 3.762V11.97C33.5152 12.1822 33.4309 12.3857 33.2808 12.5357C33.1308 12.6857 32.9273 12.77 32.7152 12.77C32.503 12.77 32.2995 12.6857 32.1495 12.5357C31.9995 12.3857 31.9152 12.1822 31.9152 11.97V3.762C31.9235 3.19643 31.707 2.65068 31.3132 2.24458C30.9195 1.83848 30.3807 1.60521 29.8152 1.596H3.70017C3.13461 1.60521 2.59582 1.83848 2.20209 2.24458C1.80836 2.65068 1.59188 3.19643 1.60017 3.762V18.581C1.59188 19.1466 1.80836 19.6923 2.20209 20.0984C2.59582 20.5045 3.13461 20.7378 3.70017 20.747H15.1612C15.3733 20.747 15.5768 20.8313 15.7268 20.9813C15.8769 21.1313 15.9612 21.3348 15.9612 21.547C15.9612 21.7592 15.8769 21.9627 15.7268 22.1127C15.5768 22.2627 15.3733 22.347 15.1612 22.347H3.70017C3.20986 22.3429 2.72516 22.2423 2.27378 22.0508C1.8224 21.8593 1.4132 21.5807 1.06957 21.2309C0.725934 20.8812 0.454613 20.4671 0.271117 20.0124C0.087621 19.5577 -0.00445102 19.0713 0.00016538 18.581V3.762Z" fill="#305671"/>
<path fill-rule="evenodd" clip-rule="evenodd" d="M0 5.58906C0 5.37689 0.0842855 5.17341 0.234315 5.02338C0.384344 4.87335 0.587827 4.78906 0.8 4.78906H32.717C32.9292 4.78906 33.1327 4.87335 33.2827 5.02338C33.4327 5.17341 33.517 5.37689 33.517 5.58906C33.517 5.80124 33.4327 6.00472 33.2827 6.15475C33.1327 6.30478 32.9292 6.38906 32.717 6.38906H0.8C0.587827 6.38906 0.384344 6.30478 0.234315 6.15475C0.0842855 6.00472 0 5.80124 0 5.58906Z" fill="#305671"/>
<path fill-rule="evenodd" clip-rule="evenodd" d="M3.19141 13.5656C3.19141 13.3535 3.27569 13.15 3.42572 12.9999C3.57575 12.8499 3.77923 12.7656 3.99141 12.7656H7.18141C7.39358 12.7656 7.59706 12.8499 7.74709 12.9999C7.89712 13.15 7.98141 13.3535 7.98141 13.5656C7.98141 13.7778 7.89712 13.9813 7.74709 14.1313C7.59706 14.2813 7.39358 14.3656 7.18141 14.3656H3.99141C3.77923 14.3656 3.57575 14.2813 3.42572 14.1313C3.27569 13.9813 3.19141 13.7778 3.19141 13.5656Z" fill="#305671"/>
<path fill-rule="evenodd" clip-rule="evenodd" d="M3.19141 17.5578C3.19141 17.3456 3.27569 17.1422 3.42572 16.9921C3.57575 16.8421 3.77923 16.7578 3.99141 16.7578H10.3734C10.5856 16.7578 10.7891 16.8421 10.9391 16.9921C11.0891 17.1422 11.1734 17.3456 11.1734 17.5578C11.1734 17.77 11.0891 17.9735 10.9391 18.1235C10.7891 18.2735 10.5856 18.3578 10.3734 18.3578H3.99141C3.77923 18.3578 3.57575 18.2735 3.42572 18.1235C3.27569 17.9735 3.19141 17.77 3.19141 17.5578Z" fill="#305671"/>
<path fill-rule="evenodd" clip-rule="evenodd" d="M27.9284 15.9594C26.5079 15.9594 25.1194 16.3806 23.9383 17.1698C22.7572 17.9589 21.8367 19.0806 21.2931 20.3929C20.7495 21.7053 20.6073 23.1493 20.8844 24.5425C21.1615 25.9357 21.8455 27.2154 22.8499 28.2198C23.8544 29.2242 25.1341 29.9083 26.5273 30.1854C27.9204 30.4625 29.3645 30.3203 30.6768 29.7767C31.9892 29.2331 33.1108 28.3126 33.9 27.1315C34.6892 25.9504 35.1104 24.5618 35.1104 23.1414C35.1104 21.2366 34.3537 19.4098 33.0068 18.0629C31.6599 16.7161 29.8332 15.9594 27.9284 15.9594ZM19.1504 23.1374C19.1504 21.4013 19.6652 19.7041 20.6298 18.2606C21.5943 16.817 22.9652 15.692 24.5692 15.0276C26.1732 14.3632 27.9381 14.1893 29.6409 14.528C31.3437 14.8667 32.9077 15.7028 34.1354 16.9304C35.363 18.158 36.199 19.7221 36.5377 21.4249C36.8764 23.1276 36.7026 24.8926 36.0382 26.4966C35.3738 28.1005 34.2487 29.4715 32.8052 30.436C31.3617 31.4006 29.6645 31.9154 27.9284 31.9154C25.6003 31.9154 23.3676 30.9906 21.7214 29.3444C20.0752 27.6982 19.1504 25.4654 19.1504 23.1374Z" fill="#305671"/>
<path fill-rule="evenodd" clip-rule="evenodd" d="M30.5554 21.7799C30.6276 21.6977 30.7159 21.6312 30.8148 21.5844C30.9138 21.5377 31.0212 21.5118 31.1306 21.5082C31.2399 21.5047 31.3489 21.5236 31.4506 21.5639C31.5524 21.6041 31.6448 21.6648 31.7222 21.7421C31.7995 21.8195 31.8602 21.9119 31.9004 22.0137C31.9407 22.1154 31.9596 22.2243 31.9561 22.3337C31.9525 22.4431 31.9266 22.5505 31.8799 22.6495C31.8331 22.7484 31.7666 22.8367 31.6844 22.9089L28.4924 26.1009C28.3425 26.2502 28.1395 26.334 27.9279 26.334C27.7163 26.334 27.5133 26.2502 27.3634 26.1009L24.9704 23.7059C24.8363 23.5532 24.7653 23.3552 24.7719 23.1521C24.7785 22.949 24.8621 22.756 25.0058 22.6123C25.1495 22.4686 25.3425 22.385 25.5456 22.3784C25.7487 22.3719 25.9467 22.4428 26.0994 22.5769L27.9294 24.4069L30.5554 21.7799Z" fill="#305671"/>
</svg>
