<svg width="34" height="29" viewBox="0 0 34 29" fill="none" xmlns="http://www.w3.org/2000/svg">
<path d="M31.2249 28.067H2.77492C2.23616 28.0665 1.71962 27.8522 1.33866 27.4712C0.957705 27.0903 0.743449 26.5737 0.74292 26.035V3.00398C0.743449 2.46523 0.957705 1.94869 1.33866 1.56773C1.71962 1.18677 2.23616 0.972514 2.77492 0.971985H31.2249C31.7637 0.972514 32.2802 1.18677 32.6612 1.56773C33.0421 1.94869 33.2564 2.46523 33.2569 3.00398V26.035C33.2564 26.5737 33.0421 27.0903 32.6612 27.4712C32.2802 27.8522 31.7637 28.0665 31.2249 28.067ZM2.77492 2.32699C2.59545 2.32725 2.42341 2.39866 2.2965 2.52557C2.1696 2.65247 2.09818 2.82451 2.09792 3.00398V26.035C2.09818 26.2145 2.1696 26.3865 2.2965 26.5134C2.42341 26.6403 2.59545 26.7117 2.77492 26.712H31.2249C31.4044 26.7117 31.5764 26.6403 31.7033 26.5134C31.8302 26.3865 31.9017 26.2145 31.9019 26.035V3.00398C31.9017 2.82451 31.8302 2.65247 31.7033 2.52557C31.5764 2.39866 31.4044 2.32725 31.2249 2.32699H2.77492Z" fill="#305671" stroke="#305671" stroke-width="0.25"/>
<path d="M17.6779 1.81897H19.0329V27.559H17.6779V1.81897ZM9.54887 8.41897H4.80787C4.62818 8.41897 4.45587 8.34759 4.32881 8.22054C4.20176 8.09348 4.13037 7.92115 4.13037 7.74147C4.13037 7.56179 4.20176 7.38946 4.32881 7.26241C4.45587 7.13535 4.62818 7.06396 4.80787 7.06396H9.54987C9.72956 7.06396 9.90188 7.13535 10.0289 7.26241C10.156 7.38946 10.2274 7.56179 10.2274 7.74147C10.2274 7.92115 10.156 8.09348 10.0289 8.22054C9.90188 8.34759 9.72956 8.41897 9.54987 8.41897H9.54887ZM25.4669 10.619H21.4029C21.2232 10.619 21.0509 10.5476 20.9238 10.4205C20.7967 10.2935 20.7254 10.1212 20.7254 9.94147C20.7254 9.76178 20.7967 9.58946 20.9238 9.4624C21.0509 9.33535 21.2232 9.26397 21.4029 9.26397H25.4669C25.6465 9.26397 25.8189 9.33535 25.9459 9.4624C26.073 9.58946 26.1444 9.76178 26.1444 9.94147C26.1444 10.1212 26.073 10.2935 25.9459 10.4205C25.8189 10.5476 25.6465 10.619 25.4669 10.619ZM29.5309 16.719H21.4029C21.2232 16.719 21.0509 16.6476 20.9238 16.5205C20.7967 16.3935 20.7254 16.2212 20.7254 16.0415C20.7254 15.8618 20.7967 15.6895 20.9238 15.5624C21.0509 15.4354 21.2232 15.364 21.4029 15.364H29.5319C29.7116 15.364 29.8839 15.4354 30.0109 15.5624C30.138 15.6895 30.2094 15.8618 30.2094 16.0415C30.2094 16.2212 30.138 16.3935 30.0109 16.5205C29.8839 16.6476 29.7116 16.719 29.5319 16.719H29.5309ZM29.5309 22.819H21.4029C21.2232 22.819 21.0509 22.7476 20.9238 22.6205C20.7967 22.4935 20.7254 22.3211 20.7254 22.1415C20.7254 21.9618 20.7967 21.7895 20.9238 21.6624C21.0509 21.5353 21.2232 21.464 21.4029 21.464H29.5319C29.7116 21.464 29.8839 21.5353 30.0109 21.6624C30.138 21.7895 30.2094 21.9618 30.2094 22.1415C30.2094 22.3211 30.138 22.4935 30.0109 22.6205C29.8839 22.7476 29.7116 22.819 29.5319 22.819H29.5309ZM12.5969 10.119C12.457 10.1198 12.3203 10.0773 12.2056 9.99734C12.0908 9.91734 12.0037 9.80377 11.9561 9.67223C11.9085 9.5407 11.9029 9.39766 11.9399 9.26277C11.9769 9.12789 12.0548 9.00778 12.1629 8.91897L13.5709 7.74596L12.1629 6.57297C12.0942 6.51616 12.0374 6.44636 11.9958 6.36755C11.9541 6.28875 11.9285 6.20251 11.9203 6.11376C11.912 6.02502 11.9214 5.93553 11.9479 5.85042C11.9743 5.76531 12.0173 5.68625 12.0744 5.6178C12.1314 5.54934 12.2015 5.49283 12.2804 5.4515C12.3594 5.41017 12.4457 5.38483 12.5345 5.37695C12.6233 5.36907 12.7127 5.3788 12.7977 5.40557C12.8828 5.43234 12.9616 5.47564 13.0299 5.53297L15.0619 7.22597C15.1381 7.2895 15.1994 7.36902 15.2415 7.45888C15.2836 7.54874 15.3054 7.64674 15.3054 7.74596C15.3054 7.84519 15.2836 7.9432 15.2415 8.03306C15.1994 8.12292 15.1381 8.20243 15.0619 8.26597L13.0299 9.95897C12.9086 10.0609 12.7553 10.1168 12.5969 10.117V10.119Z" fill="#305671" stroke="#305671" stroke-width="0.25"/>
</svg>
