<svg width="24" height="24" viewBox="0 0 24 24" fill="none" xmlns="http://www.w3.org/2000/svg">
<path d="M23.025 22.33H1.39V0.695C1.39 0.510675 1.31678 0.333899 1.18644 0.203561C1.0561 0.073223 0.879325 0 0.695 0C0.510675 0 0.333899 0.073223 0.203561 0.203561C0.073223 0.333899 0 0.510675 0 0.695L0 23.025C0.0013091 23.2089 0.0749524 23.3849 0.205008 23.515C0.335063 23.645 0.511079 23.7187 0.695 23.72H23.025C23.2093 23.72 23.3861 23.6468 23.5164 23.5164C23.6468 23.3861 23.72 23.2093 23.72 23.025C23.72 22.8407 23.6468 22.6639 23.5164 22.5336C23.3861 22.4032 23.2093 22.33 23.025 22.33Z" fill="#305671"/>
<path d="M3.4743 15.2891C3.29038 15.2904 3.11436 15.364 2.9843 15.4941C2.85425 15.6241 2.78061 15.8001 2.7793 15.9841V20.2461C2.78061 20.43 2.85425 20.606 2.9843 20.7361C3.11436 20.8661 3.29038 20.9398 3.4743 20.9411H6.3003C6.48422 20.9398 6.66024 20.8661 6.79029 20.7361C6.92035 20.606 6.99399 20.43 6.9953 20.2461V15.9841C6.99399 15.8001 6.92035 15.6241 6.79029 15.4941C6.66024 15.364 6.48422 15.2904 6.3003 15.2891H3.4743ZM5.6053 19.5511H4.1693V16.6791H5.6053V19.5511Z" fill="#305671"/>
<path d="M9.07977 12.5078C8.89585 12.5091 8.71982 12.5828 8.58977 12.7128C8.45971 12.8429 8.38607 13.0189 8.38477 13.2028V20.2448C8.38607 20.4287 8.45971 20.6047 8.58977 20.7348C8.71982 20.8649 8.89585 20.9385 9.07977 20.9398H11.8598C12.0437 20.9385 12.2197 20.8649 12.3498 20.7348C12.4798 20.6047 12.5535 20.4287 12.5548 20.2448V13.2028C12.5535 13.0189 12.4798 12.8429 12.3498 12.7128C12.2197 12.5828 12.0437 12.5091 11.8598 12.5078H9.07977ZM11.1648 19.5498H9.77477V13.8978H11.1648V19.5498Z" fill="#305671"/>
<path d="M14.6403 9.73047C14.4564 9.73178 14.2804 9.80542 14.1503 9.93547C14.0203 10.0655 13.9466 10.2416 13.9453 10.4255V20.2475C13.9466 20.4314 14.0203 20.6074 14.1503 20.7375C14.2804 20.8675 14.4564 20.9412 14.6403 20.9425H17.4203C17.6042 20.9412 17.7803 20.8675 17.9103 20.7375C18.0404 20.6074 18.114 20.4314 18.1153 20.2475V10.4255C18.114 10.2416 18.0404 10.0655 17.9103 9.93547C17.7803 9.80542 17.6042 9.73178 17.4203 9.73047H14.6403ZM16.7253 19.5525H15.3353V11.1205H16.7253V19.5525Z" fill="#305671"/>
<path d="M23.0249 6.94922H20.1989C20.015 6.95053 19.839 7.02417 19.7089 7.15422C19.5789 7.28428 19.5052 7.46031 19.5039 7.64423V20.2442C19.5052 20.4281 19.5789 20.6042 19.7089 20.7342C19.839 20.8643 20.015 20.9379 20.1989 20.9392H23.0249C23.2088 20.9379 23.3848 20.8643 23.5149 20.7342C23.6449 20.6042 23.7186 20.4281 23.7199 20.2442V7.64423C23.7186 7.46031 23.6449 7.28428 23.5149 7.15422C23.3848 7.02417 23.2088 6.95053 23.0249 6.94922ZM22.3299 19.5492H20.8939V8.33922H22.3299V19.5492Z" fill="#305671"/>
<path d="M19.8873 5.49062C20.0523 5.57155 20.2426 5.5843 20.417 5.52611C20.5914 5.46792 20.7359 5.34346 20.8193 5.17963L22.2093 2.39963C22.263 2.2936 22.2886 2.17557 22.2837 2.05681C22.2787 1.93806 22.2434 1.82256 22.1811 1.72134C22.1188 1.62013 22.0316 1.53658 21.9278 1.47867C21.824 1.42077 21.7071 1.39046 21.5883 1.39063H18.1133C17.9289 1.39063 17.7522 1.46385 17.6218 1.59419C17.4915 1.72452 17.4183 1.9013 17.4183 2.08563C17.4183 2.26995 17.4915 2.44673 17.6218 2.57707C17.7522 2.7074 17.9289 2.78063 18.1133 2.78063H18.8253L3.14527 11.2026C3.06277 11.2446 2.9895 11.3027 2.92976 11.3734C2.87001 11.4441 2.82499 11.526 2.79735 11.6144C2.7697 11.7027 2.75998 11.7957 2.76876 11.8879C2.77754 11.98 2.80464 12.0695 2.84847 12.151C2.89231 12.2326 2.95199 12.3045 3.02401 12.3627C3.09604 12.4209 3.17895 12.464 3.2679 12.4897C3.35684 12.5154 3.45001 12.523 3.54195 12.5122C3.63388 12.5014 3.72273 12.4723 3.80327 12.4266L19.9823 3.73463L19.5723 4.55463C19.4904 4.72059 19.4775 4.91224 19.5366 5.08764C19.5956 5.26305 19.7217 5.40794 19.8873 5.49062Z" fill="#305671"/>
</svg>
