<svg width="24" height="24" viewBox="0 0 24 24" fill="none" xmlns="http://www.w3.org/2000/svg">
<path d="M18.1694 10.6175C18.7333 10.6175 19.1904 10.2517 19.1904 9.8005C19.1904 9.34928 18.7333 8.9835 18.1694 8.9835C17.6056 8.9835 17.1484 9.34928 17.1484 9.8005C17.1484 10.2517 17.6056 10.6175 18.1694 10.6175Z" fill="#305671"/>
<path d="M20.226 1.8745H19.008V0.9375C19.008 0.689125 18.9093 0.450922 18.7337 0.275295C18.5581 0.0996667 18.3199 0.001 18.0715 0.001C17.8231 0.001 17.5849 0.0996667 17.4093 0.275295C17.2337 0.450922 17.135 0.689125 17.135 0.9375V1.8735H12.875V0.9375C12.875 0.68886 12.7762 0.450403 12.6004 0.274587C12.4246 0.098772 12.1861 0 11.9375 0C11.6889 0 11.4504 0.098772 11.2746 0.274587C11.0988 0.450403 11 0.68886 11 0.9375V1.8735H6.789V0.9375C6.789 0.689125 6.69033 0.450922 6.51471 0.275295C6.33908 0.0996667 6.10088 0.001 5.8525 0.001C5.60412 0.001 5.36592 0.0996667 5.19029 0.275295C5.01467 0.450922 4.916 0.689125 4.916 0.9375V1.8735H3.745C2.752 1.87482 1.80006 2.26995 1.09799 2.9722C0.395928 3.67445 0.00105832 4.6265 0 5.6195L0 20.2275C0.00132289 21.2203 0.396309 22.1721 1.09835 22.8742C1.80038 23.5762 2.75217 23.9712 3.745 23.9725H10.908C11.1564 23.9725 11.3946 23.8738 11.5702 23.6982C11.7458 23.5226 11.8445 23.2844 11.8445 23.036C11.8445 22.7876 11.7458 22.5494 11.5702 22.3738C11.3946 22.1982 11.1564 22.0995 10.908 22.0995H3.745C3.24841 22.099 2.77231 21.9015 2.42117 21.5503C2.07003 21.1992 1.87253 20.7231 1.872 20.2265V5.6195C1.87253 5.12291 2.07003 4.64681 2.42117 4.29567C2.77231 3.94453 3.24841 3.74703 3.745 3.7465H4.915V4.6825C4.915 4.93088 5.01367 5.16908 5.18929 5.34471C5.36492 5.52033 5.60312 5.619 5.8515 5.619C6.09988 5.619 6.33808 5.52033 6.51371 5.34471C6.68933 5.16908 6.788 4.93088 6.788 4.6825V3.7465H11V4.6825C11 4.93088 11.0987 5.16908 11.2743 5.34471C11.4499 5.52033 11.6881 5.619 11.9365 5.619C12.1849 5.619 12.4231 5.52033 12.5987 5.34471C12.7743 5.16908 12.873 4.93088 12.873 4.6825V3.7465H17.134V4.6825C17.134 4.93088 17.2327 5.16908 17.4083 5.34471C17.5839 5.52033 17.8221 5.619 18.0705 5.619C18.3189 5.619 18.5571 5.52033 18.7327 5.34471C18.9083 5.16908 19.007 4.93088 19.007 4.6825V3.7465H20.224C20.7211 3.74623 21.198 3.94339 21.5498 4.29461C21.9016 4.64584 22.0995 5.12239 22.1 5.6195V10.9565C22.1 11.2049 22.1987 11.4431 22.3743 11.6187C22.5499 11.7943 22.7881 11.893 23.0365 11.893C23.2849 11.893 23.5231 11.7943 23.6987 11.6187C23.8743 11.4431 23.973 11.2049 23.973 10.9565V5.6195C23.9717 4.62632 23.5764 3.67423 22.8739 2.97214C22.1715 2.27005 21.2192 1.87529 20.226 1.8745Z" fill="#305671"/>
<path d="M18.3056 12.6425C17.1852 12.6425 16.0899 12.9747 15.1583 13.5972C14.2267 14.2197 13.5006 15.1045 13.0718 16.1396C12.6431 17.1747 12.5309 18.3138 12.7495 19.4127C12.9681 20.5116 13.5076 21.521 14.2999 22.3132C15.0921 23.1055 16.1015 23.6451 17.2004 23.8637C18.2993 24.0822 19.4384 23.97 20.4735 23.5413C21.5087 23.1125 22.3934 22.3864 23.0159 21.4548C23.6384 20.5232 23.9706 19.4279 23.9706 18.3075C23.9688 16.8056 23.3713 15.3658 22.3093 14.3038C21.2473 13.2418 19.8075 12.6444 18.3056 12.6425ZM18.3056 22.0995C17.5556 22.0995 16.8225 21.8771 16.1989 21.4604C15.5753 21.0438 15.0893 20.4515 14.8023 19.7587C14.5153 19.0658 14.4402 18.3033 14.5865 17.5677C14.7328 16.8322 15.0939 16.1565 15.6243 15.6261C16.1546 15.0958 16.8303 14.7347 17.5659 14.5884C18.3014 14.442 19.0639 14.5171 19.7568 14.8042C20.4497 15.0912 21.0419 15.5772 21.4586 16.2008C21.8752 16.8244 22.0976 17.5575 22.0976 18.3075C22.0955 19.3126 21.6953 20.2758 20.9847 20.9865C20.274 21.6972 19.3107 22.0974 18.3056 22.0995Z" fill="#305671"/>
<path d="M19.6641 17.3715H19.2431V16.3885C19.2431 16.1401 19.1444 15.9019 18.9688 15.7263C18.7932 15.5507 18.555 15.452 18.3066 15.452C18.0582 15.452 17.82 15.5507 17.6444 15.7263C17.4688 15.9019 17.3701 16.1401 17.3701 16.3885V18.3085C17.3701 18.5567 17.4687 18.7948 17.6443 18.9704C17.8198 19.1459 18.0579 19.2445 18.3061 19.2445H19.6641C19.9125 19.2445 20.1507 19.1458 20.3263 18.9702C20.502 18.7946 20.6006 18.5564 20.6006 18.308C20.6006 18.0596 20.502 17.8214 20.3263 17.6458C20.1507 17.4702 19.9125 17.3715 19.6641 17.3715Z" fill="#305671"/>
<path d="M14.0864 10.6175C14.6503 10.6175 15.1074 10.2517 15.1074 9.8005C15.1074 9.34928 14.6503 8.9835 14.0864 8.9835C13.5225 8.9835 13.0654 9.34928 13.0654 9.8005C13.0654 10.2517 13.5225 10.6175 14.0864 10.6175Z" fill="#305671"/>
<path d="M10.0034 14.7005C10.5673 14.7005 11.0244 14.3347 11.0244 13.8835C11.0244 13.4323 10.5673 13.0665 10.0034 13.0665C9.43954 13.0665 8.98242 13.4323 8.98242 13.8835C8.98242 14.3347 9.43954 14.7005 10.0034 14.7005Z" fill="#305671"/>
<path d="M5.92041 10.6175C6.4843 10.6175 6.94141 10.2517 6.94141 9.8005C6.94141 9.34928 6.4843 8.9835 5.92041 8.9835C5.35653 8.9835 4.89941 9.34928 4.89941 9.8005C4.89941 10.2517 5.35653 10.6175 5.92041 10.6175Z" fill="#305671"/>
<path d="M5.92041 14.7005C6.4843 14.7005 6.94141 14.3347 6.94141 13.8835C6.94141 13.4323 6.4843 13.0665 5.92041 13.0665C5.35653 13.0665 4.89941 13.4323 4.89941 13.8835C4.89941 14.3347 5.35653 14.7005 5.92041 14.7005Z" fill="#305671"/>
<path d="M5.92041 18.7835C6.4843 18.7835 6.94141 18.4177 6.94141 17.9665C6.94141 17.5153 6.4843 17.1495 5.92041 17.1495C5.35653 17.1495 4.89941 17.5153 4.89941 17.9665C4.89941 18.4177 5.35653 18.7835 5.92041 18.7835Z" fill="#305671"/>
<path d="M10.0034 18.7835C10.5673 18.7835 11.0244 18.4177 11.0244 17.9665C11.0244 17.5153 10.5673 17.1495 10.0034 17.1495C9.43954 17.1495 8.98242 17.5153 8.98242 17.9665C8.98242 18.4177 9.43954 18.7835 10.0034 18.7835Z" fill="#305671"/>
<path d="M10.0034 10.6175C10.5673 10.6175 11.0244 10.2517 11.0244 9.8005C11.0244 9.34928 10.5673 8.9835 10.0034 8.9835C9.43954 8.9835 8.98242 9.34928 8.98242 9.8005C8.98242 10.2517 9.43954 10.6175 10.0034 10.6175Z" fill="#305671"/>
</svg>
