<svg width="70" height="70" viewBox="0 0 70 70" fill="none" xmlns="http://www.w3.org/2000/svg">
<path d="M35 70C54.33 70 70 54.33 70 35C70 15.67 54.33 0 35 0C15.67 0 0 15.67 0 35C0 54.33 15.67 70 35 70Z" fill="white"/>
<path d="M35 69.5C54.0538 69.5 69.5 54.0538 69.5 35C69.5 15.9462 54.0538 0.5 35 0.5C15.9462 0.5 0.5 15.9462 0.5 35C0.5 54.0538 15.9462 69.5 35 69.5Z" stroke="#9BAEBC"/>
<path d="M51.4603 17.818C51.2092 17.5613 50.9097 17.3569 50.5791 17.2165C50.2486 17.0761 49.8935 17.0025 49.5344 17H49.5113C48.7939 17.0105 48.1091 17.3022 47.6045 17.8123C47.0998 18.3224 46.8154 19.0101 46.8125 19.7277C46.8096 20.4453 47.0885 21.1353 47.589 21.6494C48.0896 22.1636 48.772 22.4607 49.4893 22.477H49.5124C50.0516 22.4759 50.5785 22.3157 51.0271 22.0164C51.4757 21.7171 51.8259 21.2921 52.034 20.7946C52.242 20.2971 52.2985 19.7492 52.1965 19.2197C52.0945 18.6902 51.8384 18.2026 51.4603 17.818V17.818ZM49.5084 21.465H49.4933C49.0426 21.4525 48.6146 21.2641 48.3009 20.9403C47.9871 20.6164 47.8125 20.1826 47.8143 19.7317C47.8162 19.2807 47.9943 18.8484 48.3106 18.5271C48.627 18.2057 49.0565 18.0209 49.5073 18.012H49.5224C49.9731 18.0245 50.4011 18.2129 50.7148 18.5367C51.0286 18.8606 51.2032 19.2944 51.2014 19.7453C51.1995 20.1963 51.0214 20.6286 50.7051 20.9499C50.3887 21.2713 49.9592 21.4561 49.5084 21.465V21.465Z" fill="#305671"/>
<path d="M19.7609 31.8828H19.7379C19.0204 31.8933 18.3357 32.185 17.831 32.6951C17.3263 33.2052 17.042 33.893 17.0391 34.6105C17.0362 35.3281 17.315 36.0181 17.8156 36.5322C18.3162 37.0464 18.9985 37.3435 19.7159 37.3598H19.7389C20.4564 37.3493 21.1411 37.0576 21.6458 36.5475C22.1505 36.0374 22.4348 35.3497 22.4377 34.6321C22.4406 33.9145 22.1618 33.2245 21.6612 32.7104C21.1606 32.1963 20.4783 31.8991 19.7609 31.8828ZM19.7389 36.3478H19.7239C19.2731 36.3353 18.8452 36.147 18.5314 35.8231C18.2177 35.4992 18.043 35.0654 18.0449 34.6145C18.0467 34.1635 18.2248 33.7312 18.5412 33.4099C18.8576 33.0885 19.2871 32.9037 19.7379 32.8948H19.7529C19.9797 32.8957 20.2041 32.9413 20.4133 33.0289C20.6224 33.1166 20.8123 33.2446 20.972 33.4056C21.1317 33.5666 21.2582 33.7575 21.3441 33.9674C21.4301 34.1773 21.4738 34.402 21.4729 34.6288C21.472 34.8556 21.4264 35.08 21.3388 35.2892C21.2511 35.4983 21.1231 35.6882 20.9621 35.8479C20.8011 36.0076 20.6102 36.1341 20.4003 36.22C20.1904 36.306 19.9657 36.3497 19.7389 36.3488V36.3478Z" fill="#305671"/>
<path d="M30.0664 21.5781H30.0484C29.331 21.5886 28.6463 21.8803 28.1416 22.3904C27.6369 22.9005 27.3525 23.5883 27.3496 24.3058C27.3467 25.0234 27.6256 25.7134 28.1262 26.2276C28.6267 26.7417 29.3091 27.0388 30.0265 27.0551H30.0494C30.7669 27.0446 31.4516 26.7529 31.9563 26.2428C32.461 25.7328 32.7454 25.045 32.7483 24.3274C32.7511 23.6099 32.4723 22.9198 31.9717 22.4057C31.4712 21.8916 30.7888 21.5944 30.0714 21.5781H30.0664ZM30.0444 26.0431H30.0294C29.5787 26.0306 29.1507 25.8423 28.837 25.5184C28.5232 25.1945 28.3486 24.7607 28.3504 24.3098C28.3523 23.8589 28.5304 23.4265 28.8467 23.1052C29.1631 22.7838 29.5926 22.599 30.0434 22.5901H30.0584C30.5092 22.6026 30.9372 22.791 31.2509 23.1149C31.5647 23.4388 31.7393 23.8725 31.7375 24.3235C31.7356 24.7744 31.5575 25.2067 31.2412 25.5281C30.9248 25.8494 30.4953 26.0343 30.0444 26.0431V26.0431Z" fill="#305671"/>
<path d="M37.507 29.0273H37.484C36.7665 29.0379 36.0818 29.3295 35.5771 29.8396C35.0724 30.3497 34.7881 31.0375 34.7852 31.755C34.7823 32.4726 35.0611 33.1626 35.5617 33.6768C36.0623 34.1909 36.7446 34.4881 37.462 34.5043H37.485C38.2025 34.4938 38.8872 34.2022 39.3919 33.6921C39.8966 33.182 40.1809 32.4942 40.1838 31.7766C40.1867 31.0591 39.9079 30.369 39.4073 29.8549C38.9067 29.3408 38.2244 29.0436 37.507 29.0273V29.0273ZM37.485 33.4923H37.47C37.0192 33.4798 36.5912 33.2915 36.2775 32.9676C35.9638 32.6437 35.7891 32.2099 35.791 31.759C35.7928 31.3081 35.9709 30.8757 36.2873 30.5544C36.6036 30.2331 37.0332 30.0482 37.484 30.0393H37.499C37.9498 30.0519 38.3777 30.2402 38.6915 30.5641C39.0052 30.888 39.1799 31.3217 39.178 31.7727C39.1762 32.2236 38.9981 32.6559 38.6817 32.9773C38.3653 33.2986 37.9358 33.4835 37.485 33.4923V33.4923Z" fill="#305671"/>
<path d="M47.5528 20.9494L38.7031 29.8242L39.4196 30.5387L48.2693 21.6639L47.5528 20.9494Z" fill="#305671"/>
<path d="M31.9812 25.5383L31.2656 26.2539L35.5535 30.5418L36.2691 29.8262L31.9812 25.5383Z" fill="#305671"/>
<path d="M28.1091 25.5394L20.9609 32.6875L21.6765 33.4031L28.8247 26.2549L28.1091 25.5394Z" fill="#305671"/>
<path d="M46.0254 27.418V52.245H52.2464V27.418H46.0254ZM47.0374 51.233V28.433H51.2374V51.233H47.0374Z" fill="#305671"/>
<path d="M36.3496 37.8398V52.2478H42.5706V37.8398H36.3496ZM41.5596 51.2398H37.3596V38.8518H41.5596V51.2398Z" fill="#305671"/>
<path d="M26.6758 37.0938V52.2457H32.8968V37.0938H26.6758ZM31.8858 51.2337H27.6858V38.1057H31.8858V51.2337Z" fill="#305671"/>
<path d="M17 40.8164V52.2474H23.221V40.8164H17ZM22.21 51.2354H18.01V41.8284H22.21V51.2354Z" fill="#305671"/>
</svg>
