<svg width="15" height="15" viewBox="0 0 15 15" fill="none" xmlns="http://www.w3.org/2000/svg">
<path d="M13.381 1.915H11.699V0.5H10.299V1.915H4.687V0.5H3.287V1.915H1.622C1.32443 1.915 1.03904 2.03321 0.828626 2.24363C0.61821 2.45404 0.5 2.73943 0.5 3.037V13.4C0.499869 13.5474 0.528794 13.6934 0.585121 13.8297C0.641448 13.9659 0.724073 14.0897 0.828273 14.194C0.932474 14.2983 1.05621 14.3811 1.1924 14.4375C1.32859 14.4939 1.47457 14.523 1.622 14.523H13.381C13.5284 14.523 13.6744 14.4939 13.8106 14.4375C13.9468 14.3811 14.0705 14.2983 14.1747 14.194C14.2789 14.0897 14.3616 13.9659 14.4179 13.8297C14.4742 13.6934 14.5031 13.5474 14.503 13.4V3.037C14.503 2.73943 14.3848 2.45404 14.1744 2.24363C13.964 2.03321 13.6786 1.915 13.381 1.915ZM13.101 13.12H1.883V6.109H13.101V13.12ZM13.101 4.706H1.883V3.3H13.101V4.706Z" fill="#305671"/>
<path d="M8.33364 7.51172H6.93164V8.91372H8.33364V7.51172Z" fill="#305671"/>
<path d="M11.1364 7.51172H9.73438V8.91372H11.1364V7.51172Z" fill="#305671"/>
<path d="M8.33364 10.3164H6.93164V11.7184H8.33364V10.3164Z" fill="#305671"/>
<path d="M5.52798 10.3164H4.12598V11.7184H5.52798V10.3164Z" fill="#305671"/>
</svg>
