<svg width="27" height="27" viewBox="0 0 27 27" fill="none" xmlns="http://www.w3.org/2000/svg">
<path d="M13.5 27C20.9558 27 27 20.9558 27 13.5C27 6.04416 20.9558 0 13.5 0C6.04416 0 0 6.04416 0 13.5C0 20.9558 6.04416 27 13.5 27Z" fill="#305671"/>
<path d="M13.3842 12.306C14.591 12.306 15.5692 11.3421 15.5692 10.153C15.5692 8.96393 14.591 8 13.3842 8C12.1775 8 11.1992 8.96393 11.1992 10.153C11.1992 11.3421 12.1775 12.306 13.3842 12.306Z" fill="white"/>
<path d="M17.7552 12.307C18.5003 12.307 19.1042 11.6882 19.1042 10.925C19.1042 10.1617 18.5003 9.54297 17.7552 9.54297C17.0102 9.54297 16.4062 10.1617 16.4062 10.925C16.4062 11.6882 17.0102 12.307 17.7552 12.307Z" fill="white"/>
<path d="M8.98356 12.307C9.74682 12.307 10.3656 11.6882 10.3656 10.925C10.3656 10.1617 9.74682 9.54297 8.98356 9.54297C8.2203 9.54297 7.60156 10.1617 7.60156 10.925C7.60156 11.6882 8.2203 12.307 8.98356 12.307Z" fill="white"/>
<path d="M10.341 13.5379C9.86351 13.1965 9.27002 13.0588 8.691 13.1549C8.2441 13.1538 7.81503 13.3301 7.498 13.6451C7.18096 13.9601 7.00185 14.388 7 14.8349V17.5539C7.00079 17.7475 7.07826 17.9329 7.21546 18.0695C7.35265 18.2062 7.53838 18.2829 7.732 18.2829C9.475 18.2829 9.265 18.3149 9.265 18.2079C9.266 16.2819 9.037 14.8689 10.341 13.5379Z" fill="white"/>
<path d="M13.966 13.1656C13.4699 13.0781 12.9611 13.0928 12.4709 13.2089C11.9806 13.325 11.5193 13.5399 11.115 13.8406C9.74904 14.9346 10.015 16.4076 10.015 18.2096C10.0153 18.4408 10.1073 18.6625 10.2707 18.8259C10.4342 18.9894 10.6559 19.0814 10.887 19.0816C16.142 19.0816 16.351 19.2516 16.663 18.5606C16.763 18.3276 16.737 18.4016 16.737 16.1686C16.7351 15.4128 16.4497 14.6852 15.9371 14.1297C15.4246 13.5742 14.7223 13.2312 13.969 13.1686L13.966 13.1656Z" fill="white"/>
<path d="M18.0562 13.1549C17.7695 13.1073 17.4763 13.1166 17.1931 13.1823C16.91 13.248 16.6427 13.3689 16.4062 13.5379C17.7003 14.8589 17.4813 16.1749 17.4813 18.2079C17.4813 18.3149 17.3073 18.2829 18.9883 18.2829C19.1888 18.2829 19.3811 18.2035 19.5232 18.062C19.6653 17.9205 19.7455 17.7284 19.7462 17.5279V14.8349C19.7444 14.3882 19.5654 13.9604 19.2486 13.6455C18.9318 13.3305 18.503 13.1541 18.0562 13.1549Z" fill="white"/>
</svg>
