<svg width="14" height="14" viewBox="0 0 14 14" fill="none" xmlns="http://www.w3.org/2000/svg">
<path d="M1.60352 3.41016H12.4505" stroke="#D0D6DB" stroke-width="1.5" stroke-linecap="round" stroke-linejoin="round"/>
<path d="M4.61659 3.411V2.205C4.61659 1.88541 4.74355 1.57892 4.96953 1.35294C5.19551 1.12695 5.50201 1 5.82159 1H8.23259C8.55218 1 8.85868 1.12695 9.08466 1.35294C9.31064 1.57892 9.43759 1.88541 9.43759 2.205V3.411M11.2456 3.411V11.848C11.2456 12.1676 11.1186 12.4741 10.8927 12.7001C10.6667 12.926 10.3602 13.053 10.0406 13.053H4.01359C3.85527 13.053 3.69849 13.0218 3.55223 12.9612C3.40597 12.9006 3.27308 12.8117 3.16118 12.6997C3.04927 12.5877 2.96053 12.4548 2.90003 12.3084C2.83953 12.1621 2.80846 12.0053 2.80859 11.847V3.411H11.2456Z" stroke="#D0D6DB" stroke-width="1.5" stroke-linecap="round" stroke-linejoin="round"/>
<path d="M6.00049 7.11328V10.1133" stroke="#D0D6DB" stroke-width="1.5" stroke-linecap="round" stroke-linejoin="round"/>
<path d="M8.00049 7.11328V10.1133" stroke="#D0D6DB" stroke-width="1.5" stroke-linecap="round" stroke-linejoin="round"/>
</svg>
