<svg width="16" height="18" viewBox="0 0 16 18" fill="none" xmlns="http://www.w3.org/2000/svg">
<path d="M1 4.2002H15" stroke="#ED707A" stroke-width="1.5" stroke-linecap="round" stroke-linejoin="round"/>
<path d="M4.88881 4.20023V2.60011C4.88881 2.17574 5.05273 1.76874 5.3445 1.46866C5.63627 1.16858 6.03199 1 6.44462 1H9.55622C9.96865 1.0003 10.3641 1.16902 10.6556 1.46907C10.9471 1.76912 11.1109 2.17594 11.1109 2.60011V4.20023M13.4452 4.20023V15.3999C13.4452 15.8243 13.2813 16.2313 12.9895 16.5313C12.6977 16.8314 12.302 17 11.8894 17H4.11147C3.90706 17 3.70466 16.9586 3.51583 16.8781C3.327 16.7976 3.15544 16.6796 3.01095 16.5309C2.86647 16.3822 2.75189 16.2057 2.67377 16.0114C2.59565 15.8172 2.55552 15.609 2.55566 15.3987V4.20023H13.4452Z" stroke="#ED707A" stroke-width="1.5" stroke-linecap="round" stroke-linejoin="round"/>
<path d="M6.67578 9.11475V13.0972" stroke="#ED707A" stroke-width="1.5" stroke-linecap="round" stroke-linejoin="round"/>
<path d="M9.25684 9.11475V13.0972" stroke="#ED707A" stroke-width="1.5" stroke-linecap="round" stroke-linejoin="round"/>
</svg>
