<svg width="29" height="29" viewBox="0 0 29 29" fill="none" xmlns="http://www.w3.org/2000/svg">
<path d="M23.944 14.276C24.1544 14.6481 24.2799 15.0622 24.3116 15.4885C24.3432 15.9148 24.2802 16.3429 24.127 16.742C23.708 17.642 22.255 18.442 21.584 17.324C21.2423 16.6914 21.1027 15.9693 21.184 15.255C21.2552 14.8653 21.4544 14.5105 21.75 14.247C22.129 13.937 23.8 13.59 24.016 14.4C24.0624 14.5613 24.1704 14.6978 24.3168 14.7798C24.4632 14.8619 24.6361 14.8829 24.7978 14.8382C24.9596 14.7935 25.0972 14.6869 25.1807 14.5413C25.2643 14.3958 25.287 14.2232 25.244 14.061C24.798 12.39 22.291 12.243 21.083 13.161C19.631 14.261 19.701 16.184 20.37 17.711C20.5362 18.0698 20.7854 18.384 21.0971 18.6274C21.4087 18.8709 21.7738 19.0367 22.1622 19.1112C22.5506 19.1857 22.9511 19.1666 23.3307 19.0556C23.7102 18.9446 24.0579 18.7449 24.345 18.473C25.883 17.278 25.817 15.248 25.045 13.636C24.692 12.897 23.593 13.542 23.945 14.279L23.944 14.276Z" fill="#305671"/>
<path d="M19.8411 21.658C21.9071 21.658 25.1051 21.039 26.6061 22.858C27.0551 23.402 27.6391 26.021 27.1371 26.699C26.5831 27.447 25.4571 27.135 24.6421 27.135C22.7897 27.2918 20.9274 27.2918 19.0751 27.135C18.0061 26.94 18.2101 26.559 18.2171 25.535C18.2281 23.922 17.9431 22.174 20.0051 21.635C20.1664 21.5887 20.3029 21.4806 20.3849 21.3342C20.467 21.1878 20.488 21.015 20.4433 20.8532C20.3986 20.6915 20.292 20.5539 20.1464 20.4703C20.0009 20.3867 19.8283 20.364 19.6661 20.407C19.0217 20.532 18.4292 20.8461 17.964 21.3091C17.4988 21.7722 17.1821 22.3632 17.0541 23.007C16.7545 24.6022 16.7318 26.2371 16.9871 27.84C17.0165 27.9463 17.073 28.0431 17.151 28.1211C17.229 28.199 17.3258 28.2555 17.4321 28.285C18.6294 28.5084 19.8538 28.5481 21.0631 28.403H25.4371C27.3911 28.403 28.2691 28.767 28.4101 26.693C28.5411 24.773 28.4101 22.467 26.8271 21.102C25.1631 19.663 21.8431 20.383 19.8401 20.38C19.6711 20.38 19.5091 20.4471 19.3896 20.5666C19.2702 20.686 19.2031 20.848 19.2031 21.017C19.2031 21.1859 19.2702 21.3479 19.3896 21.4674C19.5091 21.5869 19.6711 21.654 19.8401 21.654L19.8411 21.658Z" fill="#305671"/>
<path d="M6.979 18.478C7.005 19.992 7.164 21.533 8.464 22.507C9.09928 22.9398 9.79155 23.2824 10.521 23.525C11.464 23.882 12.476 23.825 13.407 24.175C14.174 24.466 14.507 23.235 13.746 22.947C12.506 22.477 11.221 22.51 9.985 21.921C8.485 21.206 8.279 20.011 8.253 18.479C8.253 18.31 8.18589 18.148 8.06643 18.0286C7.94697 17.9091 7.78495 17.842 7.616 17.842C7.44706 17.842 7.28504 17.9091 7.16558 18.0286C7.04612 18.148 6.979 18.31 6.979 18.479V18.478Z" fill="#305671"/>
<path d="M11.93 22.09C12.216 22.333 12.313 22.728 12.584 22.99C12.9472 23.2819 13.2916 23.5965 13.615 23.932L13.515 23.16C13.6 22.987 13.469 23.181 13.365 23.26C13.2403 23.3551 13.1217 23.4579 13.01 23.568C12.71 23.855 12.436 24.168 12.15 24.462C11.582 25.053 12.482 25.955 13.05 25.362C13.357 25.042 13.65 24.696 13.981 24.401C14.207 24.201 14.481 24.087 14.615 23.801C14.6805 23.6778 14.7061 23.5374 14.6882 23.399C14.6703 23.2607 14.6097 23.1314 14.515 23.029C14.1884 22.6968 13.8443 22.3823 13.484 22.087C13.221 21.817 13.13 21.438 12.83 21.187C12.209 20.658 11.304 21.555 11.93 22.087V22.09Z" fill="#305671"/>
<path d="M14.0001 3.81798C13.3311 4.35582 12.7658 5.01122 12.3321 5.75198C12.2505 5.89857 12.2287 6.07098 12.2712 6.23325C12.3137 6.39552 12.4172 6.53514 12.5601 6.62298C13.2154 7.062 13.8261 7.56442 14.3831 8.12298C14.5041 8.23388 14.6632 8.2938 14.8273 8.29022C14.9914 8.28665 15.1478 8.21987 15.2639 8.1038C15.38 7.98773 15.4467 7.83134 15.4503 7.66724C15.4539 7.50314 15.394 7.34399 15.2831 7.22298C14.6466 6.58965 13.9496 6.02026 13.2021 5.52298L13.4301 6.39398C13.8125 5.74913 14.3104 5.18029 14.8991 4.71598C15.5391 4.20398 14.6321 3.30698 13.9991 3.81598L14.0001 3.81798Z" fill="#305671"/>
<path d="M13.997 6.35498C14.808 5.52098 17.065 6.22898 17.816 6.79598C18.6393 7.56421 19.219 8.55728 19.483 9.65198C19.755 10.419 20.983 10.089 20.711 9.31298C20.135 7.68698 19.448 6.06098 17.788 5.29498C16.505 4.70298 14.188 4.33298 13.096 5.45298C12.524 6.04098 13.424 6.94298 13.996 6.35298L13.997 6.35498Z" fill="#305671"/>
<path d="M3.13804 8.95998C4.86614 8.78475 6.60651 8.76568 8.33804 8.90298C10.158 9.23598 10.418 10.043 10.592 11.539C10.76 12.3388 10.7874 13.1618 10.673 13.971C10.285 15.186 7.40904 14.678 6.22104 14.678H0.698037L1.33504 15.315C1.30804 13.672 0.608037 9.28298 3.17004 9.11498C3.98404 9.06098 3.99004 7.78598 3.17004 7.84098C-0.586963 8.08998 0.017037 12.648 0.061037 15.316C0.0636163 15.4841 0.131557 15.6446 0.250463 15.7636C0.369369 15.8825 0.529898 15.9504 0.698037 15.953C3.85504 15.953 7.01304 15.977 10.171 15.953C12.217 15.938 11.997 14.829 11.95 12.928C11.909 11.287 11.833 9.10298 10.275 8.11098C8.45004 6.94898 5.14704 7.66098 3.13904 7.68598C2.97009 7.68598 2.80807 7.75309 2.68861 7.87255C2.56915 7.99201 2.50204 8.15404 2.50204 8.32298C2.50204 8.49192 2.56915 8.65395 2.68861 8.77341C2.80807 8.89287 2.97009 8.95998 3.13904 8.95998H3.13804Z" fill="#305671"/>
<path d="M6.97901 1.96299C7.94901 2.26799 7.36801 4.14099 7.04901 4.71299C6.92601 4.93299 6.52601 5.57299 6.24901 5.59299C5.97201 5.61299 5.54201 5.13399 5.37101 4.95499C5.07604 4.66621 4.85145 4.31344 4.71464 3.92398C4.57782 3.53451 4.53244 3.1188 4.58201 2.70899C4.68201 1.29699 5.81901 0.842987 6.90301 1.82399C7.50901 2.37299 8.413 1.47499 7.803 0.923987C6.572 -0.192013 4.48001 -0.527013 3.63201 1.23399C3.26958 2.05373 3.1789 2.96792 3.37321 3.84289C3.56753 4.71786 4.03666 5.50772 4.71201 6.09699C5.26901 6.62099 5.78801 7.09699 6.58501 6.82999C7.35761 6.49082 7.96748 5.86373 8.28501 5.08199C8.95401 3.64699 9.15901 1.31899 7.31701 0.739987C6.53201 0.492987 6.19901 1.72199 6.97901 1.96299Z" fill="#305671"/>
</svg>
