<svg width="12" height="12" viewBox="0 0 12 12" fill="none" xmlns="http://www.w3.org/2000/svg">
<path d="M4.9418 10.587H3.1528C2.92002 10.5867 2.69685 10.4942 2.53225 10.3296C2.36765 10.165 2.27506 9.94178 2.2748 9.709V8.93701L2.5848 9.213C2.61907 9.24347 2.65902 9.26689 2.70234 9.28192C2.74567 9.29695 2.79153 9.3033 2.83731 9.30061C2.88309 9.29791 2.92789 9.28623 2.96915 9.26622C3.01041 9.24622 3.04733 9.21828 3.0778 9.184C3.10827 9.14973 3.13168 9.10979 3.14672 9.06646C3.16175 9.02314 3.1681 8.97728 3.1654 8.9315C3.16271 8.88572 3.15103 8.84092 3.13102 8.79965C3.11101 8.75839 3.08308 8.72147 3.0488 8.691L2.1568 7.897C2.0929 7.84014 2.01034 7.80873 1.9248 7.80873C1.83926 7.80873 1.7567 7.84014 1.6928 7.897L0.8008 8.691C0.766525 8.72147 0.738587 8.75839 0.71858 8.79965C0.698573 8.84092 0.686889 8.88572 0.684196 8.9315C0.681503 8.97728 0.687854 9.02314 0.702885 9.06646C0.717916 9.10979 0.741333 9.14973 0.7718 9.184C0.802267 9.21828 0.839186 9.24622 0.88045 9.26622C0.921714 9.28623 0.966514 9.29791 1.01229 9.30061C1.05807 9.3033 1.10393 9.29695 1.14726 9.28192C1.19058 9.26689 1.23052 9.24347 1.2648 9.213L1.5748 8.93701V9.709C1.57533 10.1271 1.74165 10.5279 2.03728 10.8235C2.33291 11.1192 2.73372 11.2855 3.1518 11.286H4.9408C5.03363 11.286 5.12265 11.2491 5.18829 11.1835C5.25393 11.1179 5.2908 11.0288 5.2908 10.936C5.2908 10.8432 5.25393 10.7542 5.18829 10.6885C5.12265 10.6229 5.03363 10.586 4.9408 10.586L4.9418 10.587Z" fill="white"/>
<path d="M6.85781 1.415H8.64681C8.87959 1.41527 9.10276 1.50786 9.26736 1.67246C9.43196 1.83706 9.52455 2.06022 9.52481 2.293V3.068L9.21481 2.792C9.18054 2.76147 9.14059 2.73799 9.09724 2.7229C9.05389 2.7078 9.00799 2.7014 8.96216 2.70405C8.91634 2.70669 8.87148 2.71834 8.83015 2.73832C8.78883 2.7583 8.75185 2.78623 8.72131 2.8205C8.69078 2.85478 8.6673 2.89473 8.65221 2.93808C8.63711 2.98143 8.63071 3.02733 8.63336 3.07316C8.636 3.11898 8.64765 3.16384 8.66763 3.20516C8.68761 3.24649 8.71554 3.28347 8.74981 3.314L9.64182 4.108C9.70572 4.16487 9.78828 4.19628 9.87381 4.19628C9.95935 4.19628 10.0419 4.16487 10.1058 4.108L10.9978 3.314C11.0321 3.28354 11.06 3.24662 11.08 3.20535C11.1 3.16409 11.1117 3.11929 11.1144 3.07351C11.1171 3.02773 11.1108 2.98187 11.0957 2.93854C11.0807 2.89522 11.0573 2.85528 11.0268 2.821C10.9963 2.78673 10.9594 2.75879 10.9182 2.73878C10.8769 2.71878 10.8321 2.70709 10.7863 2.7044C10.7405 2.70171 10.6947 2.70806 10.6514 2.72309C10.608 2.73812 10.5681 2.76154 10.5338 2.792L10.2238 3.068V2.293C10.2233 1.87492 10.057 1.47411 9.76134 1.17848C9.46571 0.88285 9.0649 0.716533 8.64681 0.716003H6.85781C6.76499 0.716003 6.67596 0.752878 6.61032 0.818516C6.54469 0.884154 6.50781 0.973178 6.50781 1.066C6.50781 1.15883 6.54469 1.24785 6.61032 1.31349C6.67596 1.37913 6.76499 1.416 6.85781 1.416V1.415Z" fill="white"/>
<path d="M11.1108 9.119C10.9136 8.65622 10.5427 8.28927 10.0778 8.097C10.0441 8.08235 10.0155 8.05816 9.99539 8.02742C9.97531 7.99668 9.96467 7.96072 9.96479 7.924C9.96452 7.89787 9.96962 7.87196 9.97977 7.84788C9.98992 7.8238 10.0049 7.80206 10.0238 7.784L10.0548 7.753C10.2251 7.57384 10.3341 7.34525 10.3661 7.10016C10.3981 6.85508 10.3514 6.60616 10.2329 6.38928C10.1143 6.17241 9.92994 5.99878 9.70636 5.89341C9.48278 5.78805 9.23152 5.75639 8.98879 5.803C8.76318 5.84251 8.55468 5.949 8.39042 6.10863C8.22616 6.26825 8.11374 6.47361 8.06779 6.698C8.02519 6.89117 8.03239 7.09199 8.08872 7.28161C8.14505 7.47123 8.24865 7.64342 8.38979 7.782C8.40893 7.80024 8.42427 7.82209 8.43491 7.8463C8.44555 7.8705 8.45129 7.89657 8.45179 7.923V7.923C8.45202 7.96001 8.44132 7.99625 8.42105 8.02721C8.40077 8.05816 8.37181 8.08244 8.33779 8.097C7.87261 8.28983 7.50168 8.65753 7.30479 9.121C7.16758 9.43872 7.0994 9.78196 7.10479 10.128V10.378C7.10479 10.4859 7.14767 10.5895 7.224 10.6658C7.30032 10.7421 7.40385 10.785 7.51179 10.785H10.9118C11.0197 10.785 11.1233 10.7421 11.1996 10.6658C11.2759 10.5895 11.3188 10.4859 11.3188 10.378V10.126C11.3218 9.77937 11.2509 9.43608 11.1108 9.119V9.119Z" fill="white"/>
<path d="M5.08565 4.079C4.88666 3.61242 4.5125 3.24257 4.04365 3.049C4.00971 3.03433 3.98082 3.01003 3.96056 2.9791C3.94029 2.94817 3.92954 2.91198 3.92964 2.875C3.92935 2.84848 3.93453 2.82219 3.94485 2.79775C3.95518 2.77332 3.97042 2.75128 3.98965 2.733L4.02064 2.702C4.19104 2.52122 4.29982 2.29111 4.33136 2.04469C4.3629 1.79826 4.31558 1.54818 4.19621 1.33031C4.07683 1.11243 3.89153 0.937962 3.66687 0.831915C3.4422 0.725867 3.18972 0.693691 2.94564 0.740003C2.71858 0.77973 2.50869 0.886782 2.34322 1.04727C2.17774 1.20775 2.06431 1.41426 2.01765 1.64C1.97482 1.83457 1.98208 2.03682 2.03875 2.22781C2.09542 2.4188 2.19963 2.59228 2.34164 2.732C2.3609 2.75036 2.37631 2.77237 2.38695 2.79676C2.3976 2.82114 2.40327 2.8474 2.40364 2.874V2.874C2.40414 2.91132 2.39358 2.94794 2.37329 2.97926C2.35301 3.01059 2.3239 3.0352 2.28965 3.05C1.82085 3.24436 1.44706 3.61492 1.24864 4.082C1.10919 4.402 1.03931 4.74797 1.04365 5.09701V5.348C1.04365 5.45674 1.08684 5.56103 1.16373 5.63792C1.24062 5.71481 1.34491 5.758 1.45365 5.758H4.88064C4.98938 5.758 5.09367 5.71481 5.17056 5.63792C5.24745 5.56103 5.29064 5.45674 5.29064 5.348V5.094C5.29516 4.74495 5.22528 4.39894 5.08565 4.079V4.079Z" fill="white"/>
</svg>
