<svg width="13" height="16" viewBox="0 0 13 16" fill="none" xmlns="http://www.w3.org/2000/svg">
<path d="M12 13.0175L2.88 3.605L0.9525 1.6175L0 2.57L2.1 4.67V4.6775C1.71 5.42 1.5 6.2975 1.5 7.2425V10.9925L0 12.4925V13.2425H10.2975L11.7975 14.7425L12.75 13.79L12 13.0175ZM6 15.5C6.8325 15.5 7.5 14.8325 7.5 14H4.5C4.5 14.8325 5.1675 15.5 6 15.5ZM10.5 10.01V7.25C10.5 4.94 9.27 3.02 7.125 2.51V2C7.125 1.3775 6.6225 0.875 6 0.875C5.3775 0.875 4.875 1.3775 4.875 2V2.51C4.7625 2.5325 4.6575 2.57 4.56 2.6C4.485 2.6225 4.41 2.6525 4.335 2.6825H4.3275C4.32 2.6825 4.32 2.6825 4.3125 2.69C4.14 2.7575 3.9675 2.84 3.8025 2.9225C3.8025 2.9225 3.795 2.9225 3.795 2.93L10.5 10.01Z" fill="#9BAEBC"/>
</svg>
