<svg width="33" height="33" viewBox="0 0 33 33" fill="none" xmlns="http://www.w3.org/2000/svg">
<path d="M18.1109 4.125H12.375C9.78228 4.125 8.48591 4.125 7.68046 4.93046C6.875 5.73591 6.875 7.03227 6.875 9.625V23.375C6.875 25.9677 6.875 27.2641 7.68046 28.0695C8.48591 28.875 9.78227 28.875 12.375 28.875H20.625C23.2177 28.875 24.5141 28.875 25.3195 28.0695C26.125 27.2641 26.125 25.9677 26.125 23.375V12.1391C26.125 11.5771 26.125 11.296 26.0203 11.0434C25.9157 10.7907 25.717 10.592 25.3195 10.1945L20.0555 4.93046C19.658 4.53304 19.4593 4.33433 19.2066 4.22967C18.954 4.125 18.6729 4.125 18.1109 4.125Z" stroke="#305671" stroke-width="2"/>
<path d="M12.375 17.875L20.625 17.875" stroke="#305671" stroke-width="2" stroke-linecap="round"/>
<path d="M12.375 23.375L17.875 23.375" stroke="#305671" stroke-width="2" stroke-linecap="round"/>
<path d="M17.875 4.125V9.625C17.875 10.9214 17.875 11.5695 18.2777 11.9723C18.6805 12.375 19.3286 12.375 20.625 12.375H26.125" stroke="#305671" stroke-width="2"/>
</svg>
