<svg width="30" height="34" viewBox="0 0 30 34" fill="none" xmlns="http://www.w3.org/2000/svg">
<path d="M14.626 0C10.7483 0.00449924 7.03076 1.54689 4.28883 4.28883C1.54689 7.03076 0.00449924 10.7483 0 14.626V22.557C0.00105825 23.3324 0.309567 24.0758 0.857882 24.6241C1.4062 25.1724 2.14957 25.4809 2.925 25.482H4.068C4.29786 26.1327 4.7504 26.6812 5.34562 27.0305C5.94084 27.3798 6.6404 27.5074 7.3206 27.3907C8.0008 27.274 8.61783 26.9205 9.06259 26.3928C9.50735 25.8651 9.75119 25.1971 9.751 24.507V16.577C9.75119 15.8869 9.50735 15.2189 9.06259 14.6912C8.61783 14.1635 8.0008 13.81 7.3206 13.6933C6.6404 13.5766 5.94084 13.7042 5.34562 14.0535C4.7504 14.4028 4.29786 14.9513 4.068 15.602H2.925C2.59279 15.602 2.26303 15.6588 1.95 15.77V14.626C1.95 11.2641 3.2855 8.03993 5.66272 5.66271C8.03993 3.2855 11.2641 1.95 14.626 1.95C17.9879 1.95 21.2121 3.2855 23.5893 5.66271C25.9665 8.03993 27.302 11.2641 27.302 14.626V15.769C26.989 15.6578 26.6592 15.601 26.327 15.601H25.185C24.9551 14.9503 24.5026 14.4018 23.9074 14.0525C23.3122 13.7032 22.6126 13.5756 21.9324 13.6923C21.2522 13.809 20.6352 14.1625 20.1904 14.6902C19.7457 15.2179 19.5018 15.8859 19.502 16.576V24.507C19.5019 24.9638 19.6087 25.4143 19.814 25.8224C20.0193 26.2305 20.3173 26.5848 20.6842 26.857C21.051 27.1292 21.4766 27.3117 21.9266 27.3898C22.3767 27.468 22.8389 27.4396 23.276 27.307C23.0931 27.9072 22.7223 28.4329 22.2183 28.8067C21.7142 29.1804 21.1035 29.3824 20.476 29.383H17.384C17.154 28.7325 16.7014 28.1842 16.1063 27.8351C15.5111 27.4859 14.8117 27.3584 14.1317 27.4751C13.4516 27.5918 12.8347 27.9451 12.3899 28.4727C11.9452 29.0002 11.7013 29.668 11.7013 30.358C11.7013 31.048 11.9452 31.7158 12.3899 32.2433C12.8347 32.7709 13.4516 33.1242 14.1317 33.2409C14.8117 33.3576 15.5111 33.2301 16.1063 32.8809C16.7014 32.5318 17.154 31.9835 17.384 31.333H20.477C21.7694 31.3314 23.0085 30.8173 23.9224 29.9034C24.8363 28.9895 25.3504 27.7504 25.352 26.458V25.483H26.327C27.1024 25.4819 27.8458 25.1734 28.3941 24.6251C28.9424 24.0768 29.2509 23.3334 29.252 22.558V14.626C29.2475 10.7483 27.7051 7.03076 24.9632 4.28883C22.2212 1.54689 18.5037 0.00449924 14.626 0V0ZM5.851 16.577C5.851 16.3184 5.95372 16.0704 6.13657 15.8876C6.31942 15.7047 6.56741 15.602 6.826 15.602C7.08459 15.602 7.33258 15.7047 7.51543 15.8876C7.69828 16.0704 7.801 16.3184 7.801 16.577V24.508C7.801 24.7666 7.69828 25.0146 7.51543 25.1974C7.33258 25.3803 7.08459 25.483 6.826 25.483C6.56741 25.483 6.31942 25.3803 6.13657 25.1974C5.95372 25.0146 5.851 24.7666 5.851 24.508V16.577ZM2.926 17.552H3.9V23.533H2.925C2.66649 23.5327 2.41865 23.4299 2.23586 23.2471C2.05307 23.0643 1.95027 22.8165 1.95 22.558V18.528C1.95 18.2693 2.05269 18.0212 2.23551 17.8382C2.41833 17.6552 2.66632 17.5523 2.925 17.552H2.926ZM14.626 31.333C14.4332 31.333 14.2447 31.2758 14.0843 31.1687C13.924 31.0615 13.799 30.9093 13.7252 30.7311C13.6514 30.553 13.6321 30.3569 13.6697 30.1678C13.7074 29.9787 13.8002 29.8049 13.9366 29.6686C14.0729 29.5322 14.2467 29.4394 14.4358 29.4017C14.6249 29.3641 14.821 29.3834 14.9991 29.4572C15.1773 29.531 15.3295 29.656 15.4367 29.8163C15.5438 29.9767 15.601 30.1652 15.601 30.358C15.6007 30.6165 15.4979 30.8643 15.3151 31.0471C15.1323 31.2299 14.8845 31.3327 14.626 31.333V31.333ZM23.4 24.507C23.4 24.7656 23.2973 25.0136 23.1144 25.1964C22.9316 25.3793 22.6836 25.482 22.425 25.482C22.1664 25.482 21.9184 25.3793 21.7356 25.1964C21.5527 25.0136 21.45 24.7656 21.45 24.507V16.577C21.45 16.3184 21.5527 16.0704 21.7356 15.8876C21.9184 15.7047 22.1664 15.602 22.425 15.602C22.6836 15.602 22.9316 15.7047 23.1144 15.8876C23.2973 16.0704 23.4 16.3184 23.4 16.577V24.507ZM27.3 22.557C27.2997 22.8155 27.1969 23.0633 27.0141 23.2461C26.8313 23.4289 26.5835 23.5317 26.325 23.532H25.35V17.552H26.325C26.5835 17.5523 26.8313 17.6551 27.0141 17.8379C27.1969 18.0207 27.2997 18.2685 27.3 18.527V22.557Z" fill="#305671"/>
</svg>
