<svg width="12" height="12" viewBox="0 0 12 12" fill="none" xmlns="http://www.w3.org/2000/svg">
<path d="M12 10.3574V8.35742C12 8.22481 11.9473 8.09764 11.8536 8.00387C11.7598 7.9101 11.6326 7.85742 11.5 7.85742C11.3674 7.85742 11.2402 7.9101 11.1464 8.00387C11.0527 8.09764 11 8.22481 11 8.35742V10.3574C11 10.49 10.9473 10.6172 10.8536 10.711C10.7598 10.8047 10.6326 10.8574 10.5 10.8574H1.5C1.36739 10.8574 1.24021 10.8047 1.14645 10.711C1.05268 10.6172 1 10.49 1 10.3574V8.35742C1 8.22481 0.947321 8.09764 0.853553 8.00387C0.759785 7.9101 0.632608 7.85742 0.5 7.85742C0.367392 7.85742 0.240215 7.9101 0.146447 8.00387C0.0526785 8.09764 0 8.22481 0 8.35742V10.3574C0 10.7552 0.158035 11.1368 0.43934 11.4181C0.720644 11.6994 1.10218 11.8574 1.5 11.8574H10.5C10.8978 11.8574 11.2794 11.6994 11.5607 11.4181C11.842 11.1368 12 10.7552 12 10.3574V10.3574ZM8.81 7.74742L6.31 9.74742C6.22173 9.81718 6.11251 9.85512 6 9.85512C5.88749 9.85512 5.77827 9.81718 5.69 9.74742L3.19 7.74742C3.09891 7.66144 3.04341 7.5444 3.03448 7.41945C3.02556 7.2945 3.06386 7.17076 3.1418 7.0727C3.21975 6.97464 3.33166 6.90941 3.4554 6.88992C3.57913 6.87042 3.70568 6.89808 3.81 6.96742L5.5 8.31742V1.35742C5.5 1.22481 5.55268 1.09764 5.64645 1.00387C5.74021 0.9101 5.86739 0.857422 6 0.857422C6.13261 0.857422 6.25979 0.9101 6.35355 1.00387C6.44732 1.09764 6.5 1.22481 6.5 1.35742V8.31742L8.19 6.96742C8.24035 6.9199 8.30002 6.88335 8.36523 6.86008C8.43045 6.83682 8.49978 6.82736 8.56884 6.83229C8.6379 6.83723 8.70518 6.85645 8.76643 6.88874C8.82767 6.92104 8.88154 6.9657 8.92462 7.0199C8.96771 7.0741 8.99906 7.13666 9.01671 7.20361C9.03435 7.27056 9.0379 7.34045 9.02712 7.40884C9.01634 7.47723 8.99148 7.54264 8.95411 7.60093C8.91673 7.65921 8.86766 7.7091 8.81 7.74742V7.74742Z" fill="white"/>
</svg>
