<svg width="178" height="112" viewBox="0 0 178 112" fill="none" xmlns="http://www.w3.org/2000/svg">
<path d="M59.1871 74.3281H56.9609V76.125H59.1871V74.3281Z" fill="#C8D3DB"/>
<path d="M104.475 52.4746H78.8262V54.2715H104.475V52.4746Z" fill="#C8D3DB"/>
<path d="M77.0141 52.4746H74.959V54.2715H77.0141V52.4746Z" fill="#C8D3DB"/>
<path d="M91.7395 61.917H74.959V63.7139H91.7395V61.917Z" fill="#C8D3DB"/>
<path d="M104.476 57.1963H101.166V58.9932H104.476V57.1963Z" fill="#C8D3DB"/>
<path d="M98.8495 57.1963H74.959V58.9932H98.8495V57.1963Z" fill="#C8D3DB"/>
<path d="M116.904 53.373H115.107V59.9025H116.904V53.373Z" fill="#C8D3DB"/>
<path d="M116.904 41.6611H51.6953V72.6809H104.019V70.8841H53.4922V43.458H115.107V50.7634H116.904V41.6611Z" fill="#C8D3DB"/>
<path d="M53.8794 31.0308L55.0016 36.2788L56.7587 35.9031L56.0123 32.4121L123.363 18.0069L128.002 39.6972L120.449 41.3129V38.2171H97.0416L112.482 34.915L112.106 33.1578L88.4495 38.2171H61.0522L60.3644 35.0032L120.615 22.1162L122.143 29.2607L123.901 28.8848L121.997 19.9833L58.2315 33.6219L59.2147 38.2171H47.9805V76.1254H54.5621V74.3285H49.7773V40.014H118.652V62.1935H107.532V70.4166H109.329V63.9904H117.509L108.036 74.3285H61.4969V76.1254H108.826L120.449 63.4413V43.1502L127.238 41.6982L121.577 51.1576L123.119 52.0803L130.021 40.5457L124.744 15.874L53.8794 31.0308Z" fill="#C8D3DB"/>
<path d="M125.809 37.8215L124.443 31.4365L122.686 31.8123L124.051 38.1973L125.809 37.8215Z" fill="#C8D3DB"/>
<path d="M64.0118 56.275H63.9491V52.5181H67.6537V50.7212H63.9491V47.0908H62.1522V50.721H62.0658C60.0053 50.721 58.3287 52.3699 58.3287 54.3962C58.3287 56.4229 60.0053 58.0717 62.0658 58.0717H62.1522V62.0733H58.2988V63.8702H62.1522V67.2525H63.9491V63.8702H64.0118C66.1415 63.8702 67.8738 62.1666 67.8738 60.0725C67.8738 57.9784 66.1413 56.275 64.0118 56.275ZM62.0656 56.275C60.9958 56.275 60.1254 55.4324 60.1254 54.3964C60.1254 53.3607 60.9958 52.5181 62.0656 52.5181H62.152V56.275H62.0656V56.275ZM64.0118 62.0733H63.9491V58.0717H64.0118C65.1505 58.0717 66.077 58.9692 66.077 60.0725C66.077 61.1758 65.1503 62.0733 64.0118 62.0733Z" fill="#C8D3DB"/>
<path d="M3.92282 97.939C4.91082 97.939 5.76449 98.1253 6.48382 98.498C7.21182 98.862 7.76649 99.3863 8.14782 100.071C8.53782 100.756 8.73282 101.562 8.73282 102.489C8.73282 103.416 8.53782 104.222 8.14782 104.907C7.76649 105.583 7.21182 106.103 6.48382 106.467C5.76449 106.822 4.91082 107 3.92282 107H1.10182V97.939H3.92282ZM3.92282 106.025C5.09282 106.025 5.98549 105.717 6.60082 105.102C7.21616 104.478 7.52382 103.607 7.52382 102.489C7.52382 101.362 7.21182 100.483 6.58782 99.85C5.97249 99.2173 5.08416 98.901 3.92282 98.901H2.28482V106.025H3.92282ZM13.6602 107.117C12.9929 107.117 12.3862 106.965 11.8402 106.662C11.3029 106.359 10.8782 105.93 10.5662 105.375C10.2629 104.812 10.1112 104.162 10.1112 103.425C10.1112 102.697 10.2672 102.056 10.5792 101.501C10.8999 100.938 11.3332 100.509 11.8792 100.214C12.4252 99.9107 13.0362 99.759 13.7122 99.759C14.3882 99.759 14.9992 99.9107 15.5452 100.214C16.0912 100.509 16.5202 100.933 16.8322 101.488C17.1529 102.043 17.3132 102.688 17.3132 103.425C17.3132 104.162 17.1486 104.812 16.8192 105.375C16.4986 105.93 16.0609 106.359 15.5062 106.662C14.9516 106.965 14.3362 107.117 13.6602 107.117ZM13.6602 106.077C14.0849 106.077 14.4836 105.977 14.8562 105.778C15.2289 105.579 15.5279 105.28 15.7532 104.881C15.9872 104.482 16.1042 103.997 16.1042 103.425C16.1042 102.853 15.9916 102.368 15.7662 101.969C15.5409 101.57 15.2462 101.276 14.8822 101.085C14.5182 100.886 14.1239 100.786 13.6992 100.786C13.2659 100.786 12.8672 100.886 12.5032 101.085C12.1479 101.276 11.8619 101.57 11.6452 101.969C11.4286 102.368 11.3202 102.853 11.3202 103.425C11.3202 104.006 11.4242 104.495 11.6322 104.894C11.8489 105.293 12.1349 105.592 12.4902 105.791C12.8456 105.982 13.2356 106.077 13.6602 106.077ZM28.6187 99.876L26.3957 107H25.1737L23.4577 101.345L21.7417 107H20.5197L18.2837 99.876H19.4927L21.1307 105.856L22.8987 99.876H24.1077L25.8367 105.869L27.4487 99.876H28.6187ZM33.5237 99.746C34.3904 99.746 35.0924 100.01 35.6297 100.539C36.1671 101.059 36.4357 101.813 36.4357 102.801V107H35.2657V102.97C35.2657 102.259 35.0881 101.718 34.7327 101.345C34.3774 100.964 33.8921 100.773 33.2767 100.773C32.6527 100.773 32.1544 100.968 31.7817 101.358C31.4177 101.748 31.2357 102.316 31.2357 103.061V107H30.0527V99.876H31.2357V100.89C31.4697 100.526 31.7861 100.244 32.1847 100.045C32.5921 99.8457 33.0384 99.746 33.5237 99.746ZM48.412 100.591C48.412 101.345 48.152 101.973 47.632 102.476C47.1206 102.97 46.3363 103.217 45.279 103.217H43.537V107H42.354V97.939H45.279C46.3016 97.939 47.0773 98.186 47.606 98.68C48.1433 99.174 48.412 99.811 48.412 100.591ZM45.279 102.242C45.9376 102.242 46.423 102.099 46.735 101.813C47.047 101.527 47.203 101.12 47.203 100.591C47.203 99.473 46.5616 98.914 45.279 98.914H43.537V102.242H45.279ZM49.7003 103.412C49.7003 102.684 49.8476 102.047 50.1423 101.501C50.437 100.946 50.84 100.517 51.3513 100.214C51.8713 99.9107 52.4476 99.759 53.0803 99.759C53.7043 99.759 54.246 99.8933 54.7053 100.162C55.1646 100.431 55.507 100.769 55.7323 101.176V99.876H56.9283V107H55.7323V105.674C55.4983 106.09 55.1473 106.437 54.6793 106.714C54.22 106.983 53.6826 107.117 53.0673 107.117C52.4346 107.117 51.8626 106.961 51.3513 106.649C50.84 106.337 50.437 105.899 50.1423 105.336C49.8476 104.773 49.7003 104.131 49.7003 103.412ZM55.7323 103.425C55.7323 102.888 55.624 102.42 55.4073 102.021C55.1906 101.622 54.896 101.319 54.5233 101.111C54.1593 100.894 53.7563 100.786 53.3143 100.786C52.8723 100.786 52.4693 100.89 52.1053 101.098C51.7413 101.306 51.451 101.609 51.2343 102.008C51.0176 102.407 50.9093 102.875 50.9093 103.412C50.9093 103.958 51.0176 104.435 51.2343 104.842C51.451 105.241 51.7413 105.548 52.1053 105.765C52.4693 105.973 52.8723 106.077 53.3143 106.077C53.7563 106.077 54.1593 105.973 54.5233 105.765C54.896 105.548 55.1906 105.241 55.4073 104.842C55.624 104.435 55.7323 103.962 55.7323 103.425ZM65.3234 99.876L61.0334 110.354H59.8114L61.2154 106.922L58.3424 99.876H59.6554L61.8914 105.648L64.1014 99.876H65.3234ZM75.3396 99.746C75.8943 99.746 76.3883 99.863 76.8216 100.097C77.255 100.322 77.5973 100.665 77.8486 101.124C78.1 101.583 78.2256 102.142 78.2256 102.801V107H77.0556V102.97C77.0556 102.259 76.878 101.718 76.5226 101.345C76.176 100.964 75.7036 100.773 75.1056 100.773C74.4903 100.773 74.0006 100.972 73.6366 101.371C73.2726 101.761 73.0906 102.329 73.0906 103.074V107H71.9206V102.97C71.9206 102.259 71.743 101.718 71.3876 101.345C71.041 100.964 70.5686 100.773 69.9706 100.773C69.3553 100.773 68.8656 100.972 68.5016 101.371C68.1376 101.761 67.9556 102.329 67.9556 103.074V107H66.7726V99.876H67.9556V100.903C68.1896 100.53 68.5016 100.244 68.8916 100.045C69.2903 99.8457 69.728 99.746 70.2046 99.746C70.8026 99.746 71.3313 99.8803 71.7906 100.149C72.25 100.418 72.5923 100.812 72.8176 101.332C73.017 100.829 73.3463 100.439 73.8056 100.162C74.265 99.8847 74.7763 99.746 75.3396 99.746ZM86.9262 103.165C86.9262 103.39 86.9132 103.629 86.8872 103.88H81.1932C81.2365 104.582 81.4749 105.132 81.9082 105.531C82.3502 105.921 82.8832 106.116 83.5072 106.116C84.0185 106.116 84.4432 105.999 84.7812 105.765C85.1279 105.522 85.3705 105.202 85.5092 104.803H86.7832C86.5925 105.488 86.2112 106.047 85.6392 106.48C85.0672 106.905 84.3565 107.117 83.5072 107.117C82.8312 107.117 82.2245 106.965 81.6872 106.662C81.1585 106.359 80.7425 105.93 80.4392 105.375C80.1359 104.812 79.9842 104.162 79.9842 103.425C79.9842 102.688 80.1315 102.043 80.4262 101.488C80.7209 100.933 81.1325 100.509 81.6612 100.214C82.1985 99.9107 82.8139 99.759 83.5072 99.759C84.1832 99.759 84.7812 99.9063 85.3012 100.201C85.8212 100.496 86.2199 100.903 86.4972 101.423C86.7832 101.934 86.9262 102.515 86.9262 103.165ZM85.7042 102.918C85.7042 102.467 85.6045 102.082 85.4052 101.761C85.2059 101.432 84.9329 101.185 84.5862 101.02C84.2482 100.847 83.8712 100.76 83.4552 100.76C82.8572 100.76 82.3459 100.951 81.9212 101.332C81.5052 101.713 81.2669 102.242 81.2062 102.918H85.7042ZM92.2187 99.746C93.0854 99.746 93.7874 100.01 94.3247 100.539C94.8621 101.059 95.1307 101.813 95.1307 102.801V107H93.9607V102.97C93.9607 102.259 93.7831 101.718 93.4277 101.345C93.0724 100.964 92.5871 100.773 91.9717 100.773C91.3477 100.773 90.8494 100.968 90.4767 101.358C90.1127 101.748 89.9307 102.316 89.9307 103.061V107H88.7477V99.876H89.9307V100.89C90.1647 100.526 90.4811 100.244 90.8797 100.045C91.2871 99.8457 91.7334 99.746 92.2187 99.746ZM98.7662 100.851V105.05C98.7662 105.397 98.8398 105.644 98.9872 105.791C99.1345 105.93 99.3902 105.999 99.7542 105.999H100.625V107H99.5592C98.9005 107 98.4065 106.848 98.0772 106.545C97.7478 106.242 97.5832 105.743 97.5832 105.05V100.851H96.6602V99.876H97.5832V98.082H98.7662V99.876H100.625V100.851H98.7662ZM106.655 98.719C106.43 98.719 106.239 98.641 106.083 98.485C105.927 98.329 105.849 98.1383 105.849 97.913C105.849 97.6877 105.927 97.497 106.083 97.341C106.239 97.185 106.43 97.107 106.655 97.107C106.872 97.107 107.054 97.185 107.201 97.341C107.357 97.497 107.435 97.6877 107.435 97.913C107.435 98.1383 107.357 98.329 107.201 98.485C107.054 98.641 106.872 98.719 106.655 98.719ZM107.227 99.876V107H106.044V99.876H107.227ZM112.026 107.117C111.48 107.117 110.99 107.026 110.557 106.844C110.123 106.653 109.781 106.393 109.53 106.064C109.278 105.726 109.14 105.34 109.114 104.907H110.336C110.37 105.262 110.535 105.553 110.83 105.778C111.133 106.003 111.527 106.116 112.013 106.116C112.463 106.116 112.819 106.016 113.079 105.817C113.339 105.618 113.469 105.366 113.469 105.063C113.469 104.751 113.33 104.521 113.053 104.374C112.775 104.218 112.346 104.066 111.766 103.919C111.237 103.78 110.804 103.642 110.466 103.503C110.136 103.356 109.85 103.143 109.608 102.866C109.374 102.58 109.257 102.207 109.257 101.748C109.257 101.384 109.365 101.05 109.582 100.747C109.798 100.444 110.106 100.205 110.505 100.032C110.903 99.85 111.358 99.759 111.87 99.759C112.658 99.759 113.295 99.9583 113.781 100.357C114.266 100.756 114.526 101.302 114.561 101.995H113.378C113.352 101.622 113.2 101.323 112.923 101.098C112.654 100.873 112.29 100.76 111.831 100.76C111.406 100.76 111.068 100.851 110.817 101.033C110.565 101.215 110.44 101.453 110.44 101.748C110.44 101.982 110.513 102.177 110.661 102.333C110.817 102.48 111.007 102.602 111.233 102.697C111.467 102.784 111.787 102.883 112.195 102.996C112.706 103.135 113.122 103.273 113.443 103.412C113.763 103.542 114.036 103.741 114.262 104.01C114.496 104.279 114.617 104.63 114.626 105.063C114.626 105.453 114.517 105.804 114.301 106.116C114.084 106.428 113.776 106.675 113.378 106.857C112.988 107.03 112.537 107.117 112.026 107.117ZM123.102 97.939C124.09 97.939 124.944 98.1253 125.663 98.498C126.391 98.862 126.946 99.3863 127.327 100.071C127.717 100.756 127.912 101.562 127.912 102.489C127.912 103.416 127.717 104.222 127.327 104.907C126.946 105.583 126.391 106.103 125.663 106.467C124.944 106.822 124.09 107 123.102 107H120.281V97.939H123.102ZM123.102 106.025C124.272 106.025 125.165 105.717 125.78 105.102C126.396 104.478 126.703 103.607 126.703 102.489C126.703 101.362 126.391 100.483 125.767 99.85C125.152 99.2173 124.264 98.901 123.102 98.901H121.464V106.025H123.102ZM130.344 98.719C130.118 98.719 129.928 98.641 129.772 98.485C129.616 98.329 129.538 98.1383 129.538 97.913C129.538 97.6877 129.616 97.497 129.772 97.341C129.928 97.185 130.118 97.107 130.344 97.107C130.56 97.107 130.742 97.185 130.89 97.341C131.046 97.497 131.124 97.6877 131.124 97.913C131.124 98.1383 131.046 98.329 130.89 98.485C130.742 98.641 130.56 98.719 130.344 98.719ZM130.916 99.876V107H129.733V99.876H130.916ZM135.714 107.117C135.168 107.117 134.678 107.026 134.245 106.844C133.812 106.653 133.469 106.393 133.218 106.064C132.967 105.726 132.828 105.34 132.802 104.907H134.024C134.059 105.262 134.223 105.553 134.518 105.778C134.821 106.003 135.216 106.116 135.701 106.116C136.152 106.116 136.507 106.016 136.767 105.817C137.027 105.618 137.157 105.366 137.157 105.063C137.157 104.751 137.018 104.521 136.741 104.374C136.464 104.218 136.035 104.066 135.454 103.919C134.925 103.78 134.492 103.642 134.154 103.503C133.825 103.356 133.539 103.143 133.296 102.866C133.062 102.58 132.945 102.207 132.945 101.748C132.945 101.384 133.053 101.05 133.27 100.747C133.487 100.444 133.794 100.205 134.193 100.032C134.592 99.85 135.047 99.759 135.558 99.759C136.347 99.759 136.984 99.9583 137.469 100.357C137.954 100.756 138.214 101.302 138.249 101.995H137.066C137.04 101.622 136.888 101.323 136.611 101.098C136.342 100.873 135.978 100.76 135.519 100.76C135.094 100.76 134.756 100.851 134.505 101.033C134.254 101.215 134.128 101.453 134.128 101.748C134.128 101.982 134.202 102.177 134.349 102.333C134.505 102.48 134.696 102.602 134.921 102.697C135.155 102.784 135.476 102.883 135.883 102.996C136.394 103.135 136.81 103.273 137.131 103.412C137.452 103.542 137.725 103.741 137.95 104.01C138.184 104.279 138.305 104.63 138.314 105.063C138.314 105.453 138.206 105.804 137.989 106.116C137.772 106.428 137.465 106.675 137.066 106.857C136.676 107.03 136.225 107.117 135.714 107.117ZM139.802 103.412C139.802 102.684 139.949 102.047 140.244 101.501C140.539 100.946 140.942 100.517 141.453 100.214C141.973 99.9107 142.549 99.759 143.182 99.759C143.806 99.759 144.348 99.8933 144.807 100.162C145.266 100.431 145.609 100.769 145.834 101.176V99.876H147.03V107H145.834V105.674C145.6 106.09 145.249 106.437 144.781 106.714C144.322 106.983 143.784 107.117 143.169 107.117C142.536 107.117 141.964 106.961 141.453 106.649C140.942 106.337 140.539 105.899 140.244 105.336C139.949 104.773 139.802 104.131 139.802 103.412ZM145.834 103.425C145.834 102.888 145.726 102.42 145.509 102.021C145.292 101.622 144.998 101.319 144.625 101.111C144.261 100.894 143.858 100.786 143.416 100.786C142.974 100.786 142.571 100.89 142.207 101.098C141.843 101.306 141.553 101.609 141.336 102.008C141.119 102.407 141.011 102.875 141.011 103.412C141.011 103.958 141.119 104.435 141.336 104.842C141.553 105.241 141.843 105.548 142.207 105.765C142.571 105.973 142.974 106.077 143.416 106.077C143.858 106.077 144.261 105.973 144.625 105.765C144.998 105.548 145.292 105.241 145.509 104.842C145.726 104.435 145.834 103.962 145.834 103.425ZM150.472 101.202C150.715 100.777 151.07 100.431 151.538 100.162C152.006 99.8933 152.539 99.759 153.137 99.759C153.778 99.759 154.355 99.9107 154.866 100.214C155.377 100.517 155.78 100.946 156.075 101.501C156.37 102.047 156.517 102.684 156.517 103.412C156.517 104.131 156.37 104.773 156.075 105.336C155.78 105.899 155.373 106.337 154.853 106.649C154.342 106.961 153.77 107.117 153.137 107.117C152.522 107.117 151.98 106.983 151.512 106.714C151.053 106.445 150.706 106.103 150.472 105.687V107H149.289V97.38H150.472V101.202ZM155.308 103.412C155.308 102.875 155.2 102.407 154.983 102.008C154.766 101.609 154.472 101.306 154.099 101.098C153.735 100.89 153.332 100.786 152.89 100.786C152.457 100.786 152.054 100.894 151.681 101.111C151.317 101.319 151.022 101.627 150.797 102.034C150.58 102.433 150.472 102.896 150.472 103.425C150.472 103.962 150.58 104.435 150.797 104.842C151.022 105.241 151.317 105.548 151.681 105.765C152.054 105.973 152.457 106.077 152.89 106.077C153.332 106.077 153.735 105.973 154.099 105.765C154.472 105.548 154.766 105.241 154.983 104.842C155.2 104.435 155.308 103.958 155.308 103.412ZM159.517 97.38V107H158.334V97.38H159.517ZM168.294 103.165C168.294 103.39 168.281 103.629 168.255 103.88H162.561C162.604 104.582 162.842 105.132 163.276 105.531C163.718 105.921 164.251 106.116 164.875 106.116C165.386 106.116 165.811 105.999 166.149 105.765C166.495 105.522 166.738 105.202 166.877 104.803H168.151C167.96 105.488 167.579 106.047 167.007 106.48C166.435 106.905 165.724 107.117 164.875 107.117C164.199 107.117 163.592 106.965 163.055 106.662C162.526 106.359 162.11 105.93 161.807 105.375C161.503 104.812 161.352 104.162 161.352 103.425C161.352 102.688 161.499 102.043 161.794 101.488C162.088 100.933 162.5 100.509 163.029 100.214C163.566 99.9107 164.181 99.759 164.875 99.759C165.551 99.759 166.149 99.9063 166.669 100.201C167.189 100.496 167.587 100.903 167.865 101.423C168.151 101.934 168.294 102.515 168.294 103.165ZM167.072 102.918C167.072 102.467 166.972 102.082 166.773 101.761C166.573 101.432 166.3 101.185 165.954 101.02C165.616 100.847 165.239 100.76 164.823 100.76C164.225 100.76 163.713 100.951 163.289 101.332C162.873 101.713 162.634 102.242 162.574 102.918H167.072ZM169.673 103.412C169.673 102.684 169.82 102.047 170.115 101.501C170.41 100.946 170.813 100.517 171.324 100.214C171.844 99.9107 172.425 99.759 173.066 99.759C173.621 99.759 174.136 99.889 174.613 100.149C175.09 100.4 175.454 100.734 175.705 101.15V97.38H176.901V107H175.705V105.661C175.471 106.086 175.124 106.437 174.665 106.714C174.206 106.983 173.668 107.117 173.053 107.117C172.42 107.117 171.844 106.961 171.324 106.649C170.813 106.337 170.41 105.899 170.115 105.336C169.82 104.773 169.673 104.131 169.673 103.412ZM175.705 103.425C175.705 102.888 175.597 102.42 175.38 102.021C175.163 101.622 174.869 101.319 174.496 101.111C174.132 100.894 173.729 100.786 173.287 100.786C172.845 100.786 172.442 100.89 172.078 101.098C171.714 101.306 171.424 101.609 171.207 102.008C170.99 102.407 170.882 102.875 170.882 103.412C170.882 103.958 170.99 104.435 171.207 104.842C171.424 105.241 171.714 105.548 172.078 105.765C172.442 105.973 172.845 106.077 173.287 106.077C173.729 106.077 174.132 105.973 174.496 105.765C174.869 105.548 175.163 105.241 175.38 104.842C175.597 104.435 175.705 103.962 175.705 103.425Z" fill="#9BAEBC"/>
</svg>
