<svg xmlns="http://www.w3.org/2000/svg" width="29.253" height="33.283" viewBox="0 0 29.253 33.283">
  <g id="headphones_1_" data-name="headphones (1)" transform="translate(-31)">
    <g id="Group_1291" data-name="Group 1291" transform="translate(31)">
      <path id="Path_555" data-name="Path 555" d="M45.626,0A14.643,14.643,0,0,0,31,14.626v7.931a2.929,2.929,0,0,0,2.925,2.925h1.143a2.925,2.925,0,0,0,5.683-.975V16.577a2.925,2.925,0,0,0-5.683-.975H33.925a2.911,2.911,0,0,0-.975.168V14.626a12.676,12.676,0,1,1,25.352,0v1.143a2.911,2.911,0,0,0-.975-.168H56.185a2.925,2.925,0,0,0-5.683.975v7.931a2.925,2.925,0,0,0,3.774,2.8,2.93,2.93,0,0,1-2.8,2.076H48.384a2.925,2.925,0,1,0,0,1.95h3.093a4.881,4.881,0,0,0,4.875-4.875v-.975h.975a2.929,2.929,0,0,0,2.925-2.925V14.626A14.643,14.643,0,0,0,45.626,0ZM36.851,16.577a.975.975,0,0,1,1.95,0v7.931a.975.975,0,0,1-1.95,0Zm-2.925.975H34.9v5.981h-.975a.976.976,0,0,1-.975-.975v-4.03A.976.976,0,0,1,33.925,17.552Zm11.7,13.781a.975.975,0,1,1,.975-.975A.976.976,0,0,1,45.626,31.333ZM54.4,24.507a.975.975,0,0,1-1.95,0V16.577a.975.975,0,0,1,1.95,0Zm3.9-1.95a.976.976,0,0,1-.975.975h-.975V17.552h.975a.976.976,0,0,1,.975.975Z" transform="translate(-31)" fill="#c7daeb"/>
    </g>
  </g>
</svg>
