<svg width="16" height="16" viewBox="0 0 16 16" fill="none" xmlns="http://www.w3.org/2000/svg">
<path d="M15.9663 9.59192V8.62891H0.613281V9.58792H7.81328V13.7069L5.75428 11.6479L5.07628 12.3259L7.95428 15.2039C7.99877 15.2485 8.05161 15.2838 8.10978 15.308C8.16795 15.3321 8.23031 15.3445 8.29328 15.3445C8.35625 15.3445 8.41861 15.3321 8.47678 15.308C8.53495 15.2838 8.58779 15.2485 8.63228 15.2039L11.5103 12.3259L10.8323 11.6479L8.77328 13.7069V9.58792L15.9663 9.59192Z" fill="#AFAFAF"/>
<path d="M8.77028 5.75659V1.63759L10.8303 3.69959L11.5083 3.02159L8.63028 0.140592C8.58579 0.096024 8.53295 0.0606662 8.47478 0.0365418C8.41661 0.0124175 8.35425 0 8.29128 0C8.22831 0 8.16595 0.0124175 8.10778 0.0365418C8.04961 0.0606662 7.99677 0.096024 7.95228 0.140592L5.07328 3.01859L5.75128 3.69659L7.81328 1.63759V5.75659H0.613281V6.71559H15.9663V5.75659H8.77028Z" fill="#AFAFAF"/>
</svg>
