<svg xmlns="http://www.w3.org/2000/svg" width="14" height="14" viewBox="0 0 14 14"><defs><style>.a{fill:#9baebc;}</style></defs><g transform="translate(0)"><path class="a" d="M13.6,2.521,11.48.4A1.357,1.357,0,0,0,9.561.4L.674,9.285A.545.545,0,0,0,.519,9.6L.005,13.381A.545.545,0,0,0,.619,14L4.4,13.481a.545.545,0,0,0,.312-.155L13.6,4.439a1.357,1.357,0,0,0,0-1.919Zm-9.529,9.9-2.892.393.393-2.892,6.3-6.3,2.5,2.5Zm8.757-8.757L11.144,5.356l-2.5-2.5,1.688-1.688a.266.266,0,0,1,.376,0l2.123,2.123a.266.266,0,0,1,0,.376Z" transform="translate(0)"/></g></svg>