<svg xmlns="http://www.w3.org/2000/svg" width="16.458" height="13.694" viewBox="0 0 16.458 13.694"><defs><style>.a{fill:#fff;}</style></defs><path class="a" d="M16.458,1.608A1.608,1.608,0,0,0,14.851,0H1.608A1.608,1.608,0,0,0,0,1.608V12.087a1.608,1.608,0,0,0,1.608,1.608H14.851a1.608,1.608,0,0,0,1.608-1.608ZM1.616,1.285H14.863a.318.318,0,0,1,.32.319v.014L8.467,8.335a.321.321,0,0,1-.454,0L1.294,1.617V1.6A.32.32,0,0,1,1.616,1.285ZM14.863,12.41H1.616a.324.324,0,0,1-.322-.324V3.435L7.1,9.244a1.607,1.607,0,0,0,2.273,0l5.807-5.808v8.649A.323.323,0,0,1,14.863,12.41Z"/></svg>