<svg xmlns="http://www.w3.org/2000/svg" width="11.428" height="14.148" viewBox="0 0 11.428 14.148"><defs><style>.a{fill:#fff;}</style></defs><g transform="translate(311.96 148.974)"><path class="a" d="M12.318,5.6a1.013,1.013,0,0,0-1.1.22L7.837,9.2a1.013,1.013,0,1,0,1.433,1.433l1.648-1.648v9.676a1.013,1.013,0,0,0,2.026,0V6.539A1.013,1.013,0,0,0,12.318,5.6Z" transform="translate(-319.5 -154.5)"/><path class="a" d="M20.134,14.568l-1.648,1.648V6.539a1.013,1.013,0,0,0-2.026,0V18.661a1.013,1.013,0,0,0,1.729.716L21.566,16a1.013,1.013,0,0,0-1.433-1.433Z" transform="translate(-322.395 -154.5)"/></g></svg>