<svg width="26" height="26" viewBox="0 0 26 26" fill="none" xmlns="http://www.w3.org/2000/svg">
<rect x="1" y="1" width="8" height="8" stroke="#9BAEBC" stroke-width="2"/>
<path d="M14 1V0H13V1H14ZM22 1H23V0H22V1ZM14 2H22V0H14V2ZM21 1V9H23V1H21ZM15 9V1H13V9H15Z" fill="#9BAEBC"/>
<path d="M1 22L0 22L4.37114e-08 23L1 23L1 22ZM1 14L1 13L-3.93402e-07 13L-3.49691e-07 14L1 14ZM2 22L2 14L-3.49691e-07 14L0 22L2 22ZM1 15L9 15L9 13L1 13L1 15ZM9 21L1 21L1 23L9 23L9 21Z" fill="#9BAEBC"/>
<path d="M25.707 17.293L23.707 15.293C23.5193 15.1063 23.2653 15.0017 23.0006 15.0021C22.7359 15.0024 22.4821 15.1078 22.2949 15.2949C22.1078 15.4821 22.0024 15.7359 22.0021 16.0006C22.0017 16.2653 22.1063 16.5193 22.293 16.707L22.5859 17H19V13.4141L19.293 13.707C19.4807 13.8937 19.7347 13.9983 19.9994 13.9979C20.2641 13.9976 20.5179 13.8922 20.7051 13.7051C20.8922 13.5179 20.9976 13.2641 20.9979 12.9994C20.9983 12.7347 20.8937 12.4807 20.707 12.293L18.707 10.293C18.6142 10.2001 18.504 10.1264 18.3827 10.0761C18.2613 10.0259 18.1313 10 18 10C17.8687 10 17.7387 10.0259 17.6173 10.0761C17.496 10.1264 17.3858 10.2001 17.293 10.293L15.293 12.293C15.1063 12.4807 15.0017 12.7347 15.0021 12.9994C15.0024 13.2641 15.1078 13.5179 15.2949 13.7051C15.4821 13.8922 15.7359 13.9976 16.0006 13.9979C16.2653 13.9983 16.5193 13.8937 16.707 13.707L17 13.4141V17H13.4141L13.707 16.707C13.8937 16.5193 13.9983 16.2653 13.9979 16.0006C13.9976 15.7359 13.8922 15.4821 13.7051 15.2949C13.5179 15.1078 13.2641 15.0024 12.9994 15.0021C12.7347 15.0017 12.4807 15.1063 12.293 15.293L10.293 17.293C10.2001 17.3858 10.1264 17.496 10.0761 17.6173C10.0259 17.7387 10 17.8687 10 18C10 18.1313 10.0259 18.2613 10.0761 18.3827C10.1264 18.504 10.2001 18.6142 10.293 18.707L12.293 20.707C12.3857 20.8003 12.496 20.8744 12.6174 20.925C12.7388 20.9755 12.869 21.0017 13.0006 21.0019C13.1321 21.002 13.2624 20.9763 13.384 20.926C13.5055 20.8758 13.616 20.802 13.709 20.709C13.802 20.616 13.8758 20.5055 13.926 20.384C13.9763 20.2624 14.002 20.1321 14.0019 20.0006C14.0017 19.869 13.9755 19.7388 13.925 19.6174C13.8744 19.496 13.8003 19.3857 13.707 19.293L13.4141 19H17V22.5859L16.707 22.293C16.5193 22.1063 16.2653 22.0017 16.0006 22.0021C15.7359 22.0024 15.4821 22.1078 15.2949 22.2949C15.1078 22.4821 15.0024 22.7359 15.0021 23.0006C15.0017 23.2653 15.1063 23.5193 15.293 23.707L17.293 25.707C17.3858 25.7999 17.496 25.8736 17.6173 25.9239C17.7387 25.9741 17.8687 26 18 26C18.1313 26 18.2613 25.9741 18.3827 25.9239C18.504 25.8736 18.6142 25.7999 18.707 25.707L20.707 23.707C20.8937 23.5193 20.9983 23.2653 20.9979 23.0006C20.9976 22.7359 20.8922 22.4821 20.7051 22.2949C20.5179 22.1078 20.2641 22.0024 19.9994 22.0021C19.7347 22.0017 19.4807 22.1063 19.293 22.293L19 22.5859V19H22.5859L22.293 19.293C22.1997 19.3857 22.1256 19.496 22.075 19.6174C22.0245 19.7388 21.9983 19.869 21.9981 20.0006C21.998 20.1321 22.0237 20.2624 22.074 20.384C22.1242 20.5055 22.198 20.616 22.291 20.709C22.384 20.802 22.4945 20.8758 22.616 20.926C22.7376 20.9763 22.8679 21.002 22.9994 21.0019C23.131 21.0017 23.2612 20.9755 23.3826 20.925C23.504 20.8744 23.6143 20.8003 23.707 20.707L25.707 18.707C25.7999 18.6142 25.8736 18.504 25.9239 18.3827C25.9741 18.2613 26 18.1313 26 18C26 17.8687 25.9741 17.7387 25.9239 17.6173C25.8736 17.496 25.7999 17.3858 25.707 17.293Z" fill="#9BAEBC"/>
</svg>
