<svg xmlns="http://www.w3.org/2000/svg" width="24.003" height="31.8" viewBox="0 0 24.003 31.8">
  <g id="Group_1448" data-name="Group 1448" transform="translate(-1787 -384)">
    <g id="document_1_" data-name="document (1)" transform="translate(1738.6 384)">
      <g id="Group_1324" data-name="Group 1324" transform="translate(48.4)">
        <g id="Group_1323" data-name="Group 1323" transform="translate(0)">
          <path id="Path_566" data-name="Path 566" d="M72.339,6.347l-.032-.032V6.283L66.185.161,66.153.129A.032.032,0,0,1,66.12.1a.032.032,0,0,1-.032-.032A.53.53,0,0,0,65.766,0H50.591a2.191,2.191,0,0,0-1.547.644A2.25,2.25,0,0,0,48.4,2.191V29.609a2.191,2.191,0,0,0,.644,1.547,2.25,2.25,0,0,0,1.547.644H70.212a2.144,2.144,0,0,0,1.514-.612l.032-.032a2.25,2.25,0,0,0,.644-1.547V6.669A.953.953,0,0,0,72.339,6.347ZM66.346,2.32h.032L70.019,5.96H67.345a1.04,1.04,0,0,1-.677-.258l-.032-.032a1,1,0,0,1-.29-.677Zm4.672,27.289a.807.807,0,0,1-.258.58l-.032.032a.841.841,0,0,1-.548.226H50.591a.926.926,0,0,1-.58-.226.776.776,0,0,1-.226-.58V2.159a.926.926,0,0,1,.226-.58.776.776,0,0,1,.58-.226H65.025V4.994a2.34,2.34,0,0,0,.709,1.675l.032.032a2.264,2.264,0,0,0,1.611.644h3.641V29.609Z" transform="translate(-48.4)" fill="#00cc51"/>
          <path id="Path_567" data-name="Path 567" d="M128.057,122a6.06,6.06,0,1,0,6.057,6.057,6.161,6.161,0,0,0-1.772-4.285A6.024,6.024,0,0,0,128.057,122Zm3.286,9.343a4.667,4.667,0,1,1,1.353-3.286A4.379,4.379,0,0,1,131.343,131.343Z" transform="translate(-116.072 -111.999)" fill="#00cc51"/>
        </g>
      </g>
    </g>
    <path id="Path_578" data-name="Path 578" d="M82.12,102.406l-2.613,2.613-1.2-1.2a.462.462,0,1,0-.653.653L79.181,106a.462.462,0,0,0,.327.135h0a.462.462,0,0,0,.327-.135l2.939-2.939a.462.462,0,0,0-.653-.653Z" transform="translate(1718.921 295.702)" fill="#00cc51" stroke="#00cc51" stroke-width="0.3"/>
  </g>
</svg>
