<svg xmlns="http://www.w3.org/2000/svg" width="12.839" height="11.87" viewBox="0 0 12.839 11.87"><defs><style>.a{fill:#91a4b5;stroke:#C7DAEB;stroke-width:0.25px;}</style></defs><g transform="translate(0.125 0.125)"><path class="a" d="M7.842,15.62a.482.482,0,0,1-.484-.484V10.478L3.62,6.329A2.421,2.421,0,0,1,3,4.707V4.484A.484.484,0,0,1,3.484,4H15.1a.484.484,0,0,1,.484.484v.223a2.421,2.421,0,0,1-.62,1.622l-3.738,4.149v2.6a1.453,1.453,0,0,1-.8,1.3L8.06,15.567A.484.484,0,0,1,7.842,15.62ZM3.993,4.968a1.453,1.453,0,0,0,.349.712L8.215,9.97a.484.484,0,0,1,.111.324v4.057L10,13.519a.484.484,0,0,0,.266-.436V10.294a.484.484,0,0,1,.126-.324l3.873-4.29a1.453,1.453,0,0,0,.358-.712Z" transform="translate(-3 -4)"/></g></svg>