<svg width="36" height="36" viewBox="0 0 36 36" fill="none" xmlns="http://www.w3.org/2000/svg">
<path d="M18 0.5C8.3575 0.5 0.5 8.3575 0.5 18C0.5 27.6425 8.3575 35.5 18 35.5C27.6425 35.5 35.5 27.6425 35.5 18C35.5 8.3575 27.6425 0.5 18 0.5ZM25.105 21.1325C24.8425 21.395 24.51 21.5175 24.1775 21.5175C23.845 21.5175 23.5125 21.395 23.25 21.1325L18 15.8825L12.75 21.1325C12.2425 21.64 11.4025 21.64 10.895 21.1325C10.3875 20.625 10.3875 19.785 10.895 19.2775L17.0725 13.1C17.58 12.5925 18.42 12.5925 18.9275 13.1L25.105 19.2775C25.6125 19.8025 25.6125 20.625 25.105 21.1325Z" fill="#0093FF"/>
</svg>
