<svg width="24" height="21" viewBox="0 0 24 21" fill="none" xmlns="http://www.w3.org/2000/svg">
<path fill-rule="evenodd" clip-rule="evenodd" d="M22.511 20.33H1.478C1.35123 20.33 1.22965 20.2796 1.14 20.19C1.05036 20.1004 1 19.9788 1 19.852C1 19.7252 1.05036 19.6036 1.14 19.514C1.22965 19.4244 1.35123 19.374 1.478 19.374H22.511C22.6378 19.374 22.7594 19.4244 22.849 19.514C22.9386 19.6036 22.989 19.7252 22.989 19.852C22.989 19.9788 22.9386 20.1004 22.849 20.19C22.7594 20.2796 22.6378 20.33 22.511 20.33ZM8.17 15.55C8.29677 15.55 8.41835 15.6004 8.508 15.69C8.59764 15.7796 8.648 15.9012 8.648 16.028C8.648 16.1548 8.59764 16.2764 8.508 16.366C8.41835 16.4556 8.29677 16.506 8.17 16.506H4.346C4.21923 16.506 4.09765 16.4556 4.008 16.366C3.91836 16.2764 3.868 16.1548 3.868 16.028C3.868 15.9012 3.91836 15.7796 4.008 15.69C4.09765 15.6004 4.21923 15.55 4.346 15.55H4.824V9.336H4.346C4.28323 9.336 4.22107 9.32364 4.16308 9.29961C4.10508 9.27559 4.05239 9.24038 4.008 9.196C3.96362 9.15161 3.92841 9.09892 3.90439 9.04092C3.88036 8.98293 3.868 8.92077 3.868 8.858C3.868 8.79523 3.88036 8.73307 3.90439 8.67508C3.92841 8.61708 3.96362 8.56439 4.008 8.52C4.05239 8.47562 4.10508 8.44041 4.16308 8.41639C4.22107 8.39236 4.28323 8.38 4.346 8.38H8.17C8.23277 8.38 8.29493 8.39236 8.35292 8.41639C8.41092 8.44041 8.46361 8.47562 8.508 8.52C8.55238 8.56439 8.58759 8.61708 8.61161 8.67508C8.63564 8.73307 8.648 8.79523 8.648 8.858C8.648 8.92077 8.63564 8.98293 8.61161 9.04092C8.58759 9.09892 8.55238 9.15161 8.508 9.196C8.46361 9.24038 8.41092 9.27559 8.35292 9.29961C8.29493 9.32364 8.23277 9.336 8.17 9.336H7.692V15.55H8.17ZM6.736 9.336H5.78V15.55H6.736V9.336ZM13.906 15.55C14.0328 15.55 14.1544 15.6004 14.244 15.69C14.3336 15.7796 14.384 15.9012 14.384 16.028C14.384 16.1548 14.3336 16.2764 14.244 16.366C14.1544 16.4556 14.0328 16.506 13.906 16.506H10.082C9.95523 16.506 9.83365 16.4556 9.744 16.366C9.65436 16.2764 9.604 16.1548 9.604 16.028C9.604 15.9012 9.65436 15.7796 9.744 15.69C9.83365 15.6004 9.95523 15.55 10.082 15.55H10.56V9.336H10.082C10.0192 9.336 9.95707 9.32364 9.89908 9.29961C9.84108 9.27559 9.78839 9.24038 9.744 9.196C9.69962 9.15161 9.66441 9.09892 9.64039 9.04092C9.61636 8.98293 9.604 8.92077 9.604 8.858C9.604 8.79523 9.61636 8.73307 9.64039 8.67508C9.66441 8.61708 9.69962 8.56439 9.744 8.52C9.78839 8.47562 9.84108 8.44041 9.89908 8.41639C9.95707 8.39236 10.0192 8.38 10.082 8.38H13.906C13.9688 8.38 14.0309 8.39236 14.0889 8.41639C14.1469 8.44041 14.1996 8.47562 14.244 8.52C14.2884 8.56439 14.3236 8.61708 14.3476 8.67508C14.3716 8.73307 14.384 8.79523 14.384 8.858C14.384 8.92077 14.3716 8.98293 14.3476 9.04092C14.3236 9.09892 14.2884 9.15161 14.244 9.196C14.1996 9.24038 14.1469 9.27559 14.0889 9.29961C14.0309 9.32364 13.9688 9.336 13.906 9.336H13.428V15.55H13.906ZM12.472 9.336H11.516V15.55H12.472V9.336ZM21.554 17.936C21.554 17.9988 21.5416 18.0609 21.5176 18.1189C21.4936 18.1769 21.4584 18.2296 21.414 18.274C21.3696 18.3184 21.3169 18.3536 21.2589 18.3776C21.2009 18.4016 21.1388 18.414 21.076 18.414H2.912C2.78523 18.414 2.66365 18.3636 2.574 18.274C2.48436 18.1844 2.434 18.0628 2.434 17.936C2.434 17.8092 2.48436 17.6876 2.574 17.598C2.66365 17.5084 2.78523 17.458 2.912 17.458H21.077C21.1401 17.458 21.2026 17.4705 21.2609 17.4948C21.3191 17.519 21.372 17.5546 21.4164 17.5994C21.4609 17.6442 21.496 17.6974 21.5198 17.7558C21.5436 17.8143 21.5555 17.8769 21.555 17.94L21.554 17.936ZM19.642 15.546C19.7688 15.546 19.8904 15.5964 19.98 15.686C20.0696 15.7756 20.12 15.8972 20.12 16.024C20.12 16.1508 20.0696 16.2724 19.98 16.362C19.8904 16.4516 19.7688 16.502 19.642 16.502H15.819C15.6922 16.502 15.5706 16.4516 15.481 16.362C15.3914 16.2724 15.341 16.1508 15.341 16.024C15.341 15.8972 15.3914 15.7756 15.481 15.686C15.5706 15.5964 15.6922 15.546 15.819 15.546H16.3V9.336H15.822C15.7592 9.336 15.6971 9.32364 15.6391 9.29961C15.5811 9.27559 15.5284 9.24038 15.484 9.196C15.4396 9.15161 15.4044 9.09892 15.3804 9.04092C15.3564 8.98293 15.344 8.92077 15.344 8.858C15.344 8.79523 15.3564 8.73307 15.3804 8.67508C15.4044 8.61708 15.4396 8.56439 15.484 8.52C15.5284 8.47562 15.5811 8.44041 15.6391 8.41639C15.6971 8.39236 15.7592 8.38 15.822 8.38H19.646C19.7088 8.38 19.7709 8.39236 19.8289 8.41639C19.8869 8.44041 19.9396 8.47562 19.984 8.52C20.0284 8.56439 20.0636 8.61708 20.0876 8.67508C20.1116 8.73307 20.124 8.79523 20.124 8.858C20.124 8.92077 20.1116 8.98293 20.0876 9.04092C20.0636 9.09892 20.0284 9.15161 19.984 9.196C19.9396 9.24038 19.8869 9.27559 19.8289 9.29961C19.7709 9.32364 19.7088 9.336 19.646 9.336H19.168V15.55L19.642 15.546ZM18.208 9.332H17.252V15.55H18.208V9.332ZM1.956 6.468L11.994 1L22.033 6.468V7.424H1.956V6.468ZM19.901 6.468L11.994 2.38L4.057 6.468H19.901Z" fill="#009F40" stroke="#009F40" stroke-width="0.5"/>
</svg>
