<svg width="40" height="40" viewBox="0 0 40 40" fill="none" xmlns="http://www.w3.org/2000/svg">
<circle cx="20" cy="20" r="20" fill="#4ACB69"/>
<path d="M20.9515 26.5976H15.5353C15.3055 26.5976 15.167 26.4644 15.1048 26.385C14.9975 26.2479 14.956 26.0694 14.9909 25.8952C15.5497 23.1062 17.9185 21.0695 20.6531 21.0035C20.6985 21.0052 20.7441 21.0064 20.7901 21.0064C22.8076 21.0064 24.4492 19.3009 24.4492 17.2044C24.4492 15.1079 22.8076 13.4023 20.7901 13.4023C18.7724 13.4023 17.131 15.1079 17.131 17.2044C17.131 18.4486 17.7092 19.5553 18.6012 20.2493C17.7841 20.5288 17.0171 20.9635 16.3461 21.537C15.1157 22.5887 14.2602 24.0555 13.9372 25.6673C13.836 26.1724 13.9573 26.6911 14.2699 27.0906C14.5809 27.488 15.0421 27.7159 15.5353 27.7159H20.9515C21.2486 27.7159 21.4896 27.4656 21.4896 27.1568C21.4896 26.8479 21.2486 26.5976 20.9515 26.5976ZM18.2072 17.2044C18.2072 15.7246 19.3658 14.5206 20.7901 14.5206C22.2143 14.5206 23.373 15.7246 23.373 17.2044C23.373 18.663 22.2473 19.8535 20.8511 19.8874C20.8311 19.885 20.8108 19.8835 20.7901 19.8835C20.748 19.8835 20.7061 19.8841 20.6642 19.8849C19.2982 19.8165 18.2072 18.6404 18.2072 17.2044Z" fill="white"/>
<path d="M14.5751 20.5745C13.749 20.7168 12.9851 21.1054 12.3837 21.6895C11.7822 22.2736 11.3712 23.026 11.2048 23.8478L11.1926 23.9078H11.2538H11.9954C12.2006 23.9078 12.3975 23.9893 12.5426 24.1344C12.6878 24.2796 12.7693 24.4765 12.7693 24.6817C12.7693 24.887 12.6878 25.0839 12.5426 25.229C12.3975 25.3742 12.2006 25.4557 11.9954 25.4557H10.3474C10.1421 25.4557 9.94528 25.3742 9.80014 25.229C9.65499 25.0839 9.57344 24.887 9.57344 24.6817L9.57344 24.6816C9.57176 23.5955 9.88006 22.5314 10.4621 21.6144C11.0442 20.6973 11.8759 19.9654 12.8595 19.5047L12.9206 19.4761L12.8754 19.4259C12.4819 18.989 12.215 18.4529 12.1035 17.8755C11.9921 17.298 12.0403 16.7012 12.243 16.1491C12.4457 15.5971 12.7951 15.1108 13.2538 14.7427C13.7124 14.3745 14.2627 14.1385 14.8455 14.06L14.8456 14.0601L14.8471 14.0598C14.9497 14.0427 15.0546 14.0464 15.1557 14.0708C15.2567 14.0952 15.3519 14.1396 15.4354 14.2016C15.5189 14.2635 15.5891 14.3416 15.6417 14.4312C15.6944 14.5209 15.7285 14.6202 15.7419 14.7233C15.7553 14.8264 15.7478 14.9312 15.7199 15.0313C15.6919 15.1315 15.6441 15.2249 15.5792 15.3062C15.5143 15.3874 15.4337 15.4548 15.3423 15.5042C15.2508 15.5536 15.1503 15.5841 15.0468 15.5938L15.0468 15.5938L15.0444 15.5941C14.6419 15.6516 14.2738 15.8523 14.0074 16.1595C13.741 16.4666 13.5944 16.8595 13.5944 17.266C13.5944 17.6725 13.741 18.0654 14.0074 18.3725C14.2738 18.6796 14.6419 18.8804 15.0444 18.9379L15.0448 18.9379C15.2389 18.9641 15.4158 19.0629 15.5399 19.2144C15.6641 19.3659 15.7262 19.5588 15.7137 19.7542C15.7012 19.9497 15.6151 20.1331 15.4728 20.2676C15.3304 20.4021 15.1423 20.4776 14.9465 20.4789L14.9465 20.4771L14.9332 20.4808L14.9332 20.4808L14.9332 20.4808L14.933 20.4808L14.9325 20.481L14.9302 20.4816L14.9215 20.4841L14.8897 20.493C14.863 20.5004 14.8264 20.5105 14.787 20.5211C14.7078 20.5426 14.6194 20.5656 14.5751 20.5745ZM14.5751 20.5745C14.5754 20.5745 14.5756 20.5744 14.5758 20.5744L14.5843 20.6237M14.5751 20.5745C14.5749 20.5745 14.5747 20.5746 14.5745 20.5746L14.5843 20.6237M14.5843 20.6237C14.6763 20.6053 14.9468 20.5289 14.9468 20.5289M14.5843 20.6237C13.7678 20.7642 13.0129 21.1482 12.4186 21.7253C11.8364 22.2906 11.435 23.0153 11.2642 23.8078H11.2538V23.8578L11.3028 23.8677C11.3035 23.8644 11.3041 23.8611 11.3048 23.8578H11.9954C12.2139 23.8578 12.4235 23.9446 12.578 24.0991C12.7325 24.2536 12.8193 24.4632 12.8193 24.6817C12.8193 24.9003 12.7325 25.1098 12.578 25.2644C12.4235 25.4189 12.2139 25.5057 11.9954 25.5057H10.3474C10.1289 25.5057 9.9193 25.4189 9.76478 25.2644C9.61026 25.1098 9.52344 24.9003 9.52344 24.6817C9.52174 23.586 9.83275 22.5126 10.4199 21.5876C10.9978 20.6772 11.8195 19.9477 12.7912 19.4817L14.9468 20.5289M14.9468 20.5289C15.1553 20.5275 15.3555 20.4471 15.5071 20.304C15.6587 20.1608 15.7503 19.9655 15.7636 19.7574C15.7769 19.5493 15.7108 19.344 15.5786 19.1827C15.4465 19.0214 15.2581 18.9163 15.0515 18.8884C14.6609 18.8326 14.3036 18.6378 14.0452 18.3398C13.7867 18.0417 13.6444 17.6605 13.6444 17.266C13.6444 16.8715 13.7867 16.4902 14.0452 16.1922C14.3036 15.8942 14.6609 15.6994 15.0515 15.6436L14.9468 20.5289Z" fill="white" stroke="#4ACB69" stroke-width="0.1"/>
<path d="M26.7091 29.4214C28.8999 29.4214 30.6758 27.6455 30.6758 25.4547C30.6758 23.2639 28.8999 21.488 26.7091 21.488C24.5183 21.488 22.7424 23.2639 22.7424 25.4547C22.7424 27.6455 24.5183 29.4214 26.7091 29.4214Z" fill="white" stroke="#4ACB69" stroke-width="0.4"/>
</svg>
