<svg width="64" height="64" viewBox="0 0 64 64" fill="none" xmlns="http://www.w3.org/2000/svg">
<path d="M32 64C49.6731 64 64 49.6731 64 32C64 14.3269 49.6731 0 32 0C14.3269 0 0 14.3269 0 32C0 49.6731 14.3269 64 32 64Z" fill="#74634E"/>
<path d="M17.536 28.848V30.032H12.688V33.792H16.624V34.976H12.688V40H11.232V28.848H17.536ZM20.0465 29.808C19.7692 29.808 19.5345 29.712 19.3425 29.52C19.1505 29.328 19.0545 29.0933 19.0545 28.816C19.0545 28.5387 19.1505 28.304 19.3425 28.112C19.5345 27.92 19.7692 27.824 20.0465 27.824C20.3132 27.824 20.5372 27.92 20.7185 28.112C20.9105 28.304 21.0065 28.5387 21.0065 28.816C21.0065 29.0933 20.9105 29.328 20.7185 29.52C20.5372 29.712 20.3132 29.808 20.0465 29.808ZM20.7505 31.232V40H19.2945V31.232H20.7505ZM25.008 32.432V37.6C25.008 38.0267 25.0987 38.3307 25.28 38.512C25.4613 38.6827 25.776 38.768 26.224 38.768H27.296V40H25.984C25.1733 40 24.5653 39.8133 24.16 39.44C23.7547 39.0667 23.552 38.4533 23.552 37.6V32.432H22.416V31.232H23.552V29.024H25.008V31.232H27.296V32.432H25.008ZM34.6441 34.256C35.0495 34.32 35.4175 34.4853 35.7481 34.752C36.0895 35.0187 36.3561 35.3493 36.5481 35.744C36.7508 36.1387 36.8521 36.56 36.8521 37.008C36.8521 37.5733 36.7081 38.0853 36.4201 38.544C36.1321 38.992 35.7108 39.3493 35.1561 39.616C34.6121 39.872 33.9668 40 33.2201 40H29.0601V28.848H33.0601C33.8175 28.848 34.4628 28.976 34.9961 29.232C35.5295 29.4773 35.9295 29.8133 36.1961 30.24C36.4628 30.6667 36.5961 31.1467 36.5961 31.68C36.5961 32.3413 36.4148 32.8907 36.0521 33.328C35.7001 33.7547 35.2308 34.064 34.6441 34.256ZM30.5161 33.664H32.9641C33.6468 33.664 34.1748 33.504 34.5481 33.184C34.9215 32.864 35.1081 32.4213 35.1081 31.856C35.1081 31.2907 34.9215 30.848 34.5481 30.528C34.1748 30.208 33.6361 30.048 32.9321 30.048H30.5161V33.664ZM33.0921 38.8C33.8175 38.8 34.3828 38.6293 34.7881 38.288C35.1935 37.9467 35.3961 37.472 35.3961 36.864C35.3961 36.2453 35.1828 35.76 34.7561 35.408C34.3295 35.0453 33.7588 34.864 33.0441 34.864H30.5161V38.8H33.0921ZM39.6246 29.808C39.3473 29.808 39.1126 29.712 38.9206 29.52C38.7286 29.328 38.6326 29.0933 38.6326 28.816C38.6326 28.5387 38.7286 28.304 38.9206 28.112C39.1126 27.92 39.3473 27.824 39.6246 27.824C39.8913 27.824 40.1153 27.92 40.2966 28.112C40.4886 28.304 40.5846 28.5387 40.5846 28.816C40.5846 29.0933 40.4886 29.328 40.2966 29.52C40.1153 29.712 39.8913 29.808 39.6246 29.808ZM40.3286 31.232V40H38.8726V31.232H40.3286ZM44.5861 32.432V37.6C44.5861 38.0267 44.6768 38.3307 44.8581 38.512C45.0395 38.6827 45.3541 38.768 45.8021 38.768H46.8741V40H45.5621C44.7515 40 44.1435 39.8133 43.7381 39.44C43.3328 39.0667 43.1301 38.4533 43.1301 37.6V32.432H41.9941V31.232H43.1301V29.024H44.5861V31.232H46.8741V32.432H44.5861Z" fill="white"/>
<path d="M36.4705 37.0142C44.7102 29.0496 49.9117 21.0639 48.0885 19.1777C46.2652 17.2915 38.1077 22.2191 29.868 30.1837C21.6283 38.1484 16.4268 46.134 18.25 48.0202C20.0732 49.9064 28.2308 44.9789 36.4705 37.0142Z" stroke="white" stroke-width="1.5"/>
</svg>
