<svg xmlns="http://www.w3.org/2000/svg" width="13.585" height="17.441" viewBox="0 0 13.585 17.441">
  <g id="Page-1" transform="translate(-6.188 -2.86)">
    <g id="icon-27-one-finger-click" transform="translate(6 1)">
      <path id="one-finger-click" d="M14.626,9.037a.965.965,0,0,0-1.93,0v2.9h-.643V3.831a.965.965,0,1,0-1.93,0v8.62C8.8,11.036,7.055,9.479,6.34,10.2c-.7.7,1.1,2.641,3.62,6.876,1.134,1.908,2.569,3.228,4.988,3.228a4.825,4.825,0,0,0,4.825-4.825V10.333a.965.965,0,1,0-1.93,0v1.6H17.2V9.68a.965.965,0,0,0-1.93,0v1.614h-.643V9.037Z" transform="translate(-6 -1)" fill="#305671" fill-rule="evenodd"/>
    </g>
  </g>
</svg>
