<svg xmlns="http://www.w3.org/2000/svg" width="19.522" height="18.058" viewBox="0 0 19.522 18.058">
  <g id="_2303158_contact_us_headphones_headset_help_listne_icon" data-name="2303158_contact us_headphones_headset_help_listne_icon" transform="translate(-2.488 -3.801)">
    <path id="Path_592" data-name="Path 592" d="M6.779,22.058A3.529,3.529,0,0,1,3.32,17.823,3.614,3.614,0,0,1,6.906,15H8.014v7.058Z" transform="translate(0 -3.067)" fill="none" stroke="#305671" stroke-linecap="round" stroke-linejoin="round" stroke-width="1.5"/>
    <path id="Path_593" data-name="Path 593" d="M23.235,22.058a3.529,3.529,0,0,0,3.459-4.235A3.614,3.614,0,0,0,23.108,15H22v7.058Z" transform="translate(-5.516 -3.067)" fill="none" stroke="#305671" stroke-linecap="round" stroke-linejoin="round" stroke-width="1.5"/>
    <path id="Path_594" data-name="Path 594" d="M7,11.933V11.1a6.43,6.43,0,0,1,4.877-6.352,6.352,6.352,0,0,1,7.828,6.2v.981" transform="translate(-1.103 0)" fill="none" stroke="#305671" stroke-linecap="round" stroke-linejoin="round" stroke-width="1.5"/>
    <path id="Path_595" data-name="Path 595" d="M10,25h0a2.117,2.117,0,0,0,2.117,2.117" transform="translate(-1.986 -6.009)" fill="none" stroke="#305671" stroke-linecap="round" stroke-linejoin="round" stroke-width="1.5"/>
    <circle id="Ellipse_249" data-name="Ellipse 249" cx="0.706" cy="0.706" r="0.706" transform="translate(11.543 20.403)" fill="none"/>
    <line id="Line_367" data-name="Line 367" y2="6.352" transform="translate(5.896 12.288)" fill="none" stroke="#305671" stroke-linecap="round" stroke-linejoin="round" stroke-width="1"/>
    <rect id="Rectangle_738" data-name="Rectangle 738" width="1.412" height="7.058" transform="translate(16.484 11.933)" fill="#305671"/>
  </g>
</svg>
