<svg width="1175" height="423" viewBox="0 0 1175 423" fill="none" xmlns="http://www.w3.org/2000/svg">
<rect x="240.92" y="0.722656" width="10" height="481" transform="rotate(30 240.92 0.722656)" fill="#E9EFF5"/>
<rect x="265.92" y="0.722656" width="10" height="481" transform="rotate(30 265.92 0.722656)" fill="#E9EFF5"/>
<rect x="290.92" y="0.722656" width="10" height="481" transform="rotate(30 290.92 0.722656)" fill="#E9EFF5"/>
<rect x="315.92" y="0.722656" width="10" height="481" transform="rotate(30 315.92 0.722656)" fill="#E9EFF5"/>
<rect x="340.92" y="0.722656" width="10" height="481" transform="rotate(30 340.92 0.722656)" fill="#E9EFF5"/>
<rect x="365.92" y="0.722656" width="10" height="481" transform="rotate(30 365.92 0.722656)" fill="#E9EFF5"/>
<rect x="390.92" y="0.722656" width="10" height="481" transform="rotate(30 390.92 0.722656)" fill="#E9EFF5"/>
<rect x="415.92" y="0.722656" width="10" height="481" transform="rotate(30 415.92 0.722656)" fill="#E9EFF5"/>
<rect x="440.92" y="0.722656" width="10" height="481" transform="rotate(30 440.92 0.722656)" fill="#E9EFF5"/>
<rect x="465.92" y="0.722656" width="10" height="481" transform="rotate(30 465.92 0.722656)" fill="#E9EFF5"/>
<rect x="490.92" y="0.722656" width="10" height="481" transform="rotate(30 490.92 0.722656)" fill="#E9EFF5"/>
<rect x="515.92" y="0.722656" width="10" height="481" transform="rotate(30 515.92 0.722656)" fill="#E9EFF5"/>
<rect x="540.92" y="0.722656" width="10" height="481" transform="rotate(30 540.92 0.722656)" fill="#E9EFF5"/>
<rect x="565.92" y="0.722656" width="10" height="481" transform="rotate(30 565.92 0.722656)" fill="#E9EFF5"/>
<rect x="590.92" y="0.722656" width="10" height="481" transform="rotate(30 590.92 0.722656)" fill="#E9EFF5"/>
<rect x="615.92" y="0.722656" width="10" height="481" transform="rotate(30 615.92 0.722656)" fill="#E9EFF5"/>
<rect x="640.92" y="0.722656" width="10" height="481" transform="rotate(30 640.92 0.722656)" fill="#E9EFF5"/>
<rect x="665.92" y="0.722656" width="10" height="481" transform="rotate(30 665.92 0.722656)" fill="#E9EFF5"/>
<rect x="690.92" y="0.722656" width="10" height="481" transform="rotate(30 690.92 0.722656)" fill="#E9EFF5"/>
<rect x="715.92" y="0.722656" width="10" height="481" transform="rotate(30 715.92 0.722656)" fill="#E9EFF5"/>
<rect x="740.92" y="0.722656" width="10" height="481" transform="rotate(30 740.92 0.722656)" fill="#E9EFF5"/>
<rect x="765.92" y="0.722656" width="10" height="481" transform="rotate(30 765.92 0.722656)" fill="#E9EFF5"/>
<rect x="790.92" y="0.722656" width="10" height="481" transform="rotate(30 790.92 0.722656)" fill="#E9EFF5"/>
<rect x="815.92" y="0.722656" width="10" height="481" transform="rotate(30 815.92 0.722656)" fill="#E9EFF5"/>
<rect x="840.92" y="0.722656" width="10" height="481" transform="rotate(30 840.92 0.722656)" fill="#E9EFF5"/>
<rect x="865.92" y="0.722656" width="10" height="481" transform="rotate(30 865.92 0.722656)" fill="#E9EFF5"/>
<rect x="890.92" y="0.722656" width="10" height="481" transform="rotate(30 890.92 0.722656)" fill="#E9EFF5"/>
<rect x="915.92" y="0.722656" width="10" height="481" transform="rotate(30 915.92 0.722656)" fill="#E9EFF5"/>
<rect x="940.92" y="0.722656" width="10" height="481" transform="rotate(30 940.92 0.722656)" fill="#E9EFF5"/>
<rect x="965.92" y="0.722656" width="10" height="481" transform="rotate(30 965.92 0.722656)" fill="#E9EFF5"/>
<rect x="990.92" y="0.722656" width="10" height="481" transform="rotate(30 990.92 0.722656)" fill="#E9EFF5"/>
<rect x="1015.92" y="0.722656" width="10" height="481" transform="rotate(30 1015.92 0.722656)" fill="#E9EFF5"/>
<rect x="1040.92" y="0.722656" width="10" height="481" transform="rotate(30 1040.92 0.722656)" fill="#E9EFF5"/>
<rect x="1065.92" y="0.722656" width="10" height="481" transform="rotate(30 1065.92 0.722656)" fill="#E9EFF5"/>
<rect x="1090.92" y="0.722656" width="10" height="481" transform="rotate(30 1090.92 0.722656)" fill="#E9EFF5"/>
<rect x="1115.92" y="0.722656" width="10" height="481" transform="rotate(30 1115.92 0.722656)" fill="#E9EFF5"/>
<rect x="1140.92" y="0.722656" width="10" height="481" transform="rotate(30 1140.92 0.722656)" fill="#E9EFF5"/>
<rect x="1165.92" y="0.722656" width="10" height="481" transform="rotate(30 1165.92 0.722656)" fill="#E9EFF5"/>
</svg>
