<svg xmlns="http://www.w3.org/2000/svg" width="16.331" height="16.382" viewBox="0 0 16.331 16.382"><defs><style>.a{fill:#305671;}</style></defs><g transform="translate(-13.5 -3)"><rect class="a" width="10.2" height="1.092" transform="translate(16.5 16.106)"/><rect class="a" width="10.2" height="1.092" transform="translate(16.5 13.921)"/><path class="a" d="M36.553,20.1a2.186,2.186,0,0,0-1.3-1.994,2.184,2.184,0,1,0-3.958,0A2.186,2.186,0,0,0,30,20.1v2.548h6.553Zm-3.276-4a1.092,1.092,0,1,1-1.092,1.092A1.093,1.093,0,0,1,33.276,16.092Zm2.184,5.461H31.092V20.1a1.093,1.093,0,0,1,.988-1.087,2.173,2.173,0,0,0,2.392,0,1.093,1.093,0,0,1,.988,1.087Z" transform="translate(-11.5 -9.816)"/><path class="a" d="M29.121,3H14.21a.644.644,0,0,0-.71.546v15.29a.644.644,0,0,0,.71.546H29.121a.644.644,0,0,0,.71-.546V3.546A.644.644,0,0,0,29.121,3Zm-.71,15.29H14.92V4.092h13.49Z" transform="translate(0)"/></g></svg>