<svg xmlns="http://www.w3.org/2000/svg" width="28.5" height="28.5" viewBox="0 0 28.5 28.5">
  <g id="icon_communication" transform="translate(-0.75 -0.75)">
    <rect id="Rectangle_537" data-name="Rectangle 537" width="1" height="1" transform="translate(28 28)" fill="#305671" stroke="#305671" stroke-width="0.5"/>
    <rect id="Rectangle_538" data-name="Rectangle 538" width="1" height="1" transform="translate(1 28)" fill="#305671" stroke="#305671" stroke-width="0.5"/>
    <path id="Path_438" data-name="Path 438" d="M22.377,10.879l4.042,2.694h1.034V11.283a2.245,2.245,0,0,0,0-4.4V4.592H26.419L22.377,7.287H20.995l-.9-1.8H17.574V3.612a1.347,1.347,0,1,0-.9,0V5.491H14.153l-.9,1.8H11.872L7.83,4.592H6.8V6.883a2.245,2.245,0,0,0,0,4.4v2.291H7.83l4.042-2.694h.26l-1.7,15.268h-.5a2.25,2.25,0,0,0-2.2,1.8H5v.9H29.249v-.9h-2.74a2.249,2.249,0,0,0-2.2-1.8h-.5l-1.7-15.268ZM17.125,1.9a.449.449,0,1,1-.449.449A.449.449,0,0,1,17.125,1.9ZM28.351,9.083a1.345,1.345,0,0,1-.9,1.265V7.819A1.344,1.344,0,0,1,28.351,9.083Zm-1.8-3.5v7L22.962,10.19V7.976Zm-11.847.807h4.834l.449.9H14.259Zm-2.523,1.8h9.879v1.8H19.7a3.136,3.136,0,0,0-5.152,0H12.185Zm.269,11.676,4.671-2.2,4.67,2.2Zm9.341.9-4.671,2.2-4.671-2.2Zm-9.664-1.74.392-3.522,3.546,1.669Zm3.938,4.434-4.675,2.2.465-4.181Zm1.055.5,4.671,2.2H12.454Zm1.055-.5,4.21-1.981.465,4.181Zm0-6.287L21.726,15.5l.392,3.522Zm3.442-2.613-4.5,2.116-4.5-2.116.019-.172,1.856-.873a3.138,3.138,0,0,0,5.243,0l1.856.873Zm-6.742-2.776a2.245,2.245,0,1,1,2.245,2.245A2.248,2.248,0,0,1,14.879,11.777ZM5.9,9.083a1.345,1.345,0,0,1,.9-1.265v2.529A1.344,1.344,0,0,1,5.9,9.083Zm1.8,3.5v-7l3.592,2.395V10.19Zm6.419-1.706a3.123,3.123,0,0,0,0,1.816l-1.355.638.273-2.454Zm11.46,17.064H8.675a1.345,1.345,0,0,1,1.265-.9h14.37A1.345,1.345,0,0,1,25.574,27.943ZM21.486,13.333,20.131,12.7a3.123,3.123,0,0,0,0-1.816h1.078Z" transform="translate(-2.204)" fill="#305671" stroke="#305671" stroke-width="0.5"/>
  </g>
</svg>
