<?xml version="1.0" encoding="utf-8"?>
<!-- Generator: Adobe Illustrator 16.0.0, SVG Export Plug-In . SVG Version: 6.00 Build 0)  -->
<!DOCTYPE svg PUBLIC "-//W3C//DTD SVG 1.1//EN" "http://www.w3.org/Graphics/SVG/1.1/DTD/svg11.dtd">
<svg version="1.1" id="Layer_1" xmlns="http://www.w3.org/2000/svg" xmlns:xlink="http://www.w3.org/1999/xlink" x="0px" y="0px"
	 width="26px" height="26px" viewBox="0 0 26 26" enable-background="new 0 0 26 26" xml:space="preserve">
<path fill="#FFFFFF" stroke="#40657F" stroke-width="1.5" stroke-linecap="round" stroke-linejoin="round" d="M3.479,15.885
	l-1.872-1.872c-0.174-0.173-0.311-0.38-0.4-0.609c-0.089-0.229-0.13-0.474-0.12-0.719c0.01-0.246,0.072-0.486,0.181-0.706
	c0.109-0.221,0.263-0.416,0.451-0.573c2.128-1.711,4.628-2.899,7.299-3.468c2.465-0.55,5.021-0.55,7.487,0
	c2.682,0.573,5.191,1.77,7.324,3.494c0.188,0.157,0.342,0.352,0.45,0.571c0.108,0.22,0.171,0.459,0.183,0.704
	c0.011,0.245-0.029,0.489-0.117,0.717c-0.089,0.228-0.225,0.436-0.396,0.609l-1.872,1.872c-0.3,0.306-0.701,0.491-1.128,0.524
	c-0.427,0.031-0.852-0.093-1.193-0.35c-0.678-0.521-1.412-0.965-2.189-1.321c-0.307-0.14-0.567-0.365-0.75-0.648
	c-0.184-0.284-0.281-0.614-0.283-0.951l-0.002-1.578c-2.45-0.674-5.037-0.674-7.487,0l0.001,1.584
	c-0.001,0.338-0.1,0.668-0.283,0.951s-0.444,0.509-0.751,0.648c-0.777,0.354-1.512,0.796-2.19,1.316
	c-0.346,0.26-0.775,0.384-1.207,0.349C4.183,16.393,3.78,16.2,3.481,15.887L3.479,15.885z"/>
</svg>
