<?xml version="1.0" encoding="utf-8"?>
<!-- Generator: Adobe Illustrator 16.0.0, SVG Export Plug-In . SVG Version: 6.00 Build 0)  -->
<!DOCTYPE svg PUBLIC "-//W3C//DTD SVG 1.1//EN" "http://www.w3.org/Graphics/SVG/1.1/DTD/svg11.dtd">
<svg version="1.1" id="Layer_1" xmlns="http://www.w3.org/2000/svg" xmlns:xlink="http://www.w3.org/1999/xlink" x="0px" y="0px"
	 width="20px" height="20px" viewBox="0 0 20 20" enable-background="new 0 0 20 20" xml:space="preserve">
<g>
	<defs>
		<rect id="SVGID_1_" width="20" height="20"/>
	</defs>
	<clipPath id="SVGID_2_">
		<use xlink:href="#SVGID_1_"  overflow="visible"/>
	</clipPath>
	<g clip-path="url(#SVGID_2_)">
		<g>
			<path fill="#40657F" d="M19.061,14.336c-0.034-0.028-3.838-2.736-4.869-2.571c-0.496,0.088-0.779,0.427-1.348,1.103
				c-0.091,0.109-0.312,0.371-0.481,0.557c-0.359-0.117-0.71-0.26-1.048-0.427c-1.75-0.852-3.163-2.265-4.014-4.013
				c-0.167-0.339-0.31-0.689-0.426-1.048c0.187-0.171,0.448-0.391,0.56-0.485c0.673-0.565,1.011-0.848,1.099-1.345
				c0.18-1.028-2.543-4.833-2.571-4.867C5.838,1.062,5.677,0.915,5.49,0.809S5.094,0.64,4.879,0.625
				c-1.104,0-4.254,4.086-4.254,4.775c0,0.04,0.058,4.105,5.071,9.206c5.095,5.009,9.161,5.066,9.201,5.066
				c0.688,0,4.775-3.151,4.775-4.254c-0.016-0.215-0.079-0.423-0.185-0.61C19.382,14.621,19.236,14.459,19.061,14.336z
				 M14.827,18.398c-0.552-0.047-3.968-0.496-8.234-4.688c-4.211-4.288-4.651-7.709-4.694-8.24C2.731,4.165,3.737,2.978,4.887,1.94
				c0.025,0.025,0.059,0.063,0.102,0.113c0.882,1.205,1.643,2.494,2.27,3.85C7.055,6.108,6.84,6.301,6.614,6.481
				c-0.35,0.267-0.672,0.569-0.959,0.902C5.605,7.452,5.57,7.53,5.551,7.612C5.532,7.695,5.53,7.78,5.544,7.863
				C5.68,8.444,5.886,9.007,6.158,9.538c0.976,2.005,2.596,3.626,4.602,4.601c0.531,0.273,1.095,0.479,1.677,0.613
				c0.083,0.016,0.167,0.014,0.249-0.006c0.082-0.018,0.16-0.053,0.228-0.102c0.335-0.289,0.638-0.612,0.906-0.965
				c0.199-0.236,0.466-0.554,0.566-0.643c1.358,0.625,2.651,1.387,3.857,2.271c0.053,0.044,0.091,0.078,0.115,0.101
				C17.321,16.561,16.133,17.565,14.827,18.398L14.827,18.398z"/>
			<path fill="#40657F" d="M13.147,8.75h3.469l-1.433,1.433l0.883,0.883l2.5-2.5c0.117-0.117,0.184-0.276,0.184-0.442
				S18.684,7.8,18.566,7.683l-2.5-2.5l-0.883,0.884L16.616,7.5h-3.469c-0.337,0-0.661-0.135-0.899-0.373
				c-0.238-0.239-0.373-0.562-0.373-0.899V1.25h-1.25v4.978c0.001,0.669,0.268,1.31,0.74,1.783
				C11.838,8.483,12.479,8.749,13.147,8.75z"/>
		</g>
	</g>
</g>
</svg>
