<svg xmlns="http://www.w3.org/2000/svg" width="12.536" height="10.029" viewBox="0 0 12.536 10.029">
  <g id="Group_806" data-name="Group 806" transform="translate(-1162.732 -618.986)">
    <path id="iconfinder_iconoteka_wallet__account_balance_b_s_3507738" d="M12.655,4H3.88A1.88,1.88,0,0,0,2,5.88v6.268a1.88,1.88,0,0,0,1.88,1.88h8.775a1.88,1.88,0,0,0,1.88-1.88V5.88A1.88,1.88,0,0,0,12.655,4Zm.627,6.456H11.4a1.442,1.442,0,0,1,0-2.883h1.88Zm0-3.949H11.4a2.507,2.507,0,0,0,0,5.014h1.88v.627a.627.627,0,0,1-.627.627H3.88a.627.627,0,0,1-.627-.627V5.88a.627.627,0,0,1,.627-.627h8.775a.627.627,0,0,1,.627.627ZM10.775,9.014a.627.627,0,1,0,.627-.627A.627.627,0,0,0,10.775,9.014Z" transform="translate(1160.732 614.986)" fill="#fff"/>
    <path id="Path_180" data-name="Path 180" d="M20,19.4l1.049,1.049L23.5,18" transform="translate(1145.274 604.777)" fill="none" stroke="#fff" stroke-linejoin="round" stroke-width="1.5"/>
  </g>
</svg>
