<svg width="25" height="23" viewBox="0 0 25 23" fill="none" xmlns="http://www.w3.org/2000/svg">
<path d="M19.2734 1.41406L15.4553 5.23224L19.2734 9.05043" stroke="#305671" stroke-width="2" stroke-linejoin="round"/>
<path d="M15.9972 5.21484H24.7266" stroke="#305671" stroke-width="2" stroke-linejoin="round"/>
<path d="M22.4446 16.7388V19.8911C22.4457 20.1836 22.3857 20.4731 22.2683 20.7412C22.151 21.0092 21.9789 21.2499 21.763 21.4478C21.5472 21.6456 21.2923 21.7964 21.0147 21.8904C20.7372 21.9844 20.443 22.0196 20.151 21.9937C16.9096 21.6434 13.7957 20.5391 11.0596 18.7696C8.51411 17.1542 6.35652 14.999 4.74017 12.4573C2.95985 9.715 1.85198 6.59274 1.50632 3.34352C1.48045 3.05306 1.51541 2.7604 1.60897 2.48415C1.70253 2.2079 1.85265 1.95409 2.04979 1.73884C2.24693 1.5236 2.48679 1.35163 2.75411 1.23387C3.02143 1.1161 3.31038 1.05511 3.60259 1.05478H6.76305C7.27381 1.05007 7.76888 1.23068 8.15618 1.563C8.54347 1.89532 8.79661 2.35672 8.8685 2.86136C9.00172 3.87061 9.24895 4.86158 9.60548 5.81536C9.74621 6.19203 9.77578 6.60108 9.69069 6.99401C9.6056 7.38695 9.40941 7.74731 9.12537 8.03238L7.78749 9.36748C9.2868 11.9988 11.47 14.1775 14.1069 15.6737L15.4448 14.3386C15.7311 14.0562 16.0925 13.8616 16.4862 13.7778C16.88 13.6939 17.2895 13.7244 17.6664 13.8656C18.6222 14.2214 19.6152 14.4681 20.6266 14.6011C21.1387 14.6732 21.6063 14.9307 21.9404 15.3246C22.2745 15.7185 22.4518 16.2213 22.4384 16.7372L22.4446 16.7388Z" stroke="#305671" stroke-width="1.5" stroke-linecap="round" stroke-linejoin="round"/>
</svg>
