<svg xmlns="http://www.w3.org/2000/svg" width="17.597" height="13.446" viewBox="0 0 17.597 13.446"><defs><style>.a{fill:#305671;}</style></defs><g transform="translate(-8.1 -13.8)"><g transform="translate(8.1 13.8)"><path class="a" d="M-253.846-204.754h-14.511A1.552,1.552,0,0,1-269.9-206.3v-10.36a1.552,1.552,0,0,1,1.543-1.543h14.511a1.552,1.552,0,0,1,1.543,1.543v10.36a1.552,1.552,0,0,1-1.543,1.543Zm-14.548-12.454a.5.5,0,0,0-.514.514v10.36a.5.5,0,0,0,.514.514h14.511a.5.5,0,0,0,.514-.514v-10.36a.5.5,0,0,0-.514-.514Z" transform="translate(269.9 218.2)"/><path class="a" d="M-242.379-208.459a2.015,2.015,0,0,1-2.021-2.021,2.038,2.038,0,0,1,2.021-2.021,2.038,2.038,0,0,1,2.021,2.021,2.038,2.038,0,0,1-2.021,2.021Zm0-3.123a1.066,1.066,0,0,0-1.065,1.065,1.066,1.066,0,0,0,1.065,1.065,1.066,1.066,0,0,0,1.065-1.065,1.066,1.066,0,0,0-1.065-1.065Z" transform="translate(253.768 214.594)"/><path class="a" d="M-255.5-198.106l-8.486-7.972-4.849,4.482-.661-.7,5.51-5.106,9.147,8.6-.661.7" transform="translate(269.647 211.368)"/><path class="a" d="M-234.2-195.373l-2.829-2.278-2.351,1.947-.625-.771,2.976-2.425,3.416,2.792-.588.735" transform="translate(250.984 205.99)"/></g></g></svg>