<svg width="22" height="23" viewBox="0 0 22 23" fill="none" xmlns="http://www.w3.org/2000/svg">
<path d="M18.547 17.145V19.792C18.548 20.0377 18.4977 20.2809 18.3992 20.506C18.3008 20.7312 18.1565 20.9333 17.9755 21.0994C17.7945 21.2656 17.5808 21.3921 17.348 21.4709C17.1153 21.5497 16.8687 21.579 16.624 21.557C13.9091 21.2618 11.3012 20.334 9.00999 18.848C6.87801 17.4935 5.07053 15.686 3.716 13.554C2.22471 11.2522 1.29665 8.63137 1.00699 5.904C0.985068 5.66004 1.01416 5.41419 1.09242 5.18209C1.17068 4.94999 1.29639 4.73671 1.46156 4.55584C1.62672 4.37496 1.82773 4.23044 2.05179 4.13148C2.27585 4.03251 2.51805 3.98127 2.76299 3.981H5.40999C5.83812 3.97703 6.25309 4.12882 6.57762 4.40809C6.90215 4.68736 7.1141 5.07507 7.174 5.499C7.28435 6.34685 7.49032 7.17949 7.78799 7.981C7.90635 8.29712 7.93158 8.64056 7.86068 8.97058C7.78979 9.30061 7.62574 9.60338 7.38799 9.843L6.27399 10.96C7.53003 13.169 9.35902 14.998 11.568 16.254L12.688 15.133C12.9276 14.8953 13.2304 14.7312 13.5604 14.6603C13.8904 14.5894 14.2339 14.6146 14.55 14.733C15.3504 15.0318 16.182 15.2391 17.029 15.351C17.4576 15.4114 17.8491 15.6273 18.129 15.9575C18.4088 16.2877 18.5576 16.7093 18.547 17.142V17.145Z" stroke="white" stroke-width="1.5" stroke-linecap="round" stroke-linejoin="round"/>
<path d="M18.1016 3.89872L13.7522 8.24814L13.7522 4.39582C13.7546 4.32768 13.7432 4.25978 13.7187 4.19614C13.6942 4.13251 13.6572 4.07445 13.6098 4.02543C13.5624 3.9764 13.5057 3.93742 13.4429 3.91079C13.3802 3.88416 13.3127 3.87044 13.2445 3.87044C13.1763 3.87044 13.1089 3.88416 13.0461 3.91079C12.9834 3.93742 12.9266 3.9764 12.8792 4.02543C12.8318 4.07445 12.7948 4.13251 12.7704 4.19614C12.7459 4.25978 12.7345 4.32768 12.7368 4.39582V9.47426C12.7369 9.5075 12.7402 9.54065 12.7467 9.57325C12.7495 9.58881 12.7559 9.60225 12.7594 9.6171C12.7637 9.63433 12.7689 9.65132 12.775 9.66801C12.7827 9.68479 12.7915 9.70108 12.8012 9.7168C12.8111 9.7267 12.8139 9.74367 12.8217 9.75569C12.8403 9.78366 12.8616 9.80971 12.8853 9.83347C12.9091 9.85718 12.9351 9.8785 12.9631 9.89711C12.9737 9.90771 12.99 9.91125 13.0034 9.91903C13.0185 9.9279 13.0341 9.93593 13.0501 9.94307C13.0677 9.94969 13.0856 9.95535 13.1038 9.96004C13.1172 9.96358 13.13 9.96923 13.1441 9.97206C13.1772 9.97874 13.2108 9.98206 13.2445 9.98196L18.323 9.98196C18.3911 9.98429 18.459 9.97289 18.5226 9.94842C18.5863 9.92396 18.6443 9.88694 18.6934 9.83956C18.7424 9.79219 18.7814 9.73543 18.808 9.67267C18.8346 9.60991 18.8483 9.54243 18.8483 9.47426C18.8483 9.40608 18.8346 9.33861 18.808 9.27585C18.7814 9.21309 18.7424 9.15633 18.6934 9.10896C18.6443 9.06158 18.5863 9.02456 18.5226 9.00009C18.459 8.97563 18.3911 8.96422 18.323 8.96656L14.4706 8.96656L18.8194 4.61785C18.9146 4.52258 18.9681 4.39337 18.9681 4.25864C18.9681 4.12391 18.9146 3.9947 18.8194 3.89943C18.7241 3.80416 18.5949 3.75064 18.4601 3.75064C18.3254 3.75064 18.1962 3.80416 18.1009 3.89943L18.1016 3.89872Z" fill="white" stroke="white" stroke-width="0.5"/>
</svg>
