<svg width="59" height="59" viewBox="0 0 59 59" fill="none" xmlns="http://www.w3.org/2000/svg">
<path d="M21.0994 42.5536C20.885 42.3392 20.5889 42.2159 20.2847 42.2159C19.9816 42.2159 19.6843 42.3392 19.47 42.5536C19.2556 42.7678 19.1323 43.0651 19.1323 43.3682C19.1323 43.6725 19.2556 43.9686 19.47 44.1829C19.6843 44.3984 19.9816 44.5205 20.2847 44.5205C20.5877 44.5205 20.885 44.3984 21.0994 44.1829C21.3149 43.9686 21.437 43.6713 21.437 43.3682C21.437 43.0651 21.3149 42.7678 21.0994 42.5536Z" fill="#00E778"/>
<path d="M55.341 40.1364C55.341 38.7235 54.7128 37.4553 53.7219 36.594C54.7128 35.7326 55.341 34.4646 55.341 33.0516C55.341 30.463 53.235 28.3571 50.6464 28.3571H38.0767L41.2991 19.3574C41.804 17.9471 41.7116 16.4333 41.0387 15.0949C40.3657 13.7566 39.2058 12.7795 37.7725 12.3438C35.0525 11.5169 32.1334 12.9516 31.1265 15.61L30.0616 18.4213C28.2731 23.1428 24.9653 27.1298 20.6818 29.7623C20.0205 28.9083 18.9863 28.3571 17.8252 28.3571H4.81103C4.17459 28.3571 3.65869 28.8731 3.65869 29.5094V57.8473C3.65869 58.4836 4.17459 58.9997 4.81103 58.9997H17.8251C19.1345 58.9997 20.2833 58.2992 20.9169 57.2534L22.4026 57.8361C24.3716 58.6083 26.4425 59 28.5575 59H50.6464C53.235 59 55.341 56.8941 55.341 54.3055C55.341 52.8927 54.7128 51.6246 53.722 50.7632C54.7128 49.9018 55.341 48.6338 55.341 47.2209C55.341 45.808 54.7128 44.54 53.722 43.6786C54.7128 42.8173 55.341 41.5491 55.341 40.1364ZM41.7249 37.7463L50.6464 37.7466C51.9642 37.7466 53.0363 38.8188 53.0363 40.1365C53.0363 41.4544 51.9642 42.5264 50.6464 42.5264H41.7249V42.5263C41.0884 42.5263 40.5725 43.0423 40.5725 43.6786C40.5725 44.315 41.0884 44.831 41.7249 44.831H50.6464C51.9642 44.831 53.0363 45.9031 53.0363 47.2208C53.0363 48.5385 51.9642 49.6106 50.6464 49.6106H41.7249C41.0884 49.6106 40.5725 50.1267 40.5725 50.763C40.5725 51.3993 41.0884 51.9153 41.7249 51.9153H50.6464C51.9642 51.9153 53.0363 52.9875 53.0363 54.3053C53.0363 55.6231 51.9642 56.6951 50.6464 56.6951H28.5575C26.7316 56.6951 24.944 56.357 23.2442 55.6904L21.4373 54.9817V47.9754C21.4373 47.339 20.9214 46.823 20.285 46.823C19.6485 46.823 19.1326 47.339 19.1326 47.9754V55.3871C19.1326 56.1081 18.5461 56.6947 17.8251 56.6947H5.96337V30.6617H17.8251C18.4012 30.6617 18.8906 31.0368 19.0644 31.5553C19.0747 31.6196 19.0906 31.6834 19.1122 31.7464C19.1248 31.819 19.1326 31.8931 19.1326 31.9693V38.4881C19.1326 39.1244 19.6485 39.6404 20.285 39.6404C20.9214 39.6404 21.4373 39.1244 21.4373 38.4881V31.9964C26.3729 29.104 30.1851 24.6012 32.2167 19.2377L33.2816 16.4265C33.8604 14.8983 35.5383 14.0736 37.102 14.549C37.926 14.7995 38.5927 15.3611 38.9796 16.1305C39.3664 16.8998 39.4196 17.7701 39.1294 18.5807L35.3553 29.1212C35.2289 29.4741 35.2822 29.8665 35.498 30.173C35.7138 30.4795 36.0653 30.662 36.4401 30.662H50.6464C51.9642 30.662 53.0363 31.7341 53.0363 33.0518C53.0363 34.3695 51.9642 35.4416 50.6464 35.4416H41.7249C41.0884 35.4416 40.5725 35.9576 40.5725 36.594C40.5725 37.2303 41.0884 37.7463 41.7249 37.7463Z" fill="#00E778"/>
<path d="M36.3308 0C35.6944 0 35.1785 0.516017 35.1785 1.15234V6.69635C35.1785 7.33278 35.6944 7.84868 36.3308 7.84868C36.9672 7.84868 37.4831 7.33267 37.4831 6.69635V1.15234C37.4831 0.516017 36.9672 0 36.3308 0Z" fill="#00E778"/>
<path d="M46.0739 6.1801C45.6239 5.73035 44.8943 5.73023 44.4443 6.1801L42.1823 8.44214C41.7323 8.89213 41.7322 9.62179 42.1823 10.0719C42.4073 10.2968 42.7022 10.4094 42.9971 10.4094C43.292 10.4094 43.587 10.2968 43.8119 10.0719L46.0739 7.80985C46.524 7.35987 46.524 6.63021 46.0739 6.1801Z" fill="#00E778"/>
<path d="M30.4795 8.44213L28.2174 6.18009C27.7674 5.73022 27.0377 5.73022 26.5877 6.18009C26.1377 6.63008 26.1377 7.35974 26.5877 7.80985L28.8499 10.0719C29.0749 10.2968 29.3698 10.4094 29.6647 10.4094C29.9596 10.4094 30.2546 10.2968 30.4795 10.0719C30.9296 9.6219 30.9296 8.89224 30.4795 8.44213Z" fill="#00E778"/>
<path d="M12.3208 50.4544C11.6844 50.4544 11.1685 50.9704 11.1685 51.6067V51.6247C11.1685 52.261 11.6844 52.777 12.3208 52.777C12.9572 52.777 13.4731 52.261 13.4731 51.6247V51.6067C13.4731 50.9703 12.9572 50.4544 12.3208 50.4544Z" fill="#00E778"/>
</svg>
