<svg width="15" height="13" viewBox="0 0 15 13" fill="none" xmlns="http://www.w3.org/2000/svg">
<path d="M14.6706 1.58037C14.569 1.47888 14.4313 1.42187 14.2876 1.42188C14.144 1.42187 14.0063 1.47888 13.9046 1.58037L9.79165 5.68037L8.60264 4.49137C8.50102 4.38988 8.36326 4.33287 8.21964 4.33287C8.07602 4.33287 7.93827 4.38988 7.83664 4.49137L3.01664 9.30737C2.96331 9.35696 2.92052 9.4168 2.89083 9.48331C2.86114 9.54981 2.84516 9.62162 2.84384 9.69444C2.84252 9.76725 2.85589 9.83959 2.88315 9.90713C2.91041 9.97466 2.951 10.036 3.0025 10.0875C3.054 10.139 3.11535 10.1796 3.18288 10.2069C3.25042 10.2341 3.32276 10.2475 3.39557 10.2462C3.46839 10.2449 3.5402 10.2289 3.6067 10.1992C3.67321 10.1695 3.73305 10.1267 3.78264 10.0734L8.22064 5.63537L9.40864 6.82737C9.5101 6.9288 9.64768 6.98578 9.79114 6.98578C9.9346 6.98578 10.0722 6.9288 10.1736 6.82737L14.6736 2.34937C14.7242 2.29879 14.7642 2.23873 14.7914 2.17264C14.8186 2.10654 14.8324 2.03572 14.8321 1.96424C14.8319 1.89277 14.8175 1.82205 14.7897 1.75617C14.762 1.69029 14.7215 1.63054 14.6706 1.58037Z" fill="#305671"/>
<path d="M14.2693 11.8937H1.6123V0.518724C1.6063 0.379136 1.54662 0.247255 1.44573 0.150604C1.34484 0.0539536 1.21051 0 1.0708 0C0.931079 0 0.796759 0.0539536 0.695864 0.150604C0.59497 0.247255 0.535297 0.379136 0.529297 0.518724L0.529297 12.4347C0.529297 12.5785 0.5864 12.7163 0.688045 12.818C0.78969 12.9196 0.92755 12.9767 1.0713 12.9767H14.2713C14.3444 12.9799 14.4173 12.9682 14.4857 12.9424C14.5542 12.9166 14.6167 12.8772 14.6695 12.8266C14.7223 12.776 14.7643 12.7153 14.7931 12.648C14.8218 12.5807 14.8366 12.5084 14.8366 12.4352C14.8366 12.3621 14.8218 12.2897 14.7931 12.2224C14.7643 12.1552 14.7223 12.0944 14.6695 12.0438C14.6167 11.9932 14.5542 11.9539 14.4857 11.9281C14.4173 11.9023 14.3444 11.8906 14.2713 11.8937H14.2693Z" fill="#305671"/>
<path d="M14.2874 1.40284H10.2254C10.1524 1.3997 10.0794 1.41138 10.011 1.43718C9.94255 1.46297 9.88005 1.50235 9.82724 1.55294C9.77443 1.60354 9.73239 1.6643 9.70367 1.73156C9.67496 1.79883 9.66016 1.8712 9.66016 1.94434C9.66016 2.01748 9.67496 2.08986 9.70367 2.15712C9.73239 2.22439 9.77443 2.28514 9.82724 2.33574C9.88005 2.38633 9.94255 2.42571 10.011 2.4515C10.0794 2.4773 10.1524 2.48898 10.2254 2.48584H13.7465V6.00684C13.7433 6.07991 13.755 6.15286 13.7808 6.22129C13.8066 6.28973 13.846 6.35224 13.8965 6.40505C13.9471 6.45786 14.0079 6.4999 14.0752 6.52861C14.1424 6.55732 14.2148 6.57212 14.2879 6.57212C14.3611 6.57212 14.4335 6.55732 14.5007 6.52861C14.568 6.4999 14.6288 6.45786 14.6794 6.40505C14.7299 6.35224 14.7693 6.28973 14.7951 6.22129C14.8209 6.15286 14.8326 6.07991 14.8294 6.00684V1.94484C14.8294 1.8011 14.7723 1.66323 14.6707 1.56159C14.569 1.45994 14.4312 1.40284 14.2874 1.40284Z" fill="#305671"/>
</svg>
