<svg xmlns="http://www.w3.org/2000/svg" width="23.534" height="26.324" viewBox="0 0 23.534 26.324"><defs><style>.a{fill:#9baebc;}</style></defs><g transform="translate(-61.9 -10)"><path class="a" d="M349,101.9h2.028v1.233H349V101.9Z" transform="translate(-279.389 -89.432)"/><path class="a" d="M575.5,101.9h2.025v1.233H575.5V101.9Z" transform="translate(-499.805 -89.432)"/><path class="a" d="M83.406,101.9H81.783v1.233h1.622a.818.818,0,0,1,.811.822V123.7a.818.818,0,0,1-.811.822H63.928a.818.818,0,0,1-.811-.822V103.955a.818.818,0,0,1,.811-.822H65.55V101.9H63.928a2.045,2.045,0,0,0-2.028,2.057V123.7a2.043,2.043,0,0,0,2.028,2.057H83.406a2.043,2.043,0,0,0,2.028-2.057V103.957A2.045,2.045,0,0,0,83.406,101.9Z" transform="translate(0 -89.432)"/><path class="a" d="M333.8,377.6h8.931v1.23H333.8Z" transform="translate(-264.597 -357.727)"/><path class="a" d="M333.8,545.9h8.931v1.235H333.8Z" transform="translate(-264.597 -521.506)"/><path class="a" d="M333.8,714.5h8.931v1.23H333.8Z" transform="translate(-264.597 -685.578)"/><path class="a" d="M682.519,16.164a1.221,1.221,0,0,0,1.214-1.23v-3.7a1.217,1.217,0,1,0-2.433,0v3.7A1.223,1.223,0,0,0,682.519,16.164Z" transform="translate(-602.763)"/><path class="a" d="M455.917,16.164a1.224,1.224,0,0,0,1.217-1.23v-3.7a1.217,1.217,0,1,0-2.433,0v3.7A1.224,1.224,0,0,0,455.917,16.164Z" transform="translate(-382.25)"/><path class="a" d="M229.314,16.164a1.224,1.224,0,0,0,1.219-1.23v-3.7a1.217,1.217,0,1,0-2.433,0v3.7A1.222,1.222,0,0,0,229.314,16.164Z" transform="translate(-161.736)"/></g></svg>