<svg width="13" height="12" viewBox="0 0 13 12" fill="none" xmlns="http://www.w3.org/2000/svg">
<path d="M0.5 1.7168C0.776142 1.7168 1 1.49294 1 1.2168C1 0.940654 0.776142 0.716797 0.5 0.716797C0.223858 0.716797 0 0.940654 0 1.2168C0 1.49294 0.223858 1.7168 0.5 1.7168Z" fill="#305671"/>
<path d="M0.5 6.7168C0.776142 6.7168 1 6.49294 1 6.2168C1 5.94065 0.776142 5.7168 0.5 5.7168C0.223858 5.7168 0 5.94065 0 6.2168C0 6.49294 0.223858 6.7168 0.5 6.7168Z" fill="#305671"/>
<path d="M0.5 10.7168C0.776142 10.7168 1 10.4929 1 10.2168C1 9.94065 0.776142 9.7168 0.5 9.7168C0.223858 9.7168 0 9.94065 0 10.2168C0 10.4929 0.223858 10.7168 0.5 10.7168Z" fill="#305671"/>
<path d="M11.1669 0.716797H2.33789C2.49406 0.976108 2.57659 1.27309 2.57659 1.5758C2.57659 1.8785 2.49406 2.17549 2.33789 2.4348H11.1669C11.3947 2.4348 11.6132 2.3443 11.7743 2.1832C11.9354 2.02211 12.0259 1.80362 12.0259 1.5758C12.0259 1.34798 11.9354 1.12949 11.7743 0.968392C11.6132 0.807298 11.3947 0.716797 11.1669 0.716797Z" fill="#305671"/>
<path d="M11.1669 5.15283H2.33789C2.49406 5.41214 2.57659 5.70912 2.57659 6.01183C2.57659 6.31454 2.49406 6.61152 2.33789 6.87083H11.1669C11.3947 6.87083 11.6132 6.78033 11.7743 6.61924C11.9354 6.45814 12.0259 6.23965 12.0259 6.01183C12.0259 5.78401 11.9354 5.56552 11.7743 5.40443C11.6132 5.24333 11.3947 5.15283 11.1669 5.15283Z" fill="#305671"/>
<path d="M11.1669 9.58887H2.33789C2.49406 9.84818 2.57659 10.1452 2.57659 10.4479C2.57659 10.7506 2.49406 11.0476 2.33789 11.3069H11.1669C11.3947 11.3069 11.6132 11.2164 11.7743 11.0553C11.9354 10.8942 12.0259 10.6757 12.0259 10.4479C12.0259 10.22 11.9354 10.0016 11.7743 9.84046C11.6132 9.67937 11.3947 9.58887 11.1669 9.58887Z" fill="#305671"/>
</svg>
