<svg width="24" height="28" viewBox="0 0 24 28" fill="none" xmlns="http://www.w3.org/2000/svg">
<path d="M7.71094 3.30615H9.73895V4.53915H7.71094V3.30615Z" fill="#9BAEBC"/>
<path d="M13.7949 3.30615H15.8199V4.53915H13.7949V3.30615Z" fill="#9BAEBC"/>
<path d="M21.5059 3.30615H19.8829V4.53915H21.5049C21.7213 4.541 21.9282 4.62855 22.0802 4.78262C22.2322 4.93669 22.317 5.14472 22.3159 5.36115V25.1061C22.317 25.3226 22.2322 25.5306 22.0802 25.6847C21.9282 25.8388 21.7213 25.9263 21.5049 25.9282H2.02793C1.8115 25.9263 1.60463 25.8388 1.45262 25.6847C1.30061 25.5306 1.21586 25.3226 1.21693 25.1061V5.36115C1.21586 5.14472 1.30061 4.93669 1.45262 4.78262C1.60463 4.62855 1.8115 4.541 2.02793 4.53915H3.64993V3.30615H2.02793C1.48643 3.31064 0.96881 3.52973 0.588626 3.91535C0.208441 4.30097 -0.00326991 4.82164 -7.36585e-05 5.36315V25.1061C-0.00380013 25.6478 0.20774 26.1688 0.588038 26.5545C0.968336 26.9403 1.48626 27.1592 2.02793 27.1632H21.5059C22.0476 27.1592 22.5655 26.9403 22.9458 26.5545C23.3261 26.1688 23.5376 25.6478 23.5339 25.1061V5.36315C23.5371 4.82164 23.3254 4.30097 22.9452 3.91535C22.565 3.52973 22.0474 3.31064 21.5059 3.30615Z" fill="#9BAEBC"/>
<path d="M7.30292 10.7114H16.2339V11.9414H7.30292V10.7114Z" fill="#9BAEBC"/>
<path d="M7.30292 15.2324H16.2339V16.4674H7.30292V15.2324Z" fill="#9BAEBC"/>
<path d="M7.30292 19.7603H16.2339V20.9902H7.30292V19.7603Z" fill="#9BAEBC"/>
<path d="M17.8559 7.00219C18.0164 7.00128 18.1752 6.96872 18.3231 6.90639C18.4711 6.84405 18.6052 6.75316 18.718 6.63892C18.8307 6.52468 18.9198 6.38932 18.9802 6.2406C19.0406 6.09188 19.0711 5.93271 19.0699 5.77219V2.0722C19.0746 1.90951 19.0466 1.74754 18.9876 1.59587C18.9285 1.4442 18.8396 1.30591 18.7262 1.18919C18.6128 1.07246 18.4771 0.979677 18.3272 0.916318C18.1773 0.852958 18.0162 0.820312 17.8534 0.820312C17.6907 0.820312 17.5296 0.852958 17.3797 0.916318C17.2297 0.979677 17.094 1.07246 16.9806 1.18919C16.8672 1.30591 16.7783 1.4442 16.7193 1.59587C16.6603 1.74754 16.6322 1.90951 16.6369 2.0722V5.77219C16.636 5.93305 16.6668 6.09251 16.7276 6.24144C16.7884 6.39037 16.878 6.52584 16.9912 6.6401C17.1045 6.75436 17.2391 6.84515 17.3875 6.90728C17.5359 6.96942 17.695 7.00167 17.8559 7.00219Z" fill="#9BAEBC"/>
<path d="M11.7669 7.00219C12.0914 7.00034 12.4018 6.86974 12.63 6.6391C12.8582 6.40846 12.9855 6.09665 12.9839 5.77219V2.0722C12.9886 1.90951 12.9606 1.74754 12.9015 1.59587C12.8425 1.4442 12.7536 1.30591 12.6402 1.18919C12.5268 1.07246 12.3911 0.979677 12.2412 0.916318C12.0913 0.852958 11.9302 0.820312 11.7674 0.820312C11.6047 0.820312 11.4436 0.852958 11.2937 0.916318C11.1437 0.979677 11.0081 1.07246 10.8946 1.18919C10.7812 1.30591 10.6923 1.4442 10.6333 1.59587C10.5743 1.74754 10.5462 1.90951 10.5509 2.0722V5.77219C10.5493 6.09648 10.6765 6.40814 10.9045 6.63875C11.1324 6.86937 11.4426 7.00008 11.7669 7.00219Z" fill="#9BAEBC"/>
<path d="M5.67793 7.00219C5.83875 7.00154 5.99787 6.9692 6.14619 6.90702C6.29451 6.84484 6.42912 6.75404 6.54232 6.63981C6.65553 6.52558 6.74512 6.39016 6.80597 6.24129C6.86681 6.09242 6.89773 5.93302 6.89694 5.77219V2.0722C6.9016 1.90951 6.87358 1.74754 6.81454 1.59587C6.7555 1.4442 6.66666 1.30591 6.55323 1.18919C6.43981 1.07246 6.30412 0.979677 6.1542 0.916318C6.00429 0.852958 5.84319 0.820312 5.68043 0.820312C5.51768 0.820312 5.35658 0.852958 5.20666 0.916318C5.05675 0.979677 4.92107 1.07246 4.80764 1.18919C4.69422 1.30591 4.60536 1.4442 4.54632 1.59587C4.48729 1.74754 4.45928 1.90951 4.46394 2.0722V5.77219C4.46289 5.93267 4.49345 6.09178 4.55389 6.24045C4.61433 6.38911 4.70346 6.52441 4.81619 6.63863C4.92892 6.75285 5.06304 6.84374 5.2109 6.90612C5.35876 6.9685 5.51745 7.00115 5.67793 7.00219Z" fill="#9BAEBC"/>
</svg>
