<svg xmlns="http://www.w3.org/2000/svg" width="21" height="21" viewBox="0 0 21 21"><defs><style>.a{fill:#305671;}.b{fill:none;}</style></defs><g transform="translate(1.969 3.281)"><path class="a" d="M21.813,8.313H10.656a.656.656,0,0,1,0-1.312H21.813a.656.656,0,0,1,0,1.313Z" transform="translate(-5.406 -5.688)"/><path class="a" d="M5.625,8.313H3.656A.656.656,0,0,1,3.656,7H5.625a.656.656,0,0,1,0,1.313Z" transform="translate(-3 -5.688)"/><path class="a" d="M14.813,16.313H3.656a.656.656,0,0,1,0-1.312H14.813a.656.656,0,0,1,0,1.313Z" transform="translate(-3 -8.438)"/><path class="a" d="M8.25,24.313H3.656a.656.656,0,0,1,0-1.312H8.25a.656.656,0,0,1,0,1.313Z" transform="translate(-3 -11.188)"/><path class="a" d="M7.969,8.938A1.969,1.969,0,1,1,9.938,6.969,1.969,1.969,0,0,1,7.969,8.938Zm0-2.625a.656.656,0,1,0,.656.656A.656.656,0,0,0,7.969,6.313Z" transform="translate(-4.031 -5)"/><path class="a" d="M21.969,16.938a1.969,1.969,0,1,1,1.969-1.969A1.969,1.969,0,0,1,21.969,16.938Zm0-2.625a.656.656,0,1,0,.656.656A.656.656,0,0,0,21.969,14.313Z" transform="translate(-8.844 -7.75)"/><path class="a" d="M11.969,24.938a1.969,1.969,0,1,1,1.969-1.969A1.969,1.969,0,0,1,11.969,24.938Zm0-2.625a.656.656,0,1,0,.656.656A.656.656,0,0,0,11.969,22.313Z" transform="translate(-5.406 -10.5)"/><path class="a" d="M26.625,16.313H24.656a.656.656,0,0,1,0-1.312h1.969a.656.656,0,0,1,0,1.313Z" transform="translate(-10.219 -8.438)"/><path class="a" d="M23.188,24.313H14.656a.656.656,0,0,1,0-1.312h8.531a.656.656,0,0,1,0,1.313Z" transform="translate(-6.781 -11.188)"/></g><rect class="b" width="21" height="21"/></svg>