<svg width="40" height="40" viewBox="0 0 40 40" fill="none" xmlns="http://www.w3.org/2000/svg">
<path d="M20 12.5C17.9319 12.5 16.25 10.8181 16.25 8.75V3.75C16.25 1.68187 17.9319 0 20 0C22.0681 0 23.75 1.68187 23.75 3.75V8.75C23.75 10.8181 22.0675 12.5 20 12.5ZM20 2.5C19.3106 2.5 18.75 3.06125 18.75 3.75V8.75C18.75 9.43875 19.3106 10 20 10C20.6894 10 21.25 9.43875 21.25 8.75V3.75C21.25 3.06125 20.6894 2.5 20 2.5Z" fill="#305671"/>
<path d="M20 40C17.9319 40 16.25 38.3181 16.25 36.25V31.25C16.25 29.1819 17.9319 27.5 20 27.5C22.0681 27.5 23.75 29.1819 23.75 31.25V36.25C23.75 38.3181 22.0675 40 20 40ZM20 30C19.3106 30 18.75 30.5606 18.75 31.25V36.25C18.75 36.9394 19.3106 37.5 20 37.5C20.6894 37.5 21.25 36.9394 21.25 36.25V31.25C21.25 30.5606 20.6894 30 20 30Z" fill="#305671"/>
<path d="M12.045 15.7943C11.0431 15.7943 10.1013 15.4043 9.39314 14.6955L5.85751 11.1605C4.39564 9.6974 4.39564 7.31865 5.85751 5.8574C6.56564 5.14928 7.50751 4.75928 8.50939 4.75928C9.51126 4.75928 10.4531 5.14928 11.1613 5.85803L14.6969 9.39303C16.1588 10.8555 16.1588 13.2349 14.6969 14.6962C13.9881 15.4043 13.0469 15.7943 12.045 15.7943ZM8.51001 7.25928C8.17564 7.25928 7.86189 7.38928 7.62564 7.62553C7.38939 7.86178 7.26001 8.17553 7.26001 8.50865C7.26001 8.8424 7.39001 9.15678 7.62626 9.39303L11.1619 12.928C11.6344 13.4005 12.4581 13.4005 12.9306 12.928C13.4175 12.4412 13.4175 11.648 12.93 11.1605L9.39439 7.62553C9.15751 7.38928 8.84376 7.25928 8.51001 7.25928Z" fill="#305671"/>
<path d="M31.4906 35.2406C30.4887 35.2406 29.5475 34.8506 28.8387 34.1418L25.3037 30.6068C24.595 29.8987 24.205 28.9562 24.205 27.9549C24.205 26.9531 24.5956 26.0118 25.3037 25.3031C26.0112 24.5956 26.9531 24.2056 27.955 24.2056C28.9568 24.2056 29.8981 24.5956 30.6062 25.3037L34.1418 28.8393C35.6037 30.3012 35.6037 32.6806 34.1412 34.1418C33.4337 34.8506 32.4918 35.2406 31.4906 35.2406ZM27.955 26.7056C27.6212 26.7056 27.3068 26.8356 27.0712 27.0712C26.835 27.3074 26.705 27.6212 26.705 27.9549C26.705 28.2887 26.835 28.6031 27.0712 28.8393L30.6062 32.3743C31.0781 32.8462 31.9012 32.8468 32.3737 32.3743C32.8612 31.8868 32.8618 31.0937 32.3743 30.6068L28.8387 27.0712C28.6031 26.8356 28.2887 26.7056 27.955 26.7056Z" fill="#305671"/>
<path d="M8.74998 23.7494H3.74998C1.68124 23.7482 -1.44742e-05 22.0663 0.000610526 19.9994C0.00123553 17.9319 1.68311 16.25 3.74936 16.25L8.74998 16.2488C10.8187 16.2507 12.5012 17.9332 12.5012 19.9994C12.4994 22.0682 10.8162 23.7494 8.74998 23.7494ZM8.74936 18.7488L3.75061 18.75C3.06123 18.75 2.50061 19.3107 2.50061 20.0007C2.50061 20.6894 3.06061 21.2494 3.75061 21.2494H8.74998C9.43936 21.2494 10.0006 20.6882 10.0012 19.9982C10.0012 19.31 9.43936 18.7494 8.74936 18.7488Z" fill="#305671"/>
<path d="M36.25 23.7494H31.2512H31.25C30.2481 23.7494 29.3068 23.3594 28.5981 22.6506C27.89 21.9419 27.5 21 27.5012 19.9981C27.5012 18.9981 27.8906 18.0562 28.5987 17.3481C29.3068 16.64 30.2487 16.25 31.2506 16.25H36.2506C38.3181 16.25 40 17.9319 40 20C40.0006 21.0019 39.6106 21.9431 38.9025 22.6512C38.1937 23.3594 37.2518 23.7494 36.25 23.7494ZM31.25 21.2494H36.25C36.5843 21.2494 36.8987 21.1194 37.135 20.8831C37.37 20.6475 37.5 20.3344 37.5 20.0006C37.5 19.3106 36.9393 18.75 36.2506 18.75H31.2506C30.9168 18.75 30.6031 18.88 30.3668 19.1163C30.1312 19.3519 30.0012 19.6656 30.0012 19.9987C30.0012 20.3337 30.1306 20.6469 30.3662 20.8831C30.6018 21.1194 30.9162 21.2494 31.25 21.2494Z" fill="#305671"/>
<path d="M8.50866 35.2401C7.50741 35.2401 6.56553 34.8501 5.85803 34.142C4.39678 32.6776 4.39741 30.2995 5.85803 28.8382L9.39241 25.302C10.1018 24.5939 11.0437 24.2039 12.0455 24.2039C13.0474 24.2039 13.9893 24.5939 14.6968 25.302C16.1574 26.7664 16.1574 29.1451 14.6962 30.6057L11.1605 34.142C10.4518 34.8501 9.51053 35.2401 8.50866 35.2401ZM12.0455 26.7039C11.7112 26.7039 11.3968 26.8345 11.1599 27.0707L7.62616 30.6057C7.13866 31.0926 7.13928 31.887 7.62678 32.3751C8.09678 32.8464 8.91991 32.8457 9.39303 32.3739L12.928 28.8382C13.4155 28.3514 13.4149 27.557 12.9274 27.0682C12.6937 26.8339 12.3799 26.7039 12.0455 26.7039Z" fill="#305671"/>
<path d="M27.955 15.7943C26.9525 15.7943 26.0106 15.4037 25.3025 14.6943C24.5956 13.9874 24.205 13.0455 24.205 12.0443C24.205 11.0424 24.595 10.1012 25.3031 9.39303L28.8387 5.8574C29.5468 5.14928 30.4881 4.75928 31.4893 4.75928C32.4912 4.75928 33.4331 5.1499 34.1418 5.85865C34.85 6.56615 35.2406 7.5074 35.2406 8.50928C35.2406 9.51053 34.85 10.4518 34.1418 11.1612L30.6068 14.6949C29.8993 15.4037 28.9575 15.7943 27.955 15.7943ZM31.49 7.25865C31.1562 7.25865 30.8431 7.38865 30.6068 7.62428L27.0712 11.1599C26.8356 11.3962 26.7056 11.7099 26.7056 12.0437C26.7056 12.3774 26.8356 12.6905 27.0712 12.9262C27.545 13.4012 28.3675 13.3999 28.8393 12.9274L32.3743 9.39303C32.6106 9.15615 32.7412 8.84178 32.7412 8.50803C32.7412 8.1749 32.6112 7.86178 32.3756 7.62615C32.1375 7.38865 31.8237 7.25865 31.49 7.25865Z" fill="#305671"/>
</svg>
