<svg xmlns="http://www.w3.org/2000/svg" width="17.856" height="13.278" viewBox="0 0 17.856 13.278">
  <g id="XMLID_2_" transform="translate(0 -42.299)">
    <path id="XMLID_4_" d="M2.771,109.059h9.4a.812.812,0,1,0,0-1.623h-9.4l1.049-1.049a.812.812,0,0,0-1.148-1.148L.238,107.673c-.019.019-.037.038-.053.059l-.012.016c-.012.016-.025.032-.036.048l-.009.015c-.011.017-.022.035-.032.053l-.005.011c-.01.02-.02.04-.029.061l0,.008c-.009.022-.017.044-.024.067l0,.009c-.007.022-.013.045-.017.068,0,.007,0,.014,0,.021s-.007.038-.009.058a.8.8,0,0,0,0,.162c0,.02.005.039.009.058s0,.014,0,.02c0,.023.011.046.017.069l0,.008c.007.023.015.045.024.067l0,.007c.009.021.019.041.029.061l.005.011c.01.018.021.036.032.054l.009.014c.011.017.023.033.036.048l.012.015c.017.02.035.04.053.059l2.435,2.435a.812.812,0,1,0,1.148-1.148Z" transform="translate(0 -59.309)" fill="#305671"/>
    <path id="XMLID_5_" d="M108.5,42.3a6.634,6.634,0,0,0-5.514,2.94.812.812,0,0,0,1.347.905,5.016,5.016,0,1,1,.007,5.6.812.812,0,0,0-1.345.909A6.639,6.639,0,1,0,108.5,42.3Z" transform="translate(-97.28 0)" fill="#305671"/>
  </g>
</svg>
