<svg width="17" height="16" viewBox="0 0 17 16" fill="none" xmlns="http://www.w3.org/2000/svg">
<path d="M14.9673 3.41749L7.46735 10.9175C7.17485 11.21 6.70235 11.21 6.40985 10.9175L4.28735 8.79499C3.99485 8.50249 3.99485 8.02999 4.28735 7.73749C4.57985 7.44499 5.05235 7.44499 5.34485 7.73749L6.93485 9.32749L13.9023 2.35999C14.1948 2.06749 14.6673 2.06749 14.9598 2.35999C15.2598 2.65249 15.2598 3.12499 14.9673 3.41749ZM7.99985 14C4.46735 14 1.63985 10.9325 2.03735 7.32499C2.32985 4.68499 4.37735 2.51749 6.99485 2.08249C8.35235 1.85749 9.64235 2.09749 10.7373 2.66749C11.0298 2.81749 11.3823 2.76499 11.6148 2.53249C11.9748 2.17249 11.8848 1.56499 11.4348 1.33249C10.3323 0.769989 9.08735 0.462489 7.75985 0.499989C3.90485 0.619989 0.702348 3.75499 0.507348 7.60249C0.289848 11.93 3.72485 15.5 7.99985 15.5C8.89985 15.5 9.75485 15.3425 10.5573 15.05C11.0673 14.8625 11.2098 14.2025 10.8198 13.8125C10.6173 13.61 10.3098 13.535 10.0398 13.64C9.40235 13.8725 8.71235 14 7.99985 14ZM13.2498 10.25H11.7498C11.3373 10.25 10.9998 10.5875 10.9998 11C10.9998 11.4125 11.3373 11.75 11.7498 11.75H13.2498V13.25C13.2498 13.6625 13.5873 14 13.9998 14C14.4123 14 14.7498 13.6625 14.7498 13.25V11.75H16.2498C16.6623 11.75 16.9998 11.4125 16.9998 11C16.9998 10.5875 16.6623 10.25 16.2498 10.25H14.7498V8.74999C14.7498 8.33749 14.4123 7.99999 13.9998 7.99999C13.5873 7.99999 13.2498 8.33749 13.2498 8.74999V10.25Z" fill="#305671"/>
</svg>
