<svg xmlns="http://www.w3.org/2000/svg" width="12.784" height="12.559" viewBox="0 0 12.784 12.559"><defs><style>.a{fill:#fff;stroke:#fff;stroke-width:0.5px;}</style></defs><path class="a" d="M10.743,22.459h9l-3.987,3.987A.743.743,0,1,0,16.81,27.5l5.256-5.256h0a.75.75,0,0,0,.093-.113c.012-.019.021-.039.032-.059A.743.743,0,0,0,22.227,22a.661.661,0,0,0,.024-.077c.006-.021.014-.04.018-.062a.743.743,0,0,0,.015-.146h0v0a.75.75,0,0,0-.014-.144c0-.022-.013-.043-.019-.065a.691.691,0,0,0-.023-.074.77.77,0,0,0-.039-.074c-.01-.018-.018-.037-.03-.054a.732.732,0,0,0-.093-.114L16.81,15.934a.743.743,0,1,0-1.051,1.051l3.987,3.987h-9a.743.743,0,1,0,0,1.487Z" transform="translate(-9.75 -15.406)"/></svg>