<svg width="20" height="20" viewBox="0 0 20 20" fill="none" xmlns="http://www.w3.org/2000/svg">
<path d="M3.1001 19.6H16.9001C17.6162 19.6 18.3029 19.3155 18.8093 18.8092C19.3156 18.3028 19.6001 17.6161 19.6001 16.9V10.9H8.8721L10.0361 12.064C10.1951 12.2346 10.2816 12.4603 10.2775 12.6934C10.2734 12.9266 10.1789 13.1491 10.014 13.314C9.84915 13.4788 9.62668 13.5733 9.39352 13.5774C9.16036 13.5815 8.93471 13.495 8.7641 13.336L6.0641 10.636C5.89556 10.4673 5.80089 10.2385 5.80089 10C5.80089 9.7615 5.89556 9.53276 6.0641 9.36401L8.7641 6.664C8.93285 6.49546 9.1616 6.4008 9.4001 6.4008C9.6386 6.4008 9.86735 6.49546 10.0361 6.664C10.2046 6.83276 10.2993 7.0615 10.2993 7.3C10.2993 7.53851 10.2046 7.76725 10.0361 7.936L8.8721 9.1H19.6001V3.1C19.6001 2.38392 19.3156 1.69716 18.8093 1.19081C18.3029 0.684467 17.6162 0.400003 16.9001 0.400003H3.1001C2.38401 0.400003 1.69726 0.684467 1.19091 1.19081C0.684559 1.69716 0.400095 2.38392 0.400095 3.1V16.9C0.400095 17.6161 0.684559 18.3028 1.19091 18.8092C1.69726 19.3155 2.38401 19.6 3.1001 19.6Z" fill="#ED707A"/>
</svg>
