<svg width="20" height="20" viewBox="0 0 20 20" fill="none" xmlns="http://www.w3.org/2000/svg">
<path d="M16.8999 0.399994H3.0999C2.38382 0.399994 1.69706 0.684458 1.19071 1.19081C0.684366 1.69715 0.399902 2.38391 0.399902 3.09999V9.09999H11.1279L9.9639 7.93599C9.80493 7.76538 9.71838 7.53973 9.72249 7.30657C9.72661 7.07341 9.82106 6.85094 9.98596 6.68605C10.1509 6.52115 10.3733 6.4267 10.6065 6.42258C10.8396 6.41847 11.0653 6.50502 11.2359 6.664L13.9359 9.364C14.1044 9.53275 14.1991 9.76149 14.1991 10C14.1991 10.2385 14.1044 10.4672 13.9359 10.636L11.2359 13.336C11.0672 13.5045 10.8384 13.5992 10.5999 13.5992C10.3614 13.5992 10.1327 13.5045 9.9639 13.336C9.79536 13.1672 9.7007 12.9385 9.7007 12.7C9.7007 12.4615 9.79536 12.2327 9.9639 12.064L11.1279 10.9H0.399902V16.9C0.399902 17.6161 0.684366 18.3028 1.19071 18.8092C1.69706 19.3155 2.38382 19.6 3.0999 19.6H16.8999C17.616 19.6 18.3027 19.3155 18.8091 18.8092C19.3154 18.3028 19.5999 17.6161 19.5999 16.9V3.09999C19.5999 2.38391 19.3154 1.69715 18.8091 1.19081C18.3027 0.684458 17.616 0.399994 16.8999 0.399994Z" fill="#305671"/>
</svg>
