<svg width="26" height="26" viewBox="0 0 26 26" fill="none" xmlns="http://www.w3.org/2000/svg">
<path d="M3.47924 15.8844L1.60753 14.0127C1.4331 13.8397 1.29671 13.6321 1.20711 13.4033C1.11751 13.1746 1.07665 12.9296 1.08717 12.6841C1.09769 12.4386 1.15934 12.1981 1.26818 11.9778C1.37702 11.7575 1.53066 11.5624 1.71925 11.4049C3.8477 9.69386 6.34781 8.50592 9.01872 7.93653C11.4841 7.38679 14.0402 7.3868 16.5056 7.93653C19.1877 8.50969 21.6971 9.70662 23.8305 11.4303C24.0185 11.5873 24.1718 11.7818 24.2805 12.0012C24.3893 12.2207 24.4512 12.4604 24.4624 12.7051C24.4735 12.9498 24.4335 13.1941 24.3451 13.4225C24.2566 13.6509 24.1216 13.8584 23.9486 14.0318L22.0769 15.9035C21.7769 16.209 21.3762 16.3951 20.9492 16.4271C20.5223 16.4591 20.0983 16.3349 19.7561 16.0775C19.0786 15.556 18.3442 15.1128 17.5669 14.7566C17.2597 14.6167 16.999 14.3917 16.8158 14.1082C16.6326 13.8247 16.5345 13.4947 16.5331 13.1571L16.531 11.5795C14.0809 10.9057 11.4943 10.9057 9.04417 11.5795L9.04488 13.1642C9.04355 13.5017 8.94546 13.8318 8.76223 14.1153C8.57899 14.3988 8.31831 14.6238 8.01109 14.7636C7.23384 15.1183 6.49919 15.5598 5.82118 16.0796C5.47535 16.3399 5.04592 16.4641 4.61452 16.4285C4.18312 16.3929 3.77984 16.2 3.48136 15.8865L3.47924 15.8844Z" stroke="white" stroke-width="1.5" stroke-linecap="round" stroke-linejoin="round"/>
</svg>
