<svg xmlns="http://www.w3.org/2000/svg" width="9.503" height="16.659" viewBox="0 0 9.503 16.659"><defs><style>.a{fill:#305671;stroke:#305671;stroke-width:0.2px;fill-rule:evenodd;}</style></defs><path class="a" d="M18.872,17.459h-6.44A1.431,1.431,0,0,1,11,16.028V2.431A1.431,1.431,0,0,1,12.431,1h6.44A1.431,1.431,0,0,1,20.3,2.431v13.6A1.431,1.431,0,0,1,18.872,17.459Zm.716-15.028a.716.716,0,0,0-.716-.716h-6.44a.716.716,0,0,0-.716.716V3.862h7.872Zm0,2.147H11.716v9.3h7.872Zm0,10.019H11.716v1.431a.716.716,0,0,0,.716.716h6.44a.716.716,0,0,0,.716-.716Zm-3.936,1.789a.716.716,0,1,1,.716-.716A.716.716,0,0,1,15.651,16.386Zm-2.5-10.734h.716a.358.358,0,0,1,.358.358v.716a.358.358,0,0,1-.358.358h-.716a.358.358,0,0,1-.358-.358V6.009A.358.358,0,0,1,13.147,5.651Zm0,2.5h.716a.358.358,0,0,1,.358.358v.716a.357.357,0,0,1-.358.358h-.716a.357.357,0,0,1-.358-.358V8.514A.358.358,0,0,1,13.147,8.156Zm0,2.5h.716a.357.357,0,0,1,.358.358v.716a.357.357,0,0,1-.358.358h-.716a.357.357,0,0,1-.358-.358v-.716A.357.357,0,0,1,13.147,10.661Zm2.147-5.009h.716a.358.358,0,0,1,.358.358v.716a.358.358,0,0,1-.358.358h-.716a.358.358,0,0,1-.358-.358V6.009A.358.358,0,0,1,15.294,5.651Zm0,2.5h.716a.358.358,0,0,1,.358.358v.716a.357.357,0,0,1-.358.358h-.716a.357.357,0,0,1-.358-.358V8.514A.358.358,0,0,1,15.294,8.156Zm0,2.5h.716a.357.357,0,0,1,.358.358v.716a.357.357,0,0,1-.358.358h-.716a.357.357,0,0,1-.358-.358v-.716A.357.357,0,0,1,15.294,10.661ZM17.44,5.651h.716a.358.358,0,0,1,.358.358v.716a.358.358,0,0,1-.358.358H17.44a.358.358,0,0,1-.358-.358V6.009A.358.358,0,0,1,17.44,5.651Zm0,2.5h.716a.358.358,0,0,1,.358.358v.716a.357.357,0,0,1-.358.358H17.44a.357.357,0,0,1-.358-.358V8.514A.358.358,0,0,1,17.44,8.156ZM14.578,2.431h2.147a.358.358,0,0,1,0,.716H14.578a.358.358,0,1,1,0-.716Z" transform="translate(-10.9 -0.9)"/></svg>