<svg width="30" height="28" viewBox="0 0 30 28" fill="none" xmlns="http://www.w3.org/2000/svg">
<path d="M29.25 27.9897H0.5V5.18994H6.4502V1.71338C6.45072 1.45187 6.55473 1.20094 6.73975 1.01611C6.92476 0.831289 7.1755 0.727315 7.43701 0.727051C7.69897 0.726785 7.95014 0.830283 8.13574 1.01514C8.32135 1.19999 8.42596 1.45143 8.42676 1.71338V5.18994H21.3271V1.71338C21.3274 1.45196 21.4314 1.20097 21.6162 1.01611C21.8011 0.83126 22.0516 0.727316 22.313 0.727051C22.5745 0.727315 22.8252 0.831289 23.0103 1.01611C23.1953 1.20094 23.2993 1.45187 23.2998 1.71338V5.18994H29.25V27.9897ZM2.47314 7.16357V26.0132H27.2729V7.16357H2.47314ZM13.833 20.6274L9.54395 16.3384L10.6211 15.2563L13.833 18.4565L19.1328 13.1606L20.2139 14.2378L13.8379 20.6274H13.833Z" fill="#305671"/>
</svg>
