<svg width="32" height="32" xmlns="http://www.w3.org/2000/svg">

 <g>
  <title>background</title>
  <rect fill="none" id="canvas_background" height="402" width="582" y="-1" x="-1"/>
 </g>
 <g>
  <title>Layer 1</title>
  <path fill="#48a357" id="svg_3" d="m15.19141,19.74902c-0.25586,0 -0.51172,-0.09765 -0.70703,-0.29297l-2.50098,-2.50097c-0.39063,-0.39063 -0.39063,-1.02344 0,-1.41406s1.02344,-0.39063 1.41406,0l1.79395,1.79394l4.79199,-4.79101c0.39062,-0.39063 1.02344,-0.39063 1.41406,0s0.39063,1.02343 0,1.41406l-5.49902,5.49804c-0.19531,0.19532 -0.45117,0.29297 -0.70703,0.29297z"/>
  <path fill="#48a357" id="svg_5" d="m24.71875,29l-17.4375,0c-2.36084,0 -4.28125,-1.9209 -4.28125,-4.28125l0,-17.4375c0,-2.36035 1.92041,-4.28125 4.28125,-4.28125l17.4375,0c2.36084,0 4.28125,1.9209 4.28125,4.28125l0,17.4375c0,2.36035 -1.92041,4.28125 -4.28125,4.28125zm-17.4375,-24c-1.25781,0 -2.28125,1.02344 -2.28125,2.28125l0,17.4375c0,1.25781 1.02344,2.28125 2.28125,2.28125l17.4375,0c1.25781,0 2.28125,-1.02344 2.28125,-2.28125l0,-17.4375c0,-1.25781 -1.02344,-2.28125 -2.28125,-2.28125l-17.4375,0z"/>
 </g>
</svg>