<svg xmlns="http://www.w3.org/2000/svg" width="23.839" height="22" viewBox="0 0 23.839 22">
  <g id="Layer_2" data-name="Layer 2" transform="translate(-2.985 -3.998)">
    <path id="Path_391" data-name="Path 391" d="M21.055,26H8.773A5.729,5.729,0,0,1,3.76,23.11a5.637,5.637,0,0,1,0-5.7L9.928,6.859a5.774,5.774,0,0,1,9.972,0l6.15,10.55h0a5.637,5.637,0,0,1,0,5.7,5.729,5.729,0,0,1-5,2.887ZM14.914,5.833a3.886,3.886,0,0,0-3.4,1.943L5.364,18.335a3.8,3.8,0,0,0,0,3.859,3.877,3.877,0,0,0,3.41,1.971H21.055a3.877,3.877,0,0,0,3.419-1.971,3.8,3.8,0,0,0,0-3.859L18.315,7.776a3.886,3.886,0,0,0-3.4-1.943Z" fill="#c76007"/>
    <path id="Path_392" data-name="Path 392" d="M15.953,12a.5.5,0,0,0-.4.2.477.477,0,0,0-.092.44l.495,2,.495-2a.477.477,0,0,0-.092-.44.5.5,0,0,0-.4-.2Z" transform="translate(-1.039 -0.668)" fill="none"/>
    <path id="Path_393" data-name="Path 393" d="M17.621,10.92a2.346,2.346,0,0,0-3.666,0,2.291,2.291,0,0,0-.422,2.007l1.338,5.545a.917.917,0,0,0,1.778,0l1.384-5.554A2.291,2.291,0,0,0,17.621,10.92Zm-1.338,1.558-.495,2-.495-2a.477.477,0,0,1,.092-.44.5.5,0,0,1,.807,0,.477.477,0,0,1,.092.44Z" transform="translate(-0.874 -0.504)" fill="#c76007"/>
    <circle id="Ellipse_182" data-name="Ellipse 182" cx="1.375" cy="1.375" r="1.375" transform="translate(13.539 19.581)" fill="#c76007"/>
  </g>
</svg>
