<svg xmlns="http://www.w3.org/2000/svg" width="14.46" height="17.75" viewBox="0 0 14.46 17.75"><defs><style>.a{fill:#305671;stroke:#305671;stroke-width:0.75px;}</style></defs><g transform="translate(-13.625 -1.625)"><g transform="translate(14 2)"><g transform="translate(0)"><path class="a" d="M26.339,19H15.371A1.375,1.375,0,0,1,14,17.629V3.371A1.375,1.375,0,0,1,15.371,2h5.58a1.357,1.357,0,0,1,.973.4l5.388,5.388a1.357,1.357,0,0,1,.4.973v8.87A1.375,1.375,0,0,1,26.339,19ZM15.371,2.548a.825.825,0,0,0-.823.823V17.629a.825.825,0,0,0,.823.823H26.339a.825.825,0,0,0,.823-.823V8.759a.767.767,0,0,0-.247-.576L21.527,2.8a.767.767,0,0,0-.576-.247Z" transform="translate(-14 -2)"/></g><g transform="translate(3.29 6.439)"><g transform="translate(2.056)"><path class="a" d="M53.548,54.456H53V50.274a.559.559,0,0,1,.4-.535l2.879-.754a.558.558,0,0,1,.7.535v4.168h-.548V49.52l-2.879.754Z" transform="translate(-53 -48.968)"/></g><g transform="translate(0 4.529)"><circle class="a" cx="0.5" cy="0.5" r="0.5" transform="translate(0.71 0.032)"/><path class="a" d="M39.3,83.919c-.727,0-1.3-.425-1.3-.96s.576-.96,1.3-.96,1.3.425,1.3.96S40.029,83.919,39.3,83.919Zm0-1.371c-.425,0-.754.219-.754.411s.329.411.754.411.754-.219.754-.411S39.727,82.548,39.3,82.548Z" transform="translate(-38 -82)"/></g><g transform="translate(3.427 3.692)"><ellipse class="a" cx="1.028" cy="0.74" rx="1.028" ry="0.74" transform="translate(0.274 0.288)"/><path class="a" d="M64.3,77.929a1.046,1.046,0,1,1,1.3-1.015A1.17,1.17,0,0,1,64.3,77.929Zm0-1.467c-.4,0-.754.219-.754.466,0,.219.315.466.754.466s.754-.247.754-.466C65.056,76.681,64.7,76.462,64.3,76.462Z" transform="translate(-63 -75.9)"/></g></g></g></g></svg>