<svg xmlns="http://www.w3.org/2000/svg" width="37.553" height="29.123" viewBox="0 0 37.553 29.123">
  <g id="Group_1461" data-name="Group 1461" transform="translate(-778.149 -832.728)">
    <path id="Path_572" data-name="Path 572" d="M20.232,23.25a21.011,21.011,0,0,1-.432,3.015,2.962,2.962,0,0,1-2.809,2.312,3.364,3.364,0,0,1-1.959-.807L8.575,22.525h-3.6A3.138,3.138,0,0,1,1.841,19.4a43.8,43.8,0,0,1,0-9.17,3.226,3.226,0,0,1,3.138-3.02h3.6L14.9,2.054a3.88,3.88,0,0,1,2.093-.9A2.963,2.963,0,0,1,19.8,3.466a23.829,23.829,0,0,1,.432,3.017,159.616,159.616,0,0,1,0,16.767Z" transform="translate(777.399 832.424)" fill="none" stroke="#ef986c" stroke-linecap="round" stroke-linejoin="round" stroke-miterlimit="10" stroke-width="1.7"/>
    <g id="Group_1460" data-name="Group 1460">
      <line id="Line_367" data-name="Line 367" x1="11" y2="10.836" transform="translate(803.5 842.5)" fill="none" stroke="#ef986c" stroke-linecap="round" stroke-width="1.7"/>
      <line id="Line_368" data-name="Line 368" x1="11" y2="10.836" transform="translate(814.336 842.5) rotate(90)" fill="none" stroke="#ef986c" stroke-linecap="round" stroke-width="1.7"/>
    </g>
  </g>
</svg>
