<?xml version="1.0" encoding="utf-8"?>
<!-- Generator: Adobe Illustrator 16.0.0, SVG Export Plug-In . SVG Version: 6.00 Build 0)  -->
<!DOCTYPE svg PUBLIC "-//W3C//DTD SVG 1.1//EN" "http://www.w3.org/Graphics/SVG/1.1/DTD/svg11.dtd">
<svg version="1.1" id="Layer_1" xmlns="http://www.w3.org/2000/svg" xmlns:xlink="http://www.w3.org/1999/xlink" x="0px" y="0px"
	 width="37.553px" height="29.123px" viewBox="0 0 37.553 29.123" enable-background="new 0 0 37.553 29.123" xml:space="preserve">
<g id="Group_1461" transform="translate(-778.149 -832.728)">
	<g id="Path_572">
		<path fill="#EF986C" d="M794.39,861.85c-0.02,0-0.04,0-0.06-0.002c-0.899-0.063-1.771-0.422-2.454-1.01l-6.204-5.039h-3.299
			c-2.188-0.003-3.975-1.785-3.984-3.972c-0.322-3.016-0.322-6.161,0.005-9.263c0.132-2.086,1.837-3.727,3.961-3.781l3.319,0
			l6.086-4.964c0.711-0.604,1.594-0.984,2.54-1.086c0.038-0.004,0.076-0.008,0.115-0.004c1.744,0.049,3.23,1.272,3.612,2.976
			c0.218,1.042,0.368,2.093,0.45,3.137c0.296,5.613,0.296,11.284,0.001,16.878c-0.073,1.063-0.225,2.119-0.45,3.151
			c-0.383,1.708-1.869,2.932-3.615,2.979C794.406,861.85,794.398,861.85,794.39,861.85z M782.378,840.484
			c-1.217,0.031-2.21,0.987-2.29,2.224c-0.317,3.018-0.317,6.043-0.003,9.028c0.01,1.34,1.035,2.361,2.29,2.364h3.599
			c0.195,0,0.384,0.066,0.536,0.189l6.457,5.244c0.416,0.357,0.919,0.57,1.441,0.615c0.95-0.044,1.753-0.716,1.961-1.646
			c0.207-0.946,0.346-1.919,0.413-2.887c0.291-5.52,0.291-11.131,0-16.664c-0.075-0.951-0.215-1.929-0.415-2.888
			c-0.205-0.913-1-1.583-1.942-1.634c-0.583,0.074-1.127,0.314-1.576,0.695l-6.333,5.167c-0.151,0.124-0.341,0.191-0.537,0.191
			H782.378z"/>
	</g>
	<g id="Group_1460">
		
			<line id="Line_367" fill="none" stroke="#EF986C" stroke-width="1.7" stroke-linecap="round" x1="814.5" y1="842.5" x2="803.5" y2="853.336"/>
		
			<line id="Line_368" fill="none" stroke="#EF986C" stroke-width="1.7" stroke-linecap="round" x1="814.336" y1="853.5" x2="803.5" y2="842.5"/>
	</g>
</g>
</svg>
