<svg width="28" height="22" viewBox="0 0 28 22" fill="none" xmlns="http://www.w3.org/2000/svg">
<path d="M15.9766 21.1121C15.5779 21.1119 15.184 21.0246 14.8226 20.8561C14.3513 20.64 13.9525 20.2925 13.674 19.8552C13.3954 19.4179 13.2491 18.9095 13.2526 18.3911L13.2326 15.6761C9.59558 15.1861 6.47158 15.7021 4.15958 17.1711C3.70661 17.4562 3.17947 17.601 2.64444 17.5872C2.10941 17.5735 1.59037 17.4019 1.15261 17.094C0.714843 16.7861 0.377889 16.3556 0.184119 15.8567C-0.00965142 15.3578 -0.0515875 14.8128 0.0635842 14.2901C1.44858 8.0981 5.31258 4.4011 10.3986 4.4011C11.3601 4.40048 12.3183 4.51496 13.2526 4.74211V2.7171C13.2524 2.19965 13.4 1.69291 13.678 1.25652C13.9561 0.820122 14.353 0.472243 14.8221 0.253823C15.2912 0.0354025 15.813 -0.0444684 16.3259 0.0236107C16.8389 0.0916898 17.3217 0.304885 17.7176 0.638105L27.0316 8.47511C27.3347 8.72995 27.5783 9.04801 27.7455 9.40697C27.9126 9.76594 27.9993 10.1571 27.9993 10.5531C27.9993 10.9491 27.9126 11.3403 27.7455 11.6992C27.5783 12.0582 27.3347 12.3763 27.0316 12.6311L17.7176 20.4681C17.2316 20.8818 16.6148 21.1099 15.9766 21.1121ZM10.6616 13.3651C11.9357 13.37 13.207 13.4841 14.4616 13.7061C14.7052 13.7483 14.9266 13.874 15.0877 14.0615C15.2488 14.2491 15.3396 14.4869 15.3446 14.7341L15.3816 18.3901C15.3797 18.5025 15.4111 18.6129 15.4718 18.7076C15.5324 18.8022 15.6197 18.8768 15.7226 18.9221C15.8234 18.9717 15.9367 18.9901 16.048 18.9749C16.1594 18.9598 16.2637 18.9118 16.3476 18.8371L25.6626 11.0001C25.7284 10.945 25.7813 10.8762 25.8176 10.7984C25.8539 10.7207 25.8727 10.6359 25.8727 10.5501C25.8727 10.4643 25.8539 10.3795 25.8176 10.3018C25.7813 10.224 25.7284 10.1552 25.6626 10.1001L16.3476 2.2671C16.2618 2.19578 16.1576 2.15032 16.0469 2.13602C15.9363 2.12173 15.8239 2.13919 15.7229 2.18637C15.6218 2.23354 15.5362 2.30849 15.4762 2.40247C15.4161 2.49645 15.384 2.60557 15.3836 2.7171V6.1851C15.3837 6.35758 15.3419 6.52751 15.2618 6.68024C15.1816 6.83297 15.0656 6.96393 14.9236 7.06184C14.7816 7.15975 14.6179 7.22167 14.4467 7.24228C14.2754 7.26288 14.1017 7.24154 13.9406 7.1801C12.8102 6.74895 11.6104 6.52831 10.4006 6.5291C4.60858 6.5291 2.70058 12.2811 2.14258 14.7541C2.11648 14.8666 2.12539 14.9843 2.16811 15.0915C2.21082 15.1988 2.28531 15.2904 2.38158 15.3541C2.47269 15.4224 2.58263 15.4609 2.69643 15.4645C2.81023 15.4681 2.92237 15.4365 3.01758 15.3741C5.31949 13.9835 7.97337 13.2856 10.6616 13.3641V13.3651Z" fill="#305671"/>
</svg>
