<svg width="26" height="26" viewBox="0 0 26 26" fill="none" xmlns="http://www.w3.org/2000/svg">
<g clip-path="url(#clip0_254_27744)">
<path d="M21.1002 22.645L20.1294 19.7321C19.7901 18.7152 18.9245 17.9646 17.8695 17.7725L15.0669 17.2626V17.0453C15.5546 16.7623 15.979 16.3836 16.317 15.9353H17.1637C17.8573 15.9353 18.4217 15.3708 18.4217 14.6772V9.64497C18.4217 6.63904 15.9761 4.19336 12.9701 4.19336C9.96419 4.19336 7.51852 6.63904 7.51852 9.64497V12.5805C7.51852 13.389 8.09345 14.0654 8.85584 14.2231C9.0911 15.4283 9.84426 16.4482 10.8734 17.0453V17.2626L8.07039 17.7725C7.01571 17.9646 6.14974 18.7152 5.8109 19.7321L5.64316 20.2358L4.21484 18.8075C4.05129 18.6439 4.05129 18.3776 4.21484 18.2141L5.87129 16.558L2.76219 13.4489L0.890195 15.3209C0.335808 15.8753 0.0305176 16.6126 0.0305176 17.3967C0.0305176 18.1809 0.335808 18.9177 0.890195 19.4721L6.55778 25.1397C7.11216 25.6941 7.84939 25.9998 8.63358 25.9998C9.41778 25.9998 10.1546 25.6941 10.696 25.1523L12.7386 23.2807L12.1016 22.645H21.1002ZM17.583 14.6772C17.583 14.9087 17.3947 15.0966 17.1637 15.0966H16.811C16.9326 14.8194 17.0249 14.5271 17.0844 14.2231C17.2639 14.1857 17.4291 14.1145 17.583 14.0247V14.6772ZM17.1637 13.3026V11.8583C17.4132 12.0038 17.583 12.2714 17.583 12.5805C17.583 12.8895 17.4132 13.1571 17.1637 13.3026ZM8.77658 13.3026C8.52707 13.1571 8.35723 12.8895 8.35723 12.5805C8.35723 12.2714 8.52707 12.0038 8.77658 11.8583V13.3026ZM8.77658 10.4837V10.9626C8.62729 11.0016 8.48723 11.0603 8.35723 11.1362V9.64497C8.35723 7.10159 10.4267 5.03207 12.9701 5.03207C15.5135 5.03207 17.583 7.10159 17.583 9.64497V11.1362C17.453 11.0603 17.313 11.0012 17.1637 10.9626V10.4837H16.7443C15.5043 10.4837 14.3385 10.0006 13.4612 9.12371L12.9701 8.63265L12.4791 9.12371C11.6018 10.0006 10.436 10.4837 9.19594 10.4837H8.77658ZM9.61529 13.4192V11.3065C10.8746 11.2117 12.0488 10.6921 12.9701 9.81607C13.8915 10.6921 15.0656 11.2121 16.325 11.3065V13.4192C16.325 14.0306 16.1581 14.6026 15.8712 15.0966H12.9701V15.9353H15.1818C14.5905 16.4557 13.8176 16.774 12.9701 16.774C11.1204 16.774 9.61529 15.2689 9.61529 13.4192ZM14.2282 17.4194V17.4391L12.9701 18.6972L11.7121 17.4391V17.4194C12.1096 17.5444 12.5319 17.6127 12.9701 17.6127C13.4084 17.6127 13.8306 17.5444 14.2282 17.4194ZM6.606 19.9972C6.84797 19.2708 7.46652 18.7345 8.2201 18.5969L11.1514 18.0644L12.9701 19.8831L14.7885 18.0648L17.7193 18.5974C18.4729 18.7349 19.0915 19.2708 19.3334 19.9976L19.9369 21.8063H11.2629L9.62955 20.1729L7.81458 21.8147C7.65649 21.9736 7.38013 21.9736 7.22161 21.8147L6.30574 20.8988L6.606 19.9972ZM2.76178 14.6349L4.68494 16.558L4.22952 17.0135L2.30636 15.0903L2.76178 14.6349ZM10.1152 24.5476C9.71929 24.9426 9.19258 25.1611 8.63274 25.1611C8.0729 25.1611 7.54619 24.9426 7.1499 24.5467L1.48232 18.8796C1.08645 18.4837 0.868388 17.957 0.868388 17.3972C0.868388 16.8369 1.08645 16.3102 1.48232 15.9143L1.71297 15.6837L3.63613 17.6068L3.62103 17.6219C3.13081 18.1126 3.13081 18.9106 3.62103 19.4013L6.62823 22.4085C6.866 22.6458 7.18178 22.7771 7.5181 22.7771C7.85442 22.7771 8.17019 22.6462 8.39245 22.4231L8.4239 22.395L10.3559 24.327L10.1152 24.5476ZM10.9748 23.7592L9.04707 21.8314L9.60103 21.3307L11.5255 23.2551L10.9748 23.7592Z" fill="#9BAEBC"/>
<path d="M24.712 0H18.8411C18.1475 0 17.583 0.564452 17.583 1.25806V4.6129C17.583 5.30652 18.1475 5.87097 18.8411 5.87097H19.9612L19.5276 8.4001L23.5743 5.87097H24.712C25.4057 5.87097 25.9701 5.30652 25.9701 4.6129V1.25806C25.9701 0.564452 25.4057 0 24.712 0ZM25.1314 4.6129C25.1314 4.84397 24.9431 5.03226 24.712 5.03226H23.3336L20.6703 6.69668L20.9559 5.03226H18.8411C18.61 5.03226 18.4217 4.84397 18.4217 4.6129V1.25806C18.4217 1.027 18.61 0.83871 18.8411 0.83871H24.712C24.9431 0.83871 25.1314 1.027 25.1314 1.25806V4.6129Z" fill="#9BAEBC"/>
<path d="M24.293 1.67725H19.2607V2.51596H24.293V1.67725Z" fill="#9BAEBC"/>
<path d="M22.6156 3.35498H19.2607V4.19369H22.6156V3.35498Z" fill="#9BAEBC"/>
<path d="M24.2926 3.35498H23.4539V4.19369H24.2926V3.35498Z" fill="#9BAEBC"/>
<path d="M12.9703 1.25781C7.49101 1.25781 2.77118 5.04794 1.54414 10.3347L0.749467 9.01001L0.0302734 9.44152L1.50431 11.8977L3.96047 10.4237L3.52895 9.70446L2.3925 10.3863C3.58095 5.54991 7.93008 2.09652 12.9703 2.09652C14.072 2.09652 15.1589 2.26007 16.201 2.58297L16.4493 1.78201C15.3267 1.43394 14.1562 1.25781 12.9703 1.25781Z" fill="#9BAEBC"/>
<path d="M25.7662 9.28556L23.3101 7.81152L21.8364 10.2681L22.5556 10.6996L23.2895 9.47636C23.6757 10.6065 23.8732 11.7887 23.8732 13.0002C23.8732 15.4941 23.0094 17.9322 21.4414 19.865L22.0927 20.3934C23.7818 18.3117 24.712 15.6857 24.712 13.0002C24.712 11.7174 24.5052 10.4648 24.1022 9.26543L25.3347 10.0047L25.7662 9.28556Z" fill="#9BAEBC"/>
</g>
<defs>
<clipPath id="clip0_254_27744">
<rect width="26" height="26" fill="white"/>
</clipPath>
</defs>
</svg>
