<svg width="92" height="92" viewBox="0 0 92 92" fill="none" xmlns="http://www.w3.org/2000/svg">
<path d="M16.1871 74.3281H13.9609V76.125H16.1871V74.3281Z" fill="#C8D3DB"/>
<path d="M61.4755 52.4746H35.8262V54.2715H61.4755V52.4746Z" fill="#C8D3DB"/>
<path d="M34.0141 52.4746H31.959V54.2715H34.0141V52.4746Z" fill="#C8D3DB"/>
<path d="M48.7395 61.917H31.959V63.7139H48.7395V61.917Z" fill="#C8D3DB"/>
<path d="M61.4764 57.1963H58.166V58.9932H61.4764V57.1963Z" fill="#C8D3DB"/>
<path d="M55.8495 57.1963H31.959V58.9932H55.8495V57.1963Z" fill="#C8D3DB"/>
<path d="M73.9043 53.373H72.1074V59.9025H73.9043V53.373Z" fill="#C8D3DB"/>
<path d="M73.9039 41.6611H8.69531V72.6809H61.0194V70.8841H10.4922V43.458H72.107V50.7634H73.9039V41.6611Z" fill="#C8D3DB"/>
<path d="M10.8794 31.0308L12.0016 36.2788L13.7587 35.9031L13.0123 32.4121L80.3628 18.0069L85.0023 39.6972L77.449 41.3129V38.2171H54.0416L69.4822 34.915L69.1063 33.1578L45.4495 38.2171H18.0522L17.3644 35.0032L77.6154 22.1162L79.1434 29.2607L80.9008 28.8848L78.9968 19.9833L15.2315 33.6219L16.2147 38.2171H4.98047V76.1254H11.5621V74.3285H6.77734V40.014H75.6521V62.1935H64.5325V70.4166H66.3294V63.9904H74.5086L65.0358 74.3285H18.4969V76.1254H65.8264L77.449 63.4413V43.1502L84.2376 41.6982L78.5769 51.1576L80.1186 52.0803L87.0211 40.5457L81.7442 15.874L10.8794 31.0308Z" fill="#C8D3DB"/>
<path d="M82.8086 37.8215L81.4434 31.4365L79.686 31.8123L81.0513 38.1973L82.8086 37.8215Z" fill="#C8D3DB"/>
<path d="M21.0118 56.275H20.9491V52.5181H24.6537V50.7212H20.9491V47.0908H19.1522V50.721H19.0658C17.0053 50.721 15.3287 52.3699 15.3287 54.3962C15.3287 56.4229 17.0053 58.0717 19.0658 58.0717H19.1522V62.0733H15.2988V63.8702H19.1522V67.2525H20.9491V63.8702H21.0118C23.1415 63.8702 24.8738 62.1666 24.8738 60.0725C24.8738 57.9784 23.1413 56.275 21.0118 56.275ZM19.0656 56.275C17.9958 56.275 17.1254 55.4324 17.1254 54.3964C17.1254 53.3607 17.9958 52.5181 19.0656 52.5181H19.152V56.275H19.0656ZM21.0118 62.0733H20.9491V58.0717H21.0118C22.1505 58.0717 23.077 58.9692 23.077 60.0725C23.077 61.1758 22.1503 62.0733 21.0118 62.0733Z" fill="#C8D3DB"/>
</svg>
