<svg width="141" height="138" viewBox="0 0 141 138" fill="none" xmlns="http://www.w3.org/2000/svg">
<path d="M119.085 27.6813C118.787 27.6813 118.546 27.9223 118.546 28.2201C118.546 28.5169 118.787 28.758 119.085 28.758C119.382 28.758 119.623 28.5169 119.623 28.2201C119.623 27.9223 119.382 27.6813 119.085 27.6813ZM119.085 29.3765C118.447 29.3765 117.928 28.8576 117.928 28.2201C117.928 27.5817 118.447 27.0628 119.085 27.0628C119.722 27.0628 120.241 27.5817 120.241 28.2201C120.241 28.8576 119.722 29.3765 119.085 29.3765Z" fill="#9BAEBC"/>
<path d="M97.0605 62.1614C97.0246 62.1007 96.9669 62.0569 96.8982 62.0389C96.8294 62.022 96.7577 62.032 96.697 62.0678L95.8155 62.5887L95.2946 61.7073C95.2578 61.6465 95.201 61.6027 95.1323 61.5848C95.0626 61.5678 94.9918 61.5778 94.9301 61.6136C94.8693 61.6495 94.8265 61.7073 94.8086 61.776C94.7906 61.8447 94.8006 61.9164 94.8375 61.9772L95.3574 62.8586L94.4759 63.3795C94.4152 63.4164 94.3723 63.4742 94.3544 63.5429C94.3365 63.6106 94.3465 63.6823 94.3823 63.7441C94.4192 63.8048 94.4769 63.8476 94.5456 63.8656C94.6144 63.8835 94.6851 63.8735 94.7468 63.8377L95.6283 63.3168L96.1492 64.1982C96.2079 64.2978 96.3215 64.3446 96.4291 64.3237C96.4579 64.3177 96.4858 64.3068 96.5127 64.2918C96.6392 64.2171 96.681 64.0538 96.6063 63.9273L96.0854 63.0459L96.9669 62.525C97.0934 62.4503 97.1352 62.2879 97.0605 62.1614Z" fill="#9BAEBC"/>
<path d="M99.296 66.3019C98.9992 66.3019 98.7572 66.5429 98.7572 66.8407C98.7572 67.1375 98.9992 67.3786 99.296 67.3786C99.5928 67.3786 99.8348 67.1375 99.8348 66.8407C99.8348 66.5429 99.5928 66.3019 99.296 66.3019ZM99.296 67.9971C98.6576 67.9971 98.1387 67.4782 98.1387 66.8407C98.1387 66.2023 98.6576 65.6834 99.296 65.6834C99.9334 65.6834 100.453 66.2023 100.453 66.8407C100.453 67.4782 99.9334 67.9971 99.296 67.9971Z" fill="#9BAEBC"/>
<path d="M135.488 104.646C135.425 104.677 135.377 104.732 135.353 104.798C135.33 104.865 135.335 104.938 135.366 105.002L135.814 105.922L134.894 106.37C134.83 106.401 134.782 106.456 134.759 106.522C134.735 106.59 134.74 106.662 134.771 106.726C134.802 106.789 134.856 106.837 134.924 106.86C134.99 106.883 135.062 106.879 135.126 106.848L136.047 106.4L136.495 107.32C136.526 107.384 136.58 107.432 136.648 107.455C136.714 107.478 136.786 107.474 136.851 107.443C136.915 107.411 136.962 107.357 136.985 107.29C137.008 107.223 137.004 107.151 136.972 107.087L136.524 106.167L137.444 105.719C137.549 105.668 137.605 105.557 137.592 105.449C137.589 105.42 137.581 105.391 137.567 105.363C137.503 105.232 137.344 105.177 137.212 105.241L136.292 105.689L135.843 104.768C135.779 104.637 135.62 104.582 135.488 104.646Z" fill="#9BAEBC"/>
<path d="M111.435 125.665C111.138 125.665 110.896 125.906 110.896 126.204C110.896 126.501 111.138 126.742 111.435 126.742C111.731 126.742 111.974 126.501 111.974 126.204C111.974 125.906 111.731 125.665 111.435 125.665ZM111.435 127.36C110.797 127.36 110.277 126.841 110.277 126.204C110.277 125.566 110.797 125.047 111.435 125.047C112.073 125.047 112.592 125.566 112.592 126.204C112.592 126.841 112.073 127.36 111.435 127.36Z" fill="#9BAEBC"/>
<path d="M0.187681 118.26C0.134894 118.308 0.104011 118.373 0.100027 118.443C0.0960427 118.514 0.119954 118.583 0.167761 118.636L0.851003 119.398L0.0890747 120.081C0.0352915 120.129 0.00441214 120.193 0.000428199 120.264C-0.00355574 120.336 0.0203557 120.404 0.0681629 120.456C0.11597 120.509 0.180713 120.54 0.251428 120.544C0.322143 120.548 0.390854 120.524 0.443641 120.477L1.20557 119.793L1.88881 120.556C1.93662 120.609 2.00136 120.64 2.07208 120.644C2.14379 120.648 2.21152 120.624 2.26431 120.576C2.3171 120.529 2.34796 120.463 2.35194 120.393C2.35593 120.322 2.33203 120.253 2.28423 120.201L1.60099 119.438L2.36391 118.755C2.44956 118.678 2.47345 118.557 2.43162 118.455C2.42067 118.429 2.40474 118.403 2.38383 118.38C2.28622 118.271 2.11789 118.261 2.00833 118.36L1.2464 119.043L0.563159 118.281C0.465553 118.172 0.297239 118.163 0.187681 118.26Z" fill="#9BAEBC"/>
<path d="M22.714 135.399C22.4172 135.399 22.1751 135.64 22.1751 135.937C22.1751 136.235 22.4172 136.476 22.714 136.476C23.0108 136.476 23.2528 136.235 23.2528 135.937C23.2528 135.64 23.0108 135.399 22.714 135.399ZM22.714 137.094C22.0755 137.094 21.5566 136.575 21.5566 135.937C21.5566 135.299 22.0755 134.781 22.714 134.781C23.3524 134.781 23.8713 135.299 23.8713 135.937C23.8713 136.575 23.3524 137.094 22.714 137.094Z" fill="#9BAEBC"/>
<path d="M1.76849 48.104C1.71669 48.1528 1.68781 48.2186 1.68482 48.2893C1.68283 48.36 1.70873 48.4278 1.75654 48.4795L2.45772 49.2265L1.71073 49.9267C1.65894 49.9755 1.62906 50.0412 1.62706 50.112C1.62507 50.1827 1.64996 50.2504 1.69877 50.3022C1.74757 50.354 1.8133 50.3839 1.88402 50.3859C1.95473 50.3879 2.02247 50.3629 2.07426 50.3141L2.82125 49.613L3.52142 50.3599C3.57022 50.4117 3.63595 50.4416 3.70667 50.4436C3.77738 50.4466 3.84512 50.4207 3.89692 50.3719C3.94871 50.3241 3.97857 50.2584 3.98056 50.1867C3.98255 50.1159 3.95766 50.0482 3.90886 49.9964L3.20868 49.2504L3.95566 48.5493C4.03933 48.4706 4.06026 48.3491 4.01643 48.2485C4.00448 48.2216 3.98854 48.1967 3.96763 48.1738C3.86703 48.0672 3.6987 48.0622 3.59213 48.1618L2.84514 48.863L2.14398 48.116C2.04439 48.0094 1.87605 48.0034 1.76849 48.104Z" fill="#9BAEBC"/>
<path d="M9.505 54.4865C9.2082 54.4865 8.96618 54.7275 8.96618 55.0253C8.96618 55.3221 9.2082 55.5631 9.505 55.5631C9.8018 55.5631 10.0438 55.3221 10.0438 55.0253C10.0438 54.7275 9.8018 54.4865 9.505 54.4865ZM9.505 56.1816C8.86757 56.1816 8.34766 55.6627 8.34766 55.0253C8.34766 54.3869 8.86757 53.868 9.505 53.868C10.1434 53.868 10.6623 54.3869 10.6623 55.0253C10.6623 55.6627 10.1434 56.1816 9.505 56.1816Z" fill="#9BAEBC"/>
<path d="M138.917 57.8186C138.847 57.8286 138.785 57.8654 138.743 57.9222C138.7 57.979 138.682 58.0497 138.692 58.1194L138.838 59.1333L137.825 59.2787C137.755 59.2897 137.693 59.3265 137.65 59.3833C137.608 59.4401 137.59 59.5098 137.6 59.5795C137.61 59.6503 137.647 59.712 137.704 59.7548C137.761 59.7977 137.83 59.8156 137.901 59.8046L138.914 59.6582L139.06 60.6721C139.07 60.7428 139.107 60.8046 139.164 60.8474C139.221 60.8892 139.292 60.9072 139.361 60.8972C139.432 60.8873 139.494 60.8504 139.537 60.7936C139.578 60.7359 139.596 60.6662 139.586 60.5964L139.44 59.5825L140.454 59.4371C140.568 59.4202 140.655 59.3325 140.676 59.225C140.682 59.1961 140.683 59.1662 140.679 59.1353C140.658 58.9909 140.523 58.8903 140.378 58.9112L139.364 59.0566L139.218 58.0437C139.197 57.8983 139.062 57.7977 138.917 57.8186Z" fill="#9BAEBC"/>
<path d="M56.6639 11.0086C56.5932 11.0007 56.5235 11.0206 56.4687 11.0654C56.4139 11.1102 56.3791 11.174 56.3711 11.2447L56.2635 12.2626L55.2446 12.154C55.1739 12.1461 55.1052 12.167 55.0504 12.2118C54.9947 12.2556 54.9598 12.3194 54.9528 12.3901C54.9449 12.4608 54.9658 12.5295 55.0106 12.5853C55.0544 12.6401 55.1182 12.6749 55.1889 12.6819L56.2068 12.7905L56.0982 13.8084C56.0912 13.8791 56.1112 13.9488 56.156 14.0036C56.2008 14.0594 56.2635 14.0932 56.3343 14.1012C56.405 14.1082 56.4737 14.0882 56.5295 14.0434C56.5842 13.9986 56.6191 13.9359 56.6271 13.8651L56.7347 12.8473L57.7535 12.9558C57.8681 12.9677 57.9737 12.904 58.0215 12.8054C58.0334 12.7785 58.0424 12.7496 58.0454 12.7198C58.0613 12.5733 57.9547 12.4429 57.8093 12.4269L56.7914 12.3184L56.9 11.3005C56.9149 11.1551 56.8093 11.0236 56.6639 11.0086Z" fill="#9BAEBC"/>
<path d="M113.052 7.62939e-06C110.397 7.62939e-06 108.246 2.15134 108.246 4.80563V49.2066C108.246 52.6896 105.421 55.5142 101.937 55.5142H70.6113V5.95897C70.6113 2.66724 73.2796 7.62939e-06 76.5703 7.62939e-06H113.052Z" fill="#E3EAEF"/>
<path d="M101.937 55.5142H86.0176V28.765C86.0176 26.1107 88.1699 23.9584 90.8242 23.9584C92.1508 23.9584 93.353 24.4962 94.2225 25.3667C95.092 26.2362 95.6298 27.4374 95.6298 28.765V49.2066C95.6298 52.6896 98.4544 55.5142 101.937 55.5142Z" fill="#9BAEBC"/>
<path d="M90.8227 23.9586C88.1684 23.9586 86.0161 26.1109 86.0161 28.7652V118.254C86.0161 119.9 85.3488 121.39 84.2701 122.467C83.1924 123.546 81.7025 124.213 80.0571 124.213H33.8086C30.5168 124.213 27.8496 121.545 27.8496 118.254V29.9176C27.8496 26.6268 30.5168 23.9586 33.8086 23.9586H90.8227Z" fill="#E3EAEF"/>
<rect x="41" y="47" width="32" height="5" rx="2.5" fill="#9BAEBC"/>
<rect x="41" y="60" width="28" height="5" rx="2.5" fill="#9BAEBC"/>
<rect x="41" y="73" width="22" height="5" rx="2.5" fill="#9BAEBC"/>
<rect x="41" y="86" width="16" height="5" rx="2.5" fill="#9BAEBC"/>
<path d="M70.6113 24.1328H90.8238" stroke="#9BAEBC" stroke-miterlimit="10"/>
<path d="M80.0584 124.213H20.3223C17.0315 124.213 14.3633 121.545 14.3633 118.254V114.6H74.0994V118.254C74.0994 121.545 76.7667 124.213 80.0584 124.213Z" fill="#9BAEBC"/>
<g filter="url(#filter0_d_2686_1239)">
<path d="M112.925 112.663V112.664C112.04 113.548 110.605 113.548 109.719 112.664L95.9599 98.9023L94.2109 97.1544C95.4838 96.3137 96.5754 95.2221 97.416 93.9493L112.925 109.459C113.81 110.343 113.81 111.778 112.925 112.663Z" fill="#9BAEBC"/>
</g>
<path d="M98.1133 94.6454L101.699 98.2319C100.859 99.5048 99.7676 100.596 98.4948 101.437H98.4937L96.6572 99.5994L94.9082 97.8515C96.1811 97.0109 97.2727 95.9183 98.1133 94.6454Z" fill="#305671"/>
<g filter="url(#filter1_d_2686_1239)">
<path d="M88.0302 99.0048C85.5711 99.0048 83.2973 98.215 81.4468 96.8754C79.651 95.5756 78.2546 93.756 77.4768 91.6385C77.0346 90.4324 76.7925 89.1276 76.7925 87.7671C76.7925 87.2562 76.8274 86.7522 76.8931 86.2582C77.4529 82.091 80.2964 78.6469 84.123 77.2276C85.3401 76.7765 86.6568 76.5294 88.0302 76.5294C88.5272 76.5294 89.0172 76.5613 89.4973 76.6251C91.7751 76.9209 93.8388 77.8999 95.4772 79.3501C97.8028 81.4098 99.2689 84.4166 99.2689 87.7671C99.2689 87.9384 99.2649 88.1088 99.2569 88.2781C99.2201 89.1028 99.0946 89.9045 98.8884 90.6744C98.5737 91.8537 98.0727 92.9562 97.4174 93.9492C96.5768 95.2221 95.4852 96.3137 94.2123 97.1543C93.9005 97.3604 93.5769 97.5507 93.2432 97.726C92.5321 98.0985 91.7751 98.3983 90.9833 98.6124C90.0421 98.8684 89.0521 99.0048 88.0302 99.0048ZM101.687 87.1775C101.663 86.5979 101.602 86.0271 101.507 85.4674C100.968 82.2862 99.3307 79.4785 96.9981 77.4507C94.5977 75.3621 91.4614 74.0972 88.0302 74.0972C80.4817 74.0972 74.3613 80.2176 74.3613 87.7671C74.3613 88.29 74.3912 88.8059 74.448 89.3129C74.6263 90.9035 75.0784 92.4114 75.7557 93.7888C76.7278 95.7679 78.166 97.478 79.9259 98.7757C80.2118 98.9869 80.5066 99.1871 80.8083 99.3753C82.9049 100.682 85.3799 101.437 88.0302 101.437C90.9873 101.437 93.7243 100.499 95.9602 98.9032C95.9602 98.9032 95.9612 98.9032 95.9612 98.9022C97.1993 98.0198 98.2829 96.9362 99.1663 95.6982V95.6971C100.054 94.4532 100.738 93.0548 101.17 91.5499C101.515 90.3487 101.7 89.0798 101.7 87.7671C101.7 87.5699 101.696 87.3737 101.687 87.1775Z" fill="#9BAEBC"/>
</g>
<path d="M79.5195 89.0029C78.9398 89.0029 78.4707 88.5328 78.4707 87.9532C78.4707 85.3507 79.4836 82.9035 81.3252 81.062C83.1658 79.2214 85.6129 78.2085 88.2154 78.2085C88.7951 78.2085 89.2652 78.6776 89.2652 79.2572C89.2652 79.8369 88.7951 80.307 88.2154 80.307C86.1736 80.307 84.2534 81.1028 82.8092 82.547C81.365 83.9911 80.5692 85.9114 80.5692 87.9532C80.5692 88.5328 80.0991 89.0029 79.5195 89.0029Z" fill="white"/>
<defs>
<filter id="filter0_d_2686_1239" x="90.2109" y="91.9492" width="27.377" height="27.3779" filterUnits="userSpaceOnUse" color-interpolation-filters="sRGB">
<feFlood flood-opacity="0" result="BackgroundImageFix"/>
<feColorMatrix in="SourceAlpha" type="matrix" values="0 0 0 0 0 0 0 0 0 0 0 0 0 0 0 0 0 0 127 0" result="hardAlpha"/>
<feOffset dy="2"/>
<feGaussianBlur stdDeviation="2"/>
<feComposite in2="hardAlpha" operator="out"/>
<feColorMatrix type="matrix" values="0 0 0 0 0 0 0 0 0 0 0 0 0 0 0 0 0 0 0.25 0"/>
<feBlend mode="normal" in2="BackgroundImageFix" result="effect1_dropShadow_2686_1239"/>
<feBlend mode="normal" in="SourceGraphic" in2="effect1_dropShadow_2686_1239" result="shape"/>
</filter>
<filter id="filter1_d_2686_1239" x="70.3613" y="72.0972" width="35.3379" height="35.3398" filterUnits="userSpaceOnUse" color-interpolation-filters="sRGB">
<feFlood flood-opacity="0" result="BackgroundImageFix"/>
<feColorMatrix in="SourceAlpha" type="matrix" values="0 0 0 0 0 0 0 0 0 0 0 0 0 0 0 0 0 0 127 0" result="hardAlpha"/>
<feOffset dy="2"/>
<feGaussianBlur stdDeviation="2"/>
<feComposite in2="hardAlpha" operator="out"/>
<feColorMatrix type="matrix" values="0 0 0 0 0 0 0 0 0 0 0 0 0 0 0 0 0 0 0.25 0"/>
<feBlend mode="normal" in2="BackgroundImageFix" result="effect1_dropShadow_2686_1239"/>
<feBlend mode="normal" in="SourceGraphic" in2="effect1_dropShadow_2686_1239" result="shape"/>
</filter>
</defs>
</svg>
