<svg width="57" height="60" viewBox="0 0 57 60" fill="none" xmlns="http://www.w3.org/2000/svg">
<ellipse cx="28.2959" cy="31.3072" rx="28.2959" ry="27.6939" fill="#FFE3AE"/>
<mask id="mask0_12370_4829" style="mask-type:alpha" maskUnits="userSpaceOnUse" x="0" y="3" width="57" height="57">
<ellipse cx="28.2959" cy="31.3072" rx="28.2959" ry="27.6939" fill="#FFEBC3"/>
</mask>
<g mask="url(#mask0_12370_4829)">
<ellipse cx="18.6642" cy="22.8786" rx="19.8673" ry="19.2653" fill="#FCDA9A"/>
</g>
<circle cx="19.5671" cy="19.5671" r="18.0612" fill="#D58445"/>
<circle cx="18.6633" cy="18.6633" r="16.2551" fill="#F4EADE"/>
<path d="M19.5258 0C15.6639 0 11.8888 1.14517 8.67784 3.29068C5.46684 5.4362 2.96418 8.48571 1.48632 12.0536C0.00846002 15.6214 -0.378215 19.5474 0.375191 23.335C1.1286 27.1227 2.98824 30.6018 5.71897 33.3326C8.4497 36.0633 11.9289 37.9229 15.7165 38.6763C19.5041 39.4297 23.4301 39.0431 26.998 37.5652C30.5658 36.0874 33.6153 33.5847 35.7608 30.3737C37.9064 27.1627 39.0515 23.3876 39.0515 19.5258C39.045 14.3492 36.9857 9.38659 33.3253 5.72623C29.6649 2.06586 24.7023 0.00657617 19.5258 0ZM19.5258 35.5031C16.3657 35.5031 13.2767 34.5661 10.6492 32.8105C8.02175 31.0548 5.97389 28.5595 4.7646 25.64C3.55531 22.7206 3.2389 19.508 3.85539 16.4087C4.47188 13.3094 5.99358 10.4625 8.22806 8.22805C10.4625 5.99357 13.3094 4.47187 16.4087 3.85538C19.508 3.23889 22.7206 3.5553 25.64 4.76459C28.5595 5.97388 31.0549 8.02174 32.8105 10.6492C34.5661 13.2767 35.5031 16.3657 35.5031 19.5258C35.4988 23.7619 33.814 27.8232 30.8186 30.8186C27.8232 33.814 23.7619 35.4988 19.5258 35.5031Z" fill="#B06328"/>
<path d="M49.1858 46.6723L38.5434 36.0216C38.3803 35.8493 38.1843 35.7115 37.967 35.6162C37.7497 35.521 37.5156 35.4702 37.2783 35.467C37.0411 35.4637 36.8056 35.5081 36.5858 35.5974C36.366 35.6866 36.1663 35.8191 35.9986 35.9869C35.8308 36.1546 35.6984 36.3543 35.6091 36.5741C35.5198 36.7939 35.4754 37.0294 35.4787 37.2666C35.4819 37.5038 35.5327 37.738 35.6279 37.9553C35.7232 38.1726 35.861 38.3686 36.0333 38.5317L46.6868 49.1824C47.0226 49.5004 47.4693 49.6748 47.9318 49.6684C48.3942 49.6621 48.836 49.4756 49.163 49.1486C49.4901 48.8215 49.6766 48.3798 49.6829 47.9173C49.6892 47.4548 49.5148 47.0081 49.1969 46.6723H49.1858Z" fill="#B06328"/>
<path d="M16.8552 10.4295C23.3687 7.34874 19.2908 6.29716 16.1432 7.02175C11.7066 8.04308 8.26834 12.1518 7.06162 16.6553C6.45827 18.9071 7.13125 24.257 9.89305 18.2174C11.8589 13.9184 12.8668 12.3951 16.8552 10.4295Z" fill="white" stroke="white"/>
</svg>
