<svg xmlns="http://www.w3.org/2000/svg" width="13.749" height="13.567" viewBox="0 0 13.749 13.567"><defs><style>.a{fill:#fff;stroke:#fff;stroke-width:0.2px;}</style></defs><g transform="translate(-23.297 -27.79)"><path class="a" d="M36.894,29.372a.359.359,0,0,0-.174-.477l-2.08-.97a.359.359,0,0,0-.477.174l-1.076,2.307-.526-1.545a.359.359,0,0,0-.34-.243H25.159a.359.359,0,0,0-.279.132l-1.4,1.718a.359.359,0,0,0-.062.343l3.473,10.2a.359.359,0,0,0,.34.243h7.589a.359.359,0,1,0,0-.718H27.49l-3.229-9.484h1.694a.359.359,0,0,0,.326-.51l-.56-1.209h6.243l.684,2.011-2.39,5.125a.359.359,0,0,0-.031.188h0l.226,2.23a.359.359,0,0,0,.559.261l1.854-1.261h0a.357.357,0,0,0,.124-.145l1.062-2.277,1.888,5.546a.359.359,0,0,0,.68-.231L34.49,34.527Zm-12.379.964.559-.687.318.687Zm10.147-1.608,1.429.666-.328.7-1.429-.666Zm-3.657,8.488.934.436-.833.566Zm1.485-.1-1.429-.666,2.969-6.366,1.429.666Z"/><path class="a" d="M527.687,208.74l-1.452,3.114a.359.359,0,1,0,.651.3l1.452-3.114a.359.359,0,0,0-.651-.3Z" transform="translate(-493.771 -177.398)"/><path class="a" d="M498.318,437.083a.359.359,0,0,0-.477.174l-.049.1a.359.359,0,1,0,.651.3l.049-.1A.359.359,0,0,0,498.318,437.083Z" transform="translate(-465.838 -401.81)"/><path class="a" d="M156.875,244.257a.359.359,0,1,0,0,.718h.06a.359.359,0,1,0,0-.718Z" transform="translate(-130.725 -212.48)"/><path class="a" d="M224.668,244.975a.359.359,0,1,0,0-.718h-3.639a.359.359,0,0,0,0,.718Z" transform="translate(-193.727 -212.48)"/><path class="a" d="M213.362,400.573a.359.359,0,0,0-.359-.359h-3.035a.359.359,0,1,0,0,.718H213A.359.359,0,0,0,213.362,400.573Z" transform="translate(-182.863 -365.636)"/><path class="a" d="M263.057,556.171a.359.359,0,0,0,0,.718h1.453a.359.359,0,1,0,0-.718Z" transform="translate(-235 -518.792)"/></g></svg>