<svg width="14" height="12" viewBox="0 0 14 12" fill="none" xmlns="http://www.w3.org/2000/svg">
<path d="M1 12.0001C0.934412 12.0018 0.86934 11.9881 0.81 11.9601C0.71869 11.9226 0.640527 11.8589 0.585361 11.7771C0.530194 11.6952 0.500493 11.5989 0.5 11.5001V2.39014C0.507142 2.06904 0.577481 1.75248 0.706999 1.45857C0.836517 1.16466 1.02267 0.89914 1.25484 0.677192C1.487 0.455244 1.76062 0.281214 2.06006 0.165043C2.3595 0.0488732 2.6789 -0.00716034 3 0.000144124H11C11.3211 -0.00716034 11.6405 0.0488732 11.9399 0.165043C12.2394 0.281214 12.513 0.455244 12.7452 0.677192C12.9773 0.89914 13.1635 1.16466 13.293 1.45857C13.4225 1.75248 13.4929 2.06904 13.5 2.39014V7.11014C13.4929 7.43125 13.4225 7.7478 13.293 8.04172C13.1635 8.33563 12.9773 8.60115 12.7452 8.8231C12.513 9.04504 12.2394 9.21908 11.9399 9.33525C11.6405 9.45142 11.3211 9.50745 11 9.50014H3.705L1.355 11.8551C1.30828 11.9015 1.25287 11.9381 1.19195 11.963C1.13103 11.9879 1.0658 12.0005 1 12.0001ZM3 1.00014C2.61704 0.986612 2.2443 1.12522 1.96323 1.38568C1.68216 1.64614 1.51562 2.00727 1.5 2.39014V10.2951L3.145 8.64514C3.19172 8.5988 3.24713 8.56214 3.30805 8.53726C3.36897 8.51238 3.4342 8.49976 3.5 8.50014H11C11.383 8.51368 11.7557 8.37507 12.0368 8.11461C12.3178 7.85415 12.4844 7.49302 12.5 7.11014V2.39014C12.4844 2.00727 12.3178 1.64614 12.0368 1.38568C11.7557 1.12522 11.383 0.986612 11 1.00014H3Z" fill="#315671"/>
<path d="M7 5.5C7.41421 5.5 7.75 5.16421 7.75 4.75C7.75 4.33579 7.41421 4 7 4C6.58579 4 6.25 4.33579 6.25 4.75C6.25 5.16421 6.58579 5.5 7 5.5Z" fill="#315671"/>
<path d="M9.75 5.5C10.1642 5.5 10.5 5.16421 10.5 4.75C10.5 4.33579 10.1642 4 9.75 4C9.33579 4 9 4.33579 9 4.75C9 5.16421 9.33579 5.5 9.75 5.5Z" fill="#315671"/>
<path d="M4.25 5.5C4.66421 5.5 5 5.16421 5 4.75C5 4.33579 4.66421 4 4.25 4C3.83579 4 3.5 4.33579 3.5 4.75C3.5 5.16421 3.83579 5.5 4.25 5.5Z" fill="#315671"/>
</svg>
