<svg width="30" height="29" viewBox="0 0 30 29" fill="none" xmlns="http://www.w3.org/2000/svg">
<path d="M28.7266 3.74825C28.8088 3.57214 28.8176 3.37061 28.7512 3.18796C28.6849 3.00532 28.5487 2.85651 28.3726 2.77425L24.1296 0.797249C23.9535 0.715087 23.752 0.706224 23.5693 0.772607C23.3867 0.838989 23.2379 0.975183 23.1556 1.15125L20.9616 5.85725L19.8886 2.70625C19.8398 2.56075 19.7466 2.43423 19.6221 2.34452C19.4976 2.25482 19.3481 2.20646 19.1946 2.20625H4.79061C4.68183 2.20629 4.57442 2.23054 4.47618 2.27724C4.37793 2.32394 4.29132 2.39192 4.22261 2.47625L1.36761 5.98125C1.28908 6.07774 1.23641 6.19262 1.21454 6.31508C1.19267 6.43754 1.20233 6.56355 1.24261 6.68125L8.32761 27.4932C8.37639 27.6387 8.4696 27.7653 8.59411 27.855C8.71862 27.9447 8.86815 27.993 9.02161 27.9932H24.5026C24.6011 27.9969 24.6993 27.9806 24.7913 27.9455C24.8834 27.9103 24.9674 27.8569 25.0383 27.7885C25.1093 27.7202 25.1657 27.6382 25.2043 27.5475C25.2428 27.4568 25.2627 27.3593 25.2627 27.2607C25.2627 27.1622 25.2428 27.0647 25.2043 26.974C25.1657 26.8833 25.1093 26.8013 25.0383 26.733C24.9674 26.6646 24.8834 26.6112 24.7913 26.576C24.6993 26.5409 24.6011 26.5246 24.5026 26.5283H9.54561L2.95961 7.18025H6.41461C6.53754 7.18015 6.65848 7.14913 6.76629 7.09004C6.8741 7.03095 6.96531 6.9457 7.03154 6.84213C7.09777 6.73855 7.13688 6.61998 7.14528 6.49733C7.15368 6.37468 7.1311 6.25189 7.07961 6.14025L5.93761 3.67525H18.6716L20.0716 7.77525L15.1926 18.2292C15.1372 18.3488 15.1151 18.4812 15.1286 18.6123L15.5896 23.1613C15.6025 23.2875 15.6479 23.4082 15.7214 23.5116C15.795 23.615 15.8941 23.6976 16.0091 23.7512C16.1241 23.8048 16.251 23.8277 16.3775 23.8175C16.504 23.8073 16.6256 23.7645 16.7306 23.6932L20.5116 21.1222C20.6214 21.0472 20.7086 20.9434 20.7636 20.8223L22.9296 16.1773L26.7806 27.4902C26.848 27.6679 26.9818 27.8124 27.1537 27.8933C27.3256 27.9742 27.5222 27.9852 27.702 27.924C27.8819 27.8628 28.031 27.7342 28.1178 27.5652C28.2047 27.3962 28.2225 27.2001 28.1676 27.0182L23.8236 14.2632L28.7266 3.74825ZM3.4776 5.71425L4.61861 4.31425L5.26761 5.71425H3.4776ZM24.1776 2.43425L27.0916 3.79325L26.4216 5.23025L23.5026 3.87125L24.1776 2.43425ZM16.7156 19.7482L18.6206 20.6362L16.9206 21.7912L16.7156 19.7482ZM19.7446 19.5482L16.8306 18.1893L22.8856 5.20425L25.8026 6.55825L19.7446 19.5482Z" fill="#305671" stroke="#305671" stroke-width="0.5"/>
<path d="M22.6527 7.76843L19.6917 14.1194C19.6472 14.2071 19.6208 14.3028 19.614 14.4009C19.6073 14.499 19.6204 14.5975 19.6525 14.6904C19.6846 14.7834 19.735 14.8689 19.8009 14.9419C19.8667 15.015 19.9465 15.074 20.0357 15.1156C20.1248 15.1571 20.2213 15.1803 20.3196 15.1837C20.4179 15.1872 20.5158 15.1708 20.6076 15.1356C20.6994 15.1005 20.7832 15.0472 20.854 14.9789C20.9248 14.9107 20.9812 14.8289 21.0197 14.7384L23.9807 8.38743C24.0552 8.21249 24.0588 8.01543 23.9908 7.83787C23.9227 7.66031 23.7883 7.51615 23.616 7.43582C23.4436 7.35548 23.2468 7.34527 23.0671 7.40733C22.8874 7.46939 22.7388 7.59887 22.6527 7.76843Z" fill="#305671" stroke="#305671" stroke-width="0.5"/>
<path d="M19.7227 15.7836C19.5466 15.7014 19.3451 15.6925 19.1624 15.7589C18.9798 15.8253 18.831 15.9615 18.7487 16.1376L18.6487 16.3516C18.6042 16.4393 18.5778 16.535 18.5711 16.6331C18.5643 16.7312 18.5774 16.8296 18.6095 16.9226C18.6416 17.0155 18.692 17.1011 18.7579 17.1741C18.8237 17.2471 18.9035 17.3062 18.9927 17.3477C19.0818 17.3892 19.1784 17.4124 19.2766 17.4159C19.3749 17.4193 19.4728 17.403 19.5647 17.3678C19.6565 17.3326 19.7403 17.2793 19.811 17.211C19.8818 17.1428 19.9382 17.061 19.9767 16.9706L20.0767 16.7566C20.1586 16.5806 20.1672 16.3793 20.1009 16.1969C20.0345 16.0145 19.8985 15.8658 19.7227 15.7836Z" fill="#305671" stroke="#305671" stroke-width="0.5"/>
<path d="M6.81236 8.65284C6.62278 8.65985 6.4433 8.74009 6.31165 8.87669C6.18 9.0133 6.10645 9.19563 6.10645 9.38534C6.10645 9.57506 6.18 9.75739 6.31165 9.89399C6.4433 10.0306 6.62278 10.1108 6.81236 10.1178H6.93437C7.03284 10.1215 7.13104 10.1052 7.22308 10.07C7.31513 10.0349 7.39914 9.98151 7.47009 9.91313C7.54104 9.84475 7.59747 9.76277 7.63602 9.67209C7.67456 9.5814 7.69444 9.48388 7.69444 9.38534C7.69444 9.2868 7.67456 9.18928 7.63602 9.0986C7.59747 9.00791 7.54104 8.92592 7.47009 8.85754C7.39914 8.78916 7.31513 8.73579 7.22308 8.70062C7.13104 8.66545 7.03284 8.64921 6.93437 8.65284H6.81236Z" fill="#305671" stroke="#305671" stroke-width="0.5"/>
<path d="M16.5845 10.1178C16.7741 10.1108 16.9536 10.0306 17.0852 9.89399C17.2169 9.75739 17.2904 9.57506 17.2904 9.38534C17.2904 9.19563 17.2169 9.0133 17.0852 8.87669C16.9536 8.74009 16.7741 8.65985 16.5845 8.65284H9.15948C9.06101 8.64921 8.96282 8.66545 8.87077 8.70062C8.77873 8.73579 8.69473 8.78916 8.62378 8.85754C8.55283 8.92592 8.49639 9.00791 8.45784 9.0986C8.41929 9.18928 8.39941 9.2868 8.39941 9.38534C8.39941 9.48388 8.41929 9.5814 8.45784 9.67209C8.49639 9.76277 8.55283 9.84475 8.62378 9.91313C8.69473 9.98151 8.77873 10.0349 8.87077 10.07C8.96282 10.1052 9.06101 10.1215 9.15948 10.1178H16.5845Z" fill="#305671" stroke="#305671" stroke-width="0.5"/>
<path d="M15.6817 15.1002C15.6817 14.9058 15.6045 14.7193 15.467 14.5819C15.3296 14.4444 15.1431 14.3672 14.9487 14.3672H8.75671C8.56713 14.3742 8.38765 14.4545 8.256 14.5911C8.12435 14.7277 8.05078 14.91 8.05078 15.0997C8.05078 15.2894 8.12435 15.4717 8.256 15.6083C8.38765 15.7449 8.56713 15.8252 8.75671 15.8322H14.9487C15.1429 15.8322 15.3292 15.7551 15.4667 15.6179C15.6041 15.4806 15.6815 15.2944 15.6817 15.1002Z" fill="#305671" stroke="#305671" stroke-width="0.5"/>
<path d="M10.703 20.0825C10.5134 20.0895 10.3339 20.1697 10.2023 20.3063C10.0706 20.443 9.99707 20.6253 9.99707 20.815C9.99707 21.0047 10.0706 21.1871 10.2023 21.3237C10.3339 21.4603 10.5134 21.5405 10.703 21.5475H13.667C13.7655 21.5511 13.8637 21.5349 13.9557 21.4997C14.0478 21.4645 14.1318 21.4112 14.2027 21.3428C14.2737 21.2744 14.3301 21.1924 14.3687 21.1018C14.4072 21.0111 14.4271 20.9136 14.4271 20.815C14.4271 20.7165 14.4072 20.619 14.3687 20.5283C14.3301 20.4376 14.2737 20.3556 14.2027 20.2872C14.1318 20.2189 14.0478 20.1655 13.9557 20.1303C13.8637 20.0951 13.7655 20.0789 13.667 20.0825H10.703Z" fill="#305671" stroke="#305671" stroke-width="0.5"/>
</svg>
