<svg width="35" height="35" viewBox="0 0 35 35" fill="none" xmlns="http://www.w3.org/2000/svg">
<path d="M20.0306 28.0441H10.7869C10.3948 28.0441 10.1584 27.8114 10.0522 27.6727C9.86904 27.4331 9.79819 27.1215 9.85774 26.8173C10.8114 21.9459 14.8542 18.3887 19.5214 18.2733C19.5989 18.2763 19.6767 18.2784 19.7551 18.2784C23.1984 18.2784 26 15.2995 26 11.6378C26 7.97609 23.1984 4.99719 19.7551 4.99719C16.3116 4.99719 13.5102 7.97609 13.5102 11.6378C13.5102 13.8111 14.4971 15.744 16.0194 16.9561C14.6248 17.4442 13.316 18.2035 12.1707 19.2052C10.0708 21.042 8.61077 23.604 8.05957 26.4192C7.88684 27.3013 8.09383 28.2073 8.62727 28.905C9.15802 29.5991 9.94527 29.9972 10.7869 29.9972H20.0306C20.5377 29.9972 20.949 29.56 20.949 29.0206C20.949 28.4812 20.5377 28.0441 20.0306 28.0441ZM15.347 11.6378C15.347 9.05317 17.3243 6.95032 19.7551 6.95032C22.1857 6.95032 24.1633 9.05317 24.1633 11.6378C24.1633 14.1855 22.2421 16.2649 19.8593 16.324C19.8251 16.3198 19.7904 16.3171 19.7551 16.3171C19.6834 16.3171 19.6118 16.3183 19.5402 16.3196C17.209 16.2002 15.347 14.146 15.347 11.6378Z" fill="#305671"/>
<path d="M3.83736 23.0928L3.78834 23.3328H4.03332H5.3333C5.66389 23.3328 5.9806 23.463 6.21385 23.6943C6.44704 23.9255 6.57773 24.2388 6.57773 24.565C6.57773 24.8912 6.44704 25.2045 6.21385 25.4357C5.9806 25.667 5.66389 25.7972 5.3333 25.7972H2.44444C2.11385 25.7972 1.79714 25.667 1.56389 25.4357C1.3307 25.2045 1.20001 24.8912 1.20001 24.565L1.20001 24.5647C1.19709 22.6986 1.73128 20.8704 2.74 19.2947C3.74873 17.719 5.19017 16.4611 6.89521 15.6692L7.14186 15.5546L6.95899 15.3533C6.28288 14.609 5.82455 13.6961 5.63317 12.7129C5.4418 11.7298 5.52459 10.7135 5.87267 9.77346C6.22075 8.83343 6.82101 8.00517 7.60897 7.37803C8.39695 6.75088 9.34275 6.34868 10.3445 6.21493L10.3445 6.21503L10.3507 6.21401C10.5158 6.18672 10.6847 6.19269 10.8474 6.23156C11.0102 6.27044 11.1632 6.34139 11.2975 6.44012C11.4317 6.53884 11.5444 6.66329 11.629 6.80596C11.7135 6.94863 11.7681 7.10664 11.7896 7.27055C11.8111 7.43445 11.7991 7.60099 11.7543 7.76023C11.7095 7.91947 11.6327 8.06823 11.5285 8.19761C11.4243 8.32698 11.2948 8.43432 11.1477 8.51315C11.0005 8.59197 10.8388 8.64063 10.6721 8.65616L10.6721 8.65593L10.6626 8.65727C9.93083 8.76096 9.26094 9.12293 8.77612 9.67722C8.29127 10.2315 8.02412 10.941 8.02412 11.6753C8.02412 12.4096 8.29127 13.119 8.77612 13.6733C9.26094 14.2276 9.93083 14.5896 10.6626 14.6933L10.6642 14.6935C10.9767 14.7353 11.2613 14.893 11.4606 15.1342C11.66 15.3754 11.7595 15.6823 11.7395 15.9929C11.7195 16.3036 11.5815 16.5955 11.3527 16.8098C11.1239 17.0241 10.8213 17.1447 10.5059 17.1468L10.4791 17.1469L10.4533 17.1542L10.4533 17.1542L10.4532 17.1542L10.453 17.1543L10.452 17.1545L10.4481 17.1556L10.433 17.1598L10.3775 17.1752C10.3308 17.1881 10.267 17.2055 10.1982 17.224C10.0592 17.2612 9.90902 17.3 9.83533 17.3148C8.36573 17.5661 7.00672 18.2518 5.93647 19.2822C4.86553 20.3134 4.13373 21.6416 3.83736 23.0928Z" fill="#305671" stroke="#F6F8FA" stroke-width="0.4"/>
<path d="M25.5 32.3972C29.3108 32.3972 32.4 29.308 32.4 25.4972C32.4 21.6864 29.3108 18.5972 25.5 18.5972C21.6892 18.5972 18.6 21.6864 18.6 25.4972C18.6 29.308 21.6892 32.3972 25.5 32.3972Z" fill="url(#paint0_linear_28807_18191)" stroke="#F6F8FA" stroke-width="2.8"/>
<defs>
<linearGradient id="paint0_linear_28807_18191" x1="20" y1="25.4972" x2="31" y2="25.4972" gradientUnits="userSpaceOnUse">
<stop stop-color="#ED707A"/>
<stop offset="1" stop-color="#F1A768"/>
</linearGradient>
</defs>
</svg>
