<svg width="30" height="34" viewBox="0 0 30 34" fill="none" xmlns="http://www.w3.org/2000/svg">
<path d="M25.7143 12.75H23.5714H19.2857H17.1429H15H12.8571H10.7143H6.42857H4.28571C1.92 12.75 0 14.654 0 17V19.125C0 20.6938 0.865313 22.0489 2.14286 22.7856V29.75H10.7143V34H19.2857V29.75H27.8571V22.7856C29.1336 22.0489 30 20.6959 30 19.125V17C30 14.654 28.079 12.75 25.7143 12.75ZM8.57143 27.625H4.28571V19.125H2.14286V17C2.14286 15.8275 3.10339 14.875 4.28571 14.875H7.02184C6.65354 15.5017 6.42857 16.2218 6.42857 17V21.25C6.42857 22.8188 7.29388 24.1739 8.57143 24.9106V27.625ZM19.2857 23.375V19.125H17.1429V31.875H12.8571V19.125H10.7143V23.375C9.53196 23.375 8.57143 22.4246 8.57143 21.25V17C8.57143 15.8275 9.53196 14.875 10.7143 14.875H19.2857C20.4701 14.875 21.4286 15.8275 21.4286 17V21.25C21.4286 22.4246 20.4701 23.375 19.2857 23.375ZM27.8571 19.125H25.7143V27.625H21.4286V24.9106C22.7051 24.1739 23.5714 22.8209 23.5714 21.25V17C23.5714 16.2218 23.3454 15.5017 22.9771 14.875H25.7143C26.8987 14.875 27.8571 15.8275 27.8571 17V19.125ZM10.1681 10.5378C11.3463 11.8826 13.0633 12.75 15 12.75C16.9378 12.75 18.6537 11.8826 19.8319 10.5378C20.5622 11.8515 21.9538 12.75 23.5714 12.75C25.9361 12.75 27.8571 10.846 27.8571 8.5C27.8571 6.154 25.9361 4.25 23.5714 4.25C22.7134 4.25 21.9182 4.50527 21.2486 4.93691C20.5873 2.11046 18.049 0 15 0C11.951 0 9.41163 2.11046 8.7514 4.93691C8.08071 4.50527 7.28551 4.25 6.42857 4.25C4.06286 4.25 2.14286 6.154 2.14286 8.5C2.14286 10.846 4.06286 12.75 6.42857 12.75C8.04616 12.75 9.43674 11.8515 10.1681 10.5378ZM23.5714 6.375C24.7559 6.375 25.7143 7.32441 25.7143 8.5C25.7143 9.67559 24.7559 10.625 23.5714 10.625C22.3891 10.625 21.4286 9.67559 21.4286 8.5C21.4286 7.32441 22.3891 6.375 23.5714 6.375ZM15 2.125C17.3647 2.125 19.2857 4.029 19.2857 6.375C19.2857 8.721 17.3647 10.625 15 10.625C12.6343 10.625 10.7143 8.721 10.7143 6.375C10.7143 4.029 12.6343 2.125 15 2.125ZM6.42857 10.625C5.24625 10.625 4.28571 9.67559 4.28571 8.5C4.28571 7.32441 5.24625 6.375 6.42857 6.375C7.61404 6.375 8.57143 7.32441 8.57143 8.5C8.57143 9.67559 7.61404 10.625 6.42857 10.625Z" fill="#A4BDD0"/>
</svg>
