<svg width="21" height="22" viewBox="0 0 21 22" fill="none" xmlns="http://www.w3.org/2000/svg">
<path d="M18.5471 16.1465V18.7935C18.5481 19.0392 18.4977 19.2824 18.3993 19.5075C18.3009 19.7327 18.1566 19.9348 17.9756 20.1009C17.7946 20.267 17.5809 20.3936 17.3481 20.4724C17.1154 20.5512 16.8688 20.5805 16.6241 20.5585C13.9092 20.2633 11.3013 19.3355 9.01009 17.8495C6.8781 16.495 5.07062 14.6875 3.71609 12.5555C2.2248 10.2536 1.29674 7.63287 1.00709 4.9055C0.985159 4.66154 1.01425 4.41569 1.09251 4.18358C1.17077 3.95148 1.29648 3.73821 1.46165 3.55733C1.62681 3.37646 1.82782 3.23194 2.05188 3.13297C2.27594 3.03401 2.51814 2.98276 2.76309 2.9825H5.41009C5.83821 2.97853 6.25319 3.13032 6.57771 3.40959C6.90224 3.68885 7.11419 4.07656 7.17409 4.5005C7.28444 5.34835 7.49042 6.18098 7.78809 6.9825C7.90644 7.29862 7.93167 7.64205 7.86077 7.97208C7.78988 8.3021 7.62583 8.60487 7.38809 8.8445L6.27409 9.9615C7.53012 12.1705 9.35911 13.9995 11.5681 15.2555L12.6881 14.1345C12.9277 13.8968 13.2305 13.7327 13.5605 13.6618C13.8905 13.5909 14.234 13.6161 14.5501 13.7345C15.3505 14.0333 16.1821 14.2406 17.0291 14.3525C17.4577 14.4129 17.8492 14.6288 18.1291 14.959C18.4089 15.2892 18.5577 15.7108 18.5471 16.1435V16.1465Z" stroke="white" stroke-width="1.5" stroke-linecap="round" stroke-linejoin="round"/>
<path d="M12.6033 9.83361L16.9528 5.48419L16.9528 9.33651C16.9504 9.40465 16.9618 9.47255 16.9863 9.53619C17.0108 9.59982 17.0478 9.65788 17.0952 9.7069C17.1425 9.75593 17.1993 9.79491 17.2621 9.82154C17.3248 9.84817 17.3923 9.86189 17.4605 9.86189C17.5286 9.86189 17.5961 9.84817 17.6589 9.82154C17.7216 9.79491 17.7784 9.75593 17.8258 9.7069C17.8731 9.65788 17.9102 9.59982 17.9346 9.53619C17.9591 9.47255 17.9705 9.40465 17.9682 9.33651V4.25807C17.9681 4.22483 17.9648 4.19168 17.9583 4.15908C17.9554 4.14352 17.9491 4.13008 17.9455 4.11524C17.9412 4.098 17.9361 4.08101 17.93 4.06432C17.9223 4.04754 17.9135 4.03125 17.9038 4.01553C17.8939 4.00563 17.8911 3.98867 17.8833 3.97664C17.8647 3.94867 17.8434 3.92262 17.8197 3.89886C17.7959 3.87515 17.7698 3.85383 17.7419 3.83522C17.7313 3.82462 17.715 3.82108 17.7016 3.8133C17.6865 3.80443 17.6709 3.7964 17.6549 3.78926C17.6373 3.78264 17.6194 3.77698 17.6012 3.77229C17.5877 3.76875 17.575 3.7631 17.5609 3.76027C17.5278 3.75359 17.4942 3.75027 17.4605 3.75037L12.382 3.75037C12.3139 3.74804 12.246 3.75944 12.1823 3.78391C12.1187 3.80837 12.0607 3.84539 12.0116 3.89277C11.9626 3.94014 11.9236 3.9969 11.897 4.05966C11.8704 4.12242 11.8566 4.1899 11.8566 4.25807C11.8566 4.32625 11.8704 4.39372 11.897 4.45648C11.9236 4.51924 11.9626 4.576 12.0116 4.62337C12.0607 4.67075 12.1187 4.70777 12.1823 4.73224C12.246 4.7567 12.3139 4.76811 12.382 4.76577L16.2343 4.76577L11.8856 9.11448C11.7904 9.20975 11.7368 9.33896 11.7368 9.47369C11.7368 9.60842 11.7904 9.73763 11.8856 9.8329C11.9809 9.92817 12.1101 9.98169 12.2448 9.98169C12.3796 9.98169 12.5088 9.92817 12.6041 9.8329L12.6033 9.83361Z" fill="white" stroke="white" stroke-width="0.5"/>
</svg>
