<svg width="35" height="35" viewBox="0 0 35 35" fill="none" xmlns="http://www.w3.org/2000/svg">
<path d="M21.2856 2.59766H4.91084C4.00498 2.60095 3.13743 2.96357 2.49868 3.60592C1.85993 4.24826 1.50217 5.11782 1.50395 6.02369V24.1902C1.50192 24.3673 1.56921 24.5382 1.69146 24.6663L8.98876 32.1908C9.05173 32.257 9.12736 32.3098 9.21115 32.3461C9.29494 32.3825 9.38518 32.4016 9.4765 32.4023H21.2856C23.1702 32.4023 24.6778 30.861 24.6778 28.9763V6.02369C24.6778 4.13902 23.1702 2.59766 21.2856 2.59766ZM8.8184 30.025L3.79269 24.8828H8.10931C8.48625 24.8828 8.8184 25.1805 8.8184 25.5574V30.025ZM23.3106 28.9763C23.3133 29.244 23.2633 29.5095 23.1634 29.7578C23.0635 30.0062 22.9157 30.2324 22.7284 30.4236C22.5411 30.6147 22.3179 30.7672 22.0717 30.8721C21.8254 30.977 21.5609 31.0324 21.2933 31.0352H10.1856V25.5574C10.1856 24.4266 9.24011 23.5156 8.10931 23.5156H2.87114V6.02369C2.86899 5.48031 3.08259 4.95829 3.46503 4.57226C3.84746 4.18624 4.36747 3.96777 4.91084 3.96484H21.2856C21.8261 3.9683 22.343 4.18629 22.7228 4.57088C23.1026 4.95546 23.314 5.47515 23.3107 6.01562V28.9763H23.3106Z" fill="#305671"/>
<path d="M19.8096 11.4844H6.80762C6.62632 11.4844 6.45244 11.5564 6.32424 11.6846C6.19604 11.8128 6.12402 11.9867 6.12402 12.168C6.12402 12.3493 6.19604 12.5231 6.32424 12.6513C6.45244 12.7795 6.62632 12.8516 6.80762 12.8516H19.8096C19.9909 12.8516 20.1647 12.7795 20.2929 12.6513C20.4211 12.5231 20.4932 12.3493 20.4932 12.168C20.4932 11.9867 20.4211 11.8128 20.2929 11.6846C20.1647 11.5564 19.9909 11.4844 19.8096 11.4844Z" fill="#305671"/>
<path d="M19.8096 15.5859H6.80762C6.62632 15.5859 6.45244 15.658 6.32424 15.7862C6.19604 15.9144 6.12402 16.0882 6.12402 16.2695C6.12402 16.4508 6.19604 16.6247 6.32424 16.7529C6.45244 16.8811 6.62632 16.9531 6.80762 16.9531H19.8096C19.9909 16.9531 20.1647 16.8811 20.2929 16.7529C20.4211 16.6247 20.4932 16.4508 20.4932 16.2695C20.4932 16.0882 20.4211 15.9144 20.2929 15.7862C20.1647 15.658 19.9909 15.5859 19.8096 15.5859Z" fill="#305671"/>
<path d="M19.8096 19.6875H6.80762C6.62632 19.6875 6.45244 19.7595 6.32424 19.8877C6.19604 20.0159 6.12402 20.1898 6.12402 20.3711C6.12402 20.5524 6.19604 20.7263 6.32424 20.8545C6.45244 20.9827 6.62632 21.0547 6.80762 21.0547H19.8096C19.9909 21.0547 20.1647 20.9827 20.2929 20.8545C20.4211 20.7263 20.4932 20.5524 20.4932 20.3711C20.4932 20.1898 20.4211 20.0159 20.2929 19.8877C20.1647 19.7595 19.9909 19.6875 19.8096 19.6875Z" fill="#305671"/>
<path d="M6.80762 9.02344H12.8105C12.9918 9.02344 13.1656 8.95142 13.2938 8.82322C13.422 8.69502 13.4941 8.52114 13.4941 8.33984C13.4941 8.15854 13.422 7.98467 13.2938 7.85647C13.1656 7.72827 12.9918 7.65625 12.8105 7.65625H6.80762C6.62632 7.65625 6.45244 7.72827 6.32424 7.85647C6.19604 7.98467 6.12402 8.15854 6.12402 8.33984C6.12402 8.52114 6.19604 8.69502 6.32424 8.82322C6.45244 8.95142 6.62632 9.02344 6.80762 9.02344Z" fill="#305671"/>
<path d="M30.4509 3.26953C29.6446 3.27056 28.8716 3.59117 28.3013 4.1611C27.7309 4.73103 27.4098 5.50381 27.4082 6.31009L27.3945 26.9546C27.3945 27.0646 27.4209 27.1729 27.4716 27.2704L29.8445 31.8341C29.9022 31.945 29.9893 32.0381 30.0962 32.103C30.2031 32.1679 30.3258 32.2022 30.4509 32.2022C30.5761 32.2022 30.6988 32.1679 30.8057 32.103C30.9126 32.0381 30.9997 31.945 31.0574 31.8341L33.4303 27.2704C33.481 27.1729 33.5074 27.0646 33.5074 26.9546L33.4937 6.31009C33.4921 5.50379 33.1709 4.731 32.6006 4.16107C32.0302 3.59114 31.2572 3.27054 30.4509 3.26953ZM32.1291 10.1861H28.7727L28.7731 9.50247H32.1285L32.1291 10.1861ZM32.1301 11.5533L32.1397 26.2505H28.7622L28.772 11.5533H32.1301ZM30.451 4.63672C30.8951 4.63733 31.3208 4.81396 31.6349 5.12789C31.9489 5.44182 32.1258 5.86746 32.1266 6.31152L32.1277 8.13528H28.7742L28.7754 6.31132C28.7763 5.86728 28.9531 5.44168 29.2672 5.12779C29.5813 4.8139 30.007 4.63732 30.451 4.63672ZM30.451 30.0159L29.2041 27.6177H31.6978L30.451 30.0159Z" fill="#305671"/>
</svg>
