<svg xmlns="http://www.w3.org/2000/svg" width="14.029" height="14.029" viewBox="0 0 14.029 14.029"><defs><style>.a{fill:#fff;}</style></defs><path class="a" d="M13.386,3.507H12.276V2.4a.649.649,0,0,0-.643-.643H10.522V.643A.649.649,0,0,0,9.879,0H.643A.649.649,0,0,0,0,.643V9.879a.649.649,0,0,0,.643.643H1.754v1.111a.649.649,0,0,0,.643.643H3.507v1.111a.649.649,0,0,0,.643.643h9.236a.649.649,0,0,0,.643-.643V4.15A.649.649,0,0,0,13.386,3.507ZM1.754,2.4V9.353H1.169V1.169H9.353v.585H2.4A.649.649,0,0,0,1.754,2.4ZM3.507,4.15v6.956H2.923V2.923h8.184v.585H4.15A.649.649,0,0,0,3.507,4.15Zm9.353,8.71H4.676V4.676H12.86Z"/><rect class="a" width="4.88" height="1.22" transform="translate(6.1 7.32)"/><rect class="a" width="4.88" height="1.22" transform="translate(6.1 6.1)"/><rect class="a" width="4.88" height="1.22" transform="translate(6.1 9.76)"/><rect class="a" width="4.88" height="1.22" transform="translate(6.1 8.54)"/><rect class="a" width="4.88" height="1.22" transform="translate(6.1 10.979)"/></svg>