<svg xmlns="http://www.w3.org/2000/svg" width="9.363" height="11.684" viewBox="0 0 9.363 11.684">
  <g id="pause" transform="translate(-4.729)">
    <path id="Path_558" data-name="Path 558" d="M7.984,10.057a1.628,1.628,0,0,1-1.627,1.627h0a1.628,1.628,0,0,1-1.627-1.627V1.627A1.628,1.628,0,0,1,6.356,0h0A1.628,1.628,0,0,1,7.984,1.627Z" transform="translate(0 0)" fill="#305671"/>
    <path id="Path_559" data-name="Path 559" d="M32.87,10.057a1.628,1.628,0,0,1-1.627,1.627h0a1.628,1.628,0,0,1-1.627-1.627V1.627A1.628,1.628,0,0,1,31.242,0h0A1.628,1.628,0,0,1,32.87,1.627Z" transform="translate(-18.778 0)" fill="#305671"/>
  </g>
</svg>
