<svg width="18" height="18" viewBox="0 0 18 18" fill="none" xmlns="http://www.w3.org/2000/svg">
<path d="M13.3073 16H4.69267C3.97866 16 3.29389 15.7147 2.78894 15.2069C2.28399 14.6992 2.00021 14.0104 2 13.2922V5.70859C2 4.99023 2.28369 4.30129 2.78866 3.79333C3.29364 3.28537 3.97853 3 4.69267 3H13.3073C14.0215 3 14.7064 3.28537 15.2113 3.79333C15.7163 4.30129 16 4.99023 16 5.70859V13.2922C15.9998 14.0104 15.716 14.6992 15.2111 15.2069C14.7061 15.7147 14.0213 16 13.3073 16ZM4.69267 4.08359C4.26422 4.08359 3.85333 4.2548 3.55037 4.55955C3.24742 4.86429 3.07722 5.27762 3.07722 5.70859V13.2922C3.07722 13.7232 3.24742 14.1365 3.55037 14.4412C3.85333 14.746 4.26422 14.9172 4.69267 14.9172H13.3073C13.7358 14.9172 14.1467 14.746 14.4496 14.4412C14.7526 14.1365 14.9228 13.7232 14.9228 13.2922V5.70859C14.9228 5.27762 14.7526 4.86429 14.4496 4.55955C14.1467 4.2548 13.7358 4.08359 13.3073 4.08359H4.69267Z" fill="#9BAEBC"/>
<circle cx="13" cy="13" r="4.5" fill="#FFF5E2" stroke="#9BAEBC"/>
<path d="M13 11V13L15 15" stroke="#9BAEBC"/>
<path d="M15.4618 7H2.53822C2.39548 7 2.25858 6.94732 2.15764 6.85355C2.05671 6.75979 2 6.63261 2 6.5C2 6.36739 2.05671 6.24022 2.15764 6.14645C2.25858 6.05268 2.39548 6 2.53822 6H15.4618C15.6045 6 15.7414 6.05268 15.8424 6.14645C15.9433 6.24022 16 6.36739 16 6.5C16 6.63261 15.9433 6.75979 15.8424 6.85355C15.7414 6.94732 15.6045 7 15.4618 7Z" fill="#9BAEBC"/>
<path d="M6.5 5C6.36739 5 6.24022 4.94731 6.14645 4.85352C6.05268 4.75973 6 4.63252 6 4.49988V2.50012C6 2.36748 6.05268 2.24027 6.14645 2.14648C6.24022 2.05269 6.36739 2 6.5 2C6.63261 2 6.75979 2.05269 6.85355 2.14648C6.94732 2.24027 7 2.36748 7 2.50012V4.49988C7 4.56556 6.98707 4.63059 6.96194 4.69127C6.93681 4.75194 6.89998 4.80708 6.85355 4.85352C6.80712 4.89996 6.752 4.9368 6.69134 4.96193C6.63068 4.98706 6.56566 5 6.5 5Z" fill="#9BAEBC"/>
<path d="M11.5 5C11.3674 5 11.2402 4.94731 11.1464 4.85352C11.0527 4.75973 11 4.63252 11 4.49988V2.50012C11 2.36748 11.0527 2.24027 11.1464 2.14648C11.2402 2.05269 11.3674 2 11.5 2C11.6326 2 11.7598 2.05269 11.8536 2.14648C11.9473 2.24027 12 2.36748 12 2.50012V4.49988C12 4.63252 11.9473 4.75973 11.8536 4.85352C11.7598 4.94731 11.6326 5 11.5 5Z" fill="#9BAEBC"/>
</svg>
