<svg width="30" height="30" viewBox="0 0 30 30" fill="none" xmlns="http://www.w3.org/2000/svg">
<path d="M30 21.5625C29.9981 17.2181 26.7178 13.6462 22.5 13.1803V5.235L17.2631 0H0V30H22.5V29.9447C26.7178 29.4759 29.9981 25.9059 30 21.5625ZM16.8731 2.26219L20.2369 5.625H16.8731V2.26219ZM1.875 28.125V1.87313H15V7.49906H20.625V13.1803C16.4053 13.6472 13.125 17.2191 13.125 21.5625C13.125 24.2147 14.3513 26.5791 16.2647 28.125H1.875ZM21.5625 28.0153C17.9991 28.0069 15.1163 25.1241 15.1078 21.5625C15.1163 17.9991 17.9991 15.1163 21.5625 15.1078C25.1241 15.1163 28.0069 17.9991 28.0153 21.5625C28.0069 25.1241 25.1241 28.0069 21.5625 28.0153Z" fill="#305671"/>
<path d="M26.25 20.625H22.5019V16.875H20.625V20.625H16.875V22.5H20.625V26.25H22.5019V22.5H26.25V20.625Z" fill="#305671"/>
</svg>
