<svg width="70" height="70" viewBox="0 0 70 70" fill="none" xmlns="http://www.w3.org/2000/svg">
<path d="M35 70C54.33 70 70 54.33 70 35C70 15.67 54.33 0 35 0C15.67 0 0 15.67 0 35C0 54.33 15.67 70 35 70Z" fill="white"/>
<path d="M35 69.5C54.0538 69.5 69.5 54.0538 69.5 35C69.5 15.9462 54.0538 0.5 35 0.5C15.9462 0.5 0.5 15.9462 0.5 35C0.5 54.0538 15.9462 69.5 35 69.5Z" stroke="#9BAEBC"/>
<path d="M53 40.5625C52.9981 36.2181 49.7178 32.6462 45.5 32.1803V24.235L40.2631 19H23V49H45.5V48.9447C49.7178 48.4759 52.9981 44.9059 53 40.5625ZM39.8731 21.2622L43.2369 24.625H39.8731V21.2622ZM24.875 47.125V20.8731H38V26.4991H43.625V32.1803C39.4053 32.6472 36.125 36.2191 36.125 40.5625C36.125 43.2147 37.3513 45.5791 39.2647 47.125H24.875ZM44.5625 47.0153C40.9991 47.0069 38.1163 44.1241 38.1078 40.5625C38.1163 36.9991 40.9991 34.1163 44.5625 34.1078C48.1241 34.1163 51.0069 36.9991 51.0153 40.5625C51.0069 44.1241 48.1241 47.0069 44.5625 47.0153Z" fill="#305671"/>
<path d="M49.25 39.625H45.5019V35.875H43.625V39.625H39.875V41.5H43.625V45.25H45.5019V41.5H49.25V39.625Z" fill="#305671"/>
</svg>
