<svg width="35" height="35" viewBox="0 0 35 35" fill="none" xmlns="http://www.w3.org/2000/svg">
<path d="M23.8108 28.2947C21.5895 28.2568 19.3829 27.9258 17.2483 27.3103C14.498 26.475 11.606 26.2107 8.74982 26.5338C7.34935 26.7043 5.96113 26.9637 4.59357 27.3103C4.43214 27.3513 4.26349 27.3549 4.10047 27.3207C3.93746 27.2866 3.78439 27.2157 3.65294 27.1135C3.53058 27.0062 3.4337 26.8729 3.36937 26.7235C3.30503 26.574 3.27487 26.412 3.28107 26.2494V8.7494C3.27379 8.49955 3.35231 8.25475 3.50355 8.05574C3.6548 7.85674 3.86964 7.71554 4.11232 7.65565C5.70769 7.25604 7.33111 6.97815 8.96857 6.8244C11.9137 6.54627 14.8848 6.83967 17.7186 7.68847C20.343 8.47679 23.0955 8.74795 25.8233 8.48691C27.3549 8.32363 28.8722 8.04577 30.3623 7.65565C30.5238 7.61469 30.6924 7.61113 30.8554 7.64525C31.0184 7.67937 31.1715 7.75027 31.3029 7.85253C31.4378 7.9589 31.5457 8.09552 31.6179 8.25134C31.6901 8.40715 31.7246 8.57778 31.7186 8.7494V26.2494C31.7259 26.4993 31.6473 26.7441 31.4961 26.9431C31.3448 27.1421 31.13 27.2833 30.8873 27.3432C29.4272 27.7162 27.9437 27.9902 26.4467 28.1635C25.5713 28.2573 24.6912 28.3011 23.8108 28.2947ZM11.1889 24.2041C13.4102 24.242 15.6167 24.573 17.7514 25.1885C20.4844 26.0164 23.357 26.2806 26.1951 25.965C27.2992 25.8354 28.3948 25.6418 29.4764 25.3853V10.1275C28.3391 10.3717 27.1888 10.5507 26.0311 10.6635C23.0707 10.9587 20.0812 10.6802 17.2264 9.84316C14.6204 9.05631 11.8868 8.78146 9.17638 9.03378C7.92899 9.14487 6.69034 9.33853 5.46857 9.61347V24.926C6.48746 24.7059 7.51693 24.538 8.55294 24.4228C9.4267 24.2998 10.3068 24.2267 11.1889 24.2041Z" fill="#305671"/>
<path d="M4.77918 14.2193H4.28699C4.01233 14.1973 3.75611 14.0724 3.56956 13.8696C3.383 13.6668 3.27985 13.4011 3.28074 13.1256V8.75058C3.27346 8.50073 3.35198 8.25593 3.50322 8.05692C3.65447 7.85792 3.86931 7.71672 4.11199 7.65683C5.70736 7.25722 7.33078 6.97933 8.96824 6.82558C9.23076 6.79972 9.49378 6.8696 9.70884 7.02236C9.9239 7.17511 10.0765 7.40044 10.1386 7.65683C10.2148 8.01634 10.2514 8.38311 10.2479 8.75058C10.2479 10.201 9.67175 11.592 8.64617 12.6176C7.62058 13.6432 6.22958 14.2193 4.77918 14.2193ZM5.46824 9.61465V11.9553C6.13746 11.8117 6.74504 11.4625 7.20593 10.9565C7.66682 10.4505 7.95795 9.81307 8.03855 9.1334C7.24011 9.25371 6.38699 9.40684 5.46824 9.61465Z" fill="#305671"/>
<path d="M30.2744 14.2172C29.0118 14.22 27.7871 13.7858 26.8082 12.9883C25.8294 12.1909 25.1566 11.0793 24.9041 9.8422C24.874 9.68 24.881 9.5131 24.9246 9.354C24.9681 9.19489 25.0471 9.0477 25.1556 8.92345C25.2459 8.80138 25.3606 8.69944 25.4924 8.62412C25.6242 8.5488 25.7703 8.50174 25.9213 8.48595C27.4198 8.31786 28.904 8.04003 30.3619 7.6547C30.5233 7.61373 30.692 7.61017 30.855 7.64429C31.018 7.67841 31.171 7.74931 31.3025 7.85157C31.4373 7.95794 31.5452 8.09456 31.6174 8.25038C31.6896 8.40619 31.7241 8.57682 31.7181 8.74845V13.1234C31.7219 13.384 31.6325 13.6374 31.4661 13.8379C31.2997 14.0384 31.0671 14.1729 30.8103 14.2172C30.6323 14.2392 30.4523 14.2392 30.2744 14.2172ZM27.4962 10.4984C27.9579 11.2288 28.6889 11.7475 29.5306 11.9422V10.1266C28.8306 10.2688 28.1525 10.4 27.4962 10.4984Z" fill="#305671"/>
<path d="M4.375 27.3438C4.08492 27.3438 3.80672 27.2285 3.6016 27.0234C3.39648 26.8183 3.28125 26.5401 3.28125 26.25V21.875C3.28125 21.5849 3.39648 21.3067 3.6016 21.1016C3.80672 20.8965 4.08492 20.7812 4.375 20.7812C5.65152 20.7829 6.88725 21.2311 7.86806 22.0481C8.84888 22.8651 9.51299 23.9995 9.74531 25.2547C9.77303 25.4028 9.76984 25.555 9.73596 25.7018C9.70209 25.8486 9.63824 25.9868 9.54844 26.1078C9.45835 26.2266 9.34494 26.3257 9.21516 26.3991C9.08538 26.4724 8.94197 26.5185 8.79375 26.5344C7.39328 26.7049 6.00506 26.9643 4.6375 27.3109C4.55165 27.3325 4.46351 27.3435 4.375 27.3438ZM5.46875 23.1547V24.8719C6.05938 24.7516 6.62813 24.6422 7.18594 24.5547C6.79317 23.903 6.18615 23.4081 5.46875 23.1547Z" fill="#305671"/>
<path d="M26.3266 28.1422C26.0737 28.1484 25.8266 28.0667 25.6272 27.9112C25.4277 27.7556 25.2884 27.5358 25.2328 27.2891C25.1723 26.9462 25.1467 26.598 25.1563 26.25C25.1563 24.7996 25.7324 23.4086 26.758 22.383C27.7836 21.3574 29.1746 20.7812 30.625 20.7813C30.9151 20.7812 31.1933 20.8965 31.3984 21.1016C31.6035 21.3067 31.7187 21.5849 31.7187 21.875V26.25C31.726 26.4999 31.6475 26.7447 31.4963 26.9437C31.345 27.1427 31.1302 27.2839 30.8875 27.3438C29.4274 27.7168 27.9439 27.9908 26.4469 28.1641L26.3266 28.1422ZM29.5313 23.1547C28.9577 23.3508 28.4497 23.7019 28.0636 24.1691C27.6775 24.6363 27.4283 25.2014 27.3438 25.8016C28.0328 25.6922 28.7547 25.5609 29.5313 25.3859V23.1547Z" fill="#305671"/>
<path d="M19.1406 21.875H15.3125C15.0224 21.875 14.7442 21.7598 14.5391 21.5546C14.334 21.3495 14.2188 21.0713 14.2188 20.7812C14.2188 20.4912 14.334 20.213 14.5391 20.0079C14.7442 19.8027 15.0224 19.6875 15.3125 19.6875H19.1406C19.2857 19.6875 19.4248 19.6299 19.5273 19.5273C19.6299 19.4248 19.6875 19.2857 19.6875 19.1406C19.6875 18.9956 19.6299 18.8565 19.5273 18.7539C19.4248 18.6514 19.2857 18.5938 19.1406 18.5938H15.8594C15.1342 18.5938 14.4387 18.3057 13.9259 17.7929C13.4131 17.2801 13.125 16.5846 13.125 15.8594C13.125 15.1342 13.4131 14.4387 13.9259 13.9259C14.4387 13.4131 15.1342 13.125 15.8594 13.125H19.6875C19.9776 13.125 20.2558 13.2402 20.4609 13.4454C20.666 13.6505 20.7812 13.9287 20.7812 14.2188C20.7812 14.5088 20.666 14.787 20.4609 14.9921C20.2558 15.1973 19.9776 15.3125 19.6875 15.3125H15.8594C15.7143 15.3125 15.5752 15.3701 15.4727 15.4727C15.3701 15.5752 15.3125 15.7143 15.3125 15.8594C15.3125 16.0044 15.3701 16.1435 15.4727 16.2461C15.5752 16.3486 15.7143 16.4062 15.8594 16.4062H19.1406C19.8658 16.4062 20.5613 16.6943 21.0741 17.2071C21.5869 17.7199 21.875 18.4154 21.875 19.1406C21.875 19.8658 21.5869 20.5613 21.0741 21.0741C20.5613 21.5869 19.8658 21.875 19.1406 21.875Z" fill="#305671"/>
<path d="M17.5 15.3125C17.2099 15.3125 16.9317 15.1973 16.7266 14.9921C16.5215 14.787 16.4062 14.5088 16.4062 14.2188V13.125C16.4062 12.8349 16.5215 12.5567 16.7266 12.3516C16.9317 12.1465 17.2099 12.0312 17.5 12.0312C17.7901 12.0312 18.0683 12.1465 18.2734 12.3516C18.4785 12.5567 18.5938 12.8349 18.5938 13.125V14.2188C18.5938 14.5088 18.4785 14.787 18.2734 14.9921C18.0683 15.1973 17.7901 15.3125 17.5 15.3125Z" fill="#305671"/>
<path d="M17.5 22.9688C17.2099 22.9688 16.9317 22.8535 16.7266 22.6484C16.5215 22.4433 16.4062 22.1651 16.4062 21.875V20.7812C16.4062 20.4912 16.5215 20.213 16.7266 20.0079C16.9317 19.8027 17.2099 19.6875 17.5 19.6875C17.7901 19.6875 18.0683 19.8027 18.2734 20.0079C18.4785 20.213 18.5938 20.4912 18.5938 20.7812V21.875C18.5938 22.1651 18.4785 22.4433 18.2734 22.6484C18.0683 22.8535 17.7901 22.9688 17.5 22.9688Z" fill="#305671"/>
</svg>
