<svg xmlns="http://www.w3.org/2000/svg" width="15.968" height="15.995" viewBox="0 0 15.968 15.995"><defs><style>.a{fill:none;stroke:#fff;stroke-linecap:round;stroke-linejoin:round;stroke-width:1.5px;}</style></defs><path class="a" d="M11.024,3.755a3.444,3.444,0,0,1,2.721,2.721M11.024,1A6.2,6.2,0,0,1,16.5,6.469m-.689,5.5v2.066a1.378,1.378,0,0,1-1.5,1.378A13.632,13.632,0,0,1,8.365,13.3,13.432,13.432,0,0,1,4.232,9.163,13.632,13.632,0,0,1,2.117,3.19a1.378,1.378,0,0,1,1.371-1.5H5.555A1.378,1.378,0,0,1,6.932,2.874a8.844,8.844,0,0,0,.482,1.936A1.378,1.378,0,0,1,7.1,6.263l-.875.875a11.021,11.021,0,0,0,4.133,4.133l.875-.875a1.378,1.378,0,0,1,1.453-.31,8.844,8.844,0,0,0,1.936.482,1.378,1.378,0,0,1,1.185,1.4Z" transform="translate(-1.361 -0.172)"/></svg>