<svg width="29" height="28" viewBox="0 0 29 28" fill="none" xmlns="http://www.w3.org/2000/svg">
<path d="M14.5132 28.0007C12.1135 28.001 9.75399 27.3844 7.66119 26.2101C5.56839 25.0359 3.81255 23.3434 2.56221 21.2952C1.31188 19.2469 0.609025 16.9117 0.521117 14.5136C0.433209 12.1155 0.963199 9.73501 2.06021 7.60071C2.18155 7.3648 2.39163 7.18676 2.64424 7.10574C2.89686 7.02473 3.1713 7.04738 3.40721 7.16871C3.64312 7.29005 3.82117 7.50013 3.90219 7.75274C3.9832 8.00535 3.96055 8.2798 3.83921 8.51571C2.45414 11.2072 2.13544 14.3221 2.94677 17.2383C3.75811 20.1546 5.63976 22.6573 8.21586 24.2467C10.792 25.8362 13.8729 26.3952 16.8431 25.8122C19.8134 25.2292 22.4545 23.5471 24.2387 21.1019C26.0229 18.6567 26.8189 15.6283 26.4678 12.6218C26.1166 9.61527 24.6441 6.85188 22.3445 4.88361C20.0448 2.91535 17.0873 1.88711 14.0626 2.00429C11.0379 2.12147 8.16871 3.37544 6.02821 5.51571C5.84057 5.70335 5.58608 5.80877 5.32071 5.80877C5.05535 5.80877 4.80086 5.70335 4.61321 5.51571C4.42557 5.32807 4.32016 5.07358 4.32016 4.80821C4.32016 4.54285 4.42557 4.28835 4.61321 4.10071C7.23886 1.47507 10.8 0 14.5132 0C18.2264 0 21.7876 1.47507 24.4132 4.10071C27.0389 6.72636 28.5139 10.2875 28.5139 14.0007C28.5139 17.7139 27.0389 21.2751 24.4132 23.9007C23.1164 25.2052 21.5736 26.2392 19.8742 26.943C18.1748 27.6468 16.3526 28.0063 14.5132 28.0007Z" fill="url(#paint0_linear_28632_23049)"/>
<path d="M14.5137 20C14.2485 20 13.9941 19.8946 13.8066 19.7071C13.619 19.5196 13.5137 19.2652 13.5137 19V9C13.5137 8.73478 13.619 8.48043 13.8066 8.29289C13.9941 8.10536 14.2485 8 14.5137 8C14.7789 8 15.0332 8.10536 15.2208 8.29289C15.4083 8.48043 15.5137 8.73478 15.5137 9V19C15.5137 19.2652 15.4083 19.5196 15.2208 19.7071C15.0332 19.8946 14.7789 20 14.5137 20Z" fill="url(#paint1_linear_28632_23049)"/>
<path d="M19.5137 15H9.51367C9.24846 15 8.9941 14.8946 8.80657 14.7071C8.61903 14.5196 8.51367 14.2652 8.51367 14C8.51367 13.7348 8.61903 13.4804 8.80657 13.2929C8.9941 13.1054 9.24846 13 9.51367 13H19.5137C19.7789 13 20.0332 13.1054 20.2208 13.2929C20.4083 13.4804 20.5137 13.7348 20.5137 14C20.5137 14.2652 20.4083 14.5196 20.2208 14.7071C20.0332 14.8946 19.7789 15 19.5137 15Z" fill="url(#paint2_linear_28632_23049)"/>
<defs>
<linearGradient id="paint0_linear_28632_23049" x1="29.914" y1="17.8925" x2="2.66789" y2="17.8085" gradientUnits="userSpaceOnUse">
<stop stop-color="#F1A768"/>
<stop offset="1" stop-color="#ED707A"/>
</linearGradient>
<linearGradient id="paint1_linear_28632_23049" x1="15.6137" y1="15.668" x2="13.6677" y2="15.667" gradientUnits="userSpaceOnUse">
<stop stop-color="#F1A768"/>
<stop offset="1" stop-color="#ED707A"/>
</linearGradient>
<linearGradient id="paint2_linear_28632_23049" x1="21.1137" y1="14.278" x2="9.44156" y2="14.0621" gradientUnits="userSpaceOnUse">
<stop stop-color="#F1A768"/>
<stop offset="1" stop-color="#ED707A"/>
</linearGradient>
</defs>
</svg>
