<svg width="16" height="16" viewBox="0 0 16 16" fill="none" xmlns="http://www.w3.org/2000/svg">
<path d="M15.8048 0.195258C15.5445 -0.0650859 15.1223 -0.0650859 14.862 0.195258L10.0001 5.05719V2.00001C10.0001 1.63182 9.70159 1.33335 9.3334 1.33335C8.96522 1.33335 8.66675 1.63182 8.66675 2.00001V6.66666C8.66675 6.66688 8.66678 6.66713 8.66678 6.66735C8.66681 6.68907 8.66794 6.71079 8.67006 6.73244C8.67103 6.74238 8.6729 6.75204 8.67431 6.76182C8.676 6.77354 8.67737 6.78526 8.67965 6.79688C8.68187 6.8081 8.68497 6.81901 8.68775 6.83004C8.69028 6.8401 8.69247 6.85019 8.6955 6.86016C8.69878 6.87098 8.70281 6.88141 8.70662 6.89198C8.71018 6.90191 8.71347 6.91194 8.71753 6.92176C8.72162 6.93163 8.7264 6.94107 8.73097 6.95069C8.73572 6.96079 8.74022 6.97098 8.7455 6.98088C8.75044 6.9901 8.75606 6.99885 8.7614 7.00779C8.76722 7.01751 8.77269 7.02735 8.77903 7.03682C8.78562 7.04669 8.793 7.05598 8.80009 7.06548C8.80603 7.07338 8.8115 7.08151 8.81784 7.08919C8.84572 7.12316 8.87687 7.15435 8.91087 7.18223C8.91856 7.18854 8.92669 7.19404 8.93459 7.19998C8.94409 7.2071 8.95337 7.21444 8.96325 7.22104C8.97272 7.22738 8.98256 7.23288 8.99228 7.23866C9.00122 7.24401 9.00997 7.24963 9.01919 7.25457C9.02909 7.25985 9.03928 7.26435 9.04937 7.2691C9.059 7.27363 9.06847 7.27844 9.07831 7.28254C9.08812 7.2866 9.09815 7.28988 9.10809 7.29344C9.11865 7.29726 9.12909 7.30129 9.1399 7.30457C9.14984 7.30757 9.15997 7.30979 9.17003 7.31232C9.18106 7.3151 9.19194 7.31819 9.20319 7.32041C9.21481 7.32273 9.22656 7.3241 9.23825 7.32576C9.24806 7.32716 9.25769 7.32901 9.26762 7.33001C9.28928 7.33213 9.311 7.33329 9.33272 7.33329C9.33293 7.33329 9.33318 7.33332 9.3334 7.33332H14.0001C14.3682 7.33332 14.6667 7.03485 14.6667 6.66666C14.6667 6.29848 14.3682 6.00001 14.0001 6.00001H10.9429L15.8048 1.13807C16.0652 0.877727 16.0652 0.455633 15.8048 0.195258Z" fill="white"/>
<path d="M7.33001 9.26756C7.32904 9.25762 7.32716 9.24797 7.32576 9.23819C7.32407 9.22647 7.32269 9.21475 7.32041 9.20312C7.31819 9.19191 7.3151 9.181 7.31232 9.16997C7.30979 9.15991 7.3076 9.14981 7.30457 9.13984C7.30129 9.12903 7.29726 9.11859 7.29344 9.10803C7.28988 9.09809 7.2866 9.08806 7.28254 9.07825C7.27844 9.06837 7.27366 9.05894 7.2691 9.04931C7.26435 9.03922 7.25985 9.02903 7.25457 9.01912C7.24963 9.00991 7.24401 9.00116 7.23866 8.99222C7.23285 8.9825 7.22738 8.97266 7.22104 8.96319C7.21444 8.95331 7.20707 8.94403 7.19998 8.93453C7.19404 8.92662 7.18857 8.9185 7.18223 8.91081C7.15435 8.87684 7.12319 8.84566 7.08919 8.81778C7.08151 8.81147 7.07338 8.80597 7.06548 8.80003C7.05598 8.79291 7.04669 8.78556 7.03682 8.77897C7.02735 8.77262 7.01751 8.76712 7.00779 8.76134C6.99885 8.756 6.9901 8.75037 6.98088 8.74544C6.97098 8.74016 6.96079 8.73566 6.95069 8.73091C6.94107 8.72637 6.9316 8.72156 6.92176 8.71747C6.91194 8.71341 6.90191 8.71012 6.89198 8.70656C6.88141 8.70275 6.87098 8.69872 6.86016 8.69544C6.85023 8.69244 6.8401 8.69022 6.83004 8.68769C6.81901 8.68491 6.80813 8.68181 6.79688 8.67959C6.78526 8.67728 6.77351 8.6759 6.76182 8.67425C6.75201 8.67284 6.74238 8.671 6.73244 8.67C6.71057 8.66784 6.68863 8.66669 6.66666 8.66669H2.00001C1.63182 8.66669 1.33335 8.96516 1.33335 9.33334C1.33335 9.70153 1.63182 10 2.00001 10H5.05719L0.195258 14.8619C-0.0650859 15.1223 -0.0650859 15.5444 0.195258 15.8047C0.455602 16.0651 0.877727 16.0651 1.13807 15.8047L6.00001 10.9428V14C6.00001 14.3682 6.29848 14.6667 6.66666 14.6667C7.03485 14.6667 7.33332 14.3682 7.33332 14V9.33334C7.33335 9.31137 7.33216 9.28944 7.33001 9.26756Z" fill="white"/>
</svg>
