<svg width="16" height="16" viewBox="0 0 16 16" fill="none" xmlns="http://www.w3.org/2000/svg">
<path d="M7.16347 8.83653C7.30411 8.97718 7.38312 9.16794 7.38312 9.36684C7.38312 9.56575 7.30411 9.75651 7.16347 9.89716L2.56066 14.5H6.18566C6.38457 14.5 6.57533 14.579 6.71599 14.7197C6.85664 14.8603 6.93566 15.0511 6.93566 15.25C6.93566 15.4489 6.85664 15.6397 6.71599 15.7803C6.57533 15.921 6.38457 16 6.18566 16H0.75C0.551088 16 0.360322 15.921 0.21967 15.7803C0.0790176 15.6397 0 15.4489 0 15.25L0 9.81425C0 9.61534 0.0790176 9.42457 0.21967 9.28392C0.360322 9.14327 0.551088 9.06425 0.75 9.06425C0.948912 9.06425 1.13968 9.14327 1.28033 9.28392C1.42098 9.42457 1.5 9.61534 1.5 9.81425V13.4392L6.10281 8.83644C6.24348 8.6958 6.43425 8.6168 6.63316 8.61682C6.83207 8.61683 7.02283 8.69587 7.16347 8.83653ZM15.7803 0.219656C15.7107 0.150013 15.628 0.0947701 15.537 0.0570814C15.446 0.0193927 15.3485 -3.58832e-06 15.25 4.97928e-10L9.81422 4.97928e-10C9.61531 4.97929e-10 9.42454 0.0790176 9.28389 0.21967C9.14324 0.360322 9.06422 0.551088 9.06422 0.75C9.06422 0.948912 9.14324 1.13968 9.28389 1.28033C9.42454 1.42098 9.61531 1.5 9.81422 1.5H13.4392L8.83653 6.10281C8.69729 6.24375 8.61947 6.43406 8.62007 6.63219C8.62066 6.83031 8.69963 7.02015 8.83972 7.16024C8.97982 7.30034 9.16965 7.37931 9.36778 7.37992C9.5659 7.38052 9.75621 7.30271 9.89716 7.16347L14.5 2.56066V6.18566C14.5 6.38457 14.579 6.57533 14.7197 6.71599C14.8603 6.85664 15.0511 6.93566 15.25 6.93566C15.4489 6.93566 15.6397 6.85664 15.7803 6.71599C15.921 6.57533 16 6.38457 16 6.18566V0.75C16 0.651507 15.9806 0.553978 15.9429 0.462982C15.9052 0.371985 15.85 0.289303 15.7803 0.219656Z" fill="white"/>
</svg>
