<svg width="18" height="19" viewBox="0 0 18 19" fill="none" xmlns="http://www.w3.org/2000/svg">
<g clip-path="url(#clip0_2524_85459)">
<path d="M13.5 18.8033C13.425 18.8033 13.35 18.7883 13.2795 18.7583C13.1055 18.684 9 16.896 9 13.2188V10.2053C9 9.96453 9.153 9.75078 9.38175 9.67278L13.3193 8.33328C13.4363 8.29353 13.5637 8.29353 13.6807 8.33328L17.6182 9.67278C17.847 9.75078 18 9.96453 18 10.2053V13.2188C18 16.896 13.8945 18.684 13.7205 18.759C13.65 18.7883 13.575 18.8033 13.5 18.8033ZM10.125 10.608V13.218C10.125 15.7178 12.717 17.2208 13.5 17.6168C14.283 17.2208 16.875 15.7178 16.875 13.218V10.608L13.5 9.45978L10.125 10.608Z" fill="#305671"/>
<path d="M13.3123 15.4282C13.1638 15.4282 13.0198 15.3697 12.9148 15.2632L11.4148 13.7632C11.1951 13.5434 11.1951 13.1872 11.4148 12.9674C11.6346 12.7477 11.9908 12.7477 12.2106 12.9674L13.2523 14.0092L15.1123 11.5282C15.2968 11.2799 15.6508 11.2289 15.8998 11.4164C16.1481 11.6024 16.1983 11.9549 16.0116 12.2039L13.7616 15.2039C13.6641 15.3344 13.5148 15.4154 13.3513 15.4274C13.3386 15.4274 13.3258 15.4282 13.3123 15.4282Z" fill="#305671"/>
<path d="M7.9425 16.5532H2.0625C0.92475 16.5532 0 15.6285 0 14.4907V2.86572C0 1.72797 0.92475 0.803223 2.0625 0.803223H10.6875C11.8253 0.803223 12.75 1.72797 12.75 2.86572V6.93822C12.75 7.24872 12.498 7.50072 12.1875 7.50072C11.877 7.50072 11.625 7.24872 11.625 6.93822V2.86572C11.625 2.34897 11.2043 1.92822 10.6875 1.92822H2.0625C1.54575 1.92822 1.125 2.34897 1.125 2.86572V14.4907C1.125 15.0075 1.54575 15.4282 2.0625 15.4282H7.9425C8.253 15.4282 8.505 15.6802 8.505 15.9907C8.505 16.3012 8.253 16.5532 7.9425 16.5532Z" fill="#305671"/>
<path d="M9.9375 7.92822H2.8125C2.502 7.92822 2.25 7.67622 2.25 7.36572C2.25 7.05522 2.502 6.80322 2.8125 6.80322H9.9375C10.248 6.80322 10.5 7.05522 10.5 7.36572C10.5 7.67622 10.248 7.92822 9.9375 7.92822Z" fill="#305671"/>
<path d="M6.9375 10.9282H2.8125C2.502 10.9282 2.25 10.6762 2.25 10.3657C2.25 10.0552 2.502 9.80322 2.8125 9.80322H6.9375C7.248 9.80322 7.5 10.0552 7.5 10.3657C7.5 10.6762 7.248 10.9282 6.9375 10.9282Z" fill="#305671"/>
<path d="M6.1875 4.92822H2.8125C2.502 4.92822 2.25 4.67622 2.25 4.36572C2.25 4.05522 2.502 3.80322 2.8125 3.80322H6.1875C6.498 3.80322 6.75 4.05522 6.75 4.36572C6.75 4.67622 6.498 4.92822 6.1875 4.92822Z" fill="#305671"/>
</g>
<defs>
<clipPath id="clip0_2524_85459">
<rect width="18" height="18" fill="white" transform="translate(0 0.803223)"/>
</clipPath>
</defs>
</svg>
