<svg width="31" height="27" viewBox="0 0 31 27" fill="none" xmlns="http://www.w3.org/2000/svg">
<path d="M29.2124 6.37891H1.80745C1.76432 6.38221 1.72099 6.37614 1.68042 6.36113C1.63986 6.34611 1.60303 6.3225 1.57244 6.29192C1.54186 6.26133 1.51825 6.2245 1.50323 6.18393C1.48822 6.14337 1.48215 6.10004 1.48545 6.05691V1.68191C1.48035 1.59614 1.49349 1.51026 1.524 1.42994C1.55451 1.34962 1.6017 1.27668 1.66245 1.21592C1.72321 1.15516 1.79615 1.10798 1.87648 1.07747C1.9568 1.04695 2.04268 1.03382 2.12845 1.03891H28.9554C29.0412 1.03382 29.1271 1.04695 29.2074 1.07747C29.2877 1.10798 29.3607 1.15516 29.4214 1.21592C29.4822 1.27668 29.5294 1.34962 29.5599 1.42994C29.5904 1.51026 29.6035 1.59614 29.5984 1.68191V6.05691C29.5793 6.14597 29.5309 6.22606 29.4609 6.28442C29.391 6.34277 29.3035 6.37604 29.2124 6.37891V6.37891Z" stroke="#305671" stroke-width="2" stroke-miterlimit="10" stroke-linecap="round"/>
<path d="M26.7704 25.9999H4.25345C4.16768 26.005 4.0818 25.9919 4.00148 25.9614C3.92115 25.9308 3.84821 25.8837 3.78745 25.8229C3.7267 25.7621 3.67951 25.6892 3.649 25.6089C3.61849 25.5286 3.60535 25.4427 3.61045 25.3569V6.37891H27.4774V25.3569C27.4517 25.5291 27.3672 25.6871 27.2384 25.8043C27.1096 25.9214 26.9443 25.9905 26.7704 25.9999V25.9999Z" stroke="#305671" stroke-width="2" stroke-miterlimit="10" stroke-linecap="round"/>
<path d="M20.2016 14.4839H11.1316C10.637 14.4837 10.1627 14.2871 9.81281 13.9375C9.46295 13.5878 9.26615 13.1136 9.26562 12.6189V12.6189C9.26589 12.1241 9.46257 11.6496 9.81246 11.2998C10.1623 10.9499 10.6368 10.7532 11.1316 10.7529H20.2026C20.6969 10.754 21.1706 10.951 21.5199 11.3008C21.8691 11.6506 22.0654 12.1246 22.0656 12.6189C22.0542 13.1098 21.8542 13.5774 21.5071 13.9247C21.16 14.272 20.6925 14.4722 20.2016 14.4839V14.4839Z" stroke="#305671" stroke-width="2" stroke-miterlimit="10" stroke-linecap="round"/>
</svg>
