<svg id="People" xmlns="http://www.w3.org/2000/svg" xmlns:xlink="http://www.w3.org/1999/xlink" width="33.503" height="45.686" viewBox="0 0 33.503 45.686">
  <defs>
    <linearGradient id="linear-gradient" x1="0.5" x2="0.5" y2="1" gradientUnits="objectBoundingBox">
      <stop offset="0" stop-color="#f1a768"/>
      <stop offset="1" stop-color="#ed707a"/>
    </linearGradient>
  </defs>
  <g id="Icon-25">
    <path id="microphone" d="M40.742,24.366H39.219a.761.761,0,0,0-.761.761A13.633,13.633,0,0,1,26.945,38.659a.762.762,0,0,0-.67.756v5.51a.761.761,0,0,0,1.523,0V40.053a15.133,15.133,0,0,0,12.15-14.164h.794a.761.761,0,0,0,0-1.523m-18.17,14.3A13.635,13.635,0,0,1,11.046,25.128a.761.761,0,0,0-.761-.761H8.761a.761.761,0,1,0,0,1.523h.794a15.133,15.133,0,0,0,12.15,14.164v4.872a.761.761,0,0,0,1.523,0v-5.51a.764.764,0,0,0-.657-.754m2.18-2.112a10.672,10.672,0,0,1-10.66-10.66v-.761a.761.761,0,0,1,.761-.761H31.6a.761.761,0,0,1,0,1.523H15.614a9.137,9.137,0,0,0,18.275,0V21.32h-5.33a.761.761,0,1,1,0-1.523h5.33V16.752h-5.33a.761.761,0,1,1,0-1.523h5.33V12.183h-5.33a.761.761,0,1,1,0-1.523h5.33a9.137,9.137,0,0,0-18.275,0H17.9a.761.761,0,0,1,0,1.523H15.614v3.046H17.9a.761.761,0,0,1,0,1.523H15.614V19.8H17.9a.761.761,0,0,1,0,1.523H15.614v.761a.761.761,0,1,1-1.523,0V10.66a10.66,10.66,0,1,1,21.32,0V25.889a10.672,10.672,0,0,1-10.66,10.66" transform="translate(-8)" fill="url(#linear-gradient)"/>
  </g>
</svg>
