<svg width="26" height="26" viewBox="0 0 26 26" fill="none" xmlns="http://www.w3.org/2000/svg">
<path d="M15.8848 7.79397V15.8859H9.12528V12.9953H12.9934V7.79397H15.8848ZM3.80055 3.80467C6.23978 1.36845 9.54665 0 12.9945 0C16.4424 0 19.7493 1.36845 22.1885 3.80467L23.1087 4.7791L26 1.88849V10.1047H17.8232L21.1179 6.81081L20.1498 5.84292C18.5328 4.24268 16.4236 3.2339 14.1626 2.97945C11.9017 2.72499 9.62093 3.2397 7.68855 4.44048C5.75617 5.64126 4.28493 7.45804 3.51231 9.59755C2.7397 11.7371 2.71081 14.0745 3.4303 16.2324C4.14979 18.3903 5.57568 20.2429 7.47779 21.4911C9.3799 22.7392 11.6472 23.3101 13.9138 23.1116C16.1803 22.9131 18.3138 21.9567 19.9699 20.3969C21.6259 18.8371 22.7079 16.7649 23.0411 14.5147H25.9324C25.6896 16.5745 24.9577 18.5463 23.7977 20.2658C22.6377 21.9852 21.0832 23.4025 19.264 24.3992C17.4448 25.396 15.4135 25.9434 13.3397 25.9958C11.2659 26.0483 9.20954 25.6041 7.34227 24.7005C5.47501 23.7969 3.85094 22.46 2.60552 20.8013C1.36011 19.1427 0.529462 17.2103 0.182872 15.1655C-0.163719 13.1206 -0.0162048 11.0226 0.613108 9.04629C1.24242 7.07002 2.33529 5.27284 3.80055 3.80467V3.80467Z" fill="#305671"/>
</svg>
