<svg width="17" height="16" viewBox="0 0 17 16" fill="none" xmlns="http://www.w3.org/2000/svg">
<g clip-path="url(#clip0_2939_8480)">
<path d="M7.99902 15.5C6.0099 15.5 4.10225 14.7099 2.69572 13.3033C1.2892 11.8968 0.499023 9.98917 0.499023 8.00004C0.499023 7.86743 0.551702 7.74026 0.64547 7.64649C0.739238 7.55272 0.866415 7.50004 0.999023 7.50004C1.13163 7.50004 1.25881 7.55272 1.35258 7.64649C1.44635 7.74026 1.49902 7.86743 1.49902 8.00004C1.49975 9.50669 2.02385 10.9663 2.98171 12.1293C3.93956 13.2923 5.27168 14.0864 6.75026 14.3758C8.22885 14.6653 9.76207 14.4321 11.0878 13.7162C12.4134 13.0002 13.4492 11.846 14.018 10.4508C14.5868 9.05565 14.6533 7.50622 14.2061 6.06747C13.7588 4.62873 12.8257 3.39003 11.5662 2.56318C10.3067 1.73634 8.79907 1.37271 7.30112 1.53448C5.80318 1.69625 4.40795 2.37336 3.35402 3.45004C3.28439 3.52025 3.1955 3.56824 3.09859 3.58793C3.00168 3.60762 2.90111 3.59814 2.8096 3.56068C2.71808 3.52321 2.63973 3.45946 2.58445 3.37746C2.52917 3.29547 2.49944 3.19893 2.49902 3.10004V1.50004C2.49902 1.36743 2.5517 1.24026 2.64547 1.14649C2.73924 1.05272 2.86642 1.00004 2.99902 1.00004C3.13163 1.00004 3.25881 1.05272 3.35258 1.14649C3.44634 1.24026 3.49902 1.36743 3.49902 1.50004V2.00004C4.79467 1.02147 6.37536 0.494572 7.99902 0.500042C9.98815 0.500042 11.8958 1.29022 13.3023 2.69674C14.7088 4.10326 15.499 6.01092 15.499 8.00004C15.499 9.98917 14.7088 11.8968 13.3023 13.3033C11.8958 14.7099 9.98815 15.5 7.99902 15.5Z" fill="white"/>
<path d="M9.93652 7.42857H7.12402V6.28571H9.93652C10.0857 6.28571 10.2288 6.22551 10.3343 6.11835C10.4398 6.01118 10.499 5.86584 10.499 5.71429C10.499 5.56273 10.4398 5.41739 10.3343 5.31022C10.2288 5.20306 10.0857 5.14286 9.93652 5.14286H8.81152V4.57143C8.81152 4.41988 8.75226 4.27453 8.64677 4.16737C8.54128 4.0602 8.39821 4 8.24902 4C8.09984 4 7.95677 4.0602 7.85128 4.16737C7.74579 4.27453 7.68652 4.41988 7.68652 4.57143V5.14286H6.56152C6.41234 5.14286 6.26927 5.20306 6.16378 5.31022C6.05829 5.41739 5.99902 5.56273 5.99902 5.71429V8C5.99902 8.15155 6.05829 8.2969 6.16378 8.40406C6.26927 8.51123 6.41234 8.57143 6.56152 8.57143H9.37402V9.71429H6.56152C6.41234 9.71429 6.26927 9.77449 6.16378 9.88165C6.05829 9.98882 5.99902 10.1342 5.99902 10.2857C5.99902 10.4373 6.05829 10.5826 6.16378 10.6898C6.26927 10.7969 6.41234 10.8571 6.56152 10.8571H7.68652V11.4286C7.68652 11.5801 7.74579 11.7255 7.85128 11.8326C7.95677 11.9398 8.09984 12 8.24902 12C8.39821 12 8.54128 11.9398 8.64677 11.8326C8.75226 11.7255 8.81152 11.5801 8.81152 11.4286V10.8571H9.93652C10.0857 10.8571 10.2288 10.7969 10.3343 10.6898C10.4398 10.5826 10.499 10.4373 10.499 10.2857V8C10.499 7.84845 10.4398 7.7031 10.3343 7.59594C10.2288 7.48878 10.0857 7.42857 9.93652 7.42857Z" fill="white"/>
</g>
<defs>
<clipPath id="clip0_2939_8480">
<rect width="16.1171" height="16" fill="white" transform="translate(0.445312)"/>
</clipPath>
</defs>
</svg>
