<svg width="16" height="16" viewBox="0 0 16 16" fill="none" xmlns="http://www.w3.org/2000/svg">
<path d="M3.25332 2.19276C6.19932 -0.221487 10.5531 -0.0534872 13.3033 2.69676C16.2321 5.62551 16.2321 10.3745 13.3033 13.3033C10.3746 16.232 5.62557 16.232 2.69682 13.3033C1.79804 12.4057 1.14213 11.2945 0.790666 10.0739C0.439205 8.85325 0.403729 7.56334 0.687572 6.32526L0.745321 6.09051L2.19582 6.47301C1.83623 7.83971 1.97059 9.28947 2.57523 10.5668C3.17987 11.8441 4.21597 12.867 5.50095 13.4553C6.78592 14.0435 8.23729 14.1593 9.59926 13.7822C10.9612 13.4051 12.1464 12.5594 12.9459 11.3941C13.7454 10.2288 14.1079 8.81863 13.9695 7.41221C13.8311 6.00579 13.2007 4.69335 12.1895 3.70619C11.1782 2.71903 9.85093 2.12051 8.44158 2.01611C7.03223 1.91171 5.63126 2.30813 4.48557 3.13551L4.31982 3.26001L5.08257 4.02276L1.63557 4.81776L2.43057 1.37076L3.25257 2.19276H3.25332ZM8.75007 3.50001V5.00001H10.6251V6.50001H6.50007C6.40636 6.49984 6.31598 6.53476 6.24673 6.5979C6.17748 6.66103 6.13438 6.7478 6.12592 6.84113C6.11745 6.93446 6.14423 7.02757 6.20099 7.10214C6.25774 7.1767 6.34036 7.22732 6.43257 7.24401L6.50007 7.25001H9.50007C9.99735 7.25001 10.4743 7.44756 10.8259 7.79919C11.1775 8.15082 11.3751 8.62773 11.3751 9.12501C11.3751 9.62229 11.1775 10.0992 10.8259 10.4508C10.4743 10.8025 9.99735 11 9.50007 11H8.75007V12.5H7.25007V11H5.37507V9.50001H9.50007C9.59378 9.50019 9.68416 9.46527 9.75341 9.40213C9.82266 9.339 9.86576 9.25222 9.87423 9.1589C9.8827 9.06557 9.85591 8.97246 9.79916 8.89789C9.7424 8.82332 9.65978 8.77271 9.56757 8.75601L9.50007 8.75001H6.50007C6.00279 8.75001 5.52588 8.55247 5.17425 8.20084C4.82262 7.84921 4.62507 7.37229 4.62507 6.87501C4.62507 6.37773 4.82262 5.90082 5.17425 5.54919C5.52588 5.19756 6.00279 5.00001 6.50007 5.00001H7.25007V3.50001H8.75007Z" fill="#305671"/>
</svg>
