<svg width="22" height="23" viewBox="0 0 22 23" fill="none" xmlns="http://www.w3.org/2000/svg">
<path d="M8.40062 22.4102C8.49414 22.4487 8.59435 22.4683 8.69549 22.4679C8.81598 22.4673 8.93466 22.4385 9.04196 22.3837L12.8023 20.494C13.185 20.3014 13.5066 20.0062 13.7312 19.6413C13.9557 19.2764 14.0743 18.8563 14.0737 18.4278V14.2956L15.559 12.6471L14.2871 11.7837L12.7483 13.4882C12.62 13.6292 12.5487 13.8126 12.548 14.0032V18.4358C12.5491 18.5792 12.5102 18.7201 12.4355 18.8426C12.3608 18.965 12.2533 19.0641 12.1252 19.1287L9.46472 20.451V14.0032C9.47064 13.8158 9.4079 13.6326 9.2883 13.4882L3.13287 6.67006C2.84664 6.35158 2.6546 5.95979 2.5782 5.53846H7.92626L6 4H1.76924C1.56522 4 1.36957 4.08104 1.22531 4.2253C1.08105 4.36956 1.00001 4.56522 1.00001 4.76923V5.12365C0.9984 6.07522 1.34946 6.99364 1.98538 7.70152L7.92626 14.2956V21.6987C7.92584 21.7998 7.94545 21.9 7.98395 21.9935C8.02246 22.087 8.07911 22.172 8.15062 22.2435C8.22214 22.315 8.3071 22.3717 8.40062 22.4102Z" fill="#9BAEBC"/>
<path d="M20.7747 4.2253C20.6304 4.08104 20.4348 4 20.2308 4H10L11.5 5.53846H19.4727C19.3922 5.96132 19.1951 6.35326 18.9037 6.67006L16 10L17.0442 10.9986L20.0146 7.70152C20.6505 6.99364 21.0016 6.07522 21 5.12365V4.76923C21 4.56522 20.919 4.36956 20.7747 4.2253Z" fill="#9BAEBC"/>
<path d="M8.40062 22.4102C8.49414 22.4487 8.59435 22.4683 8.69549 22.4679C8.81598 22.4673 8.93466 22.4385 9.04196 22.3837L12.8023 20.494C13.185 20.3014 13.5066 20.0062 13.7312 19.6413C13.9557 19.2764 14.0743 18.8563 14.0737 18.4278V14.2956L15.559 12.6471L14.2871 11.7837L12.7483 13.4882C12.62 13.6292 12.5487 13.8126 12.548 14.0032V18.4358C12.5491 18.5792 12.5102 18.7201 12.4355 18.8426C12.3608 18.965 12.2533 19.0641 12.1252 19.1287L9.46472 20.451V14.0032C9.47064 13.8158 9.4079 13.6326 9.2883 13.4882L3.13287 6.67006C2.84664 6.35158 2.6546 5.95979 2.5782 5.53846H7.92626L6 4H1.76924C1.56522 4 1.36957 4.08104 1.22531 4.2253C1.08105 4.36956 1.00001 4.56522 1.00001 4.76923V5.12365C0.9984 6.07522 1.34946 6.99364 1.98538 7.70152L7.92626 14.2956V21.6987C7.92584 21.7998 7.94545 21.9 7.98395 21.9935C8.02246 22.087 8.07911 22.172 8.15062 22.2435C8.22214 22.315 8.3071 22.3717 8.40062 22.4102Z" stroke="#9BAEBC" stroke-width="0.25"/>
<path d="M20.7747 4.2253C20.6304 4.08104 20.4348 4 20.2308 4H10L11.5 5.53846H19.4727C19.3922 5.96132 19.1951 6.35326 18.9037 6.67006L16 10L17.0442 10.9986L20.0146 7.70152C20.6505 6.99364 21.0016 6.07522 21 5.12365V4.76923C21 4.56522 20.919 4.36956 20.7747 4.2253Z" stroke="#9BAEBC" stroke-width="0.25"/>
<line x1="3.70711" y1="1.29289" x2="18.7071" y2="16.2929" stroke="#9BAEBC" stroke-width="2"/>
</svg>
