<svg width="16" height="15" viewBox="0 0 16 15" fill="none" xmlns="http://www.w3.org/2000/svg">
<path d="M10.5 6C9.98878 6.00093 9.48149 6.0892 9 6.261V5H5V6H3V4H4V0H0V4H2V12H5V14H7.674C8.23401 14.4526 8.89444 14.7641 9.59982 14.9085C10.3052 15.053 11.0349 15.026 11.7278 14.83C12.4206 14.6339 13.0562 14.2745 13.5813 13.7818C14.1064 13.2892 14.5056 12.6778 14.7455 11.9989C14.9853 11.32 15.0587 10.5934 14.9595 9.88026C14.8604 9.16711 14.5915 8.48816 14.1756 7.90044C13.7597 7.31272 13.2088 6.83338 12.5692 6.50269C11.9296 6.172 11.22 5.99961 10.5 6ZM5 11H3V7H5V9H6.261C6.14549 9.32331 6.06765 9.65886 6.029 10H5V11ZM10.5 13.941C9.81915 13.9412 9.15354 13.7395 8.58735 13.3613C8.02116 12.9832 7.57984 12.4456 7.3192 11.8167C7.05856 11.1877 6.99031 10.4955 7.12309 9.82774C7.25587 9.15997 7.58371 8.54657 8.06514 8.06514C8.54657 7.58371 9.15997 7.25587 9.82774 7.12309C10.4955 6.99031 11.1877 7.05856 11.8167 7.3192C12.4456 7.57984 12.9832 8.02116 13.3613 8.58735C13.7395 9.15354 13.9412 9.81915 13.941 10.5C13.9389 11.412 13.5757 12.286 12.9308 12.9308C12.286 13.5757 11.412 13.9389 10.5 13.941Z" className="a"/>
</svg>
