<svg width="20" height="20" viewBox="0 0 20 20" fill="none" xmlns="http://www.w3.org/2000/svg">
<path d="M10 20C15.5228 20 20 15.5228 20 10C20 4.47715 15.5228 0 10 0C4.47715 0 0 4.47715 0 10C0 15.5228 4.47715 20 10 20Z" fill="url(#paint0_linear_28632_22988)"/>
<path d="M7.89698 9.62847H10.39L9.84398 9.08247C9.77997 9.01858 9.72916 8.94271 9.69446 8.85919C9.65976 8.77566 9.64186 8.68612 9.64176 8.59568C9.64167 8.50524 9.65939 8.41566 9.69392 8.33206C9.72844 8.24847 9.7791 8.17249 9.84298 8.10847C9.90687 8.04445 9.98274 7.99364 10.0663 7.95895C10.1498 7.92425 10.2393 7.90634 10.3298 7.90625C10.4202 7.90616 10.5098 7.92388 10.5934 7.95841C10.677 7.99293 10.753 8.04358 10.817 8.10747L13.024 10.3165L10.817 12.5235C10.7531 12.5874 10.6773 12.638 10.5938 12.6726C10.5103 12.7072 10.4208 12.725 10.3305 12.725C10.2401 12.725 10.1507 12.7072 10.0672 12.6726C9.98372 12.638 9.90787 12.5874 9.84398 12.5235C9.7801 12.4596 9.72942 12.3837 9.69484 12.3003C9.66027 12.2168 9.64247 12.1273 9.64247 12.037C9.64247 11.9466 9.66027 11.8572 9.69484 11.7737C9.72942 11.6902 9.7801 11.6144 9.84398 11.5505L10.39 11.0075H7.89698C7.80664 11.0075 7.71717 10.9897 7.6337 10.9551C7.55023 10.9205 7.47438 10.8698 7.4105 10.806C7.34661 10.7421 7.29593 10.6662 7.26136 10.5828C7.22678 10.4993 7.20898 10.4098 7.20898 10.3195C7.20898 10.2291 7.22678 10.1397 7.26136 10.0562C7.29593 9.97271 7.34661 9.89687 7.4105 9.83298C7.47438 9.7691 7.55023 9.71842 7.6337 9.68384C7.71717 9.64927 7.80664 9.63147 7.89698 9.63147V9.62847Z" fill="white"/>
<defs>
<linearGradient id="paint0_linear_28632_22988" x1="20" y1="10" x2="0" y2="10" gradientUnits="userSpaceOnUse">
<stop stop-color="#F1A768"/>
<stop offset="1" stop-color="#ED707A"/>
</linearGradient>
</defs>
</svg>
