<svg width="57" height="59" viewBox="0 0 57 59" fill="none" xmlns="http://www.w3.org/2000/svg">
<ellipse cx="28.2959" cy="31.3033" rx="28.2959" ry="27.6939" fill="#FFE3AE"/>
<mask id="mask0_23677_10369" style="mask-type:alpha" maskUnits="userSpaceOnUse" x="0" y="3" width="57" height="56">
<ellipse cx="28.2959" cy="31.3033" rx="28.2959" ry="27.6939" fill="#FFEBC3"/>
</mask>
<g mask="url(#mask0_23677_10369)">
<ellipse cx="18.6638" cy="22.8747" rx="19.8673" ry="19.2653" fill="#FCDA9A"/>
</g>
<circle cx="19.5665" cy="19.569" r="18.0612" fill="#D58445"/>
<circle cx="18.664" cy="18.6614" r="16.2551" fill="#F4EADE"/>
<path d="M19.5258 0C15.6639 0 11.8888 1.14517 8.67784 3.29068C5.46684 5.4362 2.96418 8.48571 1.48632 12.0536C0.00846002 15.6214 -0.378215 19.5474 0.375191 23.335C1.1286 27.1227 2.98824 30.6018 5.71897 33.3326C8.4497 36.0633 11.9289 37.9229 15.7165 38.6763C19.5041 39.4297 23.4301 39.0431 26.998 37.5652C30.5658 36.0874 33.6153 33.5847 35.7608 30.3737C37.9064 27.1627 39.0515 23.3876 39.0515 19.5258C39.045 14.3492 36.9857 9.38659 33.3253 5.72623C29.6649 2.06586 24.7023 0.00657617 19.5258 0ZM19.5258 35.5031C16.3657 35.5031 13.2767 34.5661 10.6492 32.8105C8.02175 31.0548 5.97389 28.5595 4.7646 25.64C3.55531 22.7206 3.2389 19.508 3.85539 16.4087C4.47188 13.3094 5.99358 10.4625 8.22806 8.22805C10.4625 5.99357 13.3094 4.47187 16.4087 3.85538C19.508 3.23889 22.7206 3.5553 25.64 4.76459C28.5595 5.97388 31.0549 8.02174 32.8105 10.6492C34.5661 13.2767 35.5031 16.3657 35.5031 19.5258C35.4988 23.7619 33.814 27.8232 30.8186 30.8186C27.8232 33.814 23.7619 35.4988 19.5258 35.5031Z" fill="#B06328"/>
<path d="M49.186 46.6742L38.5436 36.0236C38.3805 35.8513 38.1845 35.7134 37.9672 35.6182C37.7499 35.5229 37.5158 35.4722 37.2785 35.4689C37.0413 35.4657 36.8058 35.51 36.586 35.5993C36.3662 35.6886 36.1665 35.821 35.9988 35.9888C35.831 36.1566 35.6985 36.3563 35.6093 36.5761C35.52 36.7959 35.4756 37.0313 35.4789 37.2686C35.4821 37.5058 35.5329 37.74 35.6281 37.9573C35.7234 38.1746 35.8612 38.3705 36.0335 38.5337L46.6869 49.1843C47.0228 49.5023 47.4695 49.6767 47.9319 49.6704C48.3944 49.6641 48.8362 49.4775 49.1632 49.1505C49.4903 48.8235 49.6768 48.3817 49.6831 47.9192C49.6894 47.4568 49.515 47.0101 49.197 46.6742H49.186Z" fill="#B06328"/>
<path d="M16.8552 10.4295C23.3687 7.34874 19.2908 6.29716 16.1432 7.02175C11.7066 8.04308 8.26834 12.1518 7.06162 16.6553C6.45827 18.9071 7.13125 24.257 9.89305 18.2174C11.8589 13.9184 12.8668 12.3951 16.8552 10.4295Z" fill="white" stroke="white"/>
</svg>
