<svg xmlns="http://www.w3.org/2000/svg" width="30" height="30" viewBox="0 0 30 30"><defs><style>.a,.b{fill:none;stroke:#305671;stroke-width:2px;}.a{stroke-linecap:round;stroke-linejoin:round;}.b{stroke-miterlimit:10;}</style></defs><circle class="a" cx="3.649" cy="3.649" r="3.649" transform="translate(11.216 11.216)"/><path class="b" d="M24.418,18.818a2.1,2.1,0,0,0,.42,2.316l.076.076a2.547,2.547,0,1,1-3.6,3.6l-.076-.076a2.117,2.117,0,0,0-3.589,1.5v.216a2.545,2.545,0,0,1-5.091,0V26.34a2.1,2.1,0,0,0-1.375-1.922,2.1,2.1,0,0,0-2.316.42l-.076.076a2.547,2.547,0,1,1-3.6-3.6l.076-.076a2.117,2.117,0,0,0-1.5-3.589H3.545a2.545,2.545,0,0,1,0-5.091H3.66a2.1,2.1,0,0,0,1.922-1.375,2.1,2.1,0,0,0-.42-2.316l-.076-.076a2.547,2.547,0,1,1,3.6-3.6l.076.076a2.1,2.1,0,0,0,2.316.42h.1a2.1,2.1,0,0,0,1.273-1.922V3.545a2.545,2.545,0,1,1,5.091,0V3.66a2.117,2.117,0,0,0,3.589,1.5l.076-.076a2.547,2.547,0,1,1,3.6,3.6l-.076.076a2.1,2.1,0,0,0-.42,2.316v.1a2.1,2.1,0,0,0,1.922,1.273h.216a2.545,2.545,0,1,1,0,5.091H26.34A2.1,2.1,0,0,0,24.418,18.818Z"/></svg>