<svg xmlns="http://www.w3.org/2000/svg" width="27.05" height="27.05" viewBox="0 0 27.05 27.05"><defs><style>.a{fill:#305671;}</style></defs><g transform="translate(0 5.072)"><path class="a" d="M18.6,24H3.381A3.381,3.381,0,0,0,0,27.381V42.6a3.381,3.381,0,0,0,3.381,3.381H18.6A3.381,3.381,0,0,0,21.978,42.6V27.381A3.381,3.381,0,0,0,18.6,24Zm1.691,18.6A1.692,1.692,0,0,1,18.6,44.287H3.381A1.692,1.692,0,0,1,1.691,42.6V27.381a1.692,1.692,0,0,1,1.691-1.691H18.6a1.692,1.692,0,0,1,1.691,1.691Z" transform="translate(0 -24)"/></g><path class="a" d="M24,49.691H35.834V48H24Z" transform="translate(-18.928 -37.856)"/><path class="a" d="M24,65.691H35.834V64H24Z" transform="translate(-18.928 -50.475)"/><path class="a" d="M24,81.691H35.834V80H24Z" transform="translate(-18.928 -63.094)"/><path class="a" d="M24,97.691h6.762V96H24Z" transform="translate(-18.928 -75.713)"/><path class="a" d="M42.6,0H27.381A3.381,3.381,0,0,0,24,3.381h1.691a1.692,1.692,0,0,1,1.691-1.691H42.6a1.692,1.692,0,0,1,1.691,1.691V18.6A1.692,1.692,0,0,1,42.6,20.287v1.691A3.381,3.381,0,0,0,45.978,18.6V3.381A3.381,3.381,0,0,0,42.6,0Z" transform="translate(-18.928)"/></svg>