<svg xmlns="http://www.w3.org/2000/svg" xmlns:xlink="http://www.w3.org/1999/xlink" width="28" height="28" viewBox="0 0 28 28"><defs><style>.a,.c{fill:none;}.b{clip-path:url(#a);}.c{stroke:#305671;stroke-width:2px;}</style><clipPath id="a"><rect class="a" width="28" height="28"/></clipPath></defs><g class="b"><path class="c" d="M37.792,232.625,35.2,230.032l3.058-3.058,10.1,10.1L45.3,240.136l-2.45-2.45m-5.061-5.061L35,235.415l2.5,2.5m.286-5.293,5.061,5.061m0,0-2.79,2.79-2.557-2.557M35.628,239.8l1.878-1.878" transform="translate(-33.088 -214.561)"/><path class="c" d="M194.684,38.792,192.091,36.2l-3.058,3.058,5.052,5.052m.6-5.517,2.79-2.79,2.5,2.5m-5.293.286,5.061,5.061m0,0,2.45,2.45-3.058,3.058-5.052-5.052m5.66-.456,2.79-2.79-2.557-2.557m1.878-1.878-1.878,1.878m-5.893,5.8L186.9,51.5" transform="translate(-176.675 -34.033)"/></g></svg>