<svg xmlns="http://www.w3.org/2000/svg" width="29" height="29.884" viewBox="0 0 29 29.884"><defs><style>.a{fill:none;stroke:#305671;stroke-linecap:round;stroke-linejoin:round;stroke-width:2px;}</style></defs><g transform="translate(-9 -9)"><rect class="a" width="27" height="11" transform="translate(10 10)"/><path class="a" d="M36.671,28H10v3.77a1.212,1.212,0,0,0,1.073,1.212l9.093.915a1.261,1.261,0,0,1,1.018,1.558c-.273,1.637-.879,5.649-.879,6.486a3.031,3.031,0,0,0,6.062,0c0-.837-.606-4.849-.879-6.492a1.261,1.261,0,0,1,1.018-1.558l9.093-.915a1.212,1.212,0,0,0,1.073-1.212Z" transform="translate(0 -7.089)"/><line class="a" y1="5" transform="translate(14 10)"/><line class="a" y1="5" transform="translate(16 10)"/><line class="a" y1="6" transform="translate(30 10)"/></g></svg>