<svg xmlns="http://www.w3.org/2000/svg" width="32.73" height="27" viewBox="0 0 32.73 27"><defs><style>.a{fill:#305671;}</style></defs><g transform="translate(-383 -181)"><path class="a" d="M21.947,16.332a8.017,8.017,0,1,0-1.714,1.444A11.978,11.978,0,0,1,27.959,28H4.042A12.006,12.006,0,0,1,8.12,19.949a1,1,0,1,0-1.314-1.508A14,14,0,0,0,2,29a1,1,0,0,0,1,1H29a1,1,0,0,0,1-1A13.975,13.975,0,0,0,21.947,16.332ZM10,11a6,6,0,1,1,6,6A6.006,6.006,0,0,1,10,11Z" transform="translate(381 178)"/><g transform="translate(405.593 180.832)"><path class="a" d="M16.014,30.659H12.568a1.142,1.142,0,1,1,0-2.284h3.446a1.142,1.142,0,0,1,0,2.284Z" transform="translate(-10.019 -17.229)"/><path class="a" d="M19.014,30.659H12.568a1.142,1.142,0,1,1,0-2.284h6.446a1.142,1.142,0,0,1,0,2.284Z" transform="translate(-10.019 -21.229)"/></g></g></svg>