<svg xmlns="http://www.w3.org/2000/svg" width="29.417" height="26.343" viewBox="0 0 29.417 26.343"><defs><style>.a{fill:none;stroke:#305671;stroke-linecap:round;stroke-miterlimit:10;stroke-width:2px;}</style></defs><g transform="translate(-2.2 -4.6)"><path class="a" d="M30.241,10.807H3.514a.3.3,0,0,1-.314-.314V6.227A.593.593,0,0,1,3.827,5.6H29.99a.593.593,0,0,1,.627.627v4.266A.4.4,0,0,1,30.241,10.807Z" transform="translate(0)"/><path class="a" d="M29.086,33.035H7.127a.593.593,0,0,1-.627-.627V13.9H29.776V32.408A.737.737,0,0,1,29.086,33.035Z" transform="translate(-1.23 -3.093)"/><path class="a" d="M25.966,24.339H17.119A1.821,1.821,0,0,1,15.3,22.519h0A1.821,1.821,0,0,1,17.119,20.7h8.846a1.821,1.821,0,0,1,1.819,1.819h0A1.862,1.862,0,0,1,25.966,24.339Z" transform="translate(-4.509 -5.626)"/></g></svg>