<svg xmlns="http://www.w3.org/2000/svg" width="25" height="29.5" viewBox="0 0 25 29.5"><defs><style>.a{fill:#305671;}.b,.c{stroke:none;}.c{fill:#f6f8fa;}</style></defs><g class="a" transform="translate(-2 -0.4)"><path class="b" d="M 23.0707836151123 29.77499961853027 L 20.75 29.77499961853027 L 20.75 29.7183895111084 L 20.70745086669922 29.68104934692383 L 14.5824499130249 24.30604934692383 L 14.5 24.23369026184082 L 14.4175500869751 24.30604934692383 L 8.292550086975098 29.68104934692383 L 8.25 29.7183895111084 L 8.25 29.77499961853027 L 5.929216861724854 29.77499961853027 L 13.3673095703125 9.568180084228516 L 13.40594005584717 9.46321964263916 L 13.30589962005615 9.413199424743652 C 12.61060047149658 9.065549850463867 12.125 8.237689971923828 12.125 7.399999618530273 C 12.125 6.090419769287109 13.19042015075684 5.024999618530273 14.5 5.024999618530273 C 15.80957984924316 5.024999618530273 16.875 6.090419769287109 16.875 7.399999618530273 C 16.875 8.237689971923828 16.38940048217773 9.065549850463867 15.69410037994385 9.413199424743652 L 15.59405994415283 9.46321964263916 L 15.6326904296875 9.568180084228516 L 23.0707836151123 29.77499961853027 Z M 14.49874019622803 12.91098976135254 L 14.38245010375977 13.2324800491333 L 12.25745010375977 19.10747909545898 L 12.22852993011475 19.18745994567871 L 12.2923002243042 19.24373054504395 L 18.66729927062988 24.86873054504395 L 18.86725044250488 24.73167037963867 L 14.61725044250488 13.23166942596436 L 14.49874019622803 12.91098976135254 Z M 11.31659984588623 21.44319915771484 L 11.25739002227783 21.6076602935791 L 10.13239002227783 24.7326602935791 L 10.33335018157959 24.86816024780273 L 12.70835018157959 22.74316024780273 L 12.81842994689941 22.6446590423584 L 12.70308971405029 22.55238914489746 L 11.45308971405029 21.55238914489746 L 11.31659984588623 21.44319915771484 Z M 24.11069869995117 14.34719181060791 L 22.42236137390137 12.88396644592285 C 23.9245719909668 10.97854328155518 24.625 9.23330020904541 24.625 7.399999618530273 C 24.625 5.605064868927002 23.94485664367676 3.851178169250488 22.54652976989746 2.041754961013794 L 24.23515319824219 0.5782811641693115 C 25.98703575134277 2.717051029205322 26.875 5.011449813842773 26.875 7.399999618530273 C 26.875 9.831153869628906 25.97045707702637 12.10495376586914 24.11069869995117 14.34719181060791 Z M 4.764847278594971 14.22171783447266 C 3.012964248657227 12.08294868469238 2.125 9.788549423217773 2.125 7.399999618530273 C 2.125 5.008933544158936 3.014827489852905 2.712227344512939 4.770377635955811 0.5715329647064209 L 6.572216987609863 1.922912359237671 C 5.073666095733643 3.825712919235229 4.375 5.568860530853271 4.375 7.399999618530273 C 4.375 9.194934844970703 5.0551438331604 10.94882106781006 6.453470706939697 12.75824451446533 L 4.764847278594971 14.22171783447266 Z M 20.48498344421387 11.35174751281738 L 18.68381118774414 9.888294219970703 C 19.02707481384277 9.51141357421875 19.625 8.672001838684082 19.625 7.399999618530273 C 19.625 6.127997398376465 19.02707481384277 5.288585186004639 18.68381118774414 4.911704540252686 L 20.48498344421387 3.448251724243164 C 21.38224983215332 4.503678798675537 21.875 5.901882648468018 21.875 7.399999618530273 C 21.875 8.898117065429688 21.38224983215332 10.29632091522217 20.48498344421387 11.35174751281738 Z M 8.515016555786133 11.35174751281738 C 7.61775016784668 10.29632091522217 7.125 8.898117065429688 7.125 7.399999618530273 C 7.125 5.901882648468018 7.61775016784668 4.503678798675537 8.515016555786133 3.448251724243164 L 10.31618881225586 4.911704540252686 C 9.972925186157227 5.288585186004639 9.375 6.127997398376465 9.375 7.399999618530273 C 9.375 8.672001838684082 9.972925186157227 9.51141357421875 10.31618881225586 9.888294219970703 L 8.515016555786133 11.35174751281738 Z"/><path class="c" d="M 4.791526794433594 0.7436447143554688 C 3.104911804199219 2.834810256958008 2.25 5.073186874389648 2.25 7.399999618530273 C 2.25 9.721841812133789 3.101072311401367 11.95538902282715 4.780538558959961 14.0427131652832 L 6.282665252685547 12.74087142944336 C 4.915378570556641 10.94180107116699 4.25 9.1925048828125 4.25 7.399999618530273 C 4.25 5.571931838989258 4.93284797668457 3.833259582519531 6.395225524902344 1.946418762207031 L 4.791526794433594 0.7436447143554688 M 24.21946144104004 0.7572860717773438 L 22.71733474731445 2.059127807617188 C 24.08462142944336 3.858198165893555 24.75 5.607494354248047 24.75 7.399999618530273 C 24.75 9.232574462890625 24.06390953063965 10.97514915466309 22.59407043457031 12.86737442016602 L 24.09566116333008 14.16875267028809 C 25.88119316101074 11.98185157775879 26.75 9.765213012695313 26.75 7.399999618530273 C 26.75 5.078157424926758 25.89892768859863 2.844610214233398 24.21946144104004 0.7572860717773438 M 8.532150268554688 3.62324333190918 C 7.703651428222656 4.644453048706055 7.25 5.975746154785156 7.25 7.399999618530273 C 7.25 8.824253082275391 7.703651428222656 10.15554618835449 8.532150268554688 11.17675590515137 L 10.13676071166992 9.873010635375977 C 9.776126861572266 9.444637298583984 9.25 8.611795425415039 9.25 7.399999618530273 C 9.25 6.188203811645508 9.776126861572266 5.355361938476563 10.13676071166992 4.92698860168457 L 8.532150268554688 3.62324333190918 M 20.46784973144531 3.62324333190918 L 18.86323928833008 4.92698860168457 C 19.22387313842773 5.355361938476563 19.75 6.188203811645508 19.75 7.399999618530273 C 19.75 8.611795425415039 19.22387313842773 9.444637298583984 18.86323928833008 9.873010635375977 L 20.46784973144531 11.17675590515137 C 21.29634857177734 10.15554618835449 21.75 8.824253082275391 21.75 7.399999618530273 C 21.75 5.975746154785156 21.29634857177734 4.644453048706055 20.46784973144531 3.62324333190918 M 14.5 5.149999618530273 C 13.25934982299805 5.149999618530273 12.25 6.15934944152832 12.25 7.399999618530273 C 12.25 8.192209243774414 12.70718955993652 8.974088668823242 13.36180019378662 9.301389694213867 L 13.56188011169434 9.401430130004883 L 6.108423233032227 29.64999961853027 L 8.138422012329102 29.64999961853027 L 14.5 24.06739044189453 L 20.8615779876709 29.64999961853027 L 22.89157676696777 29.64999961853027 L 15.43811988830566 9.401430130004883 L 15.63819980621338 9.301389694213867 C 16.29281044006348 8.974088668823242 16.75 8.192209243774414 16.75 7.399999618530273 C 16.75 6.15934944152832 15.74065017700195 5.149999618530273 14.5 5.149999618530273 M 18.58459091186523 24.96245956420898 L 12.08205032348633 19.22491836547852 L 14.49748039245605 12.5469799041748 L 18.98450088500977 24.68833923339844 L 18.58459091186523 24.96245956420898 M 10.41670036315918 24.9613094329834 L 10.01478004455566 24.6903190612793 L 11.2581901550293 21.23640060424805 L 13.01185989379883 22.63932991027832 L 10.41670036315918 24.9613094329834 M 4.75 0.3999996185302734 L 6.75 1.899999618530273 C 5.25 3.774999618530273 4.5 5.524999618530273 4.5 7.399999618530273 C 4.5 9.274999618530273 5.25 11.02499961853027 6.625 12.77499961853027 L 4.75 14.39999961853027 C 2.875 12.14999961853027 2 9.774999618530273 2 7.399999618530273 C 2 5.024999618530273 2.875 2.649999618530273 4.75 0.3999996185302734 Z M 24.25 0.3999996185302734 C 26.125 2.649999618530273 27 5.024999618530273 27 7.399999618530273 C 27 9.774999618530273 26.125 12.14999961853027 24.125 14.52499961853027 L 22.25 12.89999961853027 C 23.75 11.02499961853027 24.5 9.274999618530273 24.5 7.399999618530273 C 24.5 5.524999618530273 23.75 3.774999618530273 22.375 2.024999618530273 L 24.25 0.3999996185302734 Z M 8.5 3.274999618530273 L 10.5 4.899999618530273 C 10 5.399999618530273 9.5 6.274999618530273 9.5 7.399999618530273 C 9.5 8.524999618530273 10 9.399999618530273 10.5 9.899999618530273 L 8.5 11.52499961853027 C 7.5 10.39999961853027 7 8.899999618530273 7 7.399999618530273 C 7 5.899999618530273 7.5 4.399999618530273 8.5 3.274999618530273 Z M 20.5 3.274999618530273 C 21.5 4.399999618530273 22 5.899999618530273 22 7.399999618530273 C 22 8.899999618530273 21.5 10.39999961853027 20.5 11.52499961853027 L 18.5 9.899999618530273 C 19 9.399999618530273 19.5 8.524999618530273 19.5 7.399999618530273 C 19.5 6.274999618530273 19 5.399999618530273 18.5 4.899999618530273 L 20.5 3.274999618530273 Z M 14.5 4.899999618530273 C 15.875 4.899999618530273 17 6.024999618530273 17 7.399999618530273 C 17 8.274999618530273 16.5 9.149999618530273 15.75 9.524999618530273 L 23.25 29.89999961853027 L 20.625 29.89999961853027 L 20.625 29.77499961853027 L 14.5 24.39999961853027 L 8.375 29.77499961853027 L 8.375 29.89999961853027 L 5.75 29.89999961853027 L 13.25 9.524999618530273 C 12.5 9.149999618530273 12 8.274999618530273 12 7.399999618530273 C 12 6.024999618530273 13.125 4.899999618530273 14.5 4.899999618530273 Z M 18.75 24.77499961853027 L 14.5 13.27499961853027 L 12.375 19.14999961853027 L 18.75 24.77499961853027 Z M 10.25 24.77499961853027 L 12.625 22.64999961853027 L 11.375 21.64999961853027 L 10.25 24.77499961853027 Z"/></g></svg>