<svg width="40" height="40" viewBox="0 0 40 40" fill="none" xmlns="http://www.w3.org/2000/svg">
<path d="M31.7602 16.32L21.2402 16.32L31.8002 23.84C32.1202 24.04 32.3202 24.4 32.3602 24.76C32.5202 25.04 32.6002 25.36 32.6002 25.68L32.6002 29C32.6002 30.12 31.6802 31 30.6002 31L8.24023 31C7.12023 31 6.24023 30.08 6.24023 29L6.24023 25.68C6.24023 24.56 7.16023 23.68 8.24023 23.68L18.9202 23.68L8.08023 15.92C7.60023 15.56 7.36023 15 7.40023 14.44C7.40023 14.4 7.40023 14.36 7.40023 14.32L7.40023 11C7.40023 9.88 8.32023 9 9.40023 9L31.7602 9C32.8802 9 33.7602 9.92 33.7602 11L33.7602 14.32C33.7602 15.44 32.8802 16.32 31.7602 16.32ZM7.04023 25.68L7.04023 29C7.04023 29.68 7.60023 30.2 8.24023 30.2L30.6002 30.2C31.2802 30.2 31.8002 29.64 31.8002 29L31.8002 25.68C31.8002 25.48 31.7202 25.28 31.6402 25.08C31.5602 24.88 31.4002 24.76 31.2402 24.64C31.2402 24.64 31.2002 24.6 31.1602 24.6C31.0802 24.56 31.0402 24.52 30.9602 24.52C30.9202 24.52 30.9202 24.52 30.8802 24.48C30.8002 24.44 30.6802 24.44 30.6002 24.44L30.0002 24.44L30.0002 25.24C30.0002 25.48 29.8402 25.64 29.6002 25.64C29.3602 25.64 29.2002 25.48 29.2002 25.24L29.2002 24.44L27.0802 24.44L27.0802 26.12C27.0802 26.36 26.9202 26.52 26.6802 26.52C26.4402 26.52 26.2802 26.36 26.2802 26.12L26.2802 24.44L24.1602 24.44L24.1602 25.24C24.1602 25.48 24.0002 25.64 23.7602 25.64C23.5202 25.64 23.3602 25.48 23.3602 25.24L23.3602 24.44L21.2402 24.44L21.2402 26.12C21.2402 26.36 21.0802 26.52 20.8402 26.52C20.6002 26.52 20.4402 26.36 20.4402 26.12L20.4402 24.44L20.1202 24.44L18.3202 24.44L18.3202 25.24C18.3202 25.48 18.1602 25.64 17.9202 25.64C17.6802 25.64 17.5202 25.48 17.5202 25.24L17.5202 24.44L15.4002 24.44L15.4002 26.12C15.4002 26.36 15.2402 26.52 15.0002 26.52C14.7602 26.52 14.6002 26.36 14.6002 26.12L14.6002 24.44L12.4802 24.44L12.4802 25.24C12.4802 25.48 12.3202 25.64 12.0802 25.64C11.8402 25.64 11.6802 25.48 11.6802 25.24L11.6802 24.44L10.0002 24.44L10.0002 26.12C10.0002 26.36 9.84023 26.52 9.60023 26.52C9.36023 26.52 9.20023 26.36 9.20023 26.12L9.20023 24.44L8.16023 24.44C7.56023 24.48 7.04023 25 7.04023 25.68ZM32.9602 11C32.9602 10.32 32.4002 9.8 31.7602 9.8L31.2002 9.8L31.2002 10.6C31.2002 10.84 31.0402 11 30.8002 11C30.5602 11 30.4002 10.84 30.4002 10.6L30.4002 9.8L28.2802 9.8L28.2802 11.48C28.2802 11.72 28.1202 11.88 27.8802 11.88C27.6402 11.88 27.4802 11.72 27.4802 11.48L27.4802 9.8L25.3602 9.8L25.3602 10.6C25.3602 10.84 25.2002 11 24.9602 11C24.7202 11 24.5602 10.84 24.5602 10.6L24.5602 9.8L22.4402 9.8L22.4402 11.48C22.4402 11.72 22.2802 11.88 22.0402 11.88C21.8002 11.88 21.6402 11.72 21.6402 11.48L21.6402 9.8L19.5202 9.8L19.5202 10.6C19.5202 10.84 19.3602 11 19.1202 11C18.8802 11 18.7202 10.84 18.7202 10.6L18.7202 9.8L16.6002 9.8L16.6002 11.48C16.6002 11.72 16.4402 11.88 16.2002 11.88C15.9602 11.88 15.8002 11.72 15.8002 11.48L15.8002 9.8L13.6802 9.8L13.6802 10.6C13.6802 10.84 13.5202 11 13.2802 11C13.0402 11 12.8802 10.84 12.8802 10.6L12.8802 9.8L10.7602 9.8L10.7602 11.48C10.7602 11.72 10.6002 11.88 10.3602 11.88C10.1202 11.88 9.96023 11.72 9.96023 11.48L9.96023 9.8L9.40023 9.8C8.72023 9.8 8.20023 10.36 8.20023 11L8.20023 14.32C8.20023 14.4 8.20023 14.48 8.24023 14.52L8.24023 14.56C8.24023 14.64 8.28023 14.68 8.28023 14.72L8.28023 14.76C8.32023 14.8 8.32023 14.88 8.36023 14.92C8.36023 14.92 8.36023 14.96 8.40023 14.96C8.44023 15 8.48023 15.08 8.52023 15.12C8.52023 15.12 8.52023 15.12 8.56023 15.16C8.60023 15.2 8.68023 15.24 8.72023 15.28C8.76023 15.32 8.84023 15.36 8.92023 15.4C9.08023 15.48 9.24023 15.48 9.40023 15.48L31.7602 15.48C32.4402 15.48 32.9602 14.92 32.9602 14.28L32.9602 11Z" fill="#305671"/>
</svg>
