<svg width="12" height="18" viewBox="0 0 12 18" fill="none" xmlns="http://www.w3.org/2000/svg">
<path d="M2 17C1.60218 17 1.22076 16.8419 0.939453 16.5605C0.658149 16.2792 0.5 15.8978 0.5 15.5V2.5C0.5 2.10218 0.658149 1.72076 0.939453 1.43945C1.22076 1.15815 1.60218 1 2 1H10C10.3978 1 10.7792 1.15815 11.0605 1.43945C11.3419 1.72076 11.5 2.10218 11.5 2.5V15.5C11.5 15.8978 11.3419 16.2792 11.0605 16.5605C10.7792 16.8419 10.3978 17 10 17H2ZM1.5 15.5C1.5 15.6326 1.55272 15.7597 1.64648 15.8535C1.74025 15.9473 1.86739 16 2 16H10C10.1326 16 10.2597 15.9473 10.3535 15.8535C10.4473 15.7597 10.5 15.6326 10.5 15.5V14.5H1.5V15.5ZM10.5 14V4H1.5V13.9941H5.5C5.36739 13.9941 5.24025 13.9414 5.14648 13.8477C5.05272 13.7539 5 13.6267 5 13.4941C5 13.3615 5.05272 13.2344 5.14648 13.1406C5.24025 13.0469 5.36739 12.9941 5.5 12.9941H6.5C6.63261 12.9941 6.75975 13.0469 6.85352 13.1406C6.94728 13.2344 7 13.3615 7 13.4941C7 13.6267 6.94728 13.7539 6.85352 13.8477C6.75975 13.9414 6.63261 13.9941 6.5 13.9941L10.5 14ZM1.5 2.5V3.5H10.5V2.5C10.5 2.36739 10.4473 2.24025 10.3535 2.14648C10.2597 2.05272 10.1326 2 10 2H2C1.86739 2 1.74025 2.05272 1.64648 2.14648C1.55272 2.24025 1.5 2.36739 1.5 2.5ZM4.5 5C4.36739 5 4.24025 4.94728 4.14648 4.85352C4.05272 4.75975 4 4.63261 4 4.5C4 4.36739 4.05272 4.24025 4.14648 4.14648C4.24025 4.05272 4.36739 4 4.5 4H7.5C7.56588 3.99919 7.63136 4.01227 7.69238 4.03711C7.75341 4.06195 7.80888 4.09794 7.85547 4.14453C7.90206 4.19112 7.93902 4.24757 7.96387 4.30859C7.98871 4.36962 8.00081 4.43412 8 4.5C8 4.63261 7.94728 4.75975 7.85352 4.85352C7.75975 4.94728 7.63261 5 7.5 5H4.5Z" fill="#305671" stroke="#305671" stroke-width="0.25"/>
</svg>
