<svg width="15" height="15" viewBox="0 0 15 15" fill="none" xmlns="http://www.w3.org/2000/svg">
<path d="M13.0665 1.415H11.3845V0H9.98455V1.415H4.37255V0H2.97255V1.415H1.30755C1.00998 1.415 0.724589 1.53321 0.514173 1.74363C0.303757 1.95404 0.185547 2.23943 0.185547 2.537V12.9C0.185416 13.0474 0.214341 13.1934 0.270668 13.3297C0.326994 13.4659 0.40962 13.5897 0.51382 13.694C0.618021 13.7983 0.741753 13.8811 0.877945 13.9375C1.01414 13.9939 1.16012 14.023 1.30755 14.023H13.0665C13.214 14.023 13.36 13.9939 13.4961 13.9375C13.6323 13.8811 13.7561 13.7983 13.8603 13.694C13.9645 13.5897 14.0471 13.4659 14.1034 13.3297C14.1598 13.1934 14.1887 13.0474 14.1885 12.9V2.537C14.1885 2.23943 14.0703 1.95404 13.8599 1.74363C13.6495 1.53321 13.3641 1.415 13.0665 1.415ZM12.7865 12.62H1.56855V5.609H12.7865V12.62ZM12.7865 4.206H1.56855V2.8H12.7865V4.206Z" fill="#305671"/>
</svg>
