<svg width="28" height="28" viewBox="0 0 28 28" fill="none" xmlns="http://www.w3.org/2000/svg">
<path d="M14 28C21.732 28 28 21.732 28 14C28 6.26801 21.732 0 14 0C6.26801 0 0 6.26801 0 14C0 21.732 6.26801 28 14 28Z" fill="#6C22B5"/>
<path d="M14.751 16.0703H18.751" stroke="white" stroke-width="1.5" stroke-miterlimit="10" stroke-linejoin="round"/>
<path d="M16.751 20.0703C18.9601 20.0703 20.751 18.2795 20.751 16.0703C20.751 13.8612 18.9601 12.0703 16.751 12.0703C14.5418 12.0703 12.751 13.8612 12.751 16.0703C12.751 18.2795 14.5418 20.0703 16.751 20.0703Z" stroke="white" stroke-width="1.5" stroke-miterlimit="10" stroke-linejoin="round"/>
<path d="M16.9385 17.6737L18.5275 16.1357L16.9385 14.5977" stroke="white" stroke-width="1.5" stroke-miterlimit="10" stroke-linejoin="round"/>
<path d="M18.014 12.9066V7.93359H7.24902V18.6986C9.04937 17.2348 11.1497 16.185 13.401 15.6236" stroke="white" stroke-width="1.5" stroke-miterlimit="10" stroke-linejoin="round"/>
<path d="M10.751 11.0703H12.751" stroke="white" stroke-width="1.5" stroke-miterlimit="10" stroke-linecap="round" stroke-linejoin="round"/>
<path d="M10.751 13.0703H11.751" stroke="white" stroke-width="1.5" stroke-miterlimit="10" stroke-linecap="round" stroke-linejoin="round"/>
</svg>
