<svg xmlns="http://www.w3.org/2000/svg" width="37.037" height="30.013" viewBox="0 0 37.037 30.013">
  <g id="Group_1386" data-name="Group 1386" transform="translate(-1514.149 -873.822)">
    <path id="Path_572" data-name="Path 572" d="M20.232,23.25a21.011,21.011,0,0,1-.432,3.015,2.962,2.962,0,0,1-2.809,2.312,3.364,3.364,0,0,1-1.959-.807L8.575,22.525h-3.6A3.138,3.138,0,0,1,1.841,19.4a43.8,43.8,0,0,1,0-9.17,3.226,3.226,0,0,1,3.138-3.02h3.6L14.9,2.054a3.88,3.88,0,0,1,2.093-.9A2.963,2.963,0,0,1,19.8,3.466a23.829,23.829,0,0,1,.432,3.017,159.616,159.616,0,0,1,0,16.767Z" transform="translate(1513.399 874.273)" fill="none" stroke="#ef986c" stroke-linecap="round" stroke-linejoin="round" stroke-width="1.7"/>
    <path id="Path_573" data-name="Path 573" d="M16.443,3.964a15.073,15.073,0,0,1,2.49,8.583,15.067,15.067,0,0,1-2.49,8.582" transform="translate(1523.996 876.281)" fill="none" stroke="#ef986c" stroke-linecap="round" stroke-linejoin="round" stroke-width="1.7"/>
    <path id="Path_574" data-name="Path 574" d="M19.874.9a24.278,24.278,0,0,1,4.012,13.828,24.285,24.285,0,0,1-4.012,13.83" transform="translate(1526.445 874.096)" fill="none" stroke="#ef986c" stroke-linecap="round" stroke-linejoin="round" stroke-width="1.7"/>
  </g>
</svg>
