<svg xmlns="http://www.w3.org/2000/svg" width="18" height="12.563" viewBox="0 0 18 12.563">
  <g id="_465064_information_speaker_audio_media_multimedia_icon" data-name="465064_information_speaker_audio_media_multimedia_icon" transform="translate(0.3 -89.391)">
    <g id="Group_1558" data-name="Group 1558" transform="translate(-0.3 89.391)">
      <path id="Path_596" data-name="Path 596" d="M160.1,109.783l-5.459-2.016c-.341-.1-.643-.288-.643-.643v-5.564c0-.355.281-.53.643-.643L160.1,98.9a.643.643,0,0,1,.643.643v9.6A.642.642,0,0,1,160.1,109.783Z" transform="translate(-148.58 -98.566)" fill="#305671"/>
      <path id="Path_597" data-name="Path 597" d="M4.355,172.2H.374a.659.659,0,0,0-.674.6v4.532a.624.624,0,0,0,.674.555h3.98Z" transform="translate(0.3 -169.291)" fill="#305671"/>
      <path id="Path_598" data-name="Path 598" d="M73.287,352.539h-.653a.33.33,0,0,1-.334-.327v-2.789a.327.327,0,0,1,.334-.323h.653a.327.327,0,0,1,.334.323v2.789A.33.33,0,0,1,73.287,352.539Z" transform="translate(-69.75 -339.977)" fill="#305671"/>
      <g id="Group_1557" data-name="Group 1557" transform="translate(12.836)">
        <path id="Path_599" data-name="Path 599" d="M369.7,239.624h-4.04a.564.564,0,0,1-.562-.562h0a.564.564,0,0,1,.562-.562h4.04a.564.564,0,0,1,.562.562h0A.564.564,0,0,1,369.7,239.624Z" transform="translate(-365.1 -233.262)" fill="#305671"/>
        <path id="Path_600" data-name="Path 600" d="M371.129,316.537l-3-2.7a.561.561,0,0,0-.794.042h0a.561.561,0,0,0,.042.794l3,2.7a.562.562,0,0,0,.794-.042h0A.565.565,0,0,0,371.129,316.537Z" transform="translate(-367.117 -305.811)" fill="#305671"/>
        <path id="Path_601" data-name="Path 601" d="M371.129,90.371l-3,2.7a.561.561,0,0,1-.794-.042h0a.561.561,0,0,1,.042-.794l3-2.7a.562.562,0,0,1,.794.042h0A.565.565,0,0,1,371.129,90.371Z" transform="translate(-367.117 -89.391)" fill="#305671"/>
      </g>
    </g>
  </g>
</svg>
