<svg width="20" height="19" viewBox="0 0 20 19" fill="none" xmlns="http://www.w3.org/2000/svg">
<path d="M16 3V1C16 0.734784 15.8946 0.48043 15.7071 0.292893C15.5196 0.105357 15.2652 0 15 0C14.7348 0 14.4804 0.105357 14.2929 0.292893C14.1054 0.48043 14 0.734784 14 1V3H6V1C6 0.734784 5.89464 0.48043 5.70711 0.292893C5.51957 0.105357 5.26522 0 5 0C4.73478 0 4.48043 0.105357 4.29289 0.292893C4.10536 0.48043 4 0.734784 4 1V3H0V19H20V3H16ZM18 17H2V5H18V17Z" fill="#305671"/>
<path d="M10.2497 7.5C10.7633 7.4993 11.2709 7.61049 11.7372 7.82584C12.2034 8.04119 12.6172 8.35553 12.9497 8.747L13.4397 8.311C13.4917 8.26502 13.5559 8.23503 13.6246 8.22463C13.6933 8.21423 13.7635 8.22385 13.8268 8.25235C13.8902 8.28085 13.9439 8.32702 13.9817 8.38531C14.0194 8.44361 14.0396 8.51155 14.0397 8.581V10.023C14.0397 10.1185 14.0018 10.21 13.9342 10.2776C13.8667 10.3451 13.7752 10.383 13.6797 10.383H12.0517C11.9786 10.3827 11.9073 10.3602 11.8473 10.3185C11.7873 10.2767 11.7413 10.2178 11.7155 10.1494C11.6897 10.081 11.6853 10.0064 11.7028 9.93545C11.7204 9.86449 11.759 9.80052 11.8137 9.752L12.4087 9.222C12.1424 8.90822 11.811 8.65622 11.4374 8.48352C11.0639 8.31082 10.6572 8.22158 10.2457 8.222C9.71719 8.22205 9.19888 8.36736 8.74739 8.64206C8.2959 8.91676 7.92861 9.31027 7.68564 9.77961C7.44268 10.2489 7.3334 10.776 7.36975 11.3033C7.40609 11.8305 7.58666 12.3376 7.89172 12.7692C8.19679 13.2007 8.6146 13.5401 9.09951 13.7503C9.58443 13.9604 10.1178 14.0332 10.6413 13.9608C11.1648 13.8883 11.6583 13.6733 12.0679 13.3393C12.4774 13.0053 12.7873 12.5652 12.9637 12.067C12.9778 12.0205 13.0013 11.9772 13.0325 11.94C13.0638 11.9027 13.1023 11.8721 13.1457 11.8501C13.1891 11.8281 13.2365 11.8151 13.285 11.8118C13.3335 11.8086 13.3822 11.8152 13.4282 11.8312C13.4741 11.8473 13.5163 11.8724 13.5523 11.9052C13.5882 11.938 13.6172 11.9777 13.6374 12.022C13.6576 12.0662 13.6687 12.1141 13.67 12.1627C13.6712 12.2114 13.6626 12.2598 13.6447 12.305C13.4239 12.9266 13.0365 13.4756 12.5249 13.892C12.0133 14.3084 11.3971 14.5763 10.7436 14.6663C10.0902 14.7563 9.42451 14.6651 8.81936 14.4025C8.21421 14.1399 7.69285 13.7161 7.31219 13.1774C6.93154 12.6386 6.70623 12.0057 6.66087 11.3476C6.61551 10.6895 6.75184 10.0316 7.05497 9.44567C7.35811 8.85979 7.8164 8.36846 8.37979 8.02534C8.94319 7.68222 9.59003 7.50049 10.2497 7.5Z" fill="#305671" stroke="#305671" stroke-width="0.4"/>
<path d="M8.89755 12.546C8.97544 12.546 9.05123 12.5207 9.11355 12.474L10.5555 11.392C10.6003 11.3585 10.6365 11.315 10.6615 11.265C10.6865 11.215 10.6995 11.1599 10.6995 11.104V9.66201C10.6995 9.5664 10.6616 9.47471 10.594 9.4071C10.5264 9.3395 10.4347 9.30151 10.339 9.30151C10.2434 9.30151 10.1517 9.3395 10.0841 9.4071C10.0165 9.47471 9.97855 9.5664 9.97855 9.66201V10.924L8.67855 11.897C8.61768 11.9422 8.57265 12.0055 8.54985 12.0778C8.52706 12.1501 8.52768 12.2278 8.55162 12.2997C8.57557 12.3716 8.62161 12.4342 8.68318 12.4784C8.74476 12.5226 8.81873 12.5463 8.89455 12.546H8.89755Z" fill="#305671" stroke="#305671" stroke-width="0.4"/>
</svg>
