<svg width="29" height="21" viewBox="0 0 29 21" fill="none" xmlns="http://www.w3.org/2000/svg">
<path d="M5.21923 19.7808C0.0935916 14.6552 0.0935916 6.34487 5.21923 1.21924M23.7808 1.21924C28.9064 6.34487 28.9064 14.6552 23.7808 19.7808M9.34402 15.656C6.49643 12.8085 6.49643 8.19154 9.34402 5.34402M19.6559 5.34402C22.5036 8.19154 22.5036 12.8085 19.6559 15.656M15.9583 10.4999C15.9583 11.3054 15.3054 11.9583 14.5 11.9583C13.6946 11.9583 13.0417 11.3054 13.0417 10.4999C13.0417 9.69465 13.6946 9.04161 14.5 9.04161C15.3054 9.04161 15.9583 9.69465 15.9583 10.4999Z" stroke="#305671" stroke-width="2" stroke-linecap="round" stroke-linejoin="round"/>
</svg>
