<svg width="47" height="47" viewBox="0 0 47 47" fill="none" xmlns="http://www.w3.org/2000/svg">
<path d="M47 23.5C47 36.4787 36.4788 47 23.5003 47C10.5218 47 0 36.4787 0 23.5C0 10.5213 10.5218 0 23.5003 0C36.4788 0 47 10.5213 47 23.5Z" fill="#6DC0FF"/>
<path d="M17.0704 33.0037L10.1178 26.2194C8.62739 24.7642 8.62739 22.3017 10.1178 20.8471C11.4783 19.5189 13.5956 19.5189 14.9561 20.8471L18.7121 24.5128C19.1491 24.939 19.8293 24.939 20.2664 24.5128L31.0439 13.9957C32.4044 12.6681 34.5217 12.6681 35.8822 13.9957C37.3726 15.4503 37.3726 17.9135 35.8822 19.368L21.908 33.0043C20.5475 34.332 18.4309 34.332 17.0704 33.0037Z" fill="white"/>
</svg>
