<svg width="70" height="70" viewBox="0 0 70 70" fill="none" xmlns="http://www.w3.org/2000/svg">
<path d="M35 70C54.33 70 70 54.33 70 35C70 15.67 54.33 0 35 0C15.67 0 0 15.67 0 35C0 54.33 15.67 70 35 70Z" fill="white"/>
<path d="M35 69.5C54.0538 69.5 69.5 54.0538 69.5 35C69.5 15.9462 54.0538 0.5 35 0.5C15.9462 0.5 0.5 15.9462 0.5 35C0.5 54.0538 15.9462 69.5 35 69.5Z" stroke="#9BAEBC"/>
<path fill-rule="evenodd" clip-rule="evenodd" d="M23.726 44.628C23.726 44.8078 23.7793 44.9836 23.8792 45.133C23.9791 45.2825 24.121 45.399 24.2871 45.4678C24.4532 45.5366 24.636 45.5546 24.8123 45.5196C24.9887 45.4845 25.1506 45.3979 25.2778 45.2708C25.4049 45.1437 25.4915 44.9817 25.5265 44.8054C25.5616 44.629 25.5436 44.4463 25.4748 44.2802C25.406 44.1141 25.2895 43.9721 25.14 43.8722C24.9905 43.7723 24.8148 43.719 24.635 43.719C24.394 43.7193 24.1629 43.8151 23.9925 43.9856C23.8221 44.156 23.7263 44.387 23.726 44.628ZM48.126 34.75L45.632 44.74C45.5283 45.4319 45.192 46.0679 44.6785 46.543C44.1649 47.0182 43.5049 47.3042 42.807 47.354H35.994C34.9382 47.3163 33.9147 46.9803 33.042 46.385C32.3046 45.8736 31.4384 45.5794 30.542 45.536H29.633C29.5125 45.536 29.3969 45.4881 29.3116 45.4029C29.2264 45.3177 29.1785 45.2021 29.1785 45.0815C29.1785 44.961 29.2264 44.8454 29.3116 44.7601C29.3969 44.6749 29.5125 44.627 29.633 44.627H30.542C31.5978 44.6648 32.6213 45.0007 33.494 45.596C34.2314 46.1075 35.0976 46.4017 35.994 46.445H42.81C43.89 46.445 44.532 45.408 44.754 44.52L47.254 34.52C47.3416 34.3113 47.3815 34.0855 47.3706 33.8594C47.3597 33.6332 47.2983 33.4124 47.191 33.213C47.0311 33.0647 46.8412 32.9522 46.6343 32.8832C46.4273 32.8142 46.208 32.7903 45.991 32.813H39.63C39.1387 32.814 38.6604 32.6553 38.267 32.361V34.176C38.2728 34.7146 38.1709 35.2489 37.9675 35.7476C37.764 36.2463 37.463 36.6994 37.0822 37.0802C36.7013 37.4611 36.2483 37.762 35.7496 37.9655C35.2509 38.1689 34.7166 38.2708 34.178 38.265C34.0575 38.265 33.9419 38.2171 33.8566 38.1319C33.7714 38.0467 33.7235 37.9311 33.7235 37.8105C33.7235 37.69 33.7714 37.5744 33.8566 37.4891C33.9419 37.4039 34.0575 37.356 34.178 37.356C34.597 37.3606 35.0127 37.2814 35.4007 37.1232C35.7887 36.9649 36.1412 36.7308 36.4375 36.4345C36.7337 36.1382 36.9679 35.7857 37.1261 35.3977C37.2844 35.0097 37.3636 34.594 37.359 34.175V25.089C37.4029 24.6604 37.3507 24.2275 37.2063 23.8216C37.0618 23.4157 36.8288 23.0471 36.524 22.7425C36.2193 22.438 35.8505 22.2052 35.4446 22.061C35.0386 21.9168 34.6056 21.8649 34.177 21.909C33.817 21.9137 33.473 22.0588 33.2184 22.3134C32.9638 22.568 32.8187 22.912 32.814 23.272V27.816C32.8279 29.067 32.3665 30.2766 31.5231 31.2006C30.6797 32.1246 29.517 32.6941 28.27 32.794V47.808C28.27 47.8676 28.2583 47.9267 28.2354 47.9818C28.2126 48.0368 28.1792 48.0869 28.137 48.1291C28.0949 48.1712 28.0448 48.2047 27.9897 48.2275C27.9347 48.2503 27.8756 48.262 27.816 48.262H21.454C21.3944 48.262 21.3353 48.2503 21.2803 48.2275C21.2252 48.2047 21.1751 48.1712 21.133 48.1291C21.0908 48.0869 21.0574 48.0368 21.0346 47.9818C21.0117 47.9267 21 47.8676 21 47.808V30.542C21 30.4824 21.0117 30.4234 21.0346 30.3683C21.0574 30.3132 21.0908 30.2632 21.133 30.221C21.1751 30.1788 21.2252 30.1454 21.2803 30.1226C21.3353 30.0998 21.3944 30.088 21.454 30.088H27.816C27.9365 30.088 28.0521 30.1359 28.1374 30.2211C28.2226 30.3064 28.2705 30.422 28.2705 30.5425C28.2705 30.6631 28.2226 30.7787 28.1374 30.8639C28.0521 30.9491 27.9365 30.997 27.816 30.997H21.909V47.354H27.361V32.359C27.361 32.2386 27.4088 32.1231 27.494 32.038C27.5791 31.9529 27.6946 31.905 27.815 31.905C28.3536 31.9108 28.8879 31.8089 29.3866 31.6055C29.8853 31.402 30.3383 31.1011 30.7192 30.7202C31.1 30.3394 31.401 29.8863 31.6045 29.3876C31.8079 28.8889 31.9098 28.3546 31.904 27.816V23.272C31.9045 22.6694 32.1442 22.0917 32.5704 21.6657C32.9966 21.2397 33.5744 21.0003 34.177 21C34.7253 20.9554 35.2767 21.0306 35.793 21.2204C36.3094 21.4101 36.7783 21.7098 37.1672 22.0988C37.5562 22.4878 37.856 22.9567 38.0457 23.473C38.2354 23.9893 38.3106 24.5408 38.266 25.089V30.542C38.264 30.7216 38.2979 30.8997 38.3657 31.066C38.4334 31.2323 38.5338 31.3833 38.6607 31.5103C38.7877 31.6373 38.9388 31.7376 39.105 31.8054C39.2713 31.8732 39.4494 31.907 39.629 31.905H45.99C46.3464 31.8734 46.7053 31.9254 47.038 32.0568C47.3708 32.1882 47.6684 32.3954 47.907 32.662C48.1049 32.9684 48.2281 33.3169 48.2667 33.6796C48.3052 34.0423 48.2581 34.4089 48.129 34.75" fill="#46D35C"/>
<path d="M48.126 34.75L45.632 44.74C45.5283 45.4319 45.192 46.0679 44.6785 46.543C44.1649 47.0182 43.5049 47.3042 42.807 47.354H35.994C34.9382 47.3163 33.9147 46.9803 33.042 46.385C32.3046 45.8736 31.4384 45.5794 30.542 45.536H29.633C29.5125 45.536 29.3969 45.4881 29.3116 45.4029C29.2264 45.3177 29.1785 45.2021 29.1785 45.0815C29.1785 44.961 29.2264 44.8454 29.3116 44.7601C29.3969 44.6749 29.5125 44.627 29.633 44.627H30.542C31.5978 44.6648 32.6213 45.0007 33.494 45.596C34.2314 46.1075 35.0976 46.4017 35.994 46.445H42.81C43.89 46.445 44.532 45.408 44.754 44.52L47.254 34.52C47.3416 34.3113 47.3815 34.0855 47.3706 33.8594C47.3597 33.6332 47.2983 33.4124 47.191 33.213C47.0311 33.0647 46.8412 32.9522 46.6343 32.8832C46.4273 32.8142 46.208 32.7903 45.991 32.813H39.63C39.1387 32.814 38.6604 32.6553 38.267 32.361V34.176C38.2728 34.7146 38.1709 35.2489 37.9675 35.7476C37.764 36.2463 37.463 36.6994 37.0822 37.0802C36.7013 37.4611 36.2483 37.762 35.7496 37.9655C35.2509 38.1689 34.7166 38.2708 34.178 38.265C34.0575 38.265 33.9419 38.2171 33.8566 38.1319C33.7714 38.0467 33.7235 37.9311 33.7235 37.8105C33.7235 37.69 33.7714 37.5744 33.8566 37.4891C33.9419 37.4039 34.0575 37.356 34.178 37.356C34.597 37.3606 35.0127 37.2814 35.4007 37.1232C35.7887 36.9649 36.1412 36.7308 36.4375 36.4345C36.7337 36.1382 36.9679 35.7857 37.1261 35.3977C37.2844 35.0097 37.3636 34.594 37.359 34.175V25.089C37.4029 24.6604 37.3507 24.2275 37.2063 23.8216C37.0618 23.4157 36.8288 23.0471 36.524 22.7425C36.2193 22.438 35.8505 22.2052 35.4446 22.061C35.0386 21.9168 34.6056 21.8649 34.177 21.909C33.817 21.9137 33.473 22.0588 33.2184 22.3134C32.9638 22.568 32.8187 22.912 32.814 23.272V27.816C32.8279 29.067 32.3665 30.2766 31.5231 31.2006C30.6797 32.1246 29.517 32.6941 28.27 32.794V47.808C28.27 47.8676 28.2583 47.9267 28.2354 47.9818C28.2126 48.0368 28.1792 48.0869 28.137 48.1291C28.0949 48.1712 28.0448 48.2047 27.9897 48.2275C27.9347 48.2503 27.8756 48.262 27.816 48.262H21.454C21.3944 48.262 21.3353 48.2503 21.2803 48.2275C21.2252 48.2047 21.1751 48.1712 21.133 48.1291C21.0908 48.0869 21.0574 48.0368 21.0346 47.9818C21.0117 47.9267 21 47.8676 21 47.808V30.542C21 30.4824 21.0117 30.4234 21.0346 30.3683C21.0574 30.3132 21.0908 30.2632 21.133 30.221C21.1751 30.1788 21.2252 30.1454 21.2803 30.1226C21.3353 30.0998 21.3944 30.088 21.454 30.088H27.816C27.9365 30.088 28.0521 30.1359 28.1374 30.2211C28.2226 30.3064 28.2705 30.422 28.2705 30.5425C28.2705 30.6631 28.2226 30.7787 28.1374 30.8639C28.0521 30.9491 27.9365 30.997 27.816 30.997H21.909V47.354H27.361V32.359C27.361 32.2386 27.4088 32.1231 27.494 32.038C27.5791 31.9529 27.6946 31.905 27.815 31.905C28.3536 31.9108 28.8879 31.8089 29.3866 31.6055C29.8853 31.402 30.3383 31.1011 30.7192 30.7202C31.1 30.3394 31.401 29.8863 31.6045 29.3876C31.8079 28.8889 31.9098 28.3546 31.904 27.816V23.272C31.9045 22.6694 32.1442 22.0917 32.5704 21.6657C32.9966 21.2397 33.5744 21.0003 34.177 21C34.7253 20.9554 35.2767 21.0306 35.793 21.2204C36.3094 21.4101 36.7783 21.7098 37.1672 22.0988C37.5562 22.4878 37.856 22.9567 38.0457 23.473C38.2354 23.9893 38.3106 24.5407 38.266 25.089V30.542C38.264 30.7216 38.2979 30.8997 38.3657 31.066C38.4334 31.2323 38.5338 31.3833 38.6607 31.5103C38.7877 31.6373 38.9388 31.7376 39.105 31.8054C39.2713 31.8732 39.4495 31.907 39.629 31.905H45.99C46.3464 31.8734 46.7053 31.9254 47.038 32.0568C47.3708 32.1882 47.6684 32.3954 47.907 32.662C48.1049 32.9684 48.2281 33.3169 48.2667 33.6796C48.3052 34.0423 48.2581 34.4089 48.129 34.75M23.726 44.628C23.726 44.8078 23.7793 44.9836 23.8792 45.133C23.9791 45.2825 24.121 45.399 24.2871 45.4678C24.4532 45.5366 24.636 45.5546 24.8123 45.5196C24.9887 45.4845 25.1506 45.3979 25.2778 45.2708C25.4049 45.1437 25.4915 44.9817 25.5265 44.8054C25.5616 44.629 25.5436 44.4463 25.4748 44.2802C25.406 44.1141 25.2895 43.9721 25.14 43.8722C24.9905 43.7723 24.8148 43.719 24.635 43.719C24.394 43.7193 24.1629 43.8151 23.9925 43.9856C23.8221 44.156 23.7263 44.387 23.726 44.628V44.628Z" stroke="#46D35C"/>
</svg>
