<svg xmlns="http://www.w3.org/2000/svg" width="19" height="19" viewBox="0 0 19 19"><defs><style>.a{fill:#305671;}.b{fill:#fff;font-size:8px;font-family:Poppins-SemiBold, Poppins;font-weight:600;}</style></defs><g transform="translate(-620 -409)"><path class="a" d="M10.712,1.972A2.067,2.067,0,0,1,13.966,3.32h0A2.067,2.067,0,0,0,15.68,5.034h0a2.067,2.067,0,0,1,1.348,3.253h0a2.067,2.067,0,0,0,0,2.425h0a2.067,2.067,0,0,1-1.348,3.253h0a2.067,2.067,0,0,0-1.715,1.715h0a2.067,2.067,0,0,1-3.253,1.348h0a2.067,2.067,0,0,0-2.425,0h0A2.067,2.067,0,0,1,5.034,15.68h0A2.067,2.067,0,0,0,3.32,13.966h0a2.067,2.067,0,0,1-1.348-3.253h0a2.067,2.067,0,0,0,0-2.425h0A2.067,2.067,0,0,1,3.32,5.034h0A2.067,2.067,0,0,0,5.034,3.32h0A2.067,2.067,0,0,1,8.288,1.972h0a2.067,2.067,0,0,0,2.425,0Z" transform="translate(620 409)"/><text class="b" transform="translate(626 421)"><tspan x="0" y="0">%</tspan></text></g></svg>