<svg width="21" height="17" viewBox="0 0 21 17" fill="none" xmlns="http://www.w3.org/2000/svg">
<path d="M1.3 0.348145H20.112C20.1916 0.348145 20.2679 0.379752 20.3241 0.436012C20.3804 0.492273 20.412 0.56858 20.412 0.648145V16.4261C20.412 16.5057 20.3804 16.582 20.3241 16.6383C20.2679 16.6945 20.1916 16.7261 20.112 16.7261H1.3C1.22044 16.7261 1.14413 16.6945 1.08787 16.6383C1.03161 16.582 1 16.5057 1 16.4261V0.648145C1 0.56858 1.03161 0.492273 1.08787 0.436012C1.14413 0.379752 1.22044 0.348145 1.3 0.348145V0.348145ZM14.676 14.9101C14.5955 14.9101 14.5183 14.8782 14.4614 14.8213C14.4045 14.7643 14.3725 14.6871 14.3725 14.6066C14.3725 14.5262 14.4045 14.449 14.4614 14.392C14.5183 14.3351 14.5955 14.3031 14.676 14.3031H17.686C17.7665 14.3031 17.8437 14.3351 17.9006 14.392C17.9575 14.449 17.9895 14.5262 17.9895 14.6066C17.9895 14.6871 17.9575 14.7643 17.9006 14.8213C17.8437 14.8782 17.7665 14.9101 17.686 14.9101H14.676ZM15.889 13.3931C15.8085 13.3931 15.7313 13.3612 15.6744 13.3043C15.6175 13.2473 15.5855 13.1701 15.5855 13.0896C15.5855 13.0092 15.6175 12.932 15.6744 12.875C15.7313 12.8181 15.8085 12.7861 15.889 12.7861H18.9C18.9805 12.7861 19.0577 12.8181 19.1146 12.875C19.1715 12.932 19.2035 13.0092 19.2035 13.0896C19.2035 13.1701 19.1715 13.2473 19.1146 13.3043C19.0577 13.3612 18.9805 13.3931 18.9 13.3931H15.889ZM2.517 5.20214C2.43651 5.20214 2.35931 5.17017 2.30239 5.11325C2.24548 5.05633 2.2135 4.97914 2.2135 4.89864C2.2135 4.81815 2.24548 4.74095 2.30239 4.68404C2.35931 4.62712 2.43651 4.59514 2.517 4.59514H5.527C5.60749 4.59514 5.68469 4.62712 5.74161 4.68404C5.79852 4.74095 5.8305 4.81815 5.8305 4.89864C5.8305 4.97914 5.79852 5.05633 5.74161 5.11325C5.68469 5.17017 5.60749 5.20214 5.527 5.20214H2.517ZM3.73 6.71914C3.64951 6.71914 3.57231 6.68717 3.51539 6.63025C3.45848 6.57333 3.4265 6.49614 3.4265 6.41564C3.4265 6.33515 3.45848 6.25795 3.51539 6.20104C3.57231 6.14412 3.64951 6.11214 3.73 6.11214H6.74C6.82049 6.11214 6.89769 6.14412 6.95461 6.20104C7.01152 6.25795 7.0435 6.33515 7.0435 6.41564C7.0435 6.49614 7.01152 6.57333 6.95461 6.63025C6.89769 6.68717 6.82049 6.71914 6.74 6.71914H3.73ZM4.8 8.23514H12.212C12.3657 7.80094 12.6269 7.41271 12.9711 7.10663C13.3154 6.80055 13.7315 6.58659 14.1807 6.48467C14.6299 6.38275 15.0976 6.39619 15.5402 6.52374C15.9828 6.65129 16.3859 6.8888 16.712 7.21414C16.9654 7.4674 17.1665 7.76811 17.3037 8.0991C17.4408 8.43008 17.5114 8.78486 17.5114 9.14314C17.5114 9.50143 17.4408 9.8562 17.3037 10.1872C17.1665 10.5182 16.9654 10.8189 16.712 11.0721C16.3858 11.3972 15.9827 11.6345 15.5401 11.7619C15.0976 11.8893 14.63 11.9027 14.1809 11.8008C13.7317 11.6989 13.3157 11.485 12.9715 11.1791C12.6272 10.8732 12.366 10.4852 12.212 10.0511H8.585V11.5681C8.585 11.6477 8.55339 11.724 8.49713 11.7803C8.44087 11.8365 8.36456 11.8681 8.285 11.8681H7.375C7.29543 11.8681 7.21913 11.8365 7.16287 11.7803C7.10661 11.724 7.075 11.6477 7.075 11.5681V11.2681H6.461V11.8751C6.461 11.9145 6.45324 11.9536 6.43816 11.9899C6.42309 12.0263 6.40099 12.0594 6.37313 12.0873C6.34527 12.1151 6.3122 12.1372 6.2758 12.1523C6.23941 12.1674 6.2004 12.1751 6.161 12.1751H4.961C4.9216 12.1751 4.88259 12.1674 4.84619 12.1523C4.8098 12.1372 4.77673 12.1151 4.74887 12.0873C4.72101 12.0594 4.69891 12.0263 4.68384 11.9899C4.66876 11.9536 4.661 11.9145 4.661 11.8751V10.0411C4.47644 10.0085 4.30641 9.91979 4.174 9.78714L4.154 9.76514C3.99226 9.59344 3.90387 9.36543 3.9076 9.12958C3.91134 8.89373 4.00691 8.66864 4.174 8.50214L4.196 8.48214C4.36365 8.32383 4.58541 8.23549 4.816 8.23514H4.8ZM12.435 8.84214H4.8C4.72599 8.84259 4.65476 8.87037 4.6 8.92014L4.589 8.93214C4.534 8.98686 4.50234 9.06076 4.50066 9.13833C4.49898 9.2159 4.52742 9.2911 4.58 9.34814L4.592 9.35914C4.61999 9.38743 4.65332 9.40987 4.69006 9.42515C4.7268 9.44042 4.76621 9.44824 4.806 9.44814H4.954C5.03357 9.44814 5.10987 9.47975 5.16613 9.53601C5.22239 9.59227 5.254 9.66858 5.254 9.74814V11.5681H5.854V10.9611C5.854 10.8816 5.88561 10.8053 5.94187 10.749C5.99813 10.6928 6.07443 10.6611 6.154 10.6611H7.371C7.45056 10.6611 7.52687 10.6928 7.58313 10.749C7.63939 10.8053 7.671 10.8816 7.671 10.9611V11.2611H7.971V9.74814C7.971 9.66858 8.00261 9.59227 8.05887 9.53601C8.11513 9.47975 8.19143 9.44814 8.271 9.44814H12.44C12.5073 9.44775 12.5729 9.47002 12.626 9.51138C12.6792 9.55273 12.7168 9.61077 12.733 9.67614C12.8272 10.0384 13.0154 10.3693 13.2785 10.6355C13.5416 10.9017 13.8704 11.0937 14.2315 11.1922C14.5926 11.2906 14.9733 11.2919 15.3351 11.1961C15.6969 11.1002 16.027 10.9105 16.292 10.6461C16.6887 10.2477 16.9114 9.70838 16.9114 9.14614C16.9114 8.58391 16.6887 8.04457 16.292 7.64614C16.0285 7.38345 15.7006 7.19451 15.3412 7.09821C14.9818 7.00191 14.6034 7.00163 14.2439 7.09739C13.8843 7.19315 13.5562 7.3816 13.2923 7.6439C13.0284 7.90621 12.8379 8.23318 12.74 8.59214C12.7289 8.6635 12.6925 8.72847 12.6374 8.77512C12.5823 8.82178 12.5122 8.847 12.44 8.84614L12.435 8.84214ZM4.135 9.76514C4.08648 9.70725 4.06159 9.63318 4.0653 9.55773C4.069 9.48228 4.10104 9.41101 4.155 9.35814L4.135 9.76514ZM4.177 8.48114C4.2349 8.43262 4.30897 8.40773 4.38442 8.41144C4.45987 8.41515 4.53114 8.44718 4.584 8.50114L4.177 8.48114ZM14.844 7.93114C15.0033 7.93112 15.1609 7.96255 15.308 8.02364C15.4551 8.08474 15.5886 8.17429 15.701 8.28714C15.8137 8.39971 15.9031 8.53338 15.9641 8.68051C16.0251 8.82765 16.0565 8.98537 16.0565 9.14464C16.0565 9.30392 16.0251 9.46164 15.9641 9.60878C15.9031 9.75591 15.8137 9.88958 15.701 10.0021C15.5884 10.1148 15.4548 10.2042 15.3076 10.2652C15.1605 10.3262 15.0028 10.3576 14.8435 10.3576C14.6842 10.3576 14.5265 10.3262 14.3794 10.2652C14.2322 10.2042 14.0986 10.1148 13.986 10.0021L13.968 9.98214C13.8036 9.81049 13.6933 9.59433 13.6507 9.3605C13.6081 9.12667 13.6351 8.88549 13.7284 8.6669C13.8218 8.44831 13.9772 8.26195 14.1756 8.13097C14.3739 7.99998 14.6063 7.93015 14.844 7.93014V7.93114ZM15.273 8.71414C15.1592 8.60619 15.008 8.54641 14.8512 8.5473C14.6943 8.54819 14.5438 8.60967 14.4312 8.71891C14.3186 8.82815 14.2526 8.97668 14.247 9.13345C14.2414 9.29022 14.2965 9.44311 14.401 9.56014L14.415 9.57314C14.5289 9.6866 14.6832 9.7503 14.844 9.7503C15.0048 9.7503 15.1591 9.6866 15.273 9.57314C15.3865 9.4592 15.4502 9.30494 15.4502 9.14414C15.4502 8.98334 15.3865 8.82909 15.273 8.71514V8.71414ZM5.55 1.56114H6.157V2.16814H5.55V1.56114ZM4.033 1.56114H4.64V2.16814H4.034L4.033 1.56114ZM2.516 1.56114H3.123V2.16814H2.517L2.516 1.56114ZM19.809 3.38214H1.607V16.1231H19.807L19.809 3.38214ZM1.607 2.77514H19.807V0.955145H1.607V2.77514Z" fill="#5C5C5C" stroke="#305671" stroke-width="0.5"/>
</svg>
