<svg width="30" height="28" viewBox="0 0 30 28" fill="none" xmlns="http://www.w3.org/2000/svg">
<path fill-rule="evenodd" clip-rule="evenodd" d="M27.7769 1.11153C28.3665 1.11153 28.932 1.34574 29.3489 1.76264C29.7658 2.17955 30 2.74499 30 3.33458V12.2268L15.1185 27.1083C14.7405 27.4898 14.2371 27.7216 13.7014 27.7608C13.1657 27.7999 12.634 27.6438 12.2045 27.3213L27.7769 11.671V1.11153ZM15.5502 0H24.4424C25.032 0 25.5974 0.234214 26.0143 0.651117C26.4312 1.06802 26.6654 1.63346 26.6654 2.22305V11.1153L11.7821 26.0023C11.5756 26.2096 11.3301 26.374 11.0599 26.4862C10.7897 26.5984 10.5 26.6562 10.2074 26.6562C9.91483 26.6562 9.62513 26.5984 9.35491 26.4862C9.08469 26.374 8.83929 26.2096 8.63276 26.0023L0.653849 18.029C0.446601 17.8224 0.282161 17.577 0.169959 17.3068C0.0577572 17.0366 0 16.7469 0 16.4543C0 16.1617 0.0577572 15.872 0.169959 15.6018C0.282161 15.3316 0.446601 15.0862 0.653849 14.8796L15.5427 0H15.5502ZM20.552 7.78068C20.2223 7.78068 19.8999 7.6829 19.6257 7.4997C19.3515 7.31649 19.1378 7.0561 19.0117 6.75144C18.8855 6.44678 18.8524 6.11155 18.9168 5.78812C18.9811 5.4647 19.1399 5.16762 19.3731 4.93444C19.6062 4.70127 19.9033 4.54247 20.2268 4.47814C20.5502 4.41381 20.8854 4.44683 21.1901 4.57302C21.4947 4.69921 21.7551 4.91291 21.9383 5.1871C22.1215 5.46128 22.2193 5.78364 22.2193 6.1134C22.2193 6.33235 22.1762 6.54915 22.0924 6.75144C22.0086 6.95372 21.8858 7.13753 21.731 7.29235C21.5762 7.44717 21.3924 7.56998 21.1901 7.65377C20.9878 7.73756 20.771 7.78068 20.552 7.78068Z" fill="#305671"/>
</svg>
