<svg width="17" height="16" viewBox="0 0 17 16" fill="none" xmlns="http://www.w3.org/2000/svg">
<path fill-rule="evenodd" clip-rule="evenodd" d="M15.3953 1.10391C15.7136 1.10391 16.0188 1.23033 16.2438 1.45538C16.4689 1.68042 16.5953 1.98565 16.5953 2.30391V7.10391L8.56231 15.1369C8.35825 15.3429 8.08652 15.468 7.79736 15.4891C7.5082 15.5103 7.22116 15.426 6.98931 15.2519L15.3953 6.80391V1.10391ZM8.79531 0.503906H13.5953C13.9136 0.503906 14.2188 0.630334 14.4438 0.855378C14.6689 1.08042 14.7953 1.38565 14.7953 1.70391V6.50391L6.76131 14.5399C6.64983 14.6518 6.51736 14.7405 6.3715 14.8011C6.22563 14.8617 6.06925 14.8929 5.91131 14.8929C5.75338 14.8929 5.59699 14.8617 5.45113 14.8011C5.30527 14.7405 5.1728 14.6518 5.06131 14.5399L0.754313 10.2359C0.642442 10.1244 0.553677 9.99195 0.493111 9.84609C0.432544 9.70023 0.401367 9.54384 0.401367 9.38591C0.401367 9.22797 0.432544 9.07159 0.493111 8.92572C0.553677 8.77986 0.642442 8.64739 0.754313 8.53591L8.79131 0.503906H8.79531ZM11.4953 4.70391C11.3173 4.70391 11.1433 4.65112 10.9953 4.55223C10.8473 4.45334 10.7319 4.31277 10.6638 4.14832C10.5957 3.98387 10.5779 3.80291 10.6126 3.62832C10.6473 3.45374 10.7331 3.29338 10.8589 3.16751C10.9848 3.04164 11.1452 2.95593 11.3197 2.9212C11.4943 2.88647 11.6753 2.9043 11.8397 2.97241C12.0042 3.04053 12.1447 3.15589 12.2436 3.30389C12.3425 3.4519 12.3953 3.6259 12.3953 3.80391C12.3953 3.9221 12.372 4.03913 12.3268 4.14832C12.2816 4.25751 12.2153 4.35673 12.1317 4.4403C12.0481 4.52388 11.9489 4.59017 11.8397 4.6354C11.7305 4.68063 11.6135 4.70391 11.4953 4.70391Z" fill="#9BAEBC"/>
</svg>
