<svg width="35" height="35" viewBox="0 0 35 35" fill="none" xmlns="http://www.w3.org/2000/svg">
<g clip-path="url(#clip0_28807_18562)">
<path d="M18.9989 27.892H10.4683C10.1065 27.892 9.88832 27.6821 9.79033 27.5571C9.62132 27.3411 9.55594 27.06 9.61089 26.7857C10.491 22.3929 14.2219 19.1852 18.529 19.0811C18.6005 19.0839 18.6723 19.0858 18.7446 19.0858C21.9223 19.0858 24.5077 16.3996 24.5077 13.0976C24.5077 9.7956 21.9223 7.10938 18.7446 7.10938C15.5668 7.10938 12.9816 9.7956 12.9816 13.0976C12.9816 15.0573 13.8923 16.8003 15.2972 17.8933C14.0102 18.3335 12.8023 19.0182 11.7454 19.9215C9.80754 21.5778 8.46013 23.8881 7.95146 26.4267C7.79206 27.2222 7.98308 28.0392 8.47536 28.6684C8.96516 29.2942 9.69167 29.6532 10.4683 29.6532H18.9989C19.4669 29.6532 19.8464 29.259 19.8464 28.7726C19.8464 28.2862 19.4669 27.892 18.9989 27.892ZM14.6766 13.0976C14.6766 10.7669 16.5014 8.87061 18.7446 8.87061C20.9877 8.87061 22.8127 10.7669 22.8127 13.0976C22.8127 15.3949 21.0397 17.27 18.8408 17.3233C18.8092 17.3196 18.7773 17.3171 18.7446 17.3171C18.6784 17.3171 18.6124 17.3182 18.5463 17.3194C16.395 17.2117 14.6766 15.3593 14.6766 13.0976Z" fill="#305671"/>
<path d="M3.48026 23.5272L3.41959 23.8268H3.72529H4.89327C5.17115 23.8268 5.43765 23.9372 5.63414 24.1337C5.83063 24.3302 5.94102 24.5967 5.94102 24.8745C5.94102 25.1524 5.83063 25.4189 5.63414 25.6154C5.43765 25.8119 5.17115 25.9223 4.89327 25.9223H2.29776C2.01988 25.9223 1.75338 25.8119 1.55689 25.6154C1.3604 25.4189 1.25001 25.1524 1.25001 24.8745L1.25001 24.8742C1.24741 23.196 1.72373 21.552 2.62304 20.1352C3.52235 18.7184 4.80728 17.5877 6.32692 16.8758L6.63236 16.7327L6.40663 16.4821C5.80761 15.817 5.4014 15.0011 5.23178 14.1223C5.06216 13.2434 5.13554 12.3349 5.44404 11.4947C5.75253 10.6545 6.28443 9.91436 6.98245 9.35407C7.68046 8.79378 8.51811 8.43456 9.40518 8.31512L9.40519 8.31524L9.41293 8.31395C9.55176 8.2908 9.69383 8.29586 9.83066 8.32883C9.96749 8.3618 10.0963 8.422 10.2093 8.50584C10.3224 8.58967 10.4174 8.69543 10.4887 8.81678C10.5599 8.93814 10.6061 9.07262 10.6242 9.21219C10.6424 9.35176 10.6322 9.49356 10.5944 9.62912C10.5566 9.76468 10.4918 9.89123 10.404 10.0012C10.3162 10.1112 10.2071 10.2024 10.0832 10.2693C9.95942 10.3362 9.82337 10.3774 9.68325 10.3906L9.68322 10.3903L9.67127 10.392C8.99662 10.4884 8.37938 10.8249 7.93287 11.3398C7.48635 11.8546 7.24053 12.5133 7.24053 13.1948C7.24053 13.8763 7.48635 14.5349 7.93287 15.0498C8.37938 15.5646 8.99662 15.9011 9.67127 15.9975L9.67127 15.9975L9.67321 15.9978C9.93595 16.0332 10.1755 16.167 10.3435 16.372C10.5116 16.5771 10.5956 16.8383 10.5788 17.1028C10.5619 17.3674 10.4453 17.6158 10.2526 17.7978C10.0599 17.9799 9.80526 18.0821 9.54014 18.0839L9.50637 18.0841L9.47386 18.0933L9.47386 18.0933L9.47381 18.0933L9.4736 18.0934L9.47274 18.0936L9.46925 18.0946L9.45571 18.0984L9.40602 18.1123C9.3642 18.1239 9.30701 18.1397 9.24542 18.1563C9.1205 18.1901 8.98868 18.2244 8.92491 18.2373C7.59067 18.4677 6.35706 19.0956 5.38565 20.0389C4.4134 20.983 3.74923 22.1989 3.48026 23.5272Z" fill="#305671" stroke="white" stroke-width="0.5"/>
<path d="M28.0674 33.0243C31.8961 33.0243 34.9999 29.9205 34.9999 26.0918C34.9999 22.263 31.8961 19.1592 28.0674 19.1592C24.2386 19.1592 21.1348 22.263 21.1348 26.0918C21.1348 29.9205 24.2386 33.0243 28.0674 33.0243Z" fill="#305671" stroke="white" stroke-width="2"/>
</g>
<defs>
<clipPath id="clip0_28807_18562">
<rect width="35" height="35" fill="white"/>
</clipPath>
</defs>
</svg>
