<svg width="18" height="19" viewBox="0 0 18 19" fill="none" xmlns="http://www.w3.org/2000/svg">
<g clip-path="url(#clip0_2524_85452)">
<path d="M4.30273 6.63135H12.9114C13.2802 6.63135 13.5794 6.33217 13.5794 5.96338C13.5794 5.59459 13.2802 5.29541 12.9114 5.29541H4.30273C3.93395 5.29541 3.63477 5.59459 3.63477 5.96338C3.63477 6.33217 3.93395 6.63135 4.30273 6.63135Z" fill="#305671"/>
<path d="M10.08 10.1274C10.08 9.75865 9.78078 9.45947 9.41199 9.45947H4.30273C3.93395 9.45947 3.63477 9.75865 3.63477 10.1274C3.63477 10.4962 3.93395 10.7954 4.30273 10.7954H9.41199C9.78078 10.7954 10.08 10.4962 10.08 10.1274Z" fill="#305671"/>
<path d="M17.1081 12.1837C17.1798 11.3986 17.228 10.4838 17.229 9.41756C17.2269 7.41119 17.0585 5.94201 16.8789 4.86236C16.5646 3.08346 14.9488 1.46768 13.1699 1.15338C12.0902 0.97373 10.6211 0.805332 8.61434 0.803223C6.60797 0.805332 5.13844 0.97373 4.05879 1.15338C2.28023 1.46768 0.664453 3.08346 0.350156 4.86236C0.170508 5.94201 0.00246094 7.41119 0 9.41756C0.00246094 11.4239 0.170508 12.8935 0.350156 13.9731C0.664453 15.752 2.28023 17.3678 4.05914 17.6821C5.13879 17.8617 6.60797 18.0298 8.61469 18.0322C9.68062 18.0312 10.5954 17.983 11.3801 17.9113C12.0776 18.4692 12.9621 18.8032 13.9247 18.8032C16.1754 18.8032 18.0004 16.9786 18.0004 14.7279C18.0004 13.7653 17.6664 12.8808 17.1084 12.1837H17.1081ZM8.61469 16.6963C7.03195 16.6946 5.61586 16.5863 4.2859 16.3655C3.69492 16.2597 3.09621 15.9281 2.60016 15.4321C2.1041 14.936 1.77293 14.3377 1.66676 13.7463C1.44598 12.4178 1.33805 11.0017 1.33594 9.41756C1.3377 7.83412 1.44598 6.41803 1.66676 5.08877C1.77258 4.49779 2.1041 3.89943 2.60016 3.40338C3.09621 2.90732 3.69457 2.57615 4.2859 2.46998C5.61516 2.2492 7.03125 2.14127 8.61469 2.13916C10.1974 2.14092 11.6135 2.2492 12.9435 2.46998C13.5345 2.5758 14.1328 2.90732 14.6292 3.40338C15.1253 3.89943 15.4564 4.49779 15.5626 5.08912C15.7834 6.41908 15.8913 7.83482 15.8934 9.41791C15.8927 10.0121 15.8766 10.5819 15.8456 11.1332C15.2733 10.8266 14.6194 10.6529 13.9247 10.6529C11.674 10.6529 9.84902 12.4776 9.84902 14.7283C9.84902 15.4229 10.023 16.0765 10.3293 16.6488C9.77801 16.6798 9.20813 16.696 8.61434 16.6963H8.61469ZM13.9247 17.4673C12.414 17.4673 11.185 16.2386 11.185 14.7279C11.185 13.2172 12.414 11.9885 13.9247 11.9885C15.4354 11.9885 16.6644 13.2172 16.6644 14.7279C16.6644 16.2386 15.4354 17.4673 13.9247 17.4673Z" fill="#305671"/>
<path d="M14.2833 15.5069C14.1983 15.4929 14.0826 15.4795 13.9247 15.4795C13.7669 15.4795 13.6512 15.4929 13.5662 15.5069C13.4262 15.5315 13.299 15.6588 13.274 15.7991C13.2599 15.8841 13.2466 15.9998 13.2466 16.1577C13.2466 16.3155 13.2599 16.4312 13.274 16.5163C13.2986 16.6562 13.4259 16.7834 13.5662 16.8084C13.6512 16.8225 13.7669 16.8358 13.9247 16.8358C14.0826 16.8358 14.1983 16.8225 14.2833 16.8084C14.4233 16.7838 14.5505 16.6565 14.5755 16.5163C14.5896 16.4312 14.6029 16.3155 14.6029 16.1577C14.6029 15.9998 14.5896 15.8841 14.5755 15.7991C14.5509 15.6591 14.4236 15.5319 14.2833 15.5069Z" fill="#305671"/>
<path d="M13.9243 15.0637C14.2931 15.0637 14.5923 14.7645 14.5923 14.3957V13.2812C14.5923 12.9125 14.2931 12.6133 13.9243 12.6133C13.5555 12.6133 13.2563 12.9125 13.2563 13.2812V14.3957C13.2563 14.7645 13.5555 15.0637 13.9243 15.0637Z" fill="#305671"/>
</g>
<defs>
<clipPath id="clip0_2524_85452">
<rect width="18" height="18" fill="white" transform="translate(0 0.803223)"/>
</clipPath>
</defs>
</svg>
