<svg xmlns="http://www.w3.org/2000/svg" xmlns:xlink="http://www.w3.org/1999/xlink" width="185.258" height="117.601" viewBox="0 0 185.258 117.601"><defs><style>.a,.l{opacity:0.275;}.b{fill:#3f3d56;}.c,.k,.l{fill:#ed707a;}.d,.h,.k{opacity:0.1;}.e,.f,.h{fill:#55bbc9;}.f{opacity:0.924;}.g{fill:#fff;}.i{opacity:0.5;}.j{fill:none;stroke:#c7daeb;stroke-linecap:round;stroke-miterlimit:10;opacity:0.7;}.m{fill:url(#a);}.n{fill:#fbbebe;}.o{fill:#f86d70;}.p{fill:#434175;}</style><linearGradient id="a" x1="9.046" y1="1" x2="9.046" gradientUnits="objectBoundingBox"><stop offset="0" stop-color="gray" stop-opacity="0.251"/><stop offset="0.54" stop-color="gray" stop-opacity="0.122"/><stop offset="1" stop-color="gray" stop-opacity="0.102"/></linearGradient></defs><g transform="translate(-24.309 -19.03)"><g class="a" transform="translate(28.369 65.648)"><path class="b" d="M149.28,708.344a1.584,1.584,0,0,1-.013.179q-.76-.3-1.491-.646a1.209,1.209,0,0,1-.69-.336c-.142-.072-.284-.146-.425-.221a1.811,1.811,0,0,1,.108-.194,1.236,1.236,0,0,1,2.25.069A2.242,2.242,0,0,1,149.28,708.344Z" transform="translate(-141.448 -672.583)"/><path class="b" d="M148.346,691.224a2.243,2.243,0,0,1-.334,1.127,1.338,1.338,0,0,1-1.148.688l-.094-.007a1.21,1.21,0,0,1-.69-.336,1.665,1.665,0,0,1-.318-.415,2.333,2.333,0,0,1,.072-2.276,1.237,1.237,0,0,1,2.25.069A2.243,2.243,0,0,1,148.346,691.224Z" transform="translate(-140.442 -657.738)"/><ellipse class="b" cx="1.862" cy="1.422" rx="1.862" ry="1.422" transform="translate(5.074 32.986) rotate(-88.19)"/><ellipse class="b" cx="1.862" cy="1.422" rx="1.862" ry="1.422" transform="translate(5.146 30.71) rotate(-88.19)"/><ellipse class="b" cx="1.862" cy="1.422" rx="1.862" ry="1.422" transform="translate(5.23 28.29) rotate(-88.282)"/><path class="c" d="M109.305,462.611a6.6,6.6,0,0,1-.505-.8l3.756-.5-4.043-.1a6.829,6.829,0,0,1,.041-5.4l5.332,2.984L109,454.968a6.816,6.816,0,1,1,11.01,7.975,6.8,6.8,0,0,1,.738,1.267l-4.93,2.367L121.048,465a6.824,6.824,0,0,1-1.305,6.368,6.816,6.816,0,1,1-10.707-.338,6.816,6.816,0,0,1,.266-8.424Z" transform="translate(-107.441 -451.737)"/><path class="d" d="M121.338,567.406a6.787,6.787,0,0,1-1.595,4.166,6.816,6.816,0,1,1-10.707-.338C108.162,570.047,121.361,566.641,121.338,567.406Z" transform="translate(-107.441 -551.936)"/></g><rect class="e" width="26.98" height="7.039" rx="3.52" transform="translate(140.304 35.671)"/><rect class="f" width="23.463" height="4.684" rx="2.342" transform="translate(142.062 36.848)"/><rect class="c" width="8.472" height="4.171" rx="2.086" transform="translate(156.465 37.104)"/><circle class="g" cx="1.304" cy="1.304" r="1.304" transform="translate(159.333 37.887)"/><rect class="e" width="26.98" height="7.039" rx="3.52" transform="translate(140.304 82.074)"/><rect class="h" width="23.463" height="4.684" rx="2.342" transform="translate(142.062 83.25)"/><rect class="c" width="8.472" height="4.171" rx="2.086" transform="translate(156.465 83.507)"/><circle class="g" cx="1.304" cy="1.304" r="1.304" transform="translate(159.333 84.29)"/><rect class="b" width="26.98" height="7.039" rx="3.52" transform="translate(140.304 105.274)"/><rect class="d" width="23.463" height="4.684" rx="2.342" transform="translate(142.062 106.453)"/><rect class="c" width="8.472" height="4.171" rx="2.086" transform="translate(156.465 106.709)"/><circle class="g" cx="1.304" cy="1.304" r="1.304" transform="translate(159.333 107.49)"/><rect class="c" width="8.28" height="2.19" rx="1.095" transform="translate(58.447 34.856)"/><rect class="c" width="22.992" height="2.19" rx="1.095" transform="translate(58.447 37.935)"/><rect class="c" width="22.992" height="2.19" rx="1.095" transform="translate(58.447 41.015)"/><g class="i" transform="translate(58.447 59.036)"><rect class="c" width="8.28" height="2.19" rx="1.095" transform="translate(0 0)"/><rect class="c" width="17.162" height="2.19" rx="1.095" transform="translate(0 3.08)"/><rect class="c" width="22.992" height="2.19" rx="1.095" transform="translate(0 6.159)"/></g><rect class="c" width="8.28" height="2.19" rx="1.095" transform="translate(58.447 82.217)"/><rect class="c" width="22.992" height="2.19" rx="1.095" transform="translate(58.447 85.295)"/><rect class="c" width="14.284" height="2.19" rx="1.095" transform="translate(58.447 88.375)"/><rect class="c" width="8.28" height="2.19" rx="1.095" transform="translate(58.447 106.396)"/><rect class="c" width="22.992" height="2.19" rx="1.095" transform="translate(58.447 109.476)"/><rect class="c" width="18.498" height="2.19" rx="1.095" transform="translate(58.447 112.555)"/><line class="j" x2="127.629" transform="translate(51.792 50.893)"/><line class="j" x2="127.629" transform="translate(51.792 74.481)"/><line class="j" x2="127.629" transform="translate(51.792 98.069)"/><line class="j" x2="127.629" transform="translate(51.792 122.244)"/><ellipse class="k" cx="28.908" cy="2.055" rx="28.908" ry="2.055" transform="translate(127.61 132.52)"/><ellipse class="l" cx="2.875" cy="2.875" rx="2.875" ry="2.875" transform="translate(24.309 34.92)"/><ellipse class="l" cx="2.875" cy="2.875" rx="2.875" ry="2.875" transform="translate(36.29 19.03)"/><ellipse class="l" cx="4.818" cy="4.818" rx="4.818" ry="4.818" transform="translate(33.373 28.003)"/><rect class="e" width="26.98" height="7.039" rx="3.52" transform="translate(140.304 58.872)"/><path class="h" d="M2.342,0H21.12a2.342,2.342,0,1,1,0,4.684H2.342A2.342,2.342,0,0,1,2.342,0Z" transform="translate(142.062 60.05)"/><path class="m" d="M726.034,470.371c.307-.045.615-.108.916-.178a2.857,2.857,0,0,1-.258.869,3.792,3.792,0,0,1-1.423,1.259.441.441,0,0,0-.556-.037c-.648.392-1.165.944-1.852,1.28-.241.117-.491.211-.726.343a3.914,3.914,0,0,0-1.37,1.415.972.972,0,0,0-.162,1,.871.871,0,0,0,.278.249,1.582,1.582,0,0,0,.953.284c.2-.018.391-.092.6-.125.268-.047.542-.023.812-.047a4.748,4.748,0,0,0,1.143-.3l1.345-.47a7.772,7.772,0,0,0,1.106-.454c.213-.116.415-.251.632-.356a5.092,5.092,0,0,1,.756-.266l.763-.223a.744.744,0,0,1,.344-.045c.106.02.2.086.3.114a.917.917,0,0,0,.489-.047l.885-.251a1.669,1.669,0,0,0,.527-.219,1.6,1.6,0,0,0,.476-1.359,10.288,10.288,0,0,0-.254-2.247.7.7,0,0,0-.288.217,4.182,4.182,0,0,0-.292-.366,4.366,4.366,0,0,1-.883-1.631,2.869,2.869,0,0,0,.783-.885,19.3,19.3,0,0,0-1.9-5.168c-.311-.513-.667-.994-.979-1.5-.926-1.468-1.116-3.328-2.175-4.7a.814.814,0,0,1,0-.955c.121-.16.317-.311.28-.511-.027-.143-.176-.274-.12-.407.027-.065.094-.1.145-.147.18-.168.157-.452.174-.7a3.4,3.4,0,0,1,.766-1.676,1.028,1.028,0,0,1,.282-.305c.1-.059.209-.086.305-.145.337-.213.313-.709.474-1.077.211-.485.744-.73,1.092-1.124.444-.5.558-1.2,1.026-1.635a1.2,1.2,0,0,1,.155-.125,7.872,7.872,0,0,0-.276,2.28c-.045,2.648.613,5.389.305,8.026a5.536,5.536,0,0,0,2.838,5.211,13.566,13.566,0,0,0,2.21.938c1.131.405,2.259.822,3.369,1.288q1.174.493,2.318,1.059a28.832,28.832,0,0,1,2.741,1.529,10.609,10.609,0,0,1,2.952,2.451,2.338,2.338,0,0,0,1.3-.48c.3.235.658.413.938.673a2.831,2.831,0,0,1,.744,1.46h-.117c.014.26.025.521.039.783a.333.333,0,0,1-.029.2.355.355,0,0,1-.106.1l-.6.409c-.438.3-.922.669-.945,1.2a.611.611,0,0,0,.131.429.924.924,0,0,0,.536.243,9.451,9.451,0,0,0,3.187.294,2.1,2.1,0,0,0,1.357-.626,2.686,2.686,0,0,0,.474-1.3c.131-.783.241-1.584.327-2.378a5.258,5.258,0,0,1,.325-1.58.2.2,0,0,1,.084-.106c.045-.02.1,0,.145-.02s.078-.092.094-.151a9.339,9.339,0,0,0,.28-2.365,1.594,1.594,0,0,0-.092-.609,1.229,1.229,0,0,0-.838-.646,6.666,6.666,0,0,0-1.083-.129,5.374,5.374,0,0,1-.9-.164.822.822,0,0,0-.374-.049.262.262,0,0,0-.227.26.335.335,0,0,0,.047.127l-.305-.061c-.247-.045-.587-.153-.957-.243a1.713,1.713,0,0,1,.012-.2.37.37,0,0,0-.207-.337l-5.172-2.764-.967-.517c-2.118-1.133-4.306-2.181-6.43-3.314-.141.043-.258-.119-.3-.264s-.07-.317-.206-.382c-.067-.031-.155-.029-.2-.086a.233.233,0,0,1-.037-.174c.068-1.032.807-1.983.66-3a3.8,3.8,0,0,1-.2-1.3,6.136,6.136,0,0,1,.391-.818c.254-.63,0-1.388.278-2a4.644,4.644,0,0,0,.374-1.276,8.766,8.766,0,0,1,.783-2.533,4.57,4.57,0,0,1,.728-1.11c.155-.168.329-.319.478-.493a4.125,4.125,0,0,0,.744-1.958,9.364,9.364,0,0,0,.1-3.8,5.441,5.441,0,0,1-.241-1.278c0-.521.209-1.118-.043-1.535a1.351,1.351,0,0,0,.487-.836,1.082,1.082,0,0,1,.068-.346,1.007,1.007,0,0,1,.327-.294,1.353,1.353,0,0,0,.505-1.345c.268.121.55-.151.677-.419s.223-.587.5-.709a4.078,4.078,0,0,1,.587-.082c.311-.08.5-.392.72-.621a5.551,5.551,0,0,1,1.664-1.026,18.857,18.857,0,0,0,4.532-3.653,15.339,15.339,0,0,0,1.958-2.2c.155-.229.3-.466.429-.709l.035-.018.012.043c.021.086.047.172.072.256.063.2.133.405.2.6a4.536,4.536,0,0,0,.871,1.658,2.051,2.051,0,0,0,.446.346,3,3,0,0,0,1.149.345c.153.02.307.031.462.039s.309.014.462.018l3.167.084c-1.088-1.578-1.175-3.629-1.1-5.549.182-4.933,1.143-9.911.25-14.765a3.784,3.784,0,0,0-.609-1.646,3.381,3.381,0,0,0-1.993-1.088,11.969,11.969,0,0,1-2.235-.574,9.422,9.422,0,0,0-1.762-.84,3.879,3.879,0,0,0-1.409.023q-.857.127-1.7.3l-.137.029h.006l-.094.022h-.026l-.084.02h-.031l-.078.022-.035.01-.072.023-.041.014-.067.022-.043.018-.063.023-.047.02-.057.025-.047.023-.053.025-.047.027-.049.027-.047.031-.045.029-.047.033-.039.031-.045.039-.037.033a.458.458,0,0,0-.043.045l-.033.033a.585.585,0,0,0-.043.055c0,.01-.018.02-.026.031s-.035.051-.053.08v.012a1.187,1.187,0,0,0-.108.233c-.014.041-.027.082-.037.123a1.852,1.852,0,0,0-.043.254.594.594,0,0,1-.01.131v.26a3.832,3.832,0,0,0,.049.438,4.77,4.77,0,0,0-.227,8.071,2.122,2.122,0,0,1,.016.233v.051a6.467,6.467,0,0,1-.086.826,11.483,11.483,0,0,0-2.349-.209c-.47,0-.943.043-1.417.08a21.339,21.339,0,0,1-1.417-1.918l-1.045-1.533a14.627,14.627,0,0,1-.979-1.566c-.256-.5-.456-1.026-.742-1.507-.587-.992-1.547-1.836-1.666-2.985l-.276.057c-.151-.247-.341-.507-.411-.65a12.825,12.825,0,0,1-.869-2.545,3.911,3.911,0,0,0-.417-1.319,2.971,2.971,0,0,0-.609-.646,4.025,4.025,0,0,0-1.3-.822,1.685,1.685,0,0,0-1.333.078,1.955,1.955,0,0,0-.2-.078,1.615,1.615,0,0,0-1.48.172,1.99,1.99,0,0,0-.65,1.37,3.383,3.383,0,0,0,.349,2.079,8.229,8.229,0,0,0,1.672,1.73,6.766,6.766,0,0,1,1.051,1.308,14.316,14.316,0,0,1-.08,3.173c-.074.45-.2.893-.231,1.347-.143,1.64.711,3.281.405,4.894a1.194,1.194,0,0,0,.554,1.267,6.107,6.107,0,0,0,1.433.392c.945.243,1.762.848,2.717,1.073.44.106.9.125,1.337.243l.068.022a3.186,3.186,0,0,0-.7,1.335c-.2.822-.012,1.7-.208,2.523a5.624,5.624,0,0,1-.961,1.842l-2.3,3.328a20.4,20.4,0,0,1-1.693,2.226c-1.055,1.153-2.876,2.067-3.412,3.453-.012-.033-.027-.067-.039-.1-.76.558-1.043,1.6-1.648,2.32-.3.35-.66.634-.979.959a11.055,11.055,0,0,0-1.083,1.345,23.869,23.869,0,0,0-2.451,3.9c-.337.728-.6,1.486-.865,2.239-1.053,2.97-2.772,5.786-3.486,8.858a16.684,16.684,0,0,0-.7,2.194,4.243,4.243,0,0,0,.685,2.327c.587,1.1,1.241,2.177,1.762,3.312.307.662.574,1.345.916,1.991.374.7.832,1.359,1.223,2.053A25.744,25.744,0,0,1,726.034,470.371Zm12.951-56.092-.094-.047a3.241,3.241,0,0,1-.949-.628,7.345,7.345,0,0,1-1.47-3.469c-.031-.145-.059-.288-.084-.433a20.811,20.811,0,0,1,2.6,4.581Z" transform="translate(-583.185 -340.981)"/><path class="n" d="M781.178,403.6a3.841,3.841,0,0,0-.415-1.31,2.966,2.966,0,0,0-.611-.642,4.059,4.059,0,0,0-1.308-.816,1.633,1.633,0,0,0-1.48.17,1.976,1.976,0,0,0-.652,1.37,3.341,3.341,0,0,0,.348,2.065,8.491,8.491,0,0,0,1.676,1.719,6.732,6.732,0,0,1,1.092,1.37,3.957,3.957,0,0,0,.5.728.947.947,0,0,0,.783.315,1.37,1.37,0,0,0,.64-.378c.239-.209.881-.587.9-.914.016-.268-.485-.875-.609-1.128A12.81,12.81,0,0,1,781.178,403.6Z" transform="translate(-629.224 -342.056)"/><path class="d" d="M781.178,403.6a3.841,3.841,0,0,0-.415-1.31,2.966,2.966,0,0,0-.611-.642,4.059,4.059,0,0,0-1.308-.816,1.633,1.633,0,0,0-1.48.17,1.976,1.976,0,0,0-.652,1.37,3.341,3.341,0,0,0,.348,2.065,8.491,8.491,0,0,0,1.676,1.719,6.732,6.732,0,0,1,1.092,1.37,3.957,3.957,0,0,0,.5.728.947.947,0,0,0,.783.315,1.37,1.37,0,0,0,.64-.378c.239-.209.881-.587.9-.914.016-.268-.485-.875-.609-1.128A12.81,12.81,0,0,1,781.178,403.6Z" transform="translate(-629.224 -342.056)"/><path class="o" d="M806.147,443.052a11.527,11.527,0,0,0-3.167-.392c-1.783.025-3.619.458-5.319-.09a9.273,9.273,0,0,1-1.272-.542,3.245,3.245,0,0,1-.951-.624,7.241,7.241,0,0,1-1.472-3.445,22.987,22.987,0,0,1-.4-3.666,2.806,2.806,0,0,1-1.39.366,1.021,1.021,0,0,1-.979-.9,14.87,14.87,0,0,1-.065,3.416c-.074.446-.2.887-.229,1.337-.145,1.631.711,3.259.405,4.866a1.175,1.175,0,0,0,.554,1.257,6.218,6.218,0,0,0,1.435.392c.945.241,1.762.842,2.721,1.067.44.1.9.123,1.339.241.624.166,1.194.525,1.832.636.478.086.979.027,1.454.069.421.035.832.145,1.255.157a3.615,3.615,0,0,0,2.693-1.333A11.683,11.683,0,0,0,806.147,443.052Z" transform="translate(-640.653 -368.622)"/><path class="d" d="M806.147,443.052a11.527,11.527,0,0,0-3.167-.392c-1.783.025-3.619.458-5.319-.09a9.273,9.273,0,0,1-1.272-.542,3.245,3.245,0,0,1-.951-.624,7.241,7.241,0,0,1-1.472-3.445,22.987,22.987,0,0,1-.4-3.666,2.806,2.806,0,0,1-1.39.366,1.021,1.021,0,0,1-.979-.9,14.87,14.87,0,0,1-.065,3.416c-.074.446-.2.887-.229,1.337-.145,1.631.711,3.259.405,4.866a1.175,1.175,0,0,0,.554,1.257,6.218,6.218,0,0,0,1.435.392c.945.241,1.762.842,2.721,1.067.44.1.9.123,1.339.241.624.166,1.194.525,1.832.636.478.086.979.027,1.454.069.421.035.832.145,1.255.157a3.615,3.615,0,0,0,2.693-1.333A11.683,11.683,0,0,0,806.147,443.052Z" transform="translate(-640.653 -368.622)"/><path class="n" d="M868.241,737.1a2.68,2.68,0,0,1,.914.286,2.153,2.153,0,0,1,.795,1.073,9.311,9.311,0,0,1,.534,3.349,7.211,7.211,0,0,1-.345,2.715,1.728,1.728,0,0,1-.452.711,1.63,1.63,0,0,1-.622.3,1.668,1.668,0,0,1-1.46-.18,2.326,2.326,0,0,1-.652-1.523,3.527,3.527,0,0,0-.867-2.071c-.415-.391-1.01-.587-1.312-1.061a2.264,2.264,0,0,1,.059-1.948c.2-.55.491-1.664,1.067-1.946S867.644,736.99,868.241,737.1Z" transform="translate(-699.917 -612.274)"/><path class="n" d="M749.011,748.037a4.335,4.335,0,0,0,.9,1.666c.254.294.573.65.44,1.014a.945.945,0,0,1-.241.323,12.379,12.379,0,0,1-7.159,3.077.253.253,0,0,1-.127,0c-.076-.033-.1-.131-.1-.215a2.645,2.645,0,0,1,0-.824,2.479,2.479,0,0,1,1.239-1.447,3.85,3.85,0,0,0,1.456-1.272c.382-.716.221-1.65.675-2.322a2.421,2.421,0,0,1,1.705-.881c.225-.035.7-.282.9-.168S748.944,747.812,749.011,748.037Z" transform="translate(-601.888 -620.512)"/><path class="o" d="M870.516,737.252a.26.26,0,0,1,.227-.258.852.852,0,0,1,.374.047,5.182,5.182,0,0,0,.9.166,6.678,6.678,0,0,1,1.084.127,1.228,1.228,0,0,1,.84.64,1.59,1.59,0,0,1,.092.607,9.21,9.21,0,0,1-.28,2.349c-.016.059-.039.127-.1.149s-.1,0-.143.022a.176.176,0,0,0-.084.106,5.17,5.17,0,0,0-.327,1.566c-.086.783-.2,1.578-.327,2.361a2.593,2.593,0,0,1-.474,1.292,2.1,2.1,0,0,1-1.359.623,9.576,9.576,0,0,1-3.191-.292.933.933,0,0,1-.538-.241.6.6,0,0,1-.131-.427c.023-.527.509-.9.945-1.192l.6-.405a.312.312,0,0,0,.106-.1.327.327,0,0,0,.029-.2l-.039-.783a2.218,2.218,0,0,1,1.932,1.2c.082.166.162.36.335.425a.442.442,0,0,0,.527-.319,1.356,1.356,0,0,0-.018-.679c-.354-1.893-.27-3.839-.485-5.751a1.3,1.3,0,0,0-.2-.607C870.731,737.555,870.537,737.428,870.516,737.252Z" transform="translate(-701.933 -612.495)"/><rect class="c" width="8.472" height="4.171" rx="2.086" transform="translate(151.121 64.478) rotate(180)"/><circle class="g" cx="1.304" cy="1.304" r="1.304" transform="translate(145.646 61.088)"/><path class="o" d="M729.9,764.488c-.088.147-.227.26-.309.411a.352.352,0,0,0,.067.46.455.455,0,0,0,.28.027,9.418,9.418,0,0,0,5.089-2.306,3.567,3.567,0,0,0,.625-.683c.166-.253.307-.562.587-.668a10.169,10.169,0,0,1,.262,2.241,1.6,1.6,0,0,1-.476,1.351,1.686,1.686,0,0,1-.529.215l-.885.251a.941.941,0,0,1-.491.047c-.1-.027-.2-.094-.3-.114a.744.744,0,0,0-.344.045l-.765.223a4.868,4.868,0,0,0-.756.264c-.219.1-.421.237-.634.352a7.589,7.589,0,0,1-1.108.45l-1.345.468a4.879,4.879,0,0,1-1.145.294c-.27.023-.546,0-.814.045a5.551,5.551,0,0,1-.607.125,1.587,1.587,0,0,1-.953-.282.887.887,0,0,1-.278-.247c-.2-.3-.025-.695.163-1a3.946,3.946,0,0,1,1.37-1.405c.235-.129.487-.223.728-.341.687-.333,1.206-.889,1.854-1.268C729.79,763.089,730.184,764.014,729.9,764.488Z" transform="translate(-587.646 -632.392)"/><path class="n" d="M846.69,472.643a5.592,5.592,0,0,0,2.38.926,9.689,9.689,0,0,0,1.347.072,34.227,34.227,0,0,0,5.6-.468,6.94,6.94,0,0,1-1.762-2.74,4.525,4.525,0,0,1-.086-1.717,12.926,12.926,0,0,1,.525-2.153,15.2,15.2,0,0,1-2.369-.061c-.448-.047-1.548-.454-1.938-.145s-.09,1.306-.084,1.773a.443.443,0,0,1,0,.051,5.662,5.662,0,0,1-.452,2.071A3.9,3.9,0,0,1,846.69,472.643Z" transform="translate(-685.534 -394.746)"/><path class="d" d="M864.705,468.089a4.71,4.71,0,0,0,3.866.587,12.919,12.919,0,0,1,.525-2.153,15.2,15.2,0,0,1-2.369-.061c-.448-.047-1.548-.454-1.938-.145S864.7,467.621,864.705,468.089Z" transform="translate(-699.93 -394.714)"/><circle class="n" cx="4.72" cy="4.72" r="4.72" transform="translate(162.639 64.486)"/><path class="o" d="M776.09,505.788a2.2,2.2,0,0,0,1.065,1.893,4.246,4.246,0,0,0,1.155.407,22.678,22.678,0,0,0,6.587.812,3.619,3.619,0,0,0,1.4-.294,1.5,1.5,0,0,0,.863-1.079,1.012,1.012,0,0,1,.067-.343,1,1,0,0,1,.327-.292,1.339,1.339,0,0,0,.507-1.335c.268.121.55-.151.677-.417s.225-.587.5-.7a4.079,4.079,0,0,1,.587-.082c.311-.08.5-.392.72-.617a5.649,5.649,0,0,1,1.666-1.02,18.847,18.847,0,0,0,4.541-3.627A15.217,15.217,0,0,0,798.7,496.9a8.1,8.1,0,0,0,.431-.7,19.94,19.94,0,0,0,1.086-2.488,2.869,2.869,0,0,0,.282-1.425.642.642,0,0,0-.025-.131,2.739,2.739,0,0,0-.429-.865,3.622,3.622,0,0,0-1.934-1.589,5.344,5.344,0,0,0-2.488.223,6.234,6.234,0,0,1-.844.129,7.926,7.926,0,0,1-2.627-.413l-.936-.258c-.468-.129-.7-.695-1.174-.795a1.589,1.589,0,0,0-.636.033,8.768,8.768,0,0,0-2.78.908,4.174,4.174,0,0,0-.54.368,3.42,3.42,0,0,0-1.257,1.854c-.2.816-.012,1.689-.208,2.506a5.58,5.58,0,0,1-.961,1.828l-2.306,3.3a20.394,20.394,0,0,1-1.7,2.208C778.421,502.943,776.123,503.957,776.09,505.788Z" transform="translate(-628.754 -412.703)"/><path class="n" d="M789.028,403.6a3.841,3.841,0,0,0-.415-1.31,2.968,2.968,0,0,0-.611-.642,4.06,4.06,0,0,0-1.308-.816,1.632,1.632,0,0,0-1.48.17,1.976,1.976,0,0,0-.652,1.37,3.342,3.342,0,0,0,.348,2.065,8.239,8.239,0,0,0,1.676,1.719,6.728,6.728,0,0,1,1.092,1.37,3.956,3.956,0,0,0,.5.728.947.947,0,0,0,.783.315,1.37,1.37,0,0,0,.64-.378c.239-.209.881-.587.9-.914.016-.268-.485-.875-.609-1.128A12.8,12.8,0,0,1,789.028,403.6Z" transform="translate(-635.538 -342.056)"/><path class="p" d="M719.958,596.143c.587,1.1,1.241,2.153,1.772,3.289.307.66.574,1.337.916,1.979.374.7.834,1.349,1.225,2.038a23.653,23.653,0,0,1,2.04,5.643,11.235,11.235,0,0,0,4.017-1.413,2.545,2.545,0,0,0,.241-.155,2.842,2.842,0,0,0,.81-.895,19.156,19.156,0,0,0-1.9-5.133c-.311-.509-.667-.979-.979-1.49-.926-1.458-1.118-3.3-2.177-4.661a.8.8,0,0,1,0-.947c.121-.159.317-.309.28-.507-.027-.143-.176-.272-.119-.405.027-.065.094-.1.145-.147.18-.164.157-.448.174-.691a3.387,3.387,0,0,1,.767-1.666,1.046,1.046,0,0,1,.282-.3c.1-.059.209-.086.305-.145.337-.209.313-.7.476-1.069.211-.482.744-.726,1.094-1.116.444-.5.556-1.188,1.026-1.623a1.4,1.4,0,0,1,.155-.125,7.772,7.772,0,0,0-.276,2.273c-.045,2.631.613,5.352.305,7.965a5.493,5.493,0,0,0,2.842,5.176,13.764,13.764,0,0,0,2.214.932c1.131.4,2.263.814,3.373,1.278.783.325,1.566.677,2.322,1.051a28.561,28.561,0,0,1,2.74,1.519,10.571,10.571,0,0,1,2.956,2.433,2.652,2.652,0,0,0,1.911-1.051,7.373,7.373,0,0,0,1.045-1.979,5.5,5.5,0,0,0,.5-1.865.372.372,0,0,0-.208-.335l-5.18-2.74-.979-.513c-2.12-1.126-4.307-2.167-6.438-3.291-.143.041-.26-.121-.3-.262s-.07-.317-.206-.38c-.068-.031-.155-.031-.2-.086a.235.235,0,0,1-.035-.172c.069-1.026.808-1.969.66-2.985a3.753,3.753,0,0,1-.2-1.286,5.98,5.98,0,0,1,.392-.814c.253-.626,0-1.37.278-1.991a4.566,4.566,0,0,0,.374-1.268,8.589,8.589,0,0,1,.793-2.513,4.536,4.536,0,0,1,.728-1.1c.157-.166.331-.317.478-.489a4.086,4.086,0,0,0,.746-1.934,9.241,9.241,0,0,0,.1-3.776,5.369,5.369,0,0,1-.241-1.27c0-.57.256-1.237-.139-1.65a1.291,1.291,0,0,0-.587-.3,17.7,17.7,0,0,0-2.809-.519l-4.318-.562a3.971,3.971,0,0,1-1.439-.374,2.869,2.869,0,0,1-1.214-1.55c-.759.554-1.045,1.586-1.65,2.3-.3.35-.66.632-.979.953a10.787,10.787,0,0,0-1.084,1.337,23.75,23.75,0,0,0-2.457,3.876c-.335.722-.587,1.476-.865,2.224-1.055,2.95-2.776,5.749-3.49,8.8a16.218,16.218,0,0,0-.7,2.181A4.118,4.118,0,0,0,719.958,596.143Z" transform="translate(-583.052 -479.939)"/><path class="d" d="M835.9,566.466a1.34,1.34,0,0,1,.159.638c-.1-.478-.754-.742-.795-1.214-.02-.217.02-.207.155-.092C835.621,565.969,835.709,566.278,835.9,566.466Z" transform="translate(-676.339 -474.749)"/><path class="d" d="M826.558,576.311a1.008,1.008,0,0,1,.3.442,1.126,1.126,0,0,1,.059.769c-.1-.045-.129-.162-.159-.266a1.834,1.834,0,0,0-.2-.456c-.078-.123-.436-.417-.433-.552C826.124,576.045,826.462,576.239,826.558,576.311Z" transform="translate(-668.999 -483.146)"/><path class="d" d="M827.14,489.824a4.935,4.935,0,0,0,.994.662c.936.474,1.971.722,2.913,1.174a14.124,14.124,0,0,1,1.351.783c.934.587,1.866,1.174,2.8,1.772a3.084,3.084,0,0,1,.617.468c.337.36.335.979.642,1.37a1.84,1.84,0,0,0,1.357.626,4.4,4.4,0,0,0,1.513-.254,7.479,7.479,0,0,0,.865-.315,4.007,4.007,0,0,0,.83-.474,2.386,2.386,0,0,0,.979-1.544,3.051,3.051,0,0,0-.166-1.261,4.913,4.913,0,0,0-.3-.765,2.957,2.957,0,0,0-.239-.4,4.434,4.434,0,0,0-2.868-1.552c-.577-.112-1.165-.18-1.744-.278a6.233,6.233,0,0,1-.844.129,7.926,7.926,0,0,1-2.627-.413l-.936-.258c-.468-.129-.7-.695-1.174-.795a1.591,1.591,0,0,0-.636.033,8.769,8.769,0,0,0-2.78.908A4.172,4.172,0,0,0,827.14,489.824Z" transform="translate(-669.811 -412.631)"/><path class="o" d="M801.7,431.36c.119,1.141,1.083,1.979,1.67,2.964.286.48.485,1,.742,1.5a14.67,14.67,0,0,0,.979,1.566l1.047,1.521a15.745,15.745,0,0,0,2.026,2.545c1.37.233,2.525,1.253,3.827,1.748a20.161,20.161,0,0,0,3.273.664,4.427,4.427,0,0,1,2.868,1.552,4.077,4.077,0,0,1,.536,1.174,3.042,3.042,0,0,1,.166,1.259,2.386,2.386,0,0,1-.979,1.546,5.424,5.424,0,0,1-1.693.783,4.452,4.452,0,0,1-1.513.254,1.848,1.848,0,0,1-1.359-.626c-.305-.392-.3-1.016-.64-1.37a3.084,3.084,0,0,0-.617-.468l-2.8-1.762a14.132,14.132,0,0,0-1.351-.783c-.942-.46-1.977-.709-2.913-1.174a3.44,3.44,0,0,1-1.991-2.286c-.57-3.169-2.764-5.841-4.639-8.458.061-.012.043-.153.065-.211a2.741,2.741,0,0,1,1.37-1.386A6.92,6.92,0,0,1,801.7,431.36Z" transform="translate(-646.649 -366.692)"/><path class="p" d="M865.963,422.485a1.736,1.736,0,0,1,.2-.994,2.227,2.227,0,0,1,1.552-.82c.591-.121,1.135-.215,1.707-.3a3.935,3.935,0,0,1,1.411-.025,9.528,9.528,0,0,1,1.762.834,12.521,12.521,0,0,0,2.239.572,3.44,3.44,0,0,1,2,1.081,3.746,3.746,0,0,1,.609,1.635c.895,4.821-.068,9.766-.251,14.666-.072,1.907.014,3.944,1.1,5.512l-3.173-.084a2.887,2.887,0,0,1-3.392-2.388,5.678,5.678,0,0,1-.407-1.634c-.049-1.151.6-2.281.392-3.414a3.849,3.849,0,0,0-1.433-2.085,13.235,13.235,0,0,1-1.924-1.713,6.25,6.25,0,0,1-1.014-4.375,16.548,16.548,0,0,0,.155-2.727,3.431,3.431,0,0,0-.718-1.911A2.694,2.694,0,0,1,865.963,422.485Z" transform="translate(-701.028 -357.794)"/><path class="d" d="M866.153,423.062a2.18,2.18,0,0,1,1.521-.812,1.5,1.5,0,0,0-.754.587,1.762,1.762,0,0,0-.2,1,2.653,2.653,0,0,0,.813,1.83,3.415,3.415,0,0,1,.72,1.911,16.79,16.79,0,0,1-.155,2.727,6.233,6.233,0,0,0,1.014,4.375,12.857,12.857,0,0,0,1.924,1.713,3.814,3.814,0,0,1,1.433,2.085c.211,1.131-.442,2.263-.392,3.414a5.582,5.582,0,0,0,.405,1.633,2.887,2.887,0,0,0,3.394,2.39l2.247.059c.049.082.1.164.157.245l-3.173-.084a2.887,2.887,0,0,1-3.392-2.388,5.671,5.671,0,0,1-.407-1.634c-.049-1.151.6-2.28.391-3.414a3.848,3.848,0,0,0-1.433-2.085,13.251,13.251,0,0,1-1.924-1.713,6.25,6.25,0,0,1-1.014-4.375,16.548,16.548,0,0,0,.155-2.727,3.431,3.431,0,0,0-.719-1.91,2.663,2.663,0,0,1-.814-1.83A1.737,1.737,0,0,1,866.153,423.062Z" transform="translate(-701.022 -359.365)"/><path class="d" d="M745.22,641.457l5.829,14.2a2.841,2.841,0,0,0,.81-.895,19.158,19.158,0,0,0-1.9-5.133c-.311-.509-.668-.979-.979-1.49-.926-1.458-1.118-3.3-2.177-4.661a.8.8,0,0,1,0-.947c.121-.159.317-.309.28-.507-.027-.143-.176-.272-.119-.405.027-.065.094-.1.145-.147.18-.164.157-.448.174-.691a3.387,3.387,0,0,1,.767-1.666,1.046,1.046,0,0,1,.282-.3c.1-.059.209-.086.305-.145.337-.209.313-.7.476-1.069.211-.482.744-.726,1.094-1.116.444-.5.556-1.188,1.026-1.623l.041-.1-.44-2.74Z" transform="translate(-603.927 -528.073)"/><ellipse class="c" cx="6.646" cy="1.278" rx="6.646" ry="1.278" transform="translate(185.509 127.789)"/><ellipse class="b" cx="0.773" cy="1.012" rx="0.773" ry="1.012" transform="translate(191.493 127.511)"/><ellipse class="b" cx="0.773" cy="1.012" rx="0.773" ry="1.012" transform="translate(191.493 126.274)"/><ellipse class="b" cx="0.773" cy="1.012" rx="0.773" ry="1.012" transform="translate(191.493 125.035)"/><ellipse class="b" cx="0.773" cy="1.012" rx="0.773" ry="1.012" transform="translate(191.493 123.798)"/><ellipse class="b" cx="0.773" cy="1.012" rx="0.773" ry="1.012" transform="translate(191.493 122.559)"/><ellipse class="b" cx="0.773" cy="1.012" rx="0.773" ry="1.012" transform="translate(191.493 121.322)"/><ellipse class="b" cx="0.773" cy="1.012" rx="0.773" ry="1.012" transform="translate(191.493 120.085)"/><path class="c" d="M987.563,651.651a3.681,3.681,0,0,1-.288-.425l2.032-.335-2.2.018a3.72,3.72,0,0,1-.07-2.936l2.95,1.529-2.721-2a3.708,3.708,0,1,1,6.121,4.148,3.593,3.593,0,0,1,.423.675l-2.639,1.37,2.815-.943a3.731,3.731,0,0,1,.2,1.188,14.706,14.706,0,0,0-1.193,7.3,7.5,7.5,0,0,1-5.427-9.6Z" transform="translate(-798.194 -539.027)"/><path class="d" d="M994.183,687.827a14.707,14.707,0,0,0-1.193,7.3,3.706,3.706,0,0,1-5.427-5.013C987.065,689.489,994.183,687.412,994.183,687.827Z" transform="translate(-798.194 -572.912)"/><ellipse class="c" cx="4.469" cy="0.859" rx="4.469" ry="0.859" transform="translate(200.628 114.012)"/><ellipse class="b" cx="0.521" cy="0.681" rx="0.521" ry="0.681" transform="translate(204.653 113.826)"/><ellipse class="b" cx="0.521" cy="0.681" rx="0.521" ry="0.681" transform="translate(204.653 112.994)"/><ellipse class="b" cx="0.521" cy="0.681" rx="0.521" ry="0.681" transform="translate(204.653 112.161)"/><ellipse class="b" cx="0.521" cy="0.681" rx="0.521" ry="0.681" transform="translate(204.653 111.329)"/><ellipse class="b" cx="0.521" cy="0.681" rx="0.521" ry="0.681" transform="translate(204.653 110.497)"/><ellipse class="b" cx="0.521" cy="0.681" rx="0.521" ry="0.681" transform="translate(204.653 109.665)"/><ellipse class="b" cx="0.521" cy="0.681" rx="0.521" ry="0.681" transform="translate(204.653 108.831)"/><path class="c" d="M1059.4,614.714a2.163,2.163,0,0,1-.2-.286l1.37-.225-1.478.012a2.471,2.471,0,0,1-.229-1.041,2.5,2.5,0,0,1,.18-.934l1.985,1.03-1.83-1.345a2.492,2.492,0,1,1,4.111,2.789,2.453,2.453,0,0,1,.284.454l-1.774.922,1.891-.636a31.674,31.674,0,0,0-.666,5.725,5.051,5.051,0,0,1-3.651-6.457Z" transform="translate(-856.172 -510.896)"/><path class="d" d="M1063.864,639.079a9.89,9.89,0,0,0-.8,4.917,2.494,2.494,0,0,1-3.651-3.376C1059.08,640.195,1063.864,638.8,1063.864,639.079Z" transform="translate(-856.188 -533.721)"/></g></svg>