<svg width="41" height="41" viewBox="0 0 41 41" fill="none" xmlns="http://www.w3.org/2000/svg">
<path d="M20.5 41C31.8218 41 41 31.8218 41 20.5C41 9.17816 31.8218 0 20.5 0C9.17816 0 0 9.17816 0 20.5C0 31.8218 9.17816 41 20.5 41Z" fill="#6AAAD9"/>
<path d="M16.0794 28.0384C16.0786 28.3063 15.9718 28.563 15.7824 28.7524C15.593 28.9418 15.3363 29.0486 15.0684 29.0494H10.8884C10.6209 29.048 10.3647 28.941 10.1757 28.7517C9.98668 28.5623 9.88018 28.3059 9.87939 28.0384V23.4544C9.88019 23.1865 9.98696 22.9298 10.1764 22.7404C10.3658 22.5509 10.6225 22.4442 10.8904 22.4434H15.0704C15.3383 22.4442 15.595 22.5509 15.7844 22.7404C15.9738 22.9298 16.0806 23.1865 16.0814 23.4544L16.0794 28.0384Z" fill="white"/>
<path d="M23.5121 28.0386C23.5113 28.3065 23.4045 28.5632 23.2151 28.7526C23.0256 28.942 22.7689 29.0488 22.5011 29.0496H18.3211C18.0532 29.0488 17.7965 28.942 17.607 28.7526C17.4176 28.5632 17.3109 28.3065 17.3101 28.0386V21.0276C17.3109 20.7597 17.4176 20.503 17.607 20.3136C17.7965 20.1242 18.0532 20.0174 18.3211 20.0166H22.5011C22.7689 20.0174 23.0256 20.1242 23.2151 20.3136C23.4045 20.503 23.5113 20.7597 23.5121 21.0276V28.0386Z" fill="white"/>
<path d="M30.9442 28.0393C30.9434 28.3072 30.8366 28.5639 30.6472 28.7533C30.4578 28.9428 30.2011 29.0495 29.9332 29.0503H25.7532C25.4853 29.0495 25.2286 28.9428 25.0392 28.7533C24.8497 28.5639 24.743 28.3072 24.7422 28.0393V18.3313C24.743 18.0634 24.8497 17.8067 25.0392 17.6173C25.2286 17.4279 25.4853 17.3211 25.7532 17.3203H29.9332C30.2011 17.3211 30.4578 17.4279 30.6472 17.6173C30.8366 17.8067 30.9434 18.0634 30.9442 18.3313V28.0393Z" fill="white"/>
<path d="M30.0692 10.0188L25.5272 11.1238C25.1672 11.2108 25.0862 11.4968 25.3482 11.7588L26.3172 12.7058C26.3982 12.7988 26.3022 12.9218 26.2252 12.9738C25.287 13.6055 24.3127 14.1819 23.3072 14.6998C19.1978 16.95 14.6054 18.1734 9.92116 18.2658C9.68909 18.2538 9.46179 18.3346 9.28926 18.4902C9.11673 18.6459 9.01309 18.8637 9.00116 19.0958C8.98922 19.3278 9.06996 19.5551 9.22562 19.7277C9.38127 19.9002 9.59909 20.0038 9.83116 20.0158C9.86716 20.0158 10.0112 20.0238 10.2542 20.0238C15.1058 19.8628 19.853 18.5719 24.1182 16.2538C25.271 15.6606 26.3837 14.9925 27.4492 14.2538C27.5402 14.1898 27.6982 14.0798 27.8492 14.2288L28.9092 15.2888C29.1712 15.5508 29.4562 15.4698 29.5412 15.1098L30.5712 10.5098C30.6542 10.1558 30.4292 9.93178 30.0692 10.0188Z" fill="white"/>
</svg>
