<svg width="41" height="41" viewBox="0 0 41 41" fill="none" xmlns="http://www.w3.org/2000/svg">
<path d="M20.5 41C31.8218 41 41 31.8218 41 20.5C41 9.17816 31.8218 0 20.5 0C9.17816 0 0 9.17816 0 20.5C0 31.8218 9.17816 41 20.5 41Z" fill="#305671"/>
<path d="M16.9461 28.9544C16.9453 29.2223 16.8385 29.479 16.6491 29.6684C16.4597 29.8578 16.203 29.9646 15.9351 29.9654H11.7551C11.4876 29.9641 11.2314 29.857 11.0424 29.6677C10.8534 29.4783 10.7469 29.2219 10.7461 28.9544V24.3704C10.7469 24.1025 10.8537 23.8458 11.0431 23.6564C11.2325 23.4669 11.4892 23.3602 11.7571 23.3594H15.9371C16.205 23.3602 16.4617 23.4669 16.6511 23.6564C16.8405 23.8458 16.9473 24.1025 16.9481 24.3704L16.9461 28.9544Z" fill="white"/>
<path d="M24.3797 28.9517C24.3789 29.2196 24.2722 29.4763 24.0827 29.6657C23.8933 29.8551 23.6366 29.9619 23.3687 29.9627H19.1887C18.9208 29.9619 18.6642 29.8551 18.4747 29.6657C18.2853 29.4763 18.1785 29.2196 18.1777 28.9517V21.9407C18.1785 21.6728 18.2853 21.4161 18.4747 21.2267C18.6642 21.0373 18.9208 20.9305 19.1887 20.9297H23.3687C23.6366 20.9305 23.8933 21.0373 24.0827 21.2267C24.2722 21.4161 24.3789 21.6728 24.3797 21.9407V28.9517Z" fill="white"/>
<path d="M31.8114 28.9534C31.8106 29.2213 31.7038 29.478 31.5144 29.6674C31.325 29.8568 31.0683 29.9636 30.8004 29.9644H26.6204C26.3525 29.9636 26.0958 29.8568 25.9064 29.6674C25.7169 29.478 25.6102 29.2213 25.6094 28.9534V19.2454C25.6102 18.9775 25.7169 18.7208 25.9064 18.5314C26.0958 18.3419 26.3525 18.2352 26.6204 18.2344H30.8004C31.0683 18.2352 31.325 18.3419 31.5144 18.5314C31.7038 18.7208 31.8106 18.9775 31.8114 19.2454V28.9534Z" fill="white"/>
<path d="M30.9363 10.9328L26.3943 12.0378C26.0343 12.1248 25.9533 12.4108 26.2153 12.6728L27.1843 13.6198C27.2653 13.7128 27.1693 13.8358 27.0923 13.8878C26.1542 14.5196 25.1798 15.0959 24.1743 15.6138C20.065 17.8641 15.4725 19.0875 10.7883 19.1798C10.5563 19.1679 10.329 19.2487 10.1564 19.4043C9.98391 19.56 9.88028 19.7778 9.86834 20.0098C9.85641 20.2419 9.93715 20.4692 10.0928 20.6417C10.2485 20.8143 10.4663 20.9179 10.6983 20.9298C10.7343 20.9298 10.8783 20.9378 11.1213 20.9378C15.973 20.7768 20.7202 19.4859 24.9853 17.1678C26.1382 16.5746 27.2509 15.9065 28.3163 15.1678C28.4073 15.1038 28.5653 14.9938 28.7163 15.1428L29.7763 16.2028C30.0383 16.4648 30.3233 16.3838 30.4083 16.0238L31.4383 11.4238C31.5213 11.0698 31.2963 10.8458 30.9363 10.9328Z" fill="white"/>
</svg>
