<svg xmlns="http://www.w3.org/2000/svg" width="11" height="13.397" viewBox="0 0 11 13.397"><defs><style>.a{fill:#fff;}</style></defs><path class="a" d="M8,18.015a.239.239,0,0,1-.032-.406,4.209,4.209,0,1,0-4.942,0A.239.239,0,0,1,3,18.015a5.507,5.507,0,0,0-3,4.9.478.478,0,0,0,.478.478H10.522A.478.478,0,0,0,11,22.913,5.507,5.507,0,0,0,8,18.015ZM3.323,13.482a.24.24,0,0,1,.356-.125,5.372,5.372,0,0,0,2.9.849,5.452,5.452,0,0,0,.924-.079.238.238,0,0,1,.279.253,2.3,2.3,0,1,1-4.464-.9Z" transform="translate(0 -9.994)"/></svg>