<svg width="16" height="16" viewBox="0 0 16 16" fill="none" xmlns="http://www.w3.org/2000/svg">
<path d="M12.245 6.1475L6.9425 11.45L3.7625 8.27L4.82 7.2125L6.9425 9.335L11.1875 5.09L12.245 6.1475ZM2 8C2 6.2525 2.765 4.685 3.965 3.59L5.75 5.375V0.875H1.25L2.9 2.525C1.43 3.89 0.5 5.8325 0.5 8C0.5 11.8925 3.4625 15.0875 7.25 15.4625V13.9475C4.295 13.58 2 11.0525 2 8ZM15.5 8C15.5 4.1075 12.5375 0.9125 8.75 0.5375V2.0525C11.705 2.42 14 4.9475 14 8C14 9.7475 13.235 11.315 12.035 12.41L10.25 10.625V15.125H14.75L13.1 13.475C14.57 12.11 15.5 10.1675 15.5 8Z" fill="white"/>
</svg>
