<svg width="40" height="40" viewBox="0 0 40 40" fill="none" xmlns="http://www.w3.org/2000/svg">
<path d="M20 40C31.0457 40 40 31.0457 40 20C40 8.9543 31.0457 0 20 0C8.9543 0 0 8.9543 0 20C0 31.0457 8.9543 40 20 40Z" fill="#3EBCFF"/>
<path d="M26.0006 15.1875C25.0987 15.188 24.2155 15.4449 23.454 15.928C22.6924 16.4112 22.0838 17.1008 21.6991 17.9165C21.3144 18.7323 21.1694 19.6405 21.281 20.5355C21.3927 21.4304 21.7563 22.2753 22.3296 22.9715H18.4296C19.117 22.1378 19.5 21.0947 19.5154 20.0142C19.5308 18.9337 19.1777 17.8802 18.5142 17.0272C17.8508 16.1742 16.9166 15.5727 15.8656 15.3216C14.8145 15.0706 13.7093 15.185 12.732 15.6461C11.7547 16.1071 10.9636 16.8873 10.489 17.8581C10.0144 18.829 9.88464 19.9325 10.1211 20.9869C10.3575 22.0413 10.9461 22.9838 11.7898 23.659C12.6334 24.3342 13.682 24.7019 14.7626 24.7015H26.0006C27.2622 24.7015 28.4722 24.2003 29.3643 23.3082C30.2564 22.4161 30.7576 21.2061 30.7576 19.9445C30.7576 18.6829 30.2564 17.4729 29.3643 16.5808C28.4722 15.6887 27.2622 15.1875 26.0006 15.1875ZM14.7576 22.9715C14.1589 22.9715 13.5736 22.794 13.0759 22.4614C12.5781 22.1287 12.1901 21.656 11.961 21.1029C11.7319 20.5498 11.6719 19.9411 11.7887 19.354C11.9055 18.7668 12.1938 18.2274 12.6172 17.8041C13.0405 17.3808 13.5799 17.0925 14.167 16.9757C14.7542 16.8589 15.3628 16.9188 15.916 17.1479C16.4691 17.377 16.9418 17.765 17.2744 18.2628C17.607 18.7606 17.7846 19.3458 17.7846 19.9445C17.7848 20.3421 17.7067 20.7358 17.5547 21.1032C17.4027 21.4706 17.1797 21.8044 16.8986 22.0855C16.6174 22.3666 16.2836 22.5896 15.9163 22.7416C15.5489 22.8936 15.1552 22.9718 14.7576 22.9715ZM26.0006 22.9715C25.4019 22.9715 24.8166 22.794 24.3189 22.4614C23.8211 22.1287 23.4331 21.656 23.204 21.1029C22.9749 20.5498 22.9149 19.9411 23.0317 19.354C23.1485 18.7668 23.4368 18.2274 23.8602 17.8041C24.2835 17.3808 24.8229 17.0925 25.41 16.9757C25.9972 16.8589 26.6058 16.9188 27.159 17.1479C27.7121 17.377 28.1848 17.765 28.5174 18.2628C28.85 18.7606 29.0276 19.3458 29.0276 19.9445C29.0278 20.3421 28.9497 20.7358 28.7977 21.1032C28.6457 21.4706 28.4227 21.8044 28.1416 22.0855C27.8604 22.3666 27.5266 22.5896 27.1593 22.7416C26.7919 22.8936 26.3982 22.9718 26.0006 22.9715Z" fill="white"/>
</svg>
