<svg width="15" height="15" viewBox="0 0 15 15" fill="none" xmlns="http://www.w3.org/2000/svg">
<path d="M13.8771 1.415H12.1951V0H10.7951V1.415H5.18309V0H3.78309V1.415H2.11809C1.82052 1.415 1.53514 1.53321 1.32472 1.74363C1.1143 1.95404 0.996094 2.23943 0.996094 2.537V12.9C0.995963 13.0474 1.02489 13.1934 1.08121 13.3297C1.13754 13.4659 1.22017 13.5897 1.32437 13.694C1.42857 13.7983 1.5523 13.881 1.68849 13.9375C1.82468 13.9939 1.97067 14.023 2.11809 14.023H13.8771C14.0245 14.023 14.1705 13.9939 14.3067 13.9375C14.4429 13.881 14.5666 13.7983 14.6708 13.694C14.775 13.5897 14.8576 13.4659 14.914 13.3297C14.9703 13.1934 14.9992 13.0474 14.9991 12.9V2.537C14.9991 2.23943 14.8809 1.95404 14.6705 1.74363C14.4601 1.53321 14.1747 1.415 13.8771 1.415ZM13.5971 12.62H2.37909V5.609H13.5971V12.62ZM13.5971 4.206H2.37909V2.8H13.5971V4.206Z" fill="white"/>
<path d="M12.4268 7.01172H3.42676V8.41372H12.4268V7.01172Z" fill="white"/>
</svg>
