<svg xmlns="http://www.w3.org/2000/svg" width="12.761" height="12.687" viewBox="0 0 12.761 12.687">
  <g id="Worldwide_contact_connection" transform="translate(-6.788 -7.215)">
    <path id="Path_370" data-name="Path 370" d="M11.9,46.085H9.751A1.056,1.056,0,0,1,8.7,45.031V44.1l.372.332a.419.419,0,1,0,.557-.627l-1.07-.953a.419.419,0,0,0-.557,0l-1.07.953a.419.419,0,1,0,.557.627l.372-.332v.927a1.9,1.9,0,0,0,1.893,1.893H11.9a.419.419,0,0,0,0-.839Z" transform="translate(0 -27.022)" fill="#139fea"/>
    <path id="Path_371" data-name="Path 371" d="M36.388,8.054h2.148A1.055,1.055,0,0,1,39.59,9.108v.93l-.372-.331a.419.419,0,1,0-.558.626l1.07.953a.419.419,0,0,0,.558,0l1.07-.953a.419.419,0,0,0-.557-.627l-.373.331v-.93a1.9,1.9,0,0,0-1.893-1.893H36.388a.419.419,0,0,0,0,.839Z" transform="translate(-22.19 0)" fill="#139fea"/>
    <path id="Path_372" data-name="Path 372" d="M39.95,32.281a2.306,2.306,0,0,0-1.24-1.227.225.225,0,0,1-.136-.207.229.229,0,0,1,.071-.169l.037-.037A1.4,1.4,0,0,0,37.4,28.3,1.369,1.369,0,0,0,36.3,29.375a1.4,1.4,0,0,0,.386,1.3.238.238,0,0,1,.074.169h0a.225.225,0,0,1-.136.209,2.307,2.307,0,0,0-1.24,1.229,2.934,2.934,0,0,0-.245,1.208v.3a.489.489,0,0,0,.489.489h4.081a.489.489,0,0,0,.489-.489v-.3A2.928,2.928,0,0,0,39.95,32.281Z" transform="translate(-20.646 -14.98)" fill="#139fea"/>
    <path id="Path_373" data-name="Path 373" d="M39.988,32.313a2.324,2.324,0,0,0-1.25-1.237.227.227,0,0,1-.137-.209.231.231,0,0,1,.072-.17l.038-.037a1.412,1.412,0,0,0-1.29-2.359,1.38,1.38,0,0,0-1.114,1.082,1.413,1.413,0,0,0,.389,1.311.24.24,0,0,1,.075.17h0a.227.227,0,0,1-.137.211,2.325,2.325,0,0,0-1.25,1.239,2.957,2.957,0,0,0-.246,1.218v.3a.493.493,0,0,0,.493.493h4.113a.493.493,0,0,0,.493-.493v-.3A2.951,2.951,0,0,0,39.988,32.313Z" transform="translate(-27.917 -21.061)" fill="#139fea"/>
  </g>
</svg>
