<svg xmlns="http://www.w3.org/2000/svg" width="10.63" height="10.569" viewBox="0 0 10.63 10.569">
  <g id="Worldwide_contact_connection" transform="translate(-6.788 -7.215)">
    <path id="Path_370" data-name="Path 370" d="M11.045,45.529H9.256a.879.879,0,0,1-.878-.878v-.772l.31.276a.349.349,0,1,0,.464-.522l-.892-.794a.349.349,0,0,0-.464,0l-.892.794a.349.349,0,1,0,.464.522l.31-.276v.772a1.579,1.579,0,0,0,1.577,1.577h1.789a.349.349,0,1,0,0-.7Z" transform="translate(0 -28.443)" fill="#fff"/>
    <path id="Path_371" data-name="Path 371" d="M36.318,7.914h1.789a.879.879,0,0,1,.878.878v.775l-.31-.276a.349.349,0,1,0-.465.522l.892.794a.349.349,0,0,0,.464,0l.892-.794a.349.349,0,1,0-.464-.522l-.31.276V8.792a1.579,1.579,0,0,0-1.577-1.577H36.318a.349.349,0,1,0,0,.7Z" transform="translate(-23.357 0)" fill="#fff"/>
    <path id="Path_372" data-name="Path 372" d="M39.146,31.613a1.921,1.921,0,0,0-1.033-1.022A.188.188,0,0,1,38,30.418a.191.191,0,0,1,.059-.14l.031-.031a1.167,1.167,0,0,0-1.066-1.95,1.141,1.141,0,0,0-.921.895,1.167,1.167,0,0,0,.322,1.084.2.2,0,0,1,.062.141h0a.188.188,0,0,1-.114.174,1.922,1.922,0,0,0-1.033,1.024,2.444,2.444,0,0,0-.2,1.007v.25a.407.407,0,0,0,.407.407h3.4a.407.407,0,0,0,.407-.407v-.252A2.439,2.439,0,0,0,39.146,31.613Z" transform="translate(-21.932 -15.995)" fill="#fff"/>
    <path id="Path_373" data-name="Path 373" d="M39.178,31.639a1.936,1.936,0,0,0-1.042-1.03.189.189,0,0,1-.114-.174.193.193,0,0,1,.06-.142l.031-.031A1.176,1.176,0,0,0,37.038,28.3a1.15,1.15,0,0,0-.928.9,1.177,1.177,0,0,0,.324,1.092.2.2,0,0,1,.062.142h0a.189.189,0,0,1-.114.176,1.937,1.937,0,0,0-1.041,1.032,2.464,2.464,0,0,0-.205,1.015v.251a.41.41,0,0,0,.41.41h3.427a.41.41,0,0,0,.41-.41v-.254A2.458,2.458,0,0,0,39.178,31.639Z" transform="translate(-27.989 -21.061)" fill="#fff"/>
  </g>
</svg>
