<svg width="33" height="33" viewBox="0 0 33 33" fill="none" xmlns="http://www.w3.org/2000/svg">
<g clip-path="url(#clip0_4953_2365)">
<path d="M16.511 33.0019C15.6063 33.0019 14.6877 32.9263 13.7582 32.7764C13.2591 32.6953 12.8906 32.2649 12.8906 31.7589V25.2194L8.26787 29.8394C7.909 30.1969 7.35075 30.2409 6.93962 29.9508C5.42712 28.8728 4.1195 27.5638 3.05387 26.0581C2.76237 25.6484 2.80912 25.0888 3.16525 24.7326L7.78525 20.1099H1.243C0.737 20.1099 0.303875 19.7414 0.2255 19.2409C0.075625 18.3045 0 17.3846 0 16.5074C0 15.5655 0.210375 13.8674 0.22 13.7959C0.284625 13.2789 0.72325 12.8925 1.243 12.8925H7.7825L3.1625 8.26977C2.80638 7.91364 2.75963 7.35264 3.05113 6.94289C3.58738 6.18939 4.18687 5.47989 4.8345 4.83502C5.4945 4.17502 6.20538 3.57414 6.9465 3.05302C7.35488 2.76427 7.91313 2.81102 8.26925 3.16714L12.8892 7.78577V1.24489C12.8892 0.737518 13.2591 0.305768 13.7582 0.227393C15.6791 -0.0778567 17.347 -0.0737317 19.239 0.227393C19.7381 0.307143 20.108 0.737518 20.108 1.24489V7.78439L24.7335 3.16439C25.0896 2.80552 25.6506 2.76014 26.0631 3.05439C26.8194 3.59614 27.5261 4.19564 28.1655 4.83777C28.8007 5.46889 29.3989 6.17839 29.9434 6.94152C30.2362 7.35264 30.1895 7.91364 29.8334 8.26977L25.2147 12.8925H31.757C32.2946 12.8925 32.736 13.3036 32.7841 13.8289C32.9271 14.7378 33 15.637 33 16.5019C33 17.43 32.9258 18.3183 32.7745 19.2588C32.6934 19.7579 32.263 20.1264 31.757 20.1264H25.2175L29.8375 24.745C30.1923 25.0998 30.2404 25.658 29.9516 26.0678C29.414 26.8309 28.8117 27.5418 28.16 28.1825C28.1394 28.2018 28.1201 28.2196 28.0981 28.2375C27.4491 28.892 26.7575 29.4709 26.0425 29.9618C25.6328 30.2409 25.0828 30.1914 24.7308 29.8394L20.108 25.2194V31.7589C20.108 32.2649 19.7395 32.6966 19.2404 32.7764C18.3123 32.9263 17.3938 33.0019 16.511 33.0019ZM14.9531 30.8555C16.0133 30.9655 17.0142 30.9628 18.0455 30.8555V22.7293C18.0455 22.3113 18.2971 21.9359 18.6821 21.7764C19.0671 21.6183 19.5112 21.7049 19.8055 22.0005L25.5613 27.7535C25.9504 27.4414 26.3313 27.0976 26.6956 26.725C26.7231 26.6975 26.7506 26.6728 26.7809 26.648C27.1191 26.3111 27.4423 25.9495 27.7475 25.5714L21.9986 19.8239C21.703 19.5283 21.6164 19.0855 21.7745 18.7005C21.934 18.3155 22.3107 18.0639 22.7274 18.0639H30.855C30.91 17.5469 30.9375 17.0436 30.9375 16.5431C30.9375 16.0138 30.9086 15.4858 30.8522 14.9564H22.726C22.308 14.9564 21.9326 14.7048 21.7745 14.3198C21.615 13.9348 21.7016 13.4906 21.9972 13.1964L27.7406 7.44752C27.4134 7.03914 27.0669 6.65414 26.708 6.29664C26.3464 5.93364 25.9614 5.58714 25.5557 5.25989L19.8055 11.0019C19.5099 11.2975 19.0671 11.3869 18.6821 11.2246C18.2971 11.0665 18.0455 10.6898 18.0455 10.2731V2.14827C16.9854 2.03277 15.9995 2.03552 14.9517 2.14827V10.2759C14.9517 10.6939 14.7001 11.0693 14.3151 11.2288C13.9315 11.3869 13.486 11.3003 13.1917 11.0046L7.44425 5.25852C7.0455 5.57752 6.6605 5.92402 6.29062 6.29389C5.92762 6.65689 5.5825 7.04189 5.25525 7.44614L11 13.195C11.2956 13.4906 11.3822 13.9334 11.2227 14.3184C11.0646 14.7034 10.6879 14.955 10.2712 14.955H2.16563C2.11337 15.4899 2.0625 16.1059 2.0625 16.495C2.0625 17.001 2.09137 17.5194 2.14637 18.0474H10.274C10.692 18.0474 11.0674 18.299 11.2255 18.684C11.385 19.069 11.2984 19.5131 11.0027 19.8074L5.25663 25.5576C5.90425 26.362 6.63575 27.0949 7.44425 27.7466L13.1931 22.0005C13.4888 21.7049 13.9315 21.6183 14.3165 21.7764C14.7015 21.9359 14.9531 22.3126 14.9531 22.7293V30.8555Z" fill="#305671"/>
<path d="M16.5041 20.6256C15.4784 20.6256 14.4774 20.4428 13.5204 20.0839C13.2413 19.9794 13.0213 19.7608 12.9168 19.4816C12.5579 18.5274 12.375 17.525 12.375 16.5048C12.375 15.4749 12.5579 14.4739 12.9168 13.5196C13.0213 13.2419 13.2412 13.0219 13.519 12.9174C15.4412 12.1955 17.5959 12.2024 19.4838 12.9201C19.7601 13.0246 19.9788 13.2433 20.0846 13.521C20.4421 14.4725 20.625 15.4763 20.625 16.4979V16.5048C20.625 17.5209 20.4421 18.5233 20.0833 19.4803C19.9801 19.7594 19.7601 19.978 19.481 20.0839C18.5309 20.4428 17.5285 20.6256 16.5041 20.6256ZM19.118 19.1186H19.1317H19.118ZM14.696 18.3046C15.8812 18.6511 17.1504 18.647 18.304 18.306C18.4759 17.7189 18.5625 17.1166 18.5625 16.5048V16.4979C18.5625 15.8846 18.4759 15.2796 18.304 14.6966C17.1366 14.3529 15.8593 14.3543 14.6946 14.6953C14.5241 15.2796 14.4361 15.8819 14.4361 16.4951C14.4375 17.1153 14.5241 17.7203 14.696 18.3046Z" fill="#305671"/>
</g>
<defs>
<clipPath id="clip0_4953_2365">
<rect width="33" height="33" fill="white"/>
</clipPath>
</defs>
</svg>
