<svg width="277" height="323" viewBox="0 0 277 323" fill="none" xmlns="http://www.w3.org/2000/svg">
<g clip-path="url(#clip0_5750_2579)">
<path d="M201.487 172.028C187.433 195.608 160.052 181.804 159.06 260.731C159.014 267.623 158.52 274.505 157.58 281.334C154.976 299.479 149.106 249.677 141.178 256.509C141.178 256.509 112.517 257.509 91.9277 256.5C73.6384 255.604 49.057 256.509 49.057 256.509C38.3097 248.805 29.9019 297.341 23.0071 281.334C16.5587 266.428 11.4331 267.448 6.81999 247.461C4.07922 235.88 2.79625 224.005 3.00055 212.108C3.55445 187.838 18.0799 166.347 39.7647 155.207C74.4207 137.407 46.7505 113.458 68.212 82.6766C92.6167 47.6857 156.059 44.9562 186.011 60.8402C215.963 76.7242 228.438 126.859 201.487 172.028Z" fill="#DAE3EF"/>
<path d="M247.532 251.074C246.751 254.167 240.754 256.569 233.409 259.046L232.785 259.253C228.454 260.702 223.721 262.186 219.358 263.865L218.754 264.094C217.049 264.765 215.413 265.471 213.889 266.205L213.449 266.425C208.844 268.721 205.367 271.412 204.333 274.763C202.388 281.242 194.536 286.703 187.855 283.582L187.471 283.383C181.173 280.095 176.064 268.967 178.211 243.467L178.11 242.45L178.07 241.931C177.762 238.461 177.07 229.492 176.96 219.602C176.954 219.355 176.957 219.109 176.953 218.854C176.863 213.023 177.09 207.192 177.633 201.387L177.693 200.877C178.691 191.937 180.825 184.878 184.991 183.878C185.609 183.725 186.241 183.632 186.878 183.601C187.034 183.589 187.178 183.592 187.314 183.592C192.592 183.595 195.348 188.514 198.044 193.436L198.14 193.596L198.398 194.059C200.788 198.403 203.216 202.595 207.38 203.258C210.077 203.685 213.341 199.914 216.926 194.333C217.009 194.209 217.083 194.084 217.167 193.953C221.935 186.457 227.279 175.876 232.613 167.76C232.701 167.647 232.775 167.522 232.854 167.414C237.738 160.067 242.615 154.838 247.078 155.94L247.502 156.047C256.214 159.097 254.25 174.425 248.788 191.989L248.663 192.483C245.851 201.448 242.143 210.958 238.502 219.663C238.247 220.268 238.011 220.862 237.79 221.433C237.746 221.609 237.653 221.772 237.593 221.943C235.771 226.825 235.131 230.539 235.251 233.435C235.265 233.583 235.271 233.729 235.277 233.874C236.059 244.443 247.401 243.799 247.611 250.322C247.615 250.429 247.611 250.536 247.599 250.642C247.594 250.788 247.572 250.933 247.532 251.074Z" fill="#DAE3EF"/>
<path d="M222.845 249.458C225.003 253.875 228.778 257.305 233.392 259.043L232.769 259.25C228.208 257.408 224.506 253.926 222.4 249.498C219.277 249.811 216.246 250.232 213.401 250.692L213.341 250.762L213.268 250.743C204.567 252.174 197.948 254.003 197.373 254.155C195.39 259.301 193.658 264.333 192.197 268.865C194.359 267.916 196.579 267.1 198.843 266.424C200.248 265.083 207.206 259.481 219.333 263.894L218.73 264.123C208.457 260.569 202.076 264.358 199.829 266.13C204.409 264.879 210.165 264.239 213.87 266.211L213.431 266.43C209.633 264.419 203.693 265.453 199.033 266.819C198.991 266.865 198.946 266.907 198.898 266.946L198.822 266.876C196.504 267.567 194.234 268.41 192.028 269.399C190.128 275.33 188.711 280.365 187.833 283.603L187.448 283.404C188.705 278.735 191.091 270.409 194.39 261.033L194.245 261.064C194.221 260.956 191.309 250.146 178.087 242.471L178.048 241.952C181.644 243.992 184.907 246.567 187.723 249.587C188.74 237.972 180.643 224.902 176.936 219.631C176.93 219.384 176.932 219.139 176.928 218.883C180.5 223.916 189.4 237.825 188.118 250.018C190.955 253.072 193.142 256.665 194.547 260.581C197.703 251.41 201.54 242.488 206.026 233.886C202.627 229.179 199.532 224.261 196.76 219.164L196.672 219.141C196.672 219.141 196.686 219.085 196.704 219.014C194.643 215.263 192.798 211.399 191.178 207.441L191.126 207.648C191.126 207.648 190.629 207.523 189.828 207.32C187.327 206.688 181.783 204.973 177.638 201.365L177.699 200.854C182.708 205.36 190.028 206.964 191.083 207.179C187.948 199.34 185.818 190.898 186.883 183.578C187.04 183.567 187.184 183.569 187.32 183.57C185.761 194.531 191.266 208.006 196.751 218.22C197.044 214.495 198.19 199.741 198.049 193.413L198.145 193.573L198.403 194.037C198.547 200.857 197.306 216.698 197.123 218.908C199.856 223.94 202.899 228.799 206.237 233.456C207.651 230.863 209.122 228.385 210.656 226.093C213.277 222.168 216.054 218.231 218.72 214.427L221.911 209.9C223.41 203.698 219.401 197.461 216.884 194.298C216.966 194.175 217.041 194.049 217.125 193.918C219.556 196.949 223.474 202.909 222.516 209.027C228.759 200.081 234.852 190.817 239.552 180.387C239.521 179.531 239.081 170.609 232.57 167.726C232.659 167.612 232.733 167.487 232.811 167.38C238.555 169.959 239.7 177.033 239.964 179.567C243.325 172.018 245.712 164.073 247.065 155.922L247.49 156.029C245.066 170.748 239.48 183.032 232.767 194.242C234.481 194.209 242.303 193.93 248.803 191.96L248.678 192.454C241.696 194.506 233.358 194.671 232.536 194.684C229.316 200.001 225.856 205.088 222.36 210.081C222.36 210.081 222.34 210.161 222.328 210.209L222.272 210.195C221.227 211.694 220.169 213.182 219.117 214.68C217.591 216.839 216.045 219.043 214.502 221.265C216.597 221.718 229.273 224.226 237.798 221.403C237.753 221.578 237.661 221.741 237.601 221.913C228.706 224.685 215.692 221.956 214.237 221.639C213.161 223.198 212.083 224.766 211.038 226.334C205.845 234.095 201.301 244.013 197.592 253.591C199.084 253.188 205.284 251.566 213.201 250.268C214.626 248.61 225.299 236.578 235.259 233.405C235.273 233.553 235.279 233.698 235.284 233.844C225.998 236.848 216.151 247.571 213.867 250.165C224.536 248.435 238.164 247.385 247.607 250.611C247.602 250.755 247.58 250.897 247.542 251.036C240.621 248.693 231.443 248.638 222.845 249.458Z" fill="#F4F4F4"/>
<path d="M268.326 272.052C266.521 272.052 265.052 273.521 265.052 275.326C265.052 277.131 266.521 278.6 268.326 278.6C270.132 278.6 271.601 277.131 271.601 275.326C271.601 273.521 270.132 272.052 268.326 272.052ZM268.326 280.652C265.39 280.652 263 278.262 263 275.326C263 272.389 265.39 269.999 268.326 269.999C271.263 269.999 273.653 272.389 273.653 275.326C273.653 278.262 271.263 280.652 268.326 280.652Z" fill="#5182A6"/>
<path d="M209.066 231.204C208.8 229.855 208.239 228.581 207.423 227.47C206.608 226.36 205.557 225.441 204.346 224.779C204.258 229.277 209.066 231.204 209.066 231.204ZM214.178 225.822C214.071 218.723 208.901 216.136 208.901 216.136C207.165 222.634 214.154 225.816 214.154 225.816L214.178 225.822ZM200.4 215.963C199.139 216.504 198.045 217.37 197.233 218.472C196.421 219.573 195.92 220.872 195.78 222.232C200.469 221.357 200.376 215.957 200.376 215.957L200.4 215.963ZM203.686 223.204C199.277 224.185 198.517 229.25 198.517 229.25C199.766 228.677 200.872 227.837 201.757 226.79C202.642 225.743 203.284 224.515 203.638 223.192L203.686 223.204ZM193.262 211.751C192.526 212.373 191.971 213.18 191.653 214.087C191.335 214.995 191.266 215.971 191.453 216.916C194.438 215.364 193.262 211.751 193.262 211.751ZM220.552 219.496C221.75 212.497 217.136 209.025 217.136 209.025C214.228 215.133 220.552 219.496 220.552 219.496ZM245.009 198.303C242.385 200.388 244.218 203.726 244.218 203.726C244.814 202.975 245.197 202.08 245.331 201.131C245.464 200.183 245.342 199.216 244.977 198.329L245.009 198.303ZM186.671 215.224C185.543 214.439 184.227 213.966 182.858 213.854C181.488 213.742 180.114 213.994 178.876 214.585C182.127 218.12 186.671 215.224 186.671 215.224ZM240.352 197.533C237.161 200.712 239.217 205.396 239.217 205.396C239.981 204.254 240.481 202.959 240.683 201.601C240.885 200.243 240.783 198.857 240.384 197.541L240.352 197.533ZM253.961 202.966C252.686 202.451 251.297 202.283 249.937 202.481C248.577 202.678 247.295 203.233 246.224 204.089C250.192 206.813 253.993 202.974 253.993 202.974L253.961 202.966ZM231.226 211.17C232.416 204.169 227.802 200.696 227.802 200.696C224.926 206.813 231.226 211.17 231.226 211.17ZM235.744 208.071C235.897 206.707 235.746 205.325 235.301 204.024C234.856 202.723 234.128 201.534 233.17 200.543C231.763 204.827 235.744 208.071 235.744 208.071ZM226.964 213.527C226.698 212.178 226.137 210.903 225.321 209.793C224.505 208.683 223.455 207.764 222.244 207.102C222.178 211.613 226.962 213.535 226.962 213.535L226.964 213.527ZM198.949 233.447C202.211 234.271 203.777 230.842 203.777 230.842C202.811 230.808 201.854 231.032 201.005 231.49C200.156 231.947 199.446 232.623 198.949 233.447ZM222.87 223.821C224.97 230.22 232.609 229.149 232.609 229.149C228.629 223.233 222.87 223.821 222.87 223.821ZM217.804 230.368C219.883 234.659 225.097 233.195 225.097 233.195C224.243 232.121 223.116 231.293 221.834 230.796C220.552 230.299 219.161 230.151 217.804 230.368ZM206.467 241.961C210.051 247.684 217.163 244.817 217.163 244.817C211.955 240.016 206.491 241.967 206.491 241.967L206.467 241.961ZM229.125 217.796C231.234 224.197 238.824 223.113 238.824 223.113C234.899 217.186 229.149 217.802 229.149 217.802L229.125 217.796ZM235.533 213.666C237.646 217.651 242.756 217.069 242.756 217.069C241.877 216.014 240.777 215.163 239.533 214.577C238.289 213.99 236.932 213.681 235.557 213.672L235.533 213.666ZM246.41 207.74C248.682 210.222 251.9 208.186 251.9 208.186C251.107 207.635 250.181 207.303 249.217 207.225C248.254 207.147 247.288 207.325 246.418 207.742L246.41 207.74ZM189.782 221.132C188.501 220.632 187.11 220.482 185.753 220.696C184.396 220.911 183.122 221.483 182.063 222.353C186.029 225.017 189.782 221.132 189.782 221.132ZM241.24 209.842C241.316 213.185 245.094 213.758 245.094 213.758C244.86 212.825 244.381 211.97 243.705 211.282C243.029 210.594 242.18 210.097 241.248 209.844L241.24 209.842ZM186.188 233.597C190.146 236.293 193.907 232.376 193.907 232.376C192.627 231.878 191.237 231.729 189.882 231.943C188.526 232.158 187.254 232.73 186.196 233.599L186.188 233.597ZM185.784 237.828C188.626 241.667 193.479 239.264 193.479 239.264C192.437 238.371 191.175 237.769 189.824 237.52C188.472 237.271 187.08 237.383 185.788 237.846L185.784 237.828ZM192.087 226.184C191.247 225.701 190.294 225.45 189.326 225.456C188.358 225.461 187.41 225.724 186.579 226.216C189.063 228.498 192.095 226.186 192.095 226.186L192.087 226.184ZM218.504 239.373C217.625 238.312 216.522 237.457 215.274 236.867C214.026 236.278 212.663 235.968 211.283 235.962C213.402 239.958 218.512 239.375 218.512 239.375L218.504 239.373ZM244.219 206.389L243.927 205.789C222.32 216.11 206.568 234.948 197.157 248.937C195.942 250.741 194.795 252.512 193.729 254.235C194.996 249.764 195.831 245.182 196.224 240.551C197.12 228.906 194.183 220.353 187.734 215.806L187.351 216.345C201.928 226.619 193.134 254.195 192.337 256.504C188.313 263.098 184.774 269.975 181.748 277.08L182.367 277.329C185.374 270.265 188.891 263.429 192.892 256.873C192.898 256.838 192.907 256.803 192.918 256.769C194.376 254.373 195.941 251.86 197.674 249.288C207.088 235.385 222.753 216.66 244.227 206.391L244.219 206.389ZM183.315 240.749C184.702 247.34 192.371 247.091 192.371 247.091C189.1 240.769 183.323 240.751 183.323 240.751L183.315 240.749Z" fill="#C7D3E0"/>
<path d="M186.664 53.4414H84.1507C81.2504 53.437 78.4666 54.5758 76.4089 56.6083C74.3512 58.6408 73.1872 61.4014 73.1719 64.2856V275.16C73.1719 278.701 74.5864 282.097 77.1042 284.601C79.6221 287.105 83.037 288.512 86.5978 288.512H184.15C187.71 288.501 191.121 287.09 193.638 284.587C196.155 282.084 197.574 278.692 197.585 275.152V64.2774C197.578 61.4013 196.425 58.6451 194.377 56.6137C192.33 54.5823 189.556 53.4414 186.664 53.4414Z" fill="#253E8E"/>
<path d="M185.937 58.3711H84.829C82.9504 58.3732 81.1486 59.1129 79.8156 60.4293C78.4826 61.7457 77.7262 63.5324 77.7109 65.4005V275.173C77.7109 277.043 78.4571 278.836 79.7856 280.158C81.114 281.481 82.9161 282.225 84.7959 282.227H185.937C187.816 282.223 189.618 281.479 190.947 280.157C192.277 278.835 193.025 277.043 193.03 275.173V65.3841C193.019 63.5203 192.267 61.7367 190.938 60.4226C189.609 59.1086 187.811 58.3711 185.937 58.3711Z" fill="#6098C0"/>
<path d="M193.03 64.8698V74.2341H77.7109V64.878C77.7109 63.1336 78.4077 61.4607 79.6481 60.2272C80.8884 58.9937 82.5706 58.3008 84.3247 58.3008H186.466C188.21 58.3138 189.878 59.0114 191.107 60.2416C192.337 61.4719 193.028 63.1353 193.03 64.8698Z" fill="#2A6996"/>
<path d="M138.805 62.8034H126.727C126.479 62.8034 126.242 62.9013 126.067 63.0756C125.891 63.2498 125.793 63.4861 125.793 63.7325C125.793 63.9789 125.891 64.2152 126.067 64.3894C126.242 64.5636 126.479 64.6615 126.727 64.6615H138.805C139.053 64.6615 139.291 64.5636 139.466 64.3894C139.641 64.2152 139.74 63.9789 139.74 63.7325C139.74 63.4861 139.641 63.2498 139.466 63.0756C139.291 62.9013 139.053 62.8034 138.805 62.8034ZM143.915 62.6719C143.703 62.6703 143.496 62.7311 143.32 62.8466C143.143 62.9622 143.005 63.1272 142.923 63.3209C142.841 63.5145 142.819 63.728 142.859 63.9343C142.9 64.1406 143.001 64.3303 143.149 64.4795C143.298 64.6286 143.488 64.7305 143.695 64.772C143.902 64.8136 144.117 64.7931 144.313 64.7131C144.508 64.6331 144.675 64.4971 144.792 64.3226C144.91 64.148 144.973 63.9426 144.973 63.7325C144.974 63.5936 144.947 63.4559 144.895 63.3272C144.842 63.1986 144.764 63.0816 144.666 62.983C144.567 62.8844 144.45 62.8062 144.321 62.7528C144.193 62.6994 144.054 62.6719 143.915 62.6719Z" fill="#F9FBFC"/>
<path d="M268.195 125.52H114.45C110.5 125.52 107.299 128.704 107.299 132.631V192.32C107.299 196.247 110.5 199.431 114.45 199.431H268.195C272.144 199.431 275.346 196.247 275.346 192.32V132.631C275.346 128.704 272.144 125.52 268.195 125.52Z" fill="white"/>
<path d="M268.186 127.164C268.909 127.163 269.625 127.303 270.293 127.577C270.961 127.852 271.568 128.254 272.079 128.762C272.591 129.27 272.996 129.873 273.273 130.537C273.55 131.201 273.692 131.912 273.692 132.631V192.319C273.69 193.77 273.109 195.161 272.077 196.186C271.044 197.211 269.645 197.787 268.186 197.787H114.417C112.959 197.787 111.56 197.211 110.529 196.185C109.498 195.16 108.919 193.769 108.919 192.319V132.631C108.919 131.181 109.498 129.79 110.529 128.765C111.56 127.74 112.959 127.164 114.417 127.164H268.186ZM268.186 123.875H114.417C112.082 123.877 109.844 124.8 108.194 126.442C106.543 128.084 105.614 130.309 105.612 132.631V192.319C105.617 194.64 106.546 196.865 108.196 198.506C109.846 200.147 112.083 201.071 114.417 201.075H268.186C270.522 201.073 272.761 200.15 274.413 198.509C276.065 196.868 276.995 194.642 276.999 192.319V132.631C276.997 130.308 276.068 128.081 274.415 126.439C272.763 124.797 270.522 123.875 268.186 123.875Z" fill="#253E8E"/>
<path d="M137.375 150.84H117.666V174.107H137.375V150.84Z" fill="white" stroke="#305671" stroke-linecap="round" stroke-linejoin="round"/>
<path d="M162.895 150.84H143.187V174.107H162.895V150.84Z" fill="white" stroke="#305671" stroke-linecap="round" stroke-linejoin="round"/>
<path d="M188.417 150.84H168.708V174.107H188.417V150.84Z" fill="white" stroke="#305671" stroke-linecap="round" stroke-linejoin="round"/>
<path d="M213.93 150.84H194.221V174.107H213.93V150.84Z" fill="white" stroke="#305671" stroke-linecap="round" stroke-linejoin="round"/>
<path d="M239.45 150.84H219.741V174.107H239.45V150.84Z" fill="white" stroke="#305671" stroke-linecap="round" stroke-linejoin="round"/>
<path d="M264.971 150.84H245.262V174.107H264.971V150.84Z" fill="white" stroke="#305671" stroke-linecap="round" stroke-linejoin="round"/>
<path d="M128.141 161.506L131.489 159.097L132.481 160.873L128.662 162.459L132.506 164.013L131.448 165.847L128.141 163.446L128.579 167.557H126.487L126.901 163.446L123.594 165.871L122.527 164.013L126.339 162.435L122.527 160.906L123.536 159.072L126.942 161.539L126.504 157.387H128.595L128.141 161.506Z" fill="#0F3163"/>
<path d="M153.661 161.506L156.968 159.097L157.96 160.873L154.141 162.459L157.985 164.013L156.943 165.847L153.636 163.446L154.075 167.557H152.016L152.429 163.446L149.123 165.871L148.048 164.013L151.867 162.435L148.048 160.906L149.065 159.072L152.471 161.539L152.033 157.387H154.116L153.661 161.506Z" fill="#0F3163"/>
<path d="M176.173 162.473H180.951" stroke="#305671" stroke-linecap="round" stroke-linejoin="round"/>
<path d="M201.693 162.473H206.464" stroke="#305671" stroke-linecap="round" stroke-linejoin="round"/>
<path d="M227.206 162.473H231.984" stroke="#305671" stroke-linecap="round" stroke-linejoin="round"/>
<path d="M252.728 162.473H257.506" stroke="#305671" stroke-linecap="round" stroke-linejoin="round"/>
<path d="M49.1145 270.735C49.1145 270.735 21.9403 272.379 21.2789 269.592C20.6176 266.805 25.1976 254.793 29.3394 244.187C33.4813 233.582 30.0008 223.51 25.859 215.749C21.7171 207.988 21.6427 200.473 26.6195 195.919C31.5964 191.364 48.8996 191.75 48.8996 191.75C48.8996 191.75 66.4591 190.764 71.4359 195.318C76.4127 199.873 76.0572 208.004 71.9237 215.749C67.7901 223.494 64.3096 233.606 68.4514 244.179C72.5933 254.752 77.1816 266.788 76.5119 269.584C75.8423 272.379 48.6764 270.726 48.6764 270.726L49.1145 270.735Z" fill="#F2BC97"/>
<path d="M69.1466 193.889C70.012 193.987 70.8348 194.316 71.5286 194.839C72.2225 195.363 72.7618 196.063 73.09 196.865C76.1572 204.026 86.053 228.148 80.8364 230.5C74.7104 233.262 67.2286 211.409 65.8811 204.848C64.765 199.381 64.889 193.552 69.1466 193.889Z" fill="#F2BC97"/>
<path d="M81.5303 220.633C81.5303 220.633 83.3078 225.5 83.0019 227.506C82.696 229.512 75.4126 247.772 75.4126 247.772L69.2949 245.602C69.2949 245.602 74.4536 228.6 74.4123 228.131C74.371 227.662 72.9655 223.872 72.9655 223.872L81.5303 220.633Z" fill="#F2BC97"/>
<path d="M16.8318 220.633C16.8318 220.633 15.0627 225.5 15.3685 227.506C15.6744 229.512 22.9495 247.772 22.9495 247.772L29.0755 245.602C29.0755 245.602 23.9085 228.6 23.9499 228.131C23.9912 227.662 25.4049 223.872 25.4049 223.872L16.8318 220.633Z" fill="#F2BC97"/>
<path d="M20.3863 223.889C21.1798 224.087 21.9093 224.482 22.5055 225.039C23.1016 225.596 23.5446 226.296 23.7924 227.071C26.3387 234.322 35.2011 260.237 32.7457 262.481C29.8853 265.095 15.9964 228.633 16.4925 226.462C16.5678 226.034 16.73 225.625 16.9693 225.261C17.2085 224.897 17.5197 224.585 17.8839 224.345C18.2481 224.104 18.6578 223.939 19.088 223.861C19.5182 223.783 19.9599 223.792 20.3863 223.889Z" fill="#F2BC97"/>
<path d="M37.0695 188.437C37.0695 188.437 46.924 192.967 61.5982 188.437C61.5982 188.437 65.335 175.422 63.0284 166.502C60.7219 157.581 53.7361 157.31 50.7269 158.395C50.7269 158.395 42.4597 156.973 39.0454 161.092C35.7964 165.038 32.382 173.712 37.0695 188.437Z" fill="#0F3163"/>
<path d="M54.5048 185.312H43.9062V196.346H54.5048V185.312Z" fill="#F2BC97"/>
<path d="M49.148 188.933C54.5174 188.933 58.8702 182.944 58.8702 175.556C58.8702 168.169 54.5174 162.18 49.148 162.18C43.7786 162.18 39.4258 168.169 39.4258 175.556C39.4258 182.944 43.7786 188.933 49.148 188.933Z" fill="#F2BC97"/>
<path d="M70.7003 220.388L72.7506 224.45L82.233 220.799C82.233 220.799 75.9334 199.012 73.1391 195.608C69.9976 191.81 54.5793 191.202 54.5793 191.202C54.5793 191.202 53.0251 195.263 49.1147 195.263C45.2043 195.263 43.9477 191.152 43.9477 191.152C43.9477 191.152 28.455 192.221 25.5946 195.6C22.3208 199.456 15.8311 220.857 15.8311 220.857L25.9087 224.45L27.9342 220.339C27.9342 220.339 36.6809 240.136 23.7097 257.418C11.6727 273.458 44.5182 270.49 49.3379 269.981C54.1411 270.49 86.9866 273.458 74.9662 257.418C61.9536 240.186 70.7003 220.388 70.7003 220.388Z" fill="#ED717A"/>
<path d="M25.8264 256.971C23.0155 258.854 26.8267 263.319 28.1908 264.79C30.4064 267.199 34.8045 268.342 35.7966 267.487C36.7886 266.632 31.415 261.444 31.4563 261.074C31.4976 260.704 34.3664 262.957 35.2013 262.061C36.0363 261.164 32.6468 257.679 30.7536 256.823C28.8604 255.968 27.5955 255.788 25.8264 256.971Z" fill="#F2BC97"/>
<path d="M77.9752 223.889C77.1833 224.088 76.4555 224.484 75.8608 225.041C75.2662 225.598 74.8244 226.297 74.5774 227.071C72.0311 234.314 63.1604 260.237 65.6241 262.481C68.4762 265.096 82.3651 228.633 81.8773 226.463C81.801 226.034 81.6378 225.625 81.3978 225.261C81.1577 224.897 80.8458 224.585 80.4809 224.344C80.116 224.103 79.7057 223.939 79.275 223.861C78.8443 223.783 78.4021 223.792 77.9752 223.889Z" fill="#F2BC97"/>
<path d="M77.8018 254.112L77.8597 254.293C64.5826 259.472 50.4954 267.973 49.3049 268.68C40.0414 263.731 30.5146 259.284 20.7666 255.361L20.8245 254.112V234.594H77.8018V254.112Z" fill="#F8FAFB"/>
<path d="M71.2295 286.053C71.2295 286.053 7.6384 280.446 1.19827 266.683C-3.54709 256.513 6.51406 248.431 18.1046 252.402C29.6952 256.373 71.3866 276.73 71.3866 276.73L71.2295 286.053Z" fill="#0F3163"/>
<path d="M75.2969 278.373V286.594C75.2969 286.594 86.1682 287.31 86.8709 286.101C87.5736 284.893 88.4169 280.519 85.6557 278.422C82.8944 276.326 76.1649 276.244 75.2969 278.373Z" fill="#0F3163"/>
<path d="M71.1053 276.762L75.3712 278.324V286.488L70.9482 286.052L71.1053 276.762Z" fill="#DEC6A0"/>
<path d="M25.9168 286.052C25.9168 286.052 89.4997 280.445 95.9398 266.682C100.685 256.537 90.6323 248.431 79.0417 252.434C67.4511 256.438 25.7598 276.762 25.7598 276.762L25.9168 286.052Z" fill="#253E8E"/>
<path d="M25.9084 276.762L21.6426 278.324V286.488L26.0738 286.052L25.9084 276.762Z" fill="#DEC6A0"/>
<path d="M21.7259 278.373V286.594C21.7259 286.594 10.8463 287.31 10.1519 286.101C9.45742 284.893 8.6059 280.519 11.3671 278.422C14.1284 276.326 20.8579 276.244 21.7259 278.373Z" fill="#253E8E"/>
<path d="M36.9287 175.117C36.9287 175.117 45.8573 175.734 51.5533 171.829C52.843 170.957 53.9591 168.055 53.9591 168.055C53.9591 168.055 54.265 170.349 55.2818 171.196C54.9932 170.059 54.857 168.89 54.8767 167.718C54.8767 167.718 56.5302 172.478 57.6628 172.577C58.7954 172.676 62.3503 172.577 62.3503 172.577L57.4478 161.683L41.8394 160.039L36.9287 175.117Z" fill="#0F3163"/>
<path d="M33.1093 99.6552H17.3604V91.4336C17.3604 90.4025 17.5646 89.3815 17.9613 88.4289C18.3581 87.4763 18.9397 86.6108 19.6728 85.8817C20.4059 85.1526 21.2763 84.5743 22.2342 84.1797C23.192 83.7851 24.2187 83.582 25.2555 83.582C26.2923 83.582 27.319 83.7851 28.2769 84.1797C29.2347 84.5743 30.1051 85.1526 30.8382 85.8817C31.5714 86.6108 32.1529 87.4763 32.5497 88.4289C32.9464 89.3815 33.1507 90.4025 33.1507 91.4336L33.1093 99.6552ZM19.948 97.016H30.4804V91.3843C30.4804 89.9953 29.9255 88.6632 28.9379 87.6811C27.9503 86.6989 26.6109 86.1472 25.2142 86.1472C23.8175 86.1472 22.478 86.6989 21.4904 87.6811C20.5028 88.6632 19.948 89.9953 19.948 91.3843V97.016Z" fill="#DAE3EF"/>
<path d="M35.3913 93.5938H15.0457C14.7183 93.5937 14.4041 93.7225 14.1718 93.952C13.9395 94.1815 13.8078 94.4931 13.8057 94.8188V110.686C13.8057 111.013 13.9363 111.327 14.1689 111.558C14.4014 111.79 14.7169 111.92 15.0457 111.92H35.3913C35.7187 111.917 36.032 111.787 36.2628 111.555C36.4936 111.324 36.6231 111.012 36.6231 110.686V94.8188C36.6231 94.4939 36.4933 94.1823 36.2623 93.9526C36.0313 93.7228 35.718 93.5938 35.3913 93.5938ZM24.2802 102.637V101.281C24.302 101.051 24.4095 100.837 24.5815 100.681C24.7535 100.525 24.9777 100.439 25.2102 100.439C25.4428 100.439 25.667 100.525 25.839 100.681C26.011 100.837 26.1184 101.051 26.1403 101.281V102.637C26.4319 102.803 26.6742 103.042 26.8426 103.331C27.0111 103.62 27.0996 103.948 27.0993 104.282C27.0964 104.611 27.0067 104.933 26.839 105.216C26.6714 105.499 26.4318 105.734 26.1442 105.896C25.8566 106.058 25.5312 106.142 25.2007 106.14C24.8701 106.138 24.546 106.049 24.2608 105.882C23.9757 105.716 23.7395 105.478 23.5761 105.192C23.4126 104.907 23.3276 104.583 23.3296 104.254C23.3315 103.926 23.4204 103.603 23.5872 103.319C23.7541 103.036 23.9931 102.8 24.2802 102.637Z" fill="#DAE3EF"/>
<path d="M44.0965 78.9609H6.33203V116.517H44.0965V78.9609Z" stroke="#DAE3EF" stroke-miterlimit="10"/>
<path d="M175.801 17.8462H162.946V11.1374C162.915 10.2786 163.058 9.4225 163.367 8.62007C163.676 7.81764 164.145 7.08537 164.744 6.46697C165.344 5.84858 166.063 5.35673 166.859 5.02079C167.654 4.68485 168.509 4.51172 169.373 4.51172C170.237 4.51172 171.093 4.68485 171.888 5.02079C172.683 5.35673 173.402 5.84858 174.002 6.46697C174.602 7.08537 175.07 7.81764 175.38 8.62007C175.689 9.4225 175.832 10.2786 175.801 11.1374V17.8462ZM165.054 15.7168H173.618V11.1374C173.618 10.0079 173.167 8.92464 172.364 8.12597C171.561 7.3273 170.472 6.87861 169.336 6.87861C168.2 6.87861 167.111 7.3273 166.308 8.12597C165.505 8.92464 165.054 10.0079 165.054 11.1374V15.7168Z" fill="#DAE3EF"/>
<path d="M177.652 12.9141H161.118C160.85 12.9141 160.594 13.0197 160.405 13.2078C160.216 13.3959 160.109 13.6511 160.109 13.9171V26.8331C160.109 26.9645 160.136 27.0945 160.186 27.2157C160.237 27.337 160.312 27.447 160.405 27.5395C160.499 27.632 160.61 27.7051 160.733 27.7546C160.855 27.8041 160.986 27.829 161.118 27.828H177.652C177.918 27.828 178.172 27.7231 178.36 27.5366C178.547 27.35 178.653 27.097 178.653 26.8331V13.9171C178.653 13.6525 178.548 13.3986 178.36 13.2107C178.173 13.0229 177.918 12.9162 177.652 12.9141ZM168.608 20.2477V19.146C168.608 18.9454 168.688 18.753 168.831 18.6112C168.973 18.4693 169.167 18.3896 169.369 18.3896C169.57 18.3896 169.764 18.4693 169.906 18.6112C170.049 18.753 170.129 18.9454 170.129 19.146V20.2477C170.422 20.4144 170.651 20.6725 170.78 20.9819C170.91 21.2913 170.933 21.6347 170.847 21.9586C170.76 22.2826 170.568 22.5689 170.301 22.7732C170.033 22.9775 169.706 23.0882 169.369 23.0882C169.032 23.0882 168.704 22.9775 168.437 22.7732C168.169 22.5689 167.977 22.2826 167.891 21.9586C167.804 21.6347 167.827 21.2913 167.957 20.9819C168.087 20.6725 168.316 20.4144 168.608 20.2477Z" fill="#DAE3EF"/>
<path d="M184.737 1H154V31.5677H184.737V1Z" stroke="#DAE3EF" stroke-miterlimit="10"/>
<path d="M228.81 113.564L228.637 113.449C207.233 104.48 206.753 72.8019 206.745 71.4536V70.8699L228.802 63.1334L229.075 63.043L251.396 70.8699V71.4536C251.396 72.8102 250.892 104.644 229.389 113.499L229.24 113.564H228.81Z" fill="#F1A669"/>
<path d="M229.067 63.9157L250.561 71.4466C250.561 71.4466 250.313 103.987 229.067 112.743C229.067 112.743 229.067 112.743 229.009 112.743C207.82 103.955 207.58 71.4713 207.58 71.4713L229.001 63.9403H229.067V63.9157ZM229.067 62.1974L228.529 62.3782H228.463L206.969 69.9009L205.853 70.2874V71.463C206.042 77.4885 206.995 83.4661 208.688 89.2545C212.367 101.759 219.105 110.376 228.19 114.19L228.496 114.388H229.323L229.637 114.264C238.797 110.491 245.601 101.85 249.305 89.2791C250.999 83.4822 251.954 77.4967 252.149 71.463V70.2874L251.107 69.8845L229.612 62.3453L229.075 62.1562L229.067 62.1974Z" fill="#DAE3EF"/>
<path d="M228.174 93.6676L220.295 87.1479C219.989 86.8961 219.797 86.5337 219.76 86.1406C219.722 85.7474 219.844 85.3556 220.097 85.0514C220.35 84.7473 220.715 84.5556 221.11 84.5186C221.505 84.4816 221.899 84.6023 222.205 84.8541L228.042 89.672L238.483 79.5759C238.768 79.3011 239.151 79.1503 239.548 79.1564C239.945 79.1626 240.323 79.3253 240.6 79.6088C240.876 79.8922 241.028 80.2732 241.021 80.6679C241.015 81.0627 240.852 81.4388 240.566 81.7135L228.174 93.6676Z" fill="#FEFEFE"/>
<g style="mix-blend-mode:multiply" opacity="0.5">
<path d="M229.001 63.9375V112.716C207.812 103.927 207.572 71.4438 207.572 71.4438L229.001 63.9375Z" fill="#F1A669"/>
</g>
<path d="M43.3264 13.0517C41.5213 13.0517 40.0522 14.5207 40.0522 16.3259C40.0522 18.131 41.5213 19.6001 43.3264 19.6001C45.1316 19.6001 46.6006 18.131 46.6006 16.3259C46.6006 14.5207 45.1316 13.0517 43.3264 13.0517ZM43.3264 21.6523C40.39 21.6523 38 19.2623 38 16.3259C38 13.3894 40.39 10.9994 43.3264 10.9994C46.2629 10.9994 48.6529 13.3894 48.6529 16.3259C48.6529 19.2623 46.2629 21.6523 43.3264 21.6523Z" fill="#5182A6"/>
<path d="M253.719 24.0272H250.356V20.664C250.356 20.2971 250.058 19.9993 249.691 19.9993C249.324 19.9993 249.026 20.2971 249.026 20.664V24.0272L245.665 24.0256C245.296 24.0256 245 24.325 245 24.6918C245 24.8745 245.074 25.0403 245.193 25.1615C245.315 25.2813 245.48 25.3549 245.665 25.3549H249.028V28.7181C249.028 28.9023 249.102 29.0681 249.221 29.1879C249.343 29.3076 249.508 29.3828 249.691 29.3828C250.058 29.3828 250.356 29.085 250.356 28.7181V25.3549H253.719C254.086 25.3549 254.383 25.0587 254.383 24.6918C254.383 24.325 254.086 24.0272 253.719 24.0272Z" fill="#5182A6"/>
<path d="M8.71887 146.027H5.35565V142.664C5.35565 142.297 5.05785 141.999 4.69099 141.999C4.32412 141.999 4.02632 142.297 4.02632 142.664V146.027L0.664669 146.026C0.296268 146.026 0 146.325 0 146.692C0 146.874 0.0737192 147.04 0.19345 147.162C0.314715 147.281 0.480469 147.355 0.664669 147.355H4.02789V150.718C4.02789 150.902 4.10153 151.068 4.22126 151.188C4.34253 151.308 4.50832 151.383 4.69099 151.383C5.05785 151.383 5.35565 151.085 5.35565 150.718V147.355H8.71887C9.08574 147.355 9.38347 147.059 9.38347 146.692C9.38347 146.325 9.08574 146.027 8.71887 146.027Z" fill="#5182A6"/>
</g>
<defs>
<clipPath id="clip0_5750_2579">
<rect width="277" height="323" fill="white"/>
</clipPath>
</defs>
</svg>
