<svg width="23" height="23" viewBox="0 0 23 23" fill="none" xmlns="http://www.w3.org/2000/svg">
<path d="M17.2288 18.6437C15.4837 20.0507 13.3036 20.8069 11.0621 20.7828C8.82062 20.7587 6.65729 19.9558 4.9428 18.5117H7.3808V16.9998H2.4668V21.9188H3.9788V19.6647C5.71851 21.1367 7.87081 22.0347 10.1408 22.2358C10.4862 22.2731 10.8334 22.2921 11.1808 22.2928C12.9358 22.2856 14.6644 21.8653 16.2268 21.0659C17.7891 20.2665 19.1413 19.1105 20.1738 17.6913C21.2064 16.2722 21.8903 14.6299 22.1701 12.8974C22.45 11.1649 22.318 9.39078 21.7848 7.71875L20.3478 8.17275C20.9497 10.0286 20.9737 12.0235 20.4168 13.8933C19.8598 15.7632 18.7481 17.4197 17.2288 18.6437Z" fill="white"/>
<path d="M18.5328 2.78498C16.7043 1.17591 14.3995 0.209446 11.9702 0.0331705C9.54094 -0.143105 7.12072 0.480491 5.0791 1.80874C3.03747 3.13699 1.48664 5.09691 0.663395 7.38923C-0.159852 9.68155 -0.210272 12.1803 0.519831 14.504L1.95183 14.051C1.3206 12.0356 1.36819 9.86868 2.0873 7.88291C2.80641 5.89715 4.1573 4.20223 5.93263 3.0583C7.70796 1.91437 9.80964 1.38464 11.9151 1.55042C14.0205 1.71619 16.0134 2.56831 17.5878 3.97598H15.1308V5.48798H20.0448V0.573983H18.5328V2.78498Z" fill="white"/>
</svg>
